<svg width="48" height="48" viewBox="0 0 48 48" fill="none" xmlns="http://www.w3.org/2000/svg">
<path fill-rule="evenodd" clip-rule="evenodd" d="M12 27V40.5C12 42.984 14.016 45 16.5 45H34.5C36.984 45 39 42.984 39 40.5V7.5C39 5.016 36.984 3 34.5 3H24C23.172 3 22.5 3.672 22.5 4.5C22.5 5.328 23.172 6 24 6H34.5C35.328 6 36 6.672 36 7.5V40.5C36 41.328 35.328 42 34.5 42H16.5C15.672 42 15 41.328 15 40.5V27C15 26.172 14.328 25.5 13.5 25.5C12.672 25.5 12 26.172 12 27ZM19.5 37.5H31.5C32.328 37.5 33 36.828 33 36C33 35.172 32.328 34.5 31.5 34.5H19.5C18.672 34.5 18 35.172 18 36C18 36.828 18.672 37.5 19.5 37.5ZM19.5 31.5H31.5C32.328 31.5 33 30.828 33 30C33 29.172 32.328 28.5 31.5 28.5H19.5C18.672 28.5 18 29.172 18 30C18 30.828 18.672 31.5 19.5 31.5ZM25.5 25.5H31.5C32.328 25.5 33 24.828 33 24C33 23.172 32.328 22.5 31.5 22.5H25.5C24.672 22.5 24 23.172 24 24C24 24.828 24.672 25.5 25.5 25.5ZM13.5 3C7.7055 3 3 7.7055 3 13.5C3 19.2945 7.7055 24 13.5 24C19.2945 24 24 19.2945 24 13.5C24 7.7055 19.2945 3 13.5 3ZM13.5 6C17.64 6 21 9.36 21 13.5C21 17.64 17.64 21 13.5 21C9.36 21 6 17.64 6 13.5C6 9.36 9.36 6 13.5 6ZM28.5 19.5H31.5C32.328 19.5 33 18.828 33 18C33 17.172 32.328 16.5 31.5 16.5H28.5C27.672 16.5 27 17.172 27 18C27 18.828 27.672 19.5 28.5 19.5ZM12 10.5V12H10.5C9.672 12 9 12.672 9 13.5C9 14.328 9.672 15 10.5 15H13.5C14.328 15 15 14.328 15 13.5V10.5C15 9.672 14.328 9 13.5 9C12.672 9 12 9.672 12 10.5ZM28.5 13.5H31.5C32.328 13.5 33 12.828 33 12C33 11.172 32.328 10.5 31.5 10.5H28.5C27.672 10.5 27 11.172 27 12C27 12.828 27.672 13.5 28.5 13.5Z" fill="black"/>
</svg>
