<svg width="48" height="48" viewBox="0 0 48 48" fill="none" xmlns="http://www.w3.org/2000/svg">
<path d="M39.8669 22.7255C39.4123 22.7255 38.9763 22.5449 38.6548 22.2234C38.3333 21.9019 38.1527 21.4658 38.1527 21.0112V16.17C38.1527 9.31289 31.8167 3.82718 24.0269 3.82718C16.2372 3.82718 9.90123 9.38146 9.90123 16.17V21.0112C9.90123 21.4658 9.72062 21.9019 9.39913 22.2234C9.07763 22.5449 8.6416 22.7255 8.18694 22.7255C7.73229 22.7255 7.29625 22.5449 6.97476 22.2234C6.65327 21.9019 6.47266 21.4658 6.47266 21.0112V16.17C6.47266 7.44775 14.3584 0.34375 24.0269 0.34375C33.6955 0.34375 41.5812 7.44775 41.5812 16.17V21.0112C41.5831 21.2368 41.54 21.4606 41.4545 21.6694C41.369 21.8782 41.2428 22.0679 41.0832 22.2274C40.9236 22.387 40.7339 22.5132 40.5251 22.5987C40.3163 22.6842 40.0926 22.7273 39.8669 22.7255Z" fill="#2A2A2A"/>
<path d="M35.2315 38.8518C34.7769 38.8518 34.3408 38.6712 34.0194 38.3497C33.6979 38.0282 33.5173 37.5922 33.5173 37.1375V20.8586C33.5315 20.4136 33.7184 19.9915 34.0383 19.6818C34.3583 19.3721 34.7862 19.199 35.2315 19.1992C41.1424 19.1992 45.9561 23.6289 45.9561 29.0598C45.9561 34.4906 41.1424 38.8518 35.2315 38.8518ZM36.9458 22.7512V35.2449C38.4467 34.9964 39.8174 34.242 40.8303 33.1069C41.8431 31.9718 42.4372 30.5243 42.5138 29.0049C42.4403 27.4831 41.8476 26.0325 40.8344 24.8946C39.8213 23.7567 38.4489 23.0002 36.9458 22.7512ZM12.7675 38.8518C6.85668 38.8518 2.04297 34.4358 2.04297 29.0049C2.04297 23.5741 6.85668 19.1992 12.7675 19.1992C13.2222 19.1992 13.6582 19.3798 13.9797 19.7013C14.3012 20.0228 14.4818 20.4588 14.4818 20.9135V37.1375C14.4818 37.5922 14.3012 38.0282 13.9797 38.3497C13.6582 38.6712 13.2222 38.8518 12.7675 38.8518ZM11.0533 22.7512C9.55018 23.0002 8.17778 23.7567 7.16465 24.8946C6.15152 26.0325 5.55881 27.4831 5.48525 29.0049C5.56186 30.5243 6.15593 31.9718 7.1688 33.1069C8.18167 34.242 9.55238 34.9964 11.0533 35.2449V22.7512Z" fill="#2A2A2A"/>
<path d="M34.6693 44.4348H28.9916C28.537 44.4348 28.1009 44.2542 27.7794 43.9327C27.458 43.6112 27.2773 43.1752 27.2773 42.7205C27.2773 42.2659 27.458 41.8299 27.7794 41.5084C28.1009 41.1869 28.537 41.0063 28.9916 41.0063H34.6693C35.5568 41.0063 36.408 40.6537 37.0355 40.0262C37.6631 39.3986 38.0156 38.5475 38.0156 37.66V36.9057C38.0156 36.451 38.1962 36.015 38.5177 35.6935C38.8392 35.372 39.2753 35.1914 39.7299 35.1914C40.1846 35.1914 40.6206 35.372 40.9421 35.6935C41.2636 36.015 41.4442 36.451 41.4442 36.9057V37.66C41.4442 39.4568 40.7304 41.18 39.4599 42.4505C38.1894 43.7211 36.4661 44.4348 34.6693 44.4348Z" fill="#2A2A2A"/>
<path d="M26.0582 47.6565H22.6708C21.4268 47.6565 20.2338 47.1624 19.3542 46.2828C18.4746 45.4032 17.9805 44.2102 17.9805 42.9662V42.7742C17.9841 41.5327 18.4799 40.3432 19.3591 39.4666C20.2383 38.5899 21.4292 38.0977 22.6708 38.0977H26.0582C27.2985 38.0977 28.488 38.5904 29.365 39.4674C30.242 40.3444 30.7348 41.5339 30.7348 42.7742V42.9662C30.7348 44.2078 30.2425 45.3987 29.3659 46.2779C28.4892 47.1571 27.2997 47.6529 26.0582 47.6565ZM22.6982 41.5262C22.3659 41.5262 22.0471 41.6573 21.8108 41.8909C21.5746 42.1246 21.4401 42.442 21.4365 42.7742V42.9662C21.4365 43.3009 21.5694 43.6218 21.806 43.8584C22.0426 44.095 22.3636 44.2279 22.6982 44.2279H26.0582C26.3904 44.2243 26.7078 44.0898 26.9415 43.8536C27.1752 43.6174 27.3062 43.2985 27.3062 42.9662V42.7742C27.3062 42.4432 27.1747 42.1258 26.9407 41.8918C26.7066 41.6577 26.3892 41.5262 26.0582 41.5262H22.6982Z" fill="#2A2A2A"/>
</svg>
