<svg width="48" height="48" viewBox="0 0 48 48" fill="none" xmlns="http://www.w3.org/2000/svg">
<path d="M45.7496 1.5C41.7068 1.49849 37.7052 2.31167 33.9836 3.891C32.8841 4.386 31.8911 4.956 30.9836 5.484C26.5226 8.0595 22.7411 11.508 19.6406 15.3285C18.9828 15.0456 18.2885 14.8562 17.5781 14.766C15.0131 14.451 12.2486 15.3885 9.65661 17.2035C6.19761 19.623 2.96361 23.616 0.796112 28.6875C0.493112 29.3055 1.45461 30.036 1.96761 29.5785C5.10711 27.144 7.55211 25.842 9.28011 25.5465C10.8776 25.275 11.8511 25.7265 12.6551 26.9535C12.5816 27.126 12.4931 27.297 12.4211 27.468C12.3583 27.6069 12.3382 27.7613 12.3633 27.9117C12.3884 28.062 12.4576 28.2015 12.5621 28.3125L19.6871 35.391C19.8866 35.5995 20.2121 35.676 20.4836 35.5785C20.6546 35.508 20.8286 35.4165 20.9996 35.343C22.2596 36.156 22.6811 37.101 22.4066 38.718C22.1111 40.4475 20.8556 42.8925 18.4211 46.0305C18.0926 46.542 18.6821 47.328 19.2656 47.1555C24.3356 44.9895 28.3766 41.8005 30.7961 38.343C33.1001 35.0535 33.9506 31.464 32.6711 28.4055C37.0406 24.909 40.9391 20.5155 43.5941 15.2805C43.9961 14.5845 43.9751 14.403 44.2031 13.9215C45.7268 10.2193 46.5071 6.25348 46.4996 2.25C46.4922 2.05346 46.4108 1.86698 46.2717 1.7279C46.1326 1.58883 45.9462 1.50743 45.7496 1.5ZM44.9051 3.0945C44.8164 6.26383 44.2151 9.39788 43.1246 12.375L35.6246 4.875C38.6003 3.77717 41.736 3.17517 44.9066 3.093L44.9051 3.0945ZM34.1246 5.4825L42.5621 13.92L41.9051 15.186L32.8121 6.186C33.5711 5.748 33.6731 5.7285 34.1246 5.4825ZM31.4531 6.9825L41.1551 16.545C36.9101 23.703 30.2051 29.094 23.4851 32.529C22.6136 32.9655 21.7346 33.396 20.8121 33.795C20.6621 33.861 20.4941 33.9195 20.3426 33.9825L14.0156 27.6075C17.2736 19.923 23.1881 11.8665 31.4531 6.9825ZM30.7031 14.2485C30.2668 14.2502 29.8351 14.3379 29.4328 14.5068C29.0304 14.6756 28.6654 14.9223 28.3586 15.2325C27.0686 16.5225 27.0686 18.6315 28.3586 19.92C29.6486 21.21 31.7576 21.21 33.0461 19.92C34.3361 18.63 34.3361 16.5225 33.0461 15.2325C32.7395 14.9229 32.3749 14.6768 31.9732 14.5082C31.5714 14.3396 31.1403 14.2519 30.7046 14.25L30.7031 14.2485ZM30.7031 15.7485C31.1696 15.7485 31.6571 15.906 32.0156 16.2645C32.1859 16.4332 32.3211 16.6341 32.4133 16.8554C32.5056 17.0766 32.5531 17.314 32.5531 17.5538C32.5531 17.7935 32.5056 18.0309 32.4133 18.2522C32.3211 18.4734 32.1859 18.6743 32.0156 18.843C31.6655 19.1873 31.1941 19.3802 30.7031 19.3802C30.2121 19.3802 29.7407 19.1873 29.3906 18.843C29.2201 18.6742 29.0847 18.4733 28.9923 18.2519C28.8999 18.0305 28.8524 17.7929 28.8524 17.553C28.8524 17.3131 28.8999 17.0755 28.9923 16.8541C29.0847 16.6327 29.2201 16.4318 29.3906 16.263C29.7428 15.9245 30.2148 15.7395 30.7031 15.7485ZM16.0301 16.2645C16.8761 16.275 17.6891 16.4835 18.4691 16.7325C17.8856 17.5335 17.3336 18.4035 16.7801 19.2645C16.4186 19.8165 16.0391 20.3925 15.7031 20.952C15.1926 21.8286 14.7079 22.72 14.2496 23.625C13.9241 24.252 13.6511 24.873 13.3586 25.5C13.3346 25.5525 13.2896 25.59 13.2656 25.641C12.1766 24.471 10.7921 23.796 9.04611 24.093C7.54161 24.3495 5.75211 25.314 3.79611 26.5785C5.72961 23.13 8.00211 20.1705 10.4996 18.42C12.0851 17.31 13.6781 16.584 15.1871 16.311C15.4664 16.2675 15.7478 16.2519 16.0301 16.2645ZM11.1551 29.1555L10.6406 30.045L9.28011 32.577L9.04611 33.045L9.42111 33.468L14.6246 38.625L15.0461 39L15.5156 38.718L17.9531 37.3125L18.7961 36.7965L18.0926 36.141L11.8586 29.859L11.1551 29.1555ZM31.2656 29.5305C32.0201 31.9005 31.5506 34.68 29.5781 37.4985C27.8276 39.999 24.8726 42.2685 21.4211 44.202C22.6901 42.24 23.6486 40.4595 23.9051 38.952C24.2006 37.218 23.5106 35.82 22.3601 34.7325C23.1701 34.359 23.9846 33.99 24.7961 33.561C25.5569 33.1585 26.3072 32.7364 27.0461 32.295C28.4982 31.4451 29.9065 30.5224 31.2656 29.5305ZM11.4836 31.6395L16.3586 36.4665L15.2801 37.1235L10.8746 32.7645L11.4836 31.6395ZM8.67111 35.7645L5.10861 39.327L5.85861 40.029L9.37461 36.4665L8.67111 35.7645ZM10.1246 37.17L4.40511 42.8895L5.11011 43.5915L10.8281 37.8735L10.1246 37.17ZM11.5316 38.6235L7.26561 42.8895L7.96761 43.5915L12.2336 39.327L11.5316 38.6235ZM4.40661 40.0305L3.70161 40.7325L4.40661 41.436L5.10861 40.7325L4.40661 40.0305ZM3.70161 43.593L2.99961 44.295L3.70311 44.9985L4.40661 44.295L3.70161 43.593ZM6.56211 43.593L5.85861 44.295L6.56211 44.9985L7.26561 44.295L6.56211 43.593Z" fill="#2A2A2A"/>
</svg>
