<svg width="48" height="48" viewBox="0 0 48 48" fill="none" xmlns="http://www.w3.org/2000/svg">
<path d="M24 4C12.9727 4 4 12.9727 4 24C4 35.0273 12.9727 44 24 44C35.0273 44 44 35.0273 44 24C44 12.9727 35.0273 4 24 4ZM25 6.06055C34.1208 6.56421 41.4296 13.906 41.9194 23.0312H25V6.06055ZM24 42C14.0742 42 6 33.9258 6 24C6 14.4117 13.5404 6.57422 23 6.05066V24C23 24.1758 23.0469 24.3477 23.1348 24.5L32.1102 40.0477C29.6696 41.2863 26.9193 42 24 42ZM33.834 39.0352L25.7498 25.0312H41.9014C41.571 30.6984 38.5863 35.9233 33.834 39.0352Z" fill="#2A2A2A"/>
</svg>
