<svg width="48" height="48" viewBox="0 0 48 48" fill="none" xmlns="http://www.w3.org/2000/svg">
<path d="M24.0028 36.8399C23.1181 36.8412 22.2612 37.1492 21.5781 37.7113C20.895 38.2735 20.4278 39.0551 20.2562 39.923C20.0846 40.7908 20.2192 41.6914 20.637 42.4712C21.0548 43.251 21.73 43.8619 22.5476 44.1998C23.3652 44.5378 24.2747 44.5818 25.1211 44.3245C25.9675 44.0672 26.6986 43.5244 27.1898 42.7886C27.681 42.0528 27.902 41.1695 27.8151 40.2891C27.7282 39.4087 27.3388 38.5856 26.7132 37.9601C26.3579 37.6034 25.9354 37.3208 25.4702 37.1285C25.005 36.9362 24.5062 36.8381 24.0028 36.8399ZM25.3874 42.0551C25.0669 42.3776 24.6444 42.5789 24.192 42.6247C23.7397 42.6704 23.2854 42.5579 22.9068 42.3061C22.5282 42.0544 22.2486 41.6791 22.1158 41.2443C21.9829 40.8094 22.0051 40.342 22.1785 39.9216C22.3518 39.5013 22.6656 39.1541 23.0664 38.9393C23.4671 38.7245 23.93 38.6554 24.376 38.7438C24.822 38.8321 25.2235 39.0725 25.5121 39.4239C25.8007 39.7752 25.9584 40.2158 25.9584 40.6705C25.9595 40.9276 25.9096 41.1823 25.8116 41.42C25.7136 41.6576 25.5694 41.8735 25.3874 42.0551Z" fill="#2A2A2A"/>
<path d="M40.5965 36.8399C39.7119 36.8412 38.855 37.1492 38.1719 37.7113C37.4888 38.2734 37.0217 39.0549 36.85 39.9228C36.6784 40.7906 36.8129 41.6911 37.2306 42.4709C37.6483 43.2508 38.3234 43.8617 39.141 44.1997C39.9585 44.5377 40.8679 44.5818 41.7144 44.3247C42.5608 44.0675 43.2919 43.5248 43.7833 42.7891C44.2746 42.0534 44.4957 41.1702 44.4089 40.2898C44.3222 39.4094 43.9329 38.5863 43.3075 37.9607C42.9523 37.6036 42.5298 37.3207 42.0644 37.1283C41.5991 36.9359 41.1001 36.8379 40.5965 36.8399ZM41.9806 42.0557C41.6599 42.3779 41.2373 42.579 40.785 42.6245C40.3326 42.67 39.8785 42.5572 39.5 42.3053C39.1215 42.0534 38.8422 41.678 38.7096 41.2432C38.5769 40.8083 38.5993 40.3409 38.7728 39.9207C38.9463 39.5004 39.2602 39.1534 39.661 38.9387C40.0617 38.7241 40.5246 38.6551 40.9705 38.7436C41.4164 38.8321 41.8179 39.0725 42.1064 39.4239C42.3949 39.7753 42.5525 40.2159 42.5524 40.6705C42.5537 40.9278 42.5038 41.1827 42.4056 41.4205C42.3074 41.6583 42.1629 41.8742 41.9806 42.0557Z" fill="#2A2A2A"/>
<path d="M7.40903 36.8399C6.52438 36.8412 5.66754 37.1492 4.98443 37.7113C4.30131 38.2734 3.83417 39.0549 3.66253 39.9228C3.49089 40.7906 3.62538 41.6911 4.0431 42.4709C4.46081 43.2508 5.13592 43.8617 5.95347 44.1997C6.77101 44.5377 7.68044 44.5818 8.52688 44.3247C9.37332 44.0675 10.1044 43.5248 10.5958 42.7891C11.0871 42.0534 11.3082 41.1702 11.2214 40.2898C11.1347 39.4094 10.7454 38.5863 10.12 37.9607C9.76484 37.6036 9.34231 37.3207 8.87694 37.1283C8.41156 36.9359 7.91261 36.8379 7.40903 36.8399ZM8.79307 42.0557C8.47238 42.3779 8.04983 42.579 7.59748 42.6245C7.14512 42.67 6.69099 42.5572 6.31251 42.3053C5.93404 42.0534 5.65467 41.678 5.52205 41.2432C5.38943 40.8083 5.41178 40.3409 5.58527 39.9207C5.75877 39.5004 6.07267 39.1534 6.47345 38.9387C6.87423 38.7241 7.33705 38.6551 7.783 38.7436C8.22895 38.8321 8.63039 39.0725 8.91888 39.4239C9.20736 39.7753 9.36501 40.2159 9.36494 40.6705C9.36619 40.9278 9.31628 41.1827 9.2181 41.4205C9.11992 41.6583 8.97544 41.8742 8.79307 42.0557Z" fill="#2A2A2A"/>
<path d="M7.78135 34.4995C8.02999 34.4995 8.26845 34.4008 8.44426 34.2249C8.62008 34.0491 8.71885 33.8107 8.71885 33.562V28.6073C8.71551 28.4851 8.73642 28.3635 8.78037 28.2494C8.82431 28.1353 8.89043 28.031 8.9749 27.9427C9.05936 27.8543 9.16051 27.7835 9.27248 27.7344C9.38446 27.6853 9.50505 27.6589 9.62729 27.6567H23.0626V33.562C23.0626 33.8107 23.1614 34.0491 23.3372 34.2249C23.513 34.4008 23.7515 34.4995 24.0001 34.4995C24.2487 34.4995 24.4872 34.4008 24.663 34.2249C24.8388 34.0491 24.9376 33.8107 24.9376 33.562V27.6567H38.3532C38.6022 27.6604 38.8395 27.7624 39.0134 27.9405C39.1874 28.1187 39.2837 28.3584 39.2813 28.6073V33.562C39.2813 33.8107 39.3801 34.0491 39.5559 34.2249C39.7318 34.4008 39.9702 34.4995 40.2188 34.4995C40.4675 34.4995 40.7059 34.4008 40.8818 34.2249C41.0576 34.0491 41.1563 33.8107 41.1563 33.562V28.6073C41.1581 27.8613 40.8641 27.145 40.3386 26.6153C39.8132 26.0857 39.0993 25.7859 38.3532 25.7817H24.9376V19.3008C24.9376 19.0521 24.8388 18.8137 24.663 18.6379C24.4872 18.4621 24.2487 18.3633 24.0001 18.3633C23.7515 18.3633 23.513 18.4621 23.3372 18.6379C23.1614 18.8137 23.0626 19.0521 23.0626 19.3008V25.7817H9.62729C9.2589 25.7842 8.89462 25.8593 8.55528 26.0027C8.21594 26.146 7.9082 26.3549 7.64967 26.6174C7.39115 26.8798 7.1869 27.1907 7.04863 27.5321C6.91036 27.8736 6.84077 28.239 6.84385 28.6073V33.562C6.84385 33.8107 6.94262 34.0491 7.11844 34.2249C7.29425 34.4008 7.53271 34.4995 7.78135 34.4995Z" fill="#2A2A2A"/>
<path d="M24 15.9719C25.2353 15.973 26.4433 15.6076 27.4709 14.922C28.4986 14.2363 29.2997 13.2612 29.773 12.1201C30.2463 10.979 30.3704 9.7231 30.1296 8.51141C29.8889 7.29972 29.2941 6.18667 28.4206 5.31313C27.547 4.43959 26.434 3.84481 25.2223 3.60408C24.0106 3.36334 22.7547 3.48746 21.6136 3.96073C20.4725 4.434 19.4974 5.23515 18.8118 6.26279C18.1261 7.29043 17.7607 8.49837 17.7618 9.73375C17.7567 10.5544 17.9146 11.3679 18.2263 12.127C18.538 12.8862 18.9973 13.5759 19.5776 14.1561C20.1578 14.7364 20.8476 15.1957 21.6067 15.5074C22.3659 15.8191 23.1793 15.977 24 15.9719ZM20.911 6.64478C21.6245 5.92876 22.5642 5.48232 23.57 5.38154C24.5758 5.28077 25.5855 5.53189 26.4269 6.09213C27.2682 6.65236 27.8893 7.48703 28.1843 8.45389C28.4792 9.42074 28.4297 10.46 28.0442 11.3944C27.6588 12.3289 26.9612 13.1008 26.0704 13.5785C25.1796 14.0563 24.1507 14.2103 23.159 14.0145C22.1673 13.8186 21.2743 13.2849 20.632 12.5043C19.9897 11.7237 19.638 10.7446 19.6368 9.73375C19.6344 9.1602 19.7458 8.59186 19.9645 8.06164C20.1832 7.53141 20.5049 7.04984 20.911 6.64478Z" fill="#2A2A2A"/>
</svg>
