<svg width="48" height="48" viewBox="0 0 48 48" fill="none" xmlns="http://www.w3.org/2000/svg">
<path d="M40 32.0012C38.7586 32.0076 37.5497 32.3989 36.54 33.1212L31.64 30.2212C31.8712 29.5036 31.9926 28.7551 32 28.0012C31.9943 26.2321 31.4023 24.5148 30.3166 23.1179C29.231 21.7211 27.713 20.7235 26 20.2812V15.6412C27.3344 15.1694 28.4591 14.2411 29.1753 13.0203C29.8914 11.7994 30.1529 10.3648 29.9136 8.96976C29.6743 7.57477 28.9495 6.3093 27.8673 5.39702C26.7852 4.48473 25.4154 3.98438 24 3.98438C22.5846 3.98437 21.2148 4.48473 20.1327 5.39702C19.0505 6.3093 18.3258 7.57477 18.0864 8.96976C17.8471 10.3648 18.1086 11.7994 18.8247 13.0203C19.5409 14.2411 20.6656 15.1694 22 15.6412V20.2812C20.2871 20.7235 18.769 21.7211 17.6834 23.1179C16.5977 24.5148 16.0057 26.2321 16 28.0012C16.0074 28.7551 16.1288 29.5036 16.36 30.2212L11.46 33.1212C10.4503 32.3989 9.24143 32.0076 8 32.0012C6.81331 32.0012 5.65328 32.3531 4.66658 33.0124C3.67989 33.6717 2.91085 34.6088 2.45673 35.7051C2.0026 36.8015 1.88378 38.0079 2.11529 39.1718C2.3468 40.3357 2.91825 41.4048 3.75736 42.2439C4.59648 43.083 5.66558 43.6544 6.82946 43.8859C7.99335 44.1175 9.19975 43.9986 10.2961 43.5445C11.3925 43.0904 12.3295 42.3213 12.9888 41.3346C13.6481 40.348 14 39.1879 14 38.0012C13.9926 37.4595 13.9119 36.9213 13.76 36.4012L18.36 33.6612C19.8589 35.1512 21.8865 35.9876 24 35.9876C26.1135 35.9876 28.1411 35.1512 29.64 33.6612L34.24 36.4012C33.9049 37.6124 33.9585 38.8983 34.3934 40.0774C34.8283 41.2565 35.6224 42.2692 36.6637 42.9728C37.705 43.6763 38.9409 44.0352 40.1971 43.9986C41.4533 43.9621 42.6663 43.5321 43.665 42.7692C44.6637 42.0063 45.3976 40.9491 45.7632 39.7468C46.1288 38.5444 46.1077 37.2576 45.7028 36.0679C45.2978 34.8782 44.5296 33.8457 43.5064 33.1161C42.4832 32.3864 41.2567 31.9965 40 32.0012ZM8 40.0012C7.60444 40.0012 7.21776 39.8839 6.88886 39.6642C6.55996 39.4444 6.30362 39.132 6.15224 38.7666C6.00087 38.4011 5.96126 37.999 6.03843 37.611C6.1156 37.2231 6.30608 36.8667 6.58579 36.587C6.86549 36.3073 7.22186 36.1168 7.60982 36.0397C7.99778 35.9625 8.39992 36.0021 8.76537 36.1535C9.13082 36.3048 9.44318 36.5612 9.66294 36.8901C9.8827 37.219 10 37.6057 10 38.0012C10 38.5317 9.78929 39.0404 9.41422 39.4154C9.03914 39.7905 8.53044 40.0012 8 40.0012ZM24 8.00123C24.3956 8.00123 24.7822 8.11853 25.1111 8.33829C25.44 8.55805 25.6964 8.87041 25.8478 9.23586C25.9991 9.60132 26.0387 10.0034 25.9616 10.3914C25.8844 10.7794 25.6939 11.1357 25.4142 11.4154C25.1345 11.6951 24.7781 11.8856 24.3902 11.9628C24.0022 12.04 23.6001 12.0004 23.2346 11.849C22.8692 11.6976 22.5568 11.4413 22.3371 11.1124C22.1173 10.7835 22 10.3968 22 10.0012C22 9.4708 22.2107 8.96209 22.5858 8.58702C22.9609 8.21194 23.4696 8.00123 24 8.00123ZM24 32.0012C23.2089 32.0012 22.4355 31.7666 21.7777 31.3271C21.1199 30.8876 20.6072 30.2629 20.3045 29.532C20.0017 28.8011 19.9225 27.9968 20.0769 27.2209C20.2312 26.4449 20.6122 25.7322 21.1716 25.1728C21.731 24.6134 22.4437 24.2324 23.2196 24.0781C23.9956 23.9237 24.7998 24.003 25.5307 24.3057C26.2616 24.6085 26.8864 25.1212 27.3259 25.7789C27.7654 26.4367 28 27.2101 28 28.0012C28 29.0621 27.5786 30.0795 26.8284 30.8297C26.0783 31.5798 25.0609 32.0012 24 32.0012ZM40 40.0012C39.6044 40.0012 39.2178 39.8839 38.8889 39.6642C38.56 39.4444 38.3036 39.132 38.1522 38.7666C38.0009 38.4011 37.9613 37.999 38.0384 37.611C38.1156 37.2231 38.3061 36.8667 38.5858 36.587C38.8655 36.3073 39.2219 36.1168 39.6098 36.0397C39.9978 35.9625 40.3999 36.0021 40.7654 36.1535C41.1308 36.3048 41.4432 36.5612 41.6629 36.8901C41.8827 37.219 42 37.6057 42 38.0012C42 38.5317 41.7893 39.0404 41.4142 39.4154C41.0391 39.7905 40.5304 40.0012 40 40.0012Z" fill="#2A2A2A"/>
</svg>
