<svg width="48" height="48" viewBox="0 0 48 48" fill="none" xmlns="http://www.w3.org/2000/svg">
<path d="M38.1756 25.9494C38.1756 33.759 31.8252 40.1094 24.0156 40.1094C21.6684 40.1094 19.3404 39.519 17.2812 38.4054C16.9308 38.2182 16.8012 37.7814 16.9932 37.431C17.1804 37.0806 17.6172 36.951 17.9676 37.143C19.6044 38.031 21.4332 38.5446 23.3004 38.6502V37.4742C23.3004 37.0758 23.622 36.7542 24.0204 36.7542C24.4188 36.7542 24.7404 37.0758 24.7404 37.4742V38.6502C31.182 38.2902 36.3564 33.1158 36.7164 26.6742H35.5404C35.142 26.6742 34.8204 26.3526 34.8204 25.9542C34.8204 25.5558 35.142 25.2342 35.5404 25.2342H36.7164C36.6108 23.3718 36.0972 21.543 35.2092 19.9014C35.022 19.551 35.1516 19.1142 35.4972 18.927C35.8476 18.7398 36.2844 18.8694 36.4716 19.215C37.5852 21.2694 38.1756 23.6022 38.1756 25.9494ZM42.0156 25.9494C42.0156 35.8758 33.942 43.9494 24.0156 43.9494C14.0892 43.9494 6.01562 35.8758 6.01562 25.9494C6.01562 17.2566 12.2076 9.98457 20.4156 8.30937V7.70937C20.4156 5.72217 22.0284 4.10938 24.0156 4.10938C26.0028 4.10938 27.6156 5.72217 27.6156 7.70937V8.30937C35.8188 9.98457 42.0156 17.2566 42.0156 25.9494ZM40.5756 25.9494C40.5756 16.8198 33.1452 9.38937 24.0156 9.38937C14.886 9.38937 7.45562 16.8198 7.45562 25.9494C7.45562 35.079 14.886 42.5094 24.0156 42.5094C33.1452 42.5094 40.5756 35.079 40.5756 25.9494ZM12.4956 25.2294H11.3196C11.6796 18.7878 16.854 13.6134 23.2956 13.2534V14.4294C23.2956 14.8278 23.6172 15.1494 24.0156 15.1494C24.414 15.1494 24.7356 14.8278 24.7356 14.4294V13.2534C26.598 13.359 28.4268 13.8726 30.0684 14.7606C30.4188 14.9478 30.8556 14.8182 31.0428 14.4726C31.23 14.127 31.1004 13.6854 30.7548 13.4982C28.6956 12.3846 26.3676 11.7942 24.0204 11.7942C16.2108 11.7942 9.86043 18.1446 9.86043 25.9542C9.86043 28.3014 10.4508 30.6342 11.5644 32.6886C11.694 32.9286 11.9436 33.0678 12.198 33.0678C12.3132 33.0678 12.4332 33.039 12.5388 32.9814C12.8892 32.7942 13.0188 32.3574 12.8268 32.007C11.9388 30.3702 11.4252 28.5414 11.3196 26.6742H12.4956C12.894 26.6742 13.2156 26.3526 13.2156 25.9542C13.2156 25.5558 12.8892 25.2294 12.4956 25.2294ZM27.078 29.295L14.862 36.0822C14.7516 36.1446 14.6316 36.1734 14.5116 36.1734C14.3244 36.1734 14.142 36.1014 14.0028 35.9622C13.7772 35.7366 13.7244 35.3862 13.8828 35.103L20.67 22.8822C20.6748 22.8726 20.6844 22.863 20.6892 22.8534C20.7036 22.8294 20.7228 22.8054 20.7372 22.7814C20.7564 22.7622 20.7708 22.7382 20.79 22.719C20.8092 22.6998 20.8284 22.6806 20.8524 22.6662C20.8764 22.647 20.8956 22.6326 20.9244 22.6182C20.934 22.6134 20.9436 22.6038 20.9532 22.599L33.1692 15.8166C33.4524 15.6582 33.8028 15.711 34.0284 15.9366C34.254 16.1622 34.3068 16.5126 34.1484 16.7958L27.3564 29.0118C27.3516 29.0214 27.342 29.031 27.3372 29.0406C27.3228 29.0646 27.3036 29.0886 27.2892 29.1126C27.27 29.1318 27.2556 29.1558 27.2364 29.175C27.2172 29.1942 27.198 29.2134 27.174 29.2278C27.15 29.247 27.1308 29.2614 27.102 29.2758C27.0972 29.2806 27.0876 29.2902 27.078 29.295ZM22.4844 23.4006L26.5644 27.4806L31.6668 18.2982L22.4844 23.4006Z" fill="#2A2A2A"/>
</svg>
