<svg width="48" height="48" viewBox="0 0 48 48" fill="none" xmlns="http://www.w3.org/2000/svg">
<path fill-rule="evenodd" clip-rule="evenodd" d="M34.63 15.8896C35.4547 14.4559 34.9643 12.6268 33.533 11.7974C29.8943 9.6888 21.4643 4.80356 17.815 2.68876C17.1249 2.28885 16.3042 2.1801 15.5334 2.38635C14.7637 2.59321 14.1082 3.09683 13.7104 3.78847C11.8018 7.10656 7.66095 14.3056 5.75749 17.6149C4.93352 19.0474 5.42327 20.8777 6.85344 21.7065C10.4932 23.8157 18.9232 28.701 22.5725 30.8158C23.2615 31.2151 24.0822 31.3238 24.853 31.1176C25.6228 30.9107 26.28 30.4064 26.6771 29.7161C28.5864 26.3967 32.7265 19.1989 34.63 15.8896ZM32.896 14.8915C30.9926 18.2008 26.8517 25.3998 24.9431 28.7179C24.8103 28.9489 24.5918 29.1168 24.3355 29.1853C24.0784 29.2551 23.805 29.2178 23.5753 29.0847L7.85623 19.9754C7.37986 19.6994 7.21601 19.0895 7.49043 18.6124C9.39462 15.3019 13.5348 8.10407 15.4433 4.78599C15.5762 4.55502 15.7947 4.38715 16.0517 4.31736C16.3081 4.24882 16.5822 4.28486 16.8119 4.41796L32.531 13.5272C33.0084 13.8039 33.1704 14.4144 32.896 14.8915Z" fill="#2A2A2A"/>
<path fill-rule="evenodd" clip-rule="evenodd" d="M14.796 3.50055L12.917 2.41167C12.2269 2.01173 11.4064 1.90267 10.6355 2.10921C9.86603 2.31535 9.20945 2.82004 8.81211 3.51083L3.06973 13.4942C2.24521 14.9277 2.73598 16.757 4.16602 17.5857C5.0744 18.1121 6.00095 18.6491 6.00095 18.6491C6.47859 18.9259 7.09141 18.7635 7.36758 18.2856C7.6447 17.8082 7.48126 17.1959 7.00362 16.9192C7.00362 16.9192 6.07707 16.3822 5.16869 15.8558C4.69201 15.5796 4.52842 14.9698 4.80363 14.4913L10.546 4.50796C10.6781 4.27833 10.8977 4.10966 11.1538 4.04159C11.4104 3.97256 11.6846 4.00845 11.9143 4.14158L13.7933 5.23045C14.2709 5.50724 14.8838 5.34486 15.1599 4.86695C15.4371 4.3896 15.2736 3.77735 14.796 3.50055Z" fill="#2A2A2A"/>
<path fill-rule="evenodd" clip-rule="evenodd" d="M33.3508 16.5675L35.2499 17.6681C35.7266 17.9443 35.8902 18.5541 35.6149 19.0325L29.8726 29.0159C29.7405 29.2455 29.5209 29.4142 29.2648 29.4823C29.0081 29.5513 28.7349 29.516 28.5043 29.3823L26.4989 28.2202C26.0223 27.9439 25.4094 28.1063 25.1333 28.5842C24.8561 29.0616 25.0196 29.6738 25.4972 29.9506L27.5016 31.1122C28.1917 31.5121 29.0121 31.6212 29.7831 31.4146C30.5525 31.2085 31.2091 30.7038 31.6065 30.013L37.3488 20.0297C38.1734 18.5962 37.6826 16.7669 36.2526 15.9381L34.3535 14.8376C33.8759 14.5608 33.264 14.7238 32.9869 15.2011C32.7107 15.679 32.8732 16.2907 33.3508 16.5675Z" fill="#2A2A2A"/>
<path fill-rule="evenodd" clip-rule="evenodd" d="M13.8224 23.4359C13.5924 23.3024 13.3194 23.2662 13.0624 23.3345C12.8054 23.4038 12.5874 23.5714 12.4544 23.8022C12.4544 23.8022 5.1224 36.5497 2.4014 41.2784C1.5744 42.7167 2.06639 44.5546 3.49939 45.3847C3.62039 45.4549 3.74242 45.5262 3.86442 45.5964C5.29942 46.4285 7.13539 45.9357 7.96439 44.4943L18.0164 27.0182C18.2914 26.5404 18.1284 25.9302 17.6514 25.6541L13.8224 23.4359ZM13.6884 25.6692L15.7864 26.8847L6.23041 43.4976C5.95441 43.9774 5.3444 44.143 4.8664 43.866C4.7454 43.7957 4.62342 43.7245 4.50242 43.6542C4.02142 43.3762 3.85841 42.7589 4.13541 42.2761L13.6884 25.6692Z" fill="#2A2A2A"/>
<path fill-rule="evenodd" clip-rule="evenodd" d="M46.0001 40C46.0001 38.344 44.655 37 42.9995 37H30.9995C29.344 37 28 38.344 28 40C28 41.656 29.344 43 30.9995 43H42.9995C44.655 43 46.0001 41.656 46.0001 40ZM44 40C44 40.552 43.551 41 42.9995 41H30.9995C30.448 41 30 40.552 30 40C30 39.448 30.448 39 30.9995 39H42.9995C43.551 39 44 39.448 44 40Z" fill="#2A2A2A"/>
<path fill-rule="evenodd" clip-rule="evenodd" d="M31.9992 38V36C31.9992 35.448 32.4468 35 33 35H40.9992C41.5524 35 42 35.448 42 36C42 37 42 38 42 38C42 38.552 42.4476 39 42.9996 39C43.5516 39 43.9992 38.552 43.9992 38C43.9992 38 43.9992 37 43.9992 36C43.9992 34.343 42.6564 33 40.9992 33H33C31.3428 33 30 34.343 30 36V38C30 38.552 30.4476 39 30.9996 39C31.5516 39 31.9992 38.552 31.9992 38Z" fill="#2A2A2A"/>
</svg>
