<svg width="60" height="99" viewBox="0 0 60 99" fill="none" xmlns="http://www.w3.org/2000/svg">
<g filter="url(#filter0_d_1572_4493)">
<path d="M37.3389 84.3311C37.4142 84.4406 37.4978 84.5486 37.5918 84.6533C37.5448 84.601 37.5001 84.5478 37.458 84.4941L37.3389 84.3311ZM24.2119 6.50391C26.5122 7.80589 29.5154 11.1717 30.7041 13.4766C32.6488 17.2477 32.5505 21.4142 31.3018 25.3809C31.3884 26.6979 29.9472 27.5854 30.0127 28.3604C30.0439 28.7303 30.266 29.1346 30.3584 29.5293L30.3887 29.6982C30.3328 29.2514 30.0486 28.7841 30.0127 28.3613C29.9468 27.5862 31.3876 26.6983 31.3008 25.3809C29.3844 29.0417 28.106 29.7486 25.5771 32.5234C26.3344 34.3272 26.7791 35.9692 27.0068 37.8438L27.0918 38.6631C27.0558 41.5774 26.4181 43.52 25.7715 46.2812C29.2411 48.1871 31.3904 51.2555 32.4912 55.0264C32.7912 56.053 33.0505 57.0868 33.2051 58.1465C37.7702 58.5422 40.496 59.1809 44.0107 62.3096C45.0322 63.2188 46.0461 64.1689 46.9248 65.2207C48.813 67.4808 50.0785 70.4073 49.8076 73.4062C49.6861 74.7503 49.1027 75.8024 48.7773 77.0254L48.7158 77.2725C47.4495 78.9522 46.1339 80.4154 44.1826 81.2754C42.3593 82.0786 38.8144 82.9868 36.9004 82.1895C36.4209 81.9894 36.0201 81.6197 35.833 81.126C35.7228 80.835 35.7576 80.5118 35.8926 80.2354C36.648 78.6869 40.5411 78.972 42.2061 78.3916C43.7272 77.8611 45.1494 76.8161 45.8574 75.3291C46.8085 73.3316 46.3942 70.9723 45.7031 68.9707C44.5567 69.8168 43.5173 70.8054 42.3623 71.6445C39.5777 73.6677 36.2087 74.4415 32.8115 74.1514C27.3879 73.6879 23.8489 70.1451 20.5508 66.1953C21.5087 64.822 22.755 63.4507 24.1113 62.4785C21.2846 61.7495 18.821 60.7663 16.3965 59.124V59.123C15.7478 58.473 14.9967 57.8934 14.4033 57.1914C11.8349 54.1521 11.1528 50.2923 10.418 46.5049C12.1064 45.7957 13.9889 45.479 15.6133 44.6406C13.7073 43.4165 12.2652 41.758 11.2881 39.709C8.88125 34.6613 10.2741 30.097 12.0088 25.1426C13.956 25.4165 15.8735 25.7877 17.7578 26.3584C16.7397 23.8861 16.3192 21.2056 16.5322 18.5381C16.9952 13.2066 20.3475 9.755 24.2119 6.50391ZM30.4404 81.3057C30.4255 81.291 30.41 81.2764 30.3955 81.2607L30.3193 81.1729C30.3582 81.2216 30.3991 81.2651 30.4404 81.3057ZM48.5566 78.3613L48.5859 78.1738C48.5915 78.144 48.5976 78.1144 48.6035 78.085C48.5854 78.1751 48.5679 78.2667 48.5566 78.3613ZM48.6035 78.085C48.6265 77.9704 48.6512 77.8581 48.6729 77.7461C48.6512 77.8581 48.6265 77.9704 48.6035 78.085ZM30.2549 76.209C30.1933 76.4727 30.1339 76.744 30.0781 77.0156L29.9238 77.8252C30.0171 77.2933 30.1317 76.7357 30.2549 76.208V76.209ZM30.7695 74.3672C30.6662 74.6626 30.5536 75.0334 30.4443 75.4463L30.6357 74.7705C30.6804 74.6244 30.7266 74.4895 30.7695 74.3672ZM30.8564 74.1279C30.8444 74.159 30.832 74.1906 30.8203 74.2217C30.8031 74.2676 30.7873 74.3166 30.7695 74.3672C30.7873 74.3163 30.803 74.2669 30.8203 74.2207C30.832 74.1896 30.8435 74.158 30.8555 74.127L30.8564 74.1279ZM25.5371 71.665C25.5683 71.6875 25.5999 71.7094 25.6309 71.7314C25.5997 71.7093 25.5675 71.6877 25.5361 71.665L25.3281 71.5068C25.4088 71.5702 25.4796 71.6235 25.5371 71.665ZM20.4883 65.8145C20.4298 65.9424 20.3834 66.0698 20.3506 66.1953C20.3834 66.0695 20.4296 65.9417 20.4883 65.8135V65.8145ZM20.9424 65.0693L21.1348 64.8223C21.1503 64.8032 21.1668 64.7846 21.1826 64.7656C21.0989 64.8665 21.0179 64.9676 20.9424 65.0693ZM23.3027 62.6523C23.0613 62.8875 22.762 63.1618 22.4453 63.46C22.7618 63.1616 23.0604 62.8865 23.3018 62.6514L23.3027 62.6523ZM16.5947 59.4346C16.644 59.5011 16.6986 59.5651 16.7549 59.6289C16.741 59.6132 16.7253 59.5989 16.7119 59.583L16.5947 59.4346ZM27.2588 37.8418C27.2565 37.9398 27.2483 38.0383 27.2314 38.1377L27.1992 38.2871C27.2249 38.1871 27.241 38.0878 27.25 37.9893L27.2588 37.8418ZM29.5625 33.1729C28.9644 33.9673 27.1934 35.2063 27.1016 35.9707C27.0555 36.3546 27.1317 36.7333 27.1934 37.1162L27.2344 37.4043C27.1768 36.9227 27.0432 36.4513 27.1006 35.9717C27.1921 35.207 28.9649 33.9673 29.5625 33.1729ZM30.4014 29.8555C30.4382 30.7009 30.0817 32.3772 29.6885 32.9883C29.6787 33.0035 29.6688 33.0188 29.6592 33.0342C29.6686 33.0189 29.6778 33.0034 29.6875 32.9883C30.0545 32.418 30.3902 30.9198 30.4033 30.0352L30.4014 29.8555Z" fill="white"/>
</g>
<defs>
<filter id="filter0_d_1572_4493" x="0" y="0.503906" width="59.8438" height="98.1484" filterUnits="userSpaceOnUse" color-interpolation-filters="sRGB">
<feFlood flood-opacity="0" result="BackgroundImageFix"/>
<feColorMatrix in="SourceAlpha" type="matrix" values="0 0 0 0 0 0 0 0 0 0 0 0 0 0 0 0 0 0 127 0" result="hardAlpha"/>
<feOffset dy="4"/>
<feGaussianBlur stdDeviation="5"/>
<feComposite in2="hardAlpha" operator="out"/>
<feColorMatrix type="matrix" values="0 0 0 0 0.25539 0 0 0 0 0.25539 0 0 0 0 0.25539 0 0 0 0.25 0"/>
<feBlend mode="normal" in2="BackgroundImageFix" result="effect1_dropShadow_1572_4493"/>
<feBlend mode="normal" in="SourceGraphic" in2="effect1_dropShadow_1572_4493" result="shape"/>
</filter>
</defs>
</svg>
