<svg width="60" height="97" viewBox="0 0 60 97" fill="none" xmlns="http://www.w3.org/2000/svg">
<g filter="url(#filter0_d_1572_4499)">
<path d="M35.7885 6.50391C33.4883 7.80591 30.485 11.1717 29.2963 13.4766C27.3516 17.2477 27.4499 21.4142 28.6987 25.3809C28.6121 26.6979 30.0533 27.5854 29.9877 28.3604C29.952 28.7833 29.6676 29.2513 29.6118 29.6982C29.5149 30.4729 29.8926 32.3366 30.312 32.9883C30.3277 33.0128 30.3431 33.038 30.3588 33.0625C30.3432 33.0381 30.3286 33.0127 30.3129 32.9883C29.8935 32.3364 29.5158 30.4727 29.6127 29.6982C29.6686 29.2514 29.9529 28.7841 29.9887 28.3613C30.0547 27.5862 28.6128 26.6983 28.6997 25.3809C30.6161 29.0417 31.8945 29.7487 34.4233 32.5234C33.5578 34.585 33.1011 36.4355 32.9096 38.6631C32.8685 38.5388 32.8347 38.414 32.8022 38.2871C32.5967 37.4861 32.9918 36.7394 32.8999 35.9717C32.8151 35.2633 31.287 34.1474 30.5874 33.3555C31.2872 34.1473 32.8138 35.2625 32.8989 35.9707C32.991 36.7386 32.5956 37.4859 32.8012 38.2871C32.8337 38.4139 32.8675 38.5389 32.9086 38.6631C32.9447 41.5774 33.5823 43.52 34.229 46.2812C30.7594 48.1872 28.61 51.2554 27.5092 55.0264C27.2092 56.053 26.95 57.0868 26.7954 58.1465C22.2302 58.5422 19.5045 59.1807 15.9897 62.3096C14.9682 63.2188 13.9544 64.1688 13.0756 65.2207C11.1874 67.4808 9.92197 70.4073 10.1928 73.4062C10.3143 74.7503 10.8977 75.8024 11.2231 77.0254L11.2846 77.2725C12.5509 78.9522 13.8665 80.4154 15.8178 81.2754C17.6411 82.0786 21.186 82.9869 23.1001 82.1895C23.5796 81.9894 23.9803 81.6198 24.1674 81.126C24.2777 80.835 24.2429 80.5119 24.1079 80.2354C23.3524 78.6868 19.4592 78.9721 17.7944 78.3916C16.2732 77.8611 14.851 76.8162 14.143 75.3291C13.192 73.3316 13.6063 70.9723 14.2973 68.9707C15.4438 69.8168 16.4831 70.8054 17.6381 71.6445C20.4227 73.6678 23.7916 74.4415 27.1889 74.1514C32.6127 73.688 36.1515 70.1452 39.4497 66.1953C38.4918 64.822 37.2455 63.4507 35.8891 62.4785C38.7159 61.7495 41.1794 60.7663 43.604 59.124V59.123C44.2526 58.4729 45.0037 57.8934 45.5971 57.1914C48.1656 54.1521 48.8477 50.2923 49.5825 46.5049C47.894 45.7956 46.0116 45.4791 44.3872 44.6406C46.2932 43.4165 47.7352 41.758 48.7124 39.709C51.1193 34.6612 49.7263 30.097 47.9917 25.1426C46.0443 25.4165 44.127 25.7877 42.2426 26.3584C43.2608 23.8861 43.6813 21.2057 43.4682 18.5381C43.0052 13.2065 39.6531 9.75504 35.7885 6.50391ZM29.56 81.3057C29.575 81.291 29.5904 81.2764 29.6049 81.2607L29.6811 81.1729C29.6422 81.2216 29.6014 81.265 29.56 81.3057ZM11.4438 78.3613L11.4145 78.1738C11.4089 78.144 11.4028 78.1144 11.3969 78.085C11.415 78.1751 11.4325 78.2667 11.4438 78.3613ZM11.3969 78.085C11.3739 77.9704 11.3492 77.8581 11.3276 77.7461C11.3492 77.8581 11.3739 77.9704 11.3969 78.085ZM29.7456 76.209C29.8071 76.4727 29.8666 76.7439 29.9223 77.0156L30.0766 77.8252C29.9833 77.2932 29.8688 76.7357 29.7456 76.208V76.209ZM29.3012 74.5703C29.3842 74.826 29.4707 75.1234 29.5561 75.4463L29.3647 74.7705C29.3435 74.7013 29.3221 74.6345 29.3012 74.5703ZM29.144 74.1279C29.156 74.1591 29.1684 74.1905 29.1801 74.2217C29.2193 74.3262 29.2598 74.4431 29.3012 74.5703C29.2598 74.4427 29.2194 74.3254 29.1801 74.2207C29.1684 74.1896 29.157 74.1581 29.145 74.127L29.144 74.1279ZM34.4633 71.665C34.4321 71.6876 34.4006 71.7094 34.3696 71.7314C34.4008 71.7093 34.4329 71.6877 34.4643 71.665L34.6723 71.5068C34.5915 71.5702 34.5209 71.6235 34.4633 71.665ZM39.5122 65.8145C39.5707 65.9424 39.6171 66.0698 39.6499 66.1953C39.617 66.0695 39.5709 65.9418 39.5122 65.8135V65.8145ZM39.0581 65.0693L38.8657 64.8223C38.8501 64.8032 38.8336 64.7847 38.8178 64.7656C38.9016 64.8665 38.9825 64.9675 39.0581 65.0693ZM36.6977 62.6523C36.9098 62.859 37.1666 63.096 37.4409 63.3525C37.1668 63.0958 36.9108 62.858 36.6987 62.6514L36.6977 62.6523ZM43.4057 59.4346C43.3575 59.4997 43.3044 59.5625 43.2495 59.625C43.2621 59.6106 43.2763 59.5975 43.2885 59.583L43.4057 59.4346Z" fill="white"/>
</g>
<defs>
<filter id="filter0_d_1572_4499" x="0.15625" y="0.503906" width="59.8438" height="95.9922" filterUnits="userSpaceOnUse" color-interpolation-filters="sRGB">
<feFlood flood-opacity="0" result="BackgroundImageFix"/>
<feColorMatrix in="SourceAlpha" type="matrix" values="0 0 0 0 0 0 0 0 0 0 0 0 0 0 0 0 0 0 127 0" result="hardAlpha"/>
<feOffset dy="4"/>
<feGaussianBlur stdDeviation="5"/>
<feComposite in2="hardAlpha" operator="out"/>
<feColorMatrix type="matrix" values="0 0 0 0 0.25539 0 0 0 0 0.25539 0 0 0 0 0.25539 0 0 0 0.25 0"/>
<feBlend mode="normal" in2="BackgroundImageFix" result="effect1_dropShadow_1572_4499"/>
<feBlend mode="normal" in="SourceGraphic" in2="effect1_dropShadow_1572_4499" result="shape"/>
</filter>
</defs>
</svg>
