<svg width="34" height="32" viewBox="0 0 34 32" fill="none" xmlns="http://www.w3.org/2000/svg">
<path d="M16.9365 0.638928C17.0868 0.638904 17.2368 0.652451 17.3852 0.676576C17.7715 0.739368 18.1619 0.792432 18.5462 0.873986C22.1712 1.67647 24.7181 3.72725 26.2292 6.96149C26.3311 7.18034 26.4329 7.24519 26.6791 7.26951C30.2362 7.56132 32.9274 10.0174 33.4282 13.4056C33.4421 13.4717 33.4877 13.5445 33.4877 13.612C33.4877 13.995 33.4877 14.3816 33.4877 14.7658C33.4877 15.0065 33.4204 15.2423 33.3666 15.4769C33.3182 15.6875 33.2983 15.9053 33.233 16.113C32.9104 17.1992 32.3671 18.1638 31.5691 18.9987C31.3059 19.2743 31.0512 19.3148 30.822 19.1284C30.5843 18.9338 30.6013 18.6744 30.8644 18.3907C34.0565 14.9133 32.435 9.604 27.8082 8.38001C27.3073 8.25032 26.798 8.17736 26.2716 8.16926C25.8217 8.16115 25.6519 8.04767 25.4821 7.65048C24.1578 4.52973 21.7892 2.50326 18.3425 1.78995C14.7599 1.05231 11.6613 2.04123 9.08895 4.52973C9.00406 4.61889 8.91916 4.70806 8.83427 4.79722C8.60505 5.01608 8.33339 5.0404 8.12964 4.86207C7.9259 4.68374 7.91741 4.42435 8.12964 4.18928C8.78333 3.46786 9.5304 2.84371 10.3709 2.32493C11.7801 1.4414 13.3337 0.922621 14.9976 0.711869C15.1263 0.696513 15.2695 0.64593 15.3991 0.644668C15.9134 0.639658 16.4272 0.639012 16.9365 0.638928Z" fill="#4E009C"/>
<path d="M16.5652 20.3351C16.5701 20.3444 16.5768 20.3524 16.5873 20.3524C19.8919 20.3524 23.2049 20.3524 26.5094 20.3524C27.3499 20.3524 28.1309 20.1174 28.8865 19.7931C28.9629 19.7607 29.0393 19.7202 29.1157 19.6878C29.3873 19.5824 29.6505 19.6634 29.7609 19.8823C29.8797 20.1093 29.7948 20.3524 29.5232 20.4902C28.8186 20.855 28.063 21.0739 27.282 21.2035C26.7981 21.2846 26.3142 21.2522 25.8218 21.2522C25.6435 21.2522 25.5926 21.2927 25.5926 21.471C25.601 22.16 25.5926 22.849 25.601 23.5299C25.601 23.8298 25.7539 23.9757 26.068 23.9839C26.1444 23.9839 26.2208 23.9757 26.2887 23.9839C26.6537 24.0244 26.8914 23.9514 27.0867 23.5705C27.4433 22.8896 28.3262 22.614 29.0817 22.8409C29.8373 23.0679 30.3382 23.7731 30.2957 24.5351C30.2533 25.2889 29.6675 25.9131 28.8695 26.0671C28.1139 26.213 27.3159 25.832 26.9848 25.143C26.883 24.9322 26.7726 24.8593 26.5434 24.8836C26.3651 24.8998 26.1868 24.8917 26 24.8836C25.2445 24.8674 24.6587 24.3162 24.6417 23.5867C24.6332 22.8896 24.6332 22.1925 24.6417 21.4954C24.6417 21.317 24.6163 21.236 24.3955 21.236C23.5636 21.2522 22.7231 21.2522 21.8827 21.236C21.6704 21.236 21.645 21.3008 21.645 21.4791C21.6534 23.2786 21.645 25.0781 21.6534 26.8776C21.6534 27.2343 21.7978 27.364 22.1713 27.3721C22.2137 27.3721 22.2562 27.364 22.2986 27.3721C22.6976 27.4288 22.9438 27.3316 23.1476 26.9425C23.5041 26.2778 24.3786 26.0103 25.1256 26.2373C25.8812 26.4643 26.3906 27.1695 26.3481 27.9314C26.3057 28.6853 25.7284 29.3094 24.9304 29.4715C24.1918 29.6174 23.3853 29.2527 23.0627 28.5799C22.9523 28.3529 22.8335 28.2638 22.5788 28.2881C21.2884 28.4097 20.6432 27.7936 20.6941 26.4886C20.7536 24.835 20.7026 23.1733 20.7111 21.5197C20.7111 21.3089 20.6687 21.2441 20.4394 21.2522C19.6075 21.2684 18.767 21.2684 17.9266 21.2522C17.7058 21.2522 17.6464 21.2927 17.6464 21.5116C17.6549 22.768 17.6549 24.0163 17.6464 25.2727C17.6464 25.5807 17.4512 25.7753 17.171 25.7753C16.8909 25.7753 16.7041 25.5888 16.6956 25.2808C16.6956 25.2078 16.6956 25.143 16.6956 25.07C16.6956 23.8866 16.6871 22.7031 16.7041 21.5197C16.7041 21.317 16.6701 21.2441 16.4324 21.2522C15.5835 21.2684 14.7345 21.2603 13.8941 21.2522C13.7073 21.2522 13.6309 21.2846 13.6479 21.4791C13.6649 21.7547 13.6564 22.0222 13.6564 22.2978C13.6564 22.6545 13.4866 22.8571 13.1894 22.8652C12.8838 22.8734 12.7055 22.6626 12.7055 22.2816C12.7055 21.9979 12.6971 21.7142 12.7055 21.4305C12.714 21.2765 12.6546 21.2441 12.5103 21.2441C11.6529 21.2522 10.7954 21.2522 9.93798 21.236C9.75121 21.236 9.71725 21.2927 9.71725 21.4548C9.72574 22.1357 9.72574 22.8085 9.71725 23.4894C9.71725 24.3486 9.14846 24.8836 8.24858 24.8917C8.21462 24.8917 8.18066 24.8917 8.15519 24.8917C7.73921 24.835 7.47603 24.9241 7.24682 25.3375C6.89026 26.0022 6.00736 26.2535 5.26028 26.0184C4.50472 25.7753 4.01233 25.0781 4.06327 24.3081C4.11421 23.5624 4.70847 22.9382 5.50648 22.7842C6.24506 22.6464 7.04307 23.0193 7.36567 23.7083C7.46755 23.9271 7.59489 23.9839 7.83259 23.9839C8.75794 23.9676 8.75794 23.9758 8.75794 23.0841C8.75794 22.541 8.74945 21.9898 8.76643 21.4467C8.76643 21.2684 8.7155 21.236 8.53722 21.2279C7.72223 21.2198 6.90724 21.2603 6.09225 21.1954C3.62182 20.9928 1.57586 19.25 1.07498 16.9399C0.455245 14.0218 2.21257 11.282 5.21784 10.4957C5.51497 10.4228 5.4895 10.2444 5.50648 10.0499C5.61684 8.67189 6.02434 7.38306 6.68651 6.15908C6.80537 5.94832 6.94969 5.78621 7.22135 5.81052C7.5864 5.84295 7.7477 6.18339 7.55244 6.54816C7.14495 7.302 6.83083 8.09638 6.64407 8.92317C6.52521 9.45816 6.4573 10.0013 6.42334 10.5443C6.39787 11.0469 6.25355 11.209 5.74418 11.3063C3.63031 11.7035 2.0258 13.4625 1.90694 15.5051C1.78809 17.6127 3.14641 19.5175 5.20935 20.1255C5.74418 20.2795 6.28751 20.3281 6.83932 20.3281C10.0798 20.3281 13.3117 20.3281 16.5521 20.3281C16.557 20.3281 16.5629 20.3308 16.5652 20.3351ZM5.83757 25.1997C6.27053 25.1916 6.6186 24.8431 6.6186 24.4378C6.6186 24.0163 6.23657 23.6677 5.79512 23.6839C5.36216 23.7002 5.02258 24.0487 5.03107 24.4621C5.04805 24.8755 5.4046 25.2078 5.83757 25.1997ZM29.3619 24.4297C29.3534 24.0163 28.9968 23.6839 28.5639 23.6839C28.1309 23.6839 27.7743 24.0325 27.7743 24.4378C27.7743 24.8593 28.1479 25.2078 28.5893 25.1997C29.0138 25.1916 29.3619 24.8431 29.3619 24.4297ZM24.6078 27.0803C24.1748 27.0884 23.8267 27.437 23.8267 27.8422C23.8267 28.2475 24.1918 28.5961 24.6163 28.5961C25.0577 28.5961 25.4228 28.2394 25.4058 27.8179C25.4058 27.4045 25.0407 27.0722 24.6078 27.0803Z" fill="#4E009C"/>
<path d="M13.6732 25.8075C13.6732 26.2047 13.6816 26.5938 13.6732 26.991C13.6562 27.7286 13.0789 28.2798 12.2979 28.296C12.2894 28.296 12.2809 28.296 12.2639 28.296C11.7885 28.2636 11.4234 28.2879 11.1433 28.8148C10.7867 29.4795 9.86987 29.6659 9.13129 29.3903C8.4012 29.1147 7.94277 28.4014 8.02766 27.6638C8.11255 26.9262 8.70682 26.3263 9.49634 26.1966C10.2349 26.0669 11.0244 26.456 11.3386 27.1369C11.4404 27.3558 11.5593 27.3963 11.7885 27.3963C12.7223 27.3882 12.7223 27.3882 12.7223 26.5046C12.7223 25.8805 12.7223 25.2563 12.7223 24.6241C12.7223 24.2917 12.9006 24.0891 13.1808 24.0891C13.4779 24.081 13.6647 24.2836 13.6732 24.6322C13.6732 25.0213 13.6732 25.4185 13.6732 25.8075ZM10.5575 27.834C10.5575 27.4287 10.1925 27.0802 9.768 27.0802C9.33504 27.0802 8.97848 27.4206 8.96999 27.8259C8.9615 28.2474 9.33504 28.6041 9.77649 28.596C10.201 28.5879 10.5575 28.2474 10.5575 27.834Z" fill="#4E009C"/>
<path d="M16.619 28.4C16.8433 28.1529 16.7008 27.762 16.7213 27.4289C16.7383 27.1695 16.942 26.9912 17.1967 26.9912C17.4514 26.9912 17.6552 27.1695 17.6721 27.4289C17.6891 27.6802 17.6891 27.9315 17.6721 28.1828C17.6637 28.3449 17.7146 28.4178 17.8844 28.4908C18.6739 28.815 19.0899 29.5932 18.9031 30.3714C18.7163 31.1657 18.0032 31.7007 17.1713 31.6926C16.3478 31.6845 15.6516 31.109 15.4819 30.3146C15.346 29.6661 15.6601 28.9204 16.3053 28.6205C16.444 28.5513 16.5475 28.4788 16.619 28.4ZM17.2052 29.269C16.7723 29.2609 16.4157 29.5932 16.3987 30.0066C16.3902 30.42 16.7298 30.7685 17.1628 30.7848C17.6042 30.801 17.9778 30.4524 17.9863 30.0309C17.9947 29.6175 17.6382 29.2771 17.2052 29.269Z" fill="#4E009C"/>
</svg>
