<svg width="36" height="37" viewBox="0 0 36 37" fill="none" xmlns="http://www.w3.org/2000/svg">
<circle cx="18" cy="18.823" r="18" fill="#D758FF"/>
<path d="M27.6983 29.4092C25.0401 29.4092 22.8896 27.5592 22.8896 25.2792C22.8896 22.9923 25.0401 21.1355 27.6983 21.1355C30.3487 21.1355 32.515 22.9923 32.515 25.2724C32.507 27.5592 30.3566 29.4092 27.6983 29.4092ZM30.6105 24.0436C30.6185 23.9275 30.5867 23.8251 30.5153 23.7296C30.2614 23.3609 29.7377 23.32 29.3568 23.6477C28.6506 24.2552 27.9443 24.8628 27.254 25.484C27.0953 25.6273 27.0159 25.6137 26.8731 25.4772C26.5954 25.2177 26.3097 24.9788 26.0161 24.7331C25.6987 24.4737 25.2623 24.4737 24.9845 24.7194C24.7147 24.9583 24.7068 25.327 25.0083 25.5864C25.5162 26.0369 26.032 26.4807 26.5636 26.9244C26.881 27.1906 27.2857 27.1906 27.5952 26.9244C28.5315 26.1188 29.4599 25.3065 30.3963 24.4941C30.5233 24.3781 30.6185 24.2279 30.6105 24.0436Z" fill="#FFFAFA"/>
<path d="M16.8434 26.3714C15.2405 26.3714 13.6377 26.3714 12.0348 26.3714C11.3603 26.3714 11.146 26.1325 11.3047 25.5659C12.0982 22.7192 15.2405 20.7532 18.6447 20.9648C20.1762 21.0604 21.5172 21.5314 22.6996 22.3642C22.8662 22.4803 22.89 22.5622 22.771 22.7329C22.0251 23.7841 21.787 24.9242 22.0251 26.1393C22.0648 26.3373 22.033 26.385 21.795 26.385C20.1524 26.3646 18.494 26.3714 16.8434 26.3714Z" fill="white"/>
<path d="M21.7316 17.3534C21.7316 19.0464 20.1525 20.4185 18.1766 20.4253C16.2087 20.4322 14.582 19.0532 14.582 17.3602C14.582 15.6809 16.1849 14.2883 18.137 14.2815C20.1128 14.2815 21.7237 15.6536 21.7316 17.3534Z" fill="#FFFAFA"/>
<path d="M4.25815 14.6024C4.75806 14.6706 5.30559 14.7389 5.84518 14.8276C6.15465 14.8823 6.35302 14.8481 6.51966 14.5819C6.77359 14.186 7.07512 13.8242 7.36079 13.4419C7.41633 13.3668 7.46394 13.2644 7.60678 13.2985C7.73374 13.3258 7.71787 13.435 7.73374 13.5101C7.82896 13.9948 7.91625 14.4863 7.98766 14.971C8.01147 15.1348 8.08288 15.2236 8.28126 15.2645C8.84466 15.3806 9.40805 15.5171 9.97145 15.6468C10.0667 15.6673 10.1778 15.6673 10.1936 15.7834C10.2095 15.8926 10.0984 15.9199 10.0111 15.9608C9.50327 16.1861 8.99543 16.4182 8.47964 16.623C8.27333 16.7049 8.21778 16.8142 8.23365 16.9985C8.28126 17.4832 8.30507 17.9678 8.33681 18.4525C8.34474 18.5344 8.36855 18.6368 8.25746 18.6778C8.1305 18.7324 8.05908 18.6437 7.97973 18.5754C7.57504 18.2272 7.17034 17.8791 6.77359 17.5241C6.63869 17.4012 6.51173 17.3808 6.32922 17.449C5.79756 17.6333 5.26591 17.804 4.73426 17.9815C4.6311 18.0156 4.52794 18.0702 4.43272 17.9815C4.3613 17.9064 4.42479 17.8245 4.4724 17.7494C4.73426 17.3125 4.98818 16.8688 5.25798 16.4387C5.36113 16.2749 5.33733 16.1725 5.20243 16.0359C4.82154 15.6537 4.46446 15.2577 4.09151 14.8686C4.03596 14.8072 3.96455 14.7526 4.02009 14.6638C4.0677 14.6024 4.13119 14.5819 4.25815 14.6024Z" fill="white"/>
<path d="M16.145 12.6842C16.3196 12.1313 16.4624 11.6398 16.637 11.1483C16.7084 10.9571 16.6608 10.8411 16.4703 10.7182C16.018 10.4246 15.5895 10.1174 15.1531 9.81026C15.0817 9.75565 14.9706 9.70786 15.0103 9.60546C15.05 9.50306 15.1611 9.50989 15.2642 9.50989C15.8355 9.48258 16.4069 9.44845 16.9782 9.44163C17.2083 9.44163 17.3035 9.35971 17.375 9.18905C17.5575 8.7385 17.7638 8.3016 17.9622 7.85788C18.0018 7.76913 18.0098 7.63943 18.1685 7.64625C18.3113 7.64625 18.3192 7.76913 18.3589 7.85105C18.5652 8.30843 18.7715 8.7658 18.962 9.23C19.0255 9.38019 19.1127 9.44163 19.3032 9.44163C19.8428 9.45528 20.3903 9.47576 20.9299 9.50989C21.0569 9.51672 21.2394 9.46211 21.2949 9.61229C21.3505 9.76247 21.1759 9.81026 21.0727 9.87852C20.668 10.1652 20.2713 10.4588 19.8428 10.725C19.6365 10.8547 19.6127 10.9776 19.6761 11.1756C19.8348 11.6329 19.9697 12.0903 20.1205 12.5477C20.1443 12.6296 20.1999 12.7183 20.1046 12.7866C19.9935 12.8685 19.8983 12.7934 19.811 12.7388C19.3349 12.4726 18.8509 12.2064 18.3748 11.9265C18.2161 11.8309 18.0971 11.8241 17.9225 11.9265C17.4464 12.2132 16.9544 12.4794 16.4624 12.7525C16.3751 12.8003 16.2878 12.8549 16.1926 12.7934C16.145 12.7525 16.145 12.6842 16.145 12.6842Z" fill="white"/>
<path d="M13.5265 13.1757C13.2409 13.1621 12.9552 13.1552 12.6695 13.1279C12.4791 13.1075 12.3839 13.1689 12.3045 13.3123C12.0585 13.7492 11.8046 14.1792 11.5427 14.6093C11.4951 14.698 11.4713 14.8209 11.3126 14.8141C11.1539 14.8073 11.1619 14.6776 11.1301 14.582C10.9873 14.1246 10.8365 13.6672 10.7096 13.203C10.6619 13.0119 10.5429 12.9368 10.3366 12.9163C9.78114 12.8549 9.22568 12.773 8.66229 12.7047C8.5512 12.691 8.43217 12.6842 8.40836 12.5682C8.38456 12.4658 8.50359 12.4316 8.58294 12.3839C9.06698 12.1176 9.54309 11.8446 10.0271 11.5852C10.2096 11.4896 10.2493 11.3804 10.2176 11.2097C10.1144 10.7318 10.0271 10.254 9.93985 9.77613C9.92398 9.69421 9.86843 9.58499 9.99539 9.52355C10.1224 9.46211 10.1938 9.55768 10.2731 9.61229C10.7175 9.91948 11.1698 10.2335 11.6062 10.5475C11.7491 10.6499 11.8601 10.6704 12.0268 10.5885C12.5346 10.3496 13.0584 10.1243 13.5741 9.899C13.6614 9.85805 13.7487 9.79661 13.8519 9.86487C13.9709 9.93996 13.8915 10.0355 13.8598 10.1175C13.6614 10.5612 13.4789 11.0117 13.2567 11.4418C13.1536 11.6534 13.2012 11.7763 13.3837 11.9265C13.7725 12.2405 14.1455 12.5682 14.5264 12.8958C14.6057 12.9641 14.7406 13.0255 14.6771 13.1484C14.6136 13.2645 14.4708 13.2167 14.3597 13.2167C14.082 13.203 13.8043 13.1894 13.5265 13.1757Z" fill="white"/>
<path d="M26.3974 9.63968C26.3022 10.1585 26.2229 10.6159 26.1197 11.0733C26.0562 11.3395 26.0959 11.5101 26.4054 11.6535C26.8656 11.872 27.2862 12.1314 27.7305 12.3771C27.8178 12.4249 27.9369 12.4659 27.8972 12.5887C27.8654 12.6911 27.7544 12.6911 27.6591 12.7048C27.1116 12.7731 26.5641 12.855 26.0166 12.9164C25.7864 12.9437 25.6595 13.012 25.6039 13.2304C25.4849 13.7015 25.3183 14.1657 25.1754 14.6299C25.1516 14.7118 25.1358 14.8073 25.0167 14.821C24.8898 14.8347 24.858 14.7391 24.8104 14.664C24.5486 14.2203 24.2788 13.7765 24.0328 13.3192C23.9455 13.1622 23.8423 13.1144 23.6439 13.128C23.0647 13.169 22.4775 13.1895 21.8982 13.2168C21.8109 13.2236 21.7078 13.2441 21.6602 13.1553C21.6046 13.0598 21.684 12.9983 21.7633 12.9369C22.168 12.5887 22.5727 12.2338 22.9853 11.8993C23.152 11.7696 23.1678 11.6467 23.0885 11.476C22.8742 11.0323 22.6759 10.5749 22.4775 10.1244C22.4378 10.0356 22.3743 9.94688 22.4775 9.86496C22.5727 9.79669 22.6679 9.86496 22.7473 9.89909C23.2631 10.1244 23.7868 10.3496 24.2946 10.5886C24.4613 10.6637 24.5724 10.6568 24.7152 10.5544C25.1675 10.2268 25.6277 9.90592 26.088 9.58507C26.1515 9.53729 26.2149 9.47585 26.326 9.52363C26.3895 9.55777 26.3974 9.61921 26.3974 9.63968Z" fill="white"/>
<path d="M28.0002 18.2138C28.024 17.7974 28.0478 17.381 28.0875 16.9646C28.1034 16.7939 28.0478 16.6983 27.8653 16.6301C27.3416 16.4116 26.8258 16.1864 26.31 15.9543C26.2227 15.9201 26.1116 15.886 26.1275 15.7768C26.1434 15.6675 26.2545 15.6607 26.3497 15.6402C26.9051 15.5174 27.4527 15.374 28.0081 15.2648C28.2382 15.217 28.3097 15.1146 28.3414 14.9371C28.4208 14.4593 28.508 13.9814 28.5953 13.5035C28.6112 13.4216 28.6033 13.3261 28.7223 13.2919C28.8651 13.2578 28.9048 13.3602 28.9603 13.4353C29.2698 13.8517 29.5872 14.2613 29.8888 14.6777C29.9919 14.8279 30.1109 14.8688 30.3014 14.8347C30.8568 14.7528 31.4123 14.6777 31.9678 14.6026C32.0789 14.589 32.2058 14.5275 32.2852 14.6504C32.3566 14.7596 32.2455 14.8211 32.182 14.8893C31.8249 15.2716 31.4599 15.6607 31.0949 16.0362C30.9759 16.1591 30.96 16.2546 31.0473 16.398C31.3171 16.828 31.5789 17.2718 31.8329 17.7087C31.8805 17.7906 31.9757 17.8725 31.8884 17.9612C31.7853 18.0636 31.6742 17.9886 31.5631 17.9544C31.0473 17.7838 30.5315 17.6199 30.0237 17.4356C29.8253 17.3673 29.6904 17.381 29.5317 17.5244C29.1587 17.8657 28.7699 18.1933 28.3811 18.521C28.2938 18.5961 28.2224 18.7258 28.0716 18.6576C27.9367 18.6029 28.0081 18.4732 28.0002 18.3777C27.9923 18.3162 28.0002 18.2616 28.0002 18.2002C27.9923 18.2138 28.0002 18.2138 28.0002 18.2138Z" fill="white"/>
</svg>
