<svg width="30" height="30" viewBox="0 0 30 30" fill="none" xmlns="http://www.w3.org/2000/svg">
<path d="M9.87795 12.8476L9.88132 12.8324L9.88374 12.8171C9.92656 12.5459 10.045 12.3126 10.2518 12.1058L13.9898 8.36783C14.2526 8.10497 14.5631 7.976 14.952 7.976C15.3409 7.976 15.6514 8.10497 15.9142 8.36783L19.6522 12.1058C19.8589 12.3126 19.9774 12.5459 20.0203 12.8171C20.0672 13.1146 20.0438 13.3851 19.9572 13.637C19.8563 13.8759 19.6932 14.076 19.4534 14.2409C19.2231 14.3992 18.9827 14.4667 18.7163 14.4527L18.7031 14.452H18.69H16.836H16.336V14.952V20.574C16.336 20.954 16.2038 21.2616 15.9239 21.5267C15.6332 21.8022 15.316 21.928 14.952 21.928C14.588 21.928 14.2708 21.8022 13.9801 21.5268C13.7051 21.2663 13.5832 20.9667 13.5976 20.5932L13.598 20.5836V20.574V14.952V14.452H13.098H11.214C10.9282 14.452 10.6713 14.3783 10.4324 14.229C10.2071 14.0882 10.047 13.8953 9.94557 13.6344C9.8401 13.3632 9.82073 13.1051 9.87795 12.8476ZM0.5 14.952C0.5 13.0066 0.884812 11.14 1.65548 9.34818C2.43026 7.54681 3.45324 6.00504 4.72219 4.71687C5.98733 3.43256 7.52486 2.41201 9.34223 1.65799C11.1573 0.904922 13.027 0.519592 14.9545 0.5C16.9197 0.500326 18.7953 0.885411 20.5857 1.65548C22.3865 2.43 23.9172 3.45225 25.1845 4.71954C26.4508 5.98592 27.473 7.52576 28.2478 9.3464C29.0194 11.1598 29.404 13.0272 29.404 14.952C29.404 16.9181 29.0189 18.7839 28.2493 20.554C27.4745 22.3362 26.4506 23.8798 25.1792 25.1898C23.9143 26.493 22.3776 27.5225 20.5618 28.2759C18.7474 29.0287 16.8787 29.404 14.952 29.404C13.0253 29.404 11.1566 29.0287 9.34223 28.2759C7.52642 27.5225 5.98971 26.493 4.72477 25.1898C3.45335 23.8798 2.42955 22.3362 1.6547 20.554C0.885073 18.7839 0.5 16.9181 0.5 14.952ZM3.238 14.952C3.238 17.0714 3.75858 19.0415 4.79969 20.853C5.84106 22.665 7.2715 24.0852 9.08468 25.1065C10.8934 26.1252 12.8503 26.6452 14.947 26.666C17.051 26.6868 19.0141 26.1648 20.8268 25.1021C22.6331 24.0433 24.0607 22.6271 25.1018 20.8574C26.1463 19.0817 26.666 17.1094 26.666 14.952C26.666 12.7946 26.1463 10.8313 25.1004 9.07431C24.0596 7.32573 22.6334 5.91152 20.8305 4.83392C19.0173 3.75022 17.0529 3.21717 14.947 3.23802C12.8484 3.2588 10.8902 3.78977 9.08091 4.8296C7.27123 5.86964 5.84217 7.28783 4.80095 9.07874C3.75861 10.8716 3.238 12.8326 3.238 14.952Z" fill="#4E009C" stroke="#FFEFFC"/>
</svg>
