<svg width="36" height="37" viewBox="0 0 36 37" fill="none" xmlns="http://www.w3.org/2000/svg">
<circle cx="18" cy="18.823" r="18" fill="#D758FF"/>
<mask id="mask0_46_1262" style="mask-type:luminance" maskUnits="userSpaceOnUse" x="3" y="4" width="30" height="30">
<path d="M3 4H32.6339V33.6339H3V4Z" fill="white"/>
</mask>
<g mask="url(#mask0_46_1262)">
<path d="M29.9963 20.9506L28.0998 22.8471V26.0475C28.0998 27.7071 26.7366 29.0702 25.0771 29.0702L21.8467 29.0704L19.9503 30.9669C18.7649 32.1523 16.8683 32.1523 15.683 30.9669L13.7865 29.0704H10.5857C8.92615 29.0704 7.56307 27.7072 7.56307 26.0478L7.56284 22.847L5.66636 20.9505C4.481 19.7652 4.481 17.8686 5.66636 16.6832L7.56284 14.7867V11.586C7.56284 9.9264 8.92603 8.56332 10.5855 8.56332H13.786L15.6827 6.66661C16.868 5.48125 18.7646 5.48125 19.95 6.66661L21.8465 8.56309H25.0469C26.7065 8.56309 28.0696 9.92628 28.0696 11.5857V14.7862L29.9661 16.6827C31.1519 17.8683 31.1519 19.7649 29.9962 20.9503L29.9963 20.9506Z" stroke="#F5F5F5" stroke-width="3.20376" stroke-miterlimit="10"/>
</g>
<path d="M12.4834 19.0839L15.7727 22.551L23.1513 15.0837" stroke="#F5F5F5" stroke-width="3.20376" stroke-miterlimit="10" stroke-linecap="round" stroke-linejoin="round"/>
</svg>
