<svg width="1309" height="867" viewBox="0 0 1309 867" fill="none" xmlns="http://www.w3.org/2000/svg">
<mask id="mask0_189_1141" style="mask-type:luminance" maskUnits="userSpaceOnUse" x="0" y="0" width="1309" height="867">
<path d="M1309 0H0V866.016H1309V0Z" fill="white"/>
</mask>
<g mask="url(#mask0_189_1141)">
<path opacity="0.15" d="M545.901 529.822C585.975 529.822 618.462 498.788 618.462 460.504C618.462 422.221 585.975 391.186 545.901 391.186C505.826 391.186 473.34 422.221 473.34 460.504C473.34 498.788 505.826 529.822 545.901 529.822Z" fill="#8941C4"/>
<path opacity="0.15" d="M817.278 764.811C862.562 764.811 899.272 729.742 899.272 686.482C899.272 643.221 862.562 608.152 817.278 608.152C771.994 608.152 735.284 643.221 735.284 686.482C735.284 729.742 771.994 764.811 817.278 764.811Z" fill="#8941C4"/>
<path d="M40.6338 668.459C40.6338 666.148 42.5688 664.3 44.9875 664.3C47.4061 664.3 49.3411 666.148 49.3411 668.459C49.3411 670.769 47.4061 672.618 44.9875 672.618C42.5688 672.849 40.6338 670.769 40.6338 668.459Z" fill="#47008C"/>
<path d="M73.7701 671.925C74.4957 669.614 76.9144 668.228 79.0912 668.921C81.5099 669.614 82.9611 671.925 82.2355 674.004C81.5099 676.315 79.0912 677.701 76.9144 677.008C74.7375 676.315 73.0445 674.235 73.7701 671.925Z" fill="#47008C"/>
<path d="M104.729 683.478C105.938 681.398 108.599 680.705 110.776 681.86C112.953 683.016 113.678 685.557 112.469 687.637C111.26 689.716 108.599 690.41 106.422 689.254C104.245 688.099 103.52 685.326 104.729 683.478Z" fill="#47008C"/>
<path d="M131.819 702.194C133.512 700.576 136.414 700.576 138.107 702.194C139.8 703.811 139.8 706.584 138.107 708.201C136.414 709.819 133.512 709.819 131.819 708.201C130.126 706.584 130.126 703.811 131.819 702.194Z" fill="#47008C"/>
<path d="M152.619 727.148C154.796 725.993 157.457 726.686 158.666 728.766C159.876 730.845 159.15 733.387 156.973 734.542C154.796 735.698 152.136 735.004 150.926 732.925C149.717 730.845 150.443 728.304 152.619 727.148Z" fill="#47008C"/>
<path d="M165.923 756.262C168.342 755.569 170.76 756.955 171.244 759.266C171.97 761.576 170.519 763.887 168.1 764.349C165.681 765.042 163.263 763.656 162.779 761.345C162.295 759.266 163.746 756.955 165.923 756.262Z" fill="#47008C"/>
<path d="M171.002 787.917C173.421 787.917 175.356 789.766 175.356 792.076C175.356 794.387 173.421 796.236 171.002 796.236C168.583 796.236 166.648 794.387 166.648 792.076C166.406 789.766 168.583 787.917 171.002 787.917Z" fill="#47008C"/>
<path d="M167.132 819.573C169.551 820.266 170.76 822.576 170.276 824.887C169.551 827.198 167.132 828.353 164.713 827.891C162.295 827.198 161.085 824.887 161.569 822.576C162.295 820.266 164.713 818.88 167.132 819.573Z" fill="#47008C"/>
<path d="M154.797 849.148C156.974 850.304 157.699 852.845 156.248 854.925C155.039 857.004 152.378 857.698 150.201 856.311C148.025 855.156 147.299 852.614 148.75 850.535C149.959 848.686 152.862 847.993 154.797 849.148Z" fill="#47008C"/>
<path d="M11.8515 672.387C11.3677 670.076 12.819 667.766 15.2377 667.304C17.6564 666.841 20.0751 668.228 20.5588 670.538C21.0425 672.849 19.5913 675.16 17.1726 675.622C14.7539 676.084 12.3352 674.697 11.8515 672.387Z" fill="#47008C"/>
<path d="M-1.20947 271.958C155.08 271.958 281.778 150.923 281.778 1.61731C281.778 -147.688 155.08 -268.724 -1.20947 -268.724C-157.499 -268.724 -284.197 -147.688 -284.197 1.61731C-284.197 150.923 -157.499 271.958 -1.20947 271.958Z" stroke="url(#paint0_linear_189_1141)" stroke-width="1.2" stroke-miterlimit="10"/>
<path d="M-1.20973 235.913C134.241 235.913 244.046 131.015 244.046 1.6172C244.046 -127.781 134.241 -232.678 -1.20973 -232.678C-136.661 -232.678 -246.466 -127.781 -246.466 1.6172C-246.466 131.015 -136.661 235.913 -1.20973 235.913Z" stroke="url(#paint1_linear_189_1141)" stroke-width="1.2" stroke-miterlimit="10"/>
<path d="M-1.209 199.868C113.404 199.868 206.315 111.108 206.315 1.6174C206.315 -107.873 113.404 -196.633 -1.209 -196.633C-115.822 -196.633 -208.733 -107.873 -208.733 1.6174C-208.733 111.108 -115.822 199.868 -1.209 199.868Z" stroke="url(#paint2_linear_189_1141)" stroke-width="1.2" stroke-miterlimit="10"/>
<path d="M-1.20927 163.822C92.5646 163.822 168.583 91.2005 168.583 1.61731C168.583 -87.9659 92.5646 -160.587 -1.20927 -160.587C-94.9832 -160.587 -171.002 -87.9659 -171.002 1.61731C-171.002 91.2005 -94.9832 163.822 -1.20927 163.822Z" stroke="url(#paint3_linear_189_1141)" stroke-width="1.2" stroke-miterlimit="10"/>
<path d="M-1.20953 127.776C71.7257 127.776 130.851 71.293 130.851 1.61723C130.851 -68.0586 71.7257 -124.542 -1.20953 -124.542C-74.1448 -124.542 -133.271 -68.0586 -133.271 1.61723C-133.271 71.293 -74.1448 127.776 -1.20953 127.776Z" stroke="url(#paint4_linear_189_1141)" stroke-width="1.2" stroke-miterlimit="10"/>
<path d="M-1.20979 91.7311C50.8868 91.7311 93.1195 51.3858 93.1195 1.6174C93.1195 -48.151 50.8868 -88.4963 -1.20979 -88.4963C-53.3064 -88.4963 -95.5391 -48.151 -95.5391 1.6174C-95.5391 51.3858 -53.3064 91.7311 -1.20979 91.7311Z" stroke="url(#paint5_linear_189_1141)" stroke-width="1.2" stroke-miterlimit="10"/>
<path d="M-1.20908 55.6856C30.0489 55.6856 55.3885 31.4784 55.3885 1.61731C55.3885 -28.2437 30.0489 -52.4509 -1.20908 -52.4509C-32.4671 -52.4509 -57.8066 -28.2437 -57.8066 1.61731C-57.8066 31.4784 -32.4671 55.6856 -1.20908 55.6856Z" stroke="url(#paint6_linear_189_1141)" stroke-width="1.2" stroke-miterlimit="10"/>
<path d="M481.321 905.527C535.02 905.527 578.552 863.941 578.552 812.641C578.552 761.341 535.02 719.754 481.321 719.754C427.621 719.754 384.089 761.341 384.089 812.641C384.089 863.941 427.621 905.527 481.321 905.527Z" stroke="url(#paint7_linear_189_1141)" stroke-width="1.005" stroke-miterlimit="10"/>
<path d="M481.32 880.804C520.727 880.804 552.672 850.286 552.672 812.641C552.672 774.995 520.727 744.478 481.32 744.478C441.914 744.478 409.969 774.995 409.969 812.641C409.969 850.286 441.914 880.804 481.32 880.804Z" stroke="url(#paint8_linear_189_1141)" stroke-width="1.005" stroke-miterlimit="10"/>
<path d="M481.32 856.08C506.433 856.08 526.792 836.632 526.792 812.641C526.792 788.65 506.433 769.201 481.32 769.201C456.207 769.201 435.849 788.65 435.849 812.641C435.849 836.632 456.207 856.08 481.32 856.08Z" stroke="url(#paint9_linear_189_1141)" stroke-width="1.005" stroke-miterlimit="10"/>
<path d="M481.32 831.126C492.007 831.126 500.67 822.85 500.67 812.641C500.67 802.432 492.007 794.156 481.32 794.156C470.634 794.156 461.971 802.432 461.971 812.641C461.971 822.85 470.634 831.126 481.32 831.126Z" stroke="url(#paint10_linear_189_1141)" stroke-width="1.005" stroke-miterlimit="10"/>
<path d="M1299.08 632.413C1455.37 632.413 1582.07 511.378 1582.07 362.072C1582.07 212.767 1455.37 91.731 1299.08 91.731C1142.79 91.731 1016.1 212.767 1016.1 362.072C1016.1 511.378 1142.79 632.413 1299.08 632.413Z" stroke="url(#paint11_linear_189_1141)" stroke-width="1.2" stroke-miterlimit="10"/>
<path d="M1299.08 596.368C1434.53 596.368 1544.34 491.47 1544.34 362.072C1544.34 232.674 1434.53 127.776 1299.08 127.776C1163.63 127.776 1053.83 232.674 1053.83 362.072C1053.83 491.47 1163.63 596.368 1299.08 596.368Z" stroke="url(#paint12_linear_189_1141)" stroke-width="1.2" stroke-miterlimit="10"/>
<path d="M1299.08 560.322C1413.7 560.322 1506.61 471.563 1506.61 362.072C1506.61 252.582 1413.7 163.822 1299.08 163.822C1184.47 163.822 1091.56 252.582 1091.56 362.072C1091.56 471.563 1184.47 560.322 1299.08 560.322Z" stroke="url(#paint13_linear_189_1141)" stroke-width="1.2" stroke-miterlimit="10"/>
<path d="M1299.08 524.277C1392.86 524.277 1468.88 451.655 1468.88 362.072C1468.88 272.489 1392.86 199.867 1299.08 199.867C1205.31 199.867 1129.29 272.489 1129.29 362.072C1129.29 451.655 1205.31 524.277 1299.08 524.277Z" stroke="url(#paint14_linear_189_1141)" stroke-width="1.2" stroke-miterlimit="10"/>
<path d="M1299.08 488.231C1372.02 488.231 1431.14 431.748 1431.14 362.072C1431.14 292.396 1372.02 235.913 1299.08 235.913C1226.15 235.913 1167.02 292.396 1167.02 362.072C1167.02 431.748 1226.15 488.231 1299.08 488.231Z" stroke="url(#paint15_linear_189_1141)" stroke-width="1.2" stroke-miterlimit="10"/>
<path d="M1299.08 452.186C1351.18 452.186 1393.41 411.841 1393.41 362.072C1393.41 312.304 1351.18 271.958 1299.08 271.958C1246.99 271.958 1204.75 312.304 1204.75 362.072C1204.75 411.841 1246.99 452.186 1299.08 452.186Z" stroke="url(#paint16_linear_189_1141)" stroke-width="1.2" stroke-miterlimit="10"/>
<path d="M1299.08 416.14C1330.34 416.14 1355.68 391.933 1355.68 362.072C1355.68 332.211 1330.34 308.004 1299.08 308.004C1267.83 308.004 1242.49 332.211 1242.49 362.072C1242.49 391.933 1267.83 416.14 1299.08 416.14Z" stroke="url(#paint17_linear_189_1141)" stroke-width="1.2" stroke-miterlimit="10"/>
<path d="M637.327 450.569C664.444 450.569 686.427 429.568 686.427 403.663C686.427 377.758 664.444 356.758 637.327 356.758C610.21 356.758 588.228 377.758 588.228 403.663C588.228 429.568 610.21 450.569 637.327 450.569Z" fill="url(#paint18_linear_189_1141)"/>
<path d="M560.17 389.8L557.51 389.338L556.784 393.728L559.445 394.19L560.17 389.8Z" fill="#8941C4"/>
<path d="M572.747 360.917L570.329 359.3C569.361 360.455 568.635 361.841 567.668 363.228L570.087 364.614C571.054 363.459 571.78 362.072 572.747 360.917Z" fill="#8941C4"/>
<path d="M564.766 374.781L562.347 373.625L560.654 378.016L563.315 378.709L564.766 374.781Z" fill="#8941C4"/>
<path d="M579.762 348.671L578.311 350.288L580.245 352.137L581.697 350.519L583.39 349.133L581.455 347.284L579.762 348.671Z" fill="#8941C4"/>
<path d="M605.884 332.034L607.093 334.345L611.447 332.959L610.479 330.417L605.884 332.034Z" fill="#8941C4"/>
<path d="M591.13 339.659L592.823 341.97C594.032 341.046 595.484 340.353 596.693 339.659L595.242 337.349C593.79 338.042 592.339 338.735 591.13 339.659Z" fill="#8941C4"/>
<path d="M622.331 327.413L622.815 329.955L627.41 329.262L626.927 326.72L622.331 327.413Z" fill="#8941C4"/>
<path d="M655.467 330.648L659.82 331.803L660.788 329.262L656.192 328.106L655.467 330.648Z" fill="#8941C4"/>
<path d="M639.262 328.8L643.857 329.031L644.099 326.258L639.262 326.027V328.8Z" fill="#8941C4"/>
<path d="M670.947 335.962C672.398 336.656 673.608 337.118 675.059 337.811L676.51 335.5C675.059 334.807 673.608 334.114 672.157 333.421L670.947 335.962Z" fill="#8941C4"/>
<path d="M701.906 356.527C700.939 355.372 699.971 353.985 699.004 353.061L696.827 354.909C697.795 355.834 698.762 357.22 699.73 358.375L701.906 356.527Z" fill="#8941C4"/>
<path d="M684.976 344.05C686.185 344.974 687.394 345.667 688.604 346.822L690.539 344.743C689.329 343.587 688.12 342.894 686.911 341.97L684.976 344.05Z" fill="#8941C4"/>
<path d="M708.195 371.546L710.855 370.391C710.13 369.004 709.404 367.618 708.678 366.231L706.26 367.618C706.985 369.004 707.711 370.391 708.195 371.546Z" fill="#8941C4"/>
<path d="M715.693 402.046L718.596 401.815L718.354 397.425L715.451 397.656L715.693 402.046Z" fill="#8941C4"/>
<path d="M713.758 386.334L716.419 385.872L715.209 381.481L712.549 382.175L713.758 386.334Z" fill="#8941C4"/>
<path d="M714.483 417.527L717.144 417.989L717.87 413.599L715.209 413.368L714.483 417.527Z" fill="#8941C4"/>
<path d="M701.906 446.409L704.325 448.027C705.292 446.872 706.018 445.485 706.985 444.099L704.567 442.713C703.599 443.868 702.874 445.254 701.906 446.409Z" fill="#8941C4"/>
<path d="M709.888 432.546L712.306 433.701L714 429.542L711.339 428.618L709.888 432.546Z" fill="#8941C4"/>
<path d="M692.957 456.807L691.264 458.194L693.199 460.273L694.892 458.656L696.343 457.038L694.408 455.19L692.957 456.807Z" fill="#8941C4"/>
<path d="M663.207 474.368L664.174 476.909L668.77 475.292L667.561 472.981L663.207 474.368Z" fill="#8941C4"/>
<path d="M678.203 467.667L679.654 469.978C680.864 469.053 682.315 468.591 683.766 467.667L682.073 465.356C680.864 466.281 679.412 466.974 678.203 467.667Z" fill="#8941C4"/>
<path d="M647.243 478.065L647.727 480.607L652.322 479.913L651.839 477.372L647.243 478.065Z" fill="#8941C4"/>
<path d="M614.107 478.065L618.703 479.22L619.187 476.678L614.833 475.523L614.107 478.065Z" fill="#8941C4"/>
<path d="M630.555 481.069L635.392 481.3V478.527L630.796 478.296L630.555 481.069Z" fill="#8941C4"/>
<path d="M598.386 471.826C599.837 472.519 601.288 473.213 602.739 473.906L603.949 471.364C602.498 470.671 601.288 470.209 599.837 469.516L598.386 471.826Z" fill="#8941C4"/>
<path d="M572.748 450.8C573.716 451.955 574.683 453.341 575.65 454.266L577.827 452.417C576.86 451.493 575.892 450.106 574.925 448.951L572.748 450.8Z" fill="#8941C4"/>
<path d="M584.357 462.584C585.567 463.739 586.776 464.432 587.985 465.356L589.679 463.277C588.469 462.353 587.26 461.659 586.051 460.504L584.357 462.584Z" fill="#8941C4"/>
<path d="M566.459 435.781L563.799 436.936C564.524 438.322 565.25 439.709 565.976 441.095L568.394 439.709C567.669 438.322 567.185 436.936 566.459 435.781Z" fill="#8941C4"/>
<path d="M558.961 405.512H556.059L556.3 409.902H559.203L558.961 405.512Z" fill="#8941C4"/>
<path d="M560.896 420.993L558.235 421.455L559.445 425.845L562.105 425.152L560.896 420.993Z" fill="#8941C4"/>
<path d="M1281.73 727.702C1302.57 727.702 1319.46 711.564 1319.46 691.656C1319.46 671.749 1302.57 655.611 1281.73 655.611C1260.89 655.611 1244 671.749 1244 691.656C1244 711.564 1260.89 727.702 1281.73 727.702Z" fill="url(#paint19_linear_189_1141)"/>
<path d="M1281.73 727.702C1302.57 727.702 1319.46 711.564 1319.46 691.656C1319.46 671.749 1302.57 655.611 1281.73 655.611C1260.89 655.611 1244 671.749 1244 691.656C1244 711.564 1260.89 727.702 1281.73 727.702Z" stroke="url(#paint20_linear_189_1141)" stroke-width="1.2" stroke-miterlimit="10"/>
<path d="M-9.58537 116.656C-32.8049 94.4746 -32.8049 58.4291 -9.58537 36.2472C13.6341 14.0654 51.3659 14.0654 74.5854 36.2472C97.8049 58.4291 97.8049 94.4746 74.5854 116.656C51.3659 138.838 13.6341 138.838 -9.58537 116.656Z" fill="url(#paint21_linear_189_1141)" stroke="url(#paint22_linear_189_1141)" stroke-width="1.2" stroke-miterlimit="10"/>
<path d="M32.5001 108.338C50.9343 108.338 65.8782 94.0622 65.8782 76.4518C65.8782 58.8415 50.9343 44.5654 32.5001 44.5654C14.0659 44.5654 -0.87793 58.8415 -0.87793 76.4518C-0.87793 94.0622 14.0659 108.338 32.5001 108.338Z" fill="url(#paint23_linear_189_1141)" stroke="url(#paint24_linear_189_1141)" stroke-width="1.2" stroke-miterlimit="10"/>
<path d="M1190.68 548.336C1190.68 547.377 1191.46 546.611 1192.44 546.611C1193.41 546.611 1194.19 547.377 1194.19 548.336C1194.19 549.294 1193.41 550.061 1192.44 550.061C1191.46 550.061 1190.68 549.294 1190.68 548.336Z" fill="#4E009C"/>
<path d="M1204.04 549.773C1204.34 548.815 1205.31 548.24 1206.19 548.527C1207.16 548.815 1207.75 549.773 1207.46 550.636C1207.16 551.594 1206.19 552.169 1205.31 551.881C1204.34 551.69 1203.75 550.731 1204.04 549.773Z" fill="#4E009C"/>
<path d="M1216.52 554.564C1217.01 553.702 1218.09 553.415 1218.96 553.894C1219.84 554.373 1220.13 555.427 1219.65 556.289C1219.16 557.152 1218.09 557.439 1217.21 556.96C1216.33 556.481 1216.04 555.331 1216.52 554.564Z" fill="#4E009C"/>
<path d="M1227.45 562.326C1228.13 561.656 1229.3 561.656 1229.98 562.326C1230.67 562.997 1230.67 564.147 1229.98 564.818C1229.3 565.489 1228.13 565.489 1227.45 564.818C1226.76 564.147 1226.76 562.997 1227.45 562.326Z" fill="#4E009C"/>
<path d="M1235.83 572.676C1236.71 572.196 1237.78 572.484 1238.27 573.346C1238.76 574.209 1238.47 575.263 1237.59 575.742C1236.71 576.221 1235.64 575.934 1235.15 575.071C1234.66 574.209 1234.96 573.155 1235.83 572.676Z" fill="#4E009C"/>
<path d="M1241.2 584.75C1242.17 584.462 1243.15 585.037 1243.34 585.995C1243.63 586.954 1243.05 587.912 1242.07 588.104C1241.1 588.391 1240.12 587.816 1239.93 586.858C1239.73 585.995 1240.32 585.037 1241.2 584.75Z" fill="#4E009C"/>
<path d="M1243.24 597.878C1244.22 597.878 1245 598.645 1245 599.603C1245 600.561 1244.22 601.328 1243.24 601.328C1242.27 601.328 1241.49 600.561 1241.49 599.603C1241.39 598.645 1242.27 597.878 1243.24 597.878Z" fill="#4E009C"/>
<path d="M1241.68 611.006C1242.66 611.294 1243.15 612.252 1242.95 613.21C1242.66 614.168 1241.68 614.648 1240.71 614.456C1239.73 614.168 1239.25 613.21 1239.44 612.252C1239.73 611.294 1240.71 610.719 1241.68 611.006Z" fill="#4E009C"/>
<path d="M1236.71 623.272C1237.59 623.751 1237.88 624.805 1237.3 625.667C1236.81 626.53 1235.74 626.817 1234.86 626.242C1233.98 625.763 1233.69 624.709 1234.27 623.847C1234.76 623.08 1235.93 622.793 1236.71 623.272Z" fill="#4E009C"/>
<path d="M1228.71 633.813C1229.4 634.484 1229.4 635.633 1228.71 636.304C1228.03 636.975 1226.86 636.975 1226.18 636.304C1225.5 635.633 1225.5 634.484 1226.18 633.813C1226.86 633.142 1228.03 633.142 1228.71 633.813Z" fill="#4E009C"/>
<path d="M1218.09 642.054C1218.57 642.916 1218.28 643.97 1217.4 644.449C1216.53 644.929 1215.45 644.641 1214.97 643.779C1214.48 642.916 1214.77 641.862 1215.65 641.383C1216.53 640.904 1217.6 641.191 1218.09 642.054Z" fill="#4E009C"/>
<path d="M1205.8 647.228C1205.99 648.187 1205.51 649.145 1204.53 649.336C1203.56 649.528 1202.58 649.049 1202.39 648.091C1202.19 647.133 1202.68 646.174 1203.65 645.983C1204.53 645.695 1205.51 646.27 1205.8 647.228Z" fill="#4E009C"/>
<path d="M1192.44 649.049C1192.44 650.007 1191.66 650.774 1190.59 650.774C1189.61 650.774 1188.83 650.007 1188.83 648.953C1188.83 647.995 1189.61 647.228 1190.68 647.228C1191.66 647.324 1192.44 648.091 1192.44 649.049Z" fill="#4E009C"/>
<path d="M1179.08 647.42C1178.79 648.378 1177.81 648.857 1176.84 648.57C1175.86 648.282 1175.37 647.324 1175.57 646.366C1175.86 645.408 1176.84 644.929 1177.81 645.216C1178.79 645.599 1179.37 646.558 1179.08 647.42Z" fill="#4E009C"/>
<path d="M1166.6 642.437C1166.11 643.3 1165.04 643.491 1164.16 643.012C1163.28 642.533 1163.09 641.479 1163.57 640.616C1164.06 639.754 1165.13 639.562 1166.01 640.041C1166.89 640.616 1167.08 641.671 1166.6 642.437Z" fill="#4E009C"/>
<path d="M1155.87 634.483C1155.19 635.154 1154.02 635.154 1153.33 634.388C1152.65 633.717 1152.65 632.567 1153.43 631.896C1154.11 631.225 1155.28 631.225 1155.97 631.992C1156.65 632.663 1156.65 633.813 1155.87 634.483Z" fill="#4E009C"/>
<path d="M1147.68 624.038C1146.8 624.518 1145.73 624.23 1145.24 623.368C1144.75 622.505 1145.05 621.451 1145.92 620.972C1146.8 620.493 1147.87 620.78 1148.36 621.643C1148.85 622.505 1148.56 623.559 1147.68 624.038Z" fill="#4E009C"/>
<path d="M1142.51 611.869C1141.54 612.06 1140.56 611.485 1140.37 610.623C1140.17 609.664 1140.76 608.706 1141.63 608.515C1142.61 608.323 1143.58 608.898 1143.78 609.76C1144.07 610.623 1143.49 611.581 1142.51 611.869Z" fill="#4E009C"/>
<path d="M1140.76 598.74C1139.78 598.74 1139 597.878 1139 596.92C1139 595.961 1139.88 595.195 1140.85 595.195C1141.83 595.195 1142.61 596.057 1142.61 597.015C1142.51 597.974 1141.73 598.74 1140.76 598.74Z" fill="#4E009C"/>
<path d="M1142.51 585.612C1141.54 585.325 1141.05 584.366 1141.34 583.408C1141.63 582.45 1142.61 581.971 1143.58 582.258C1144.56 582.546 1145.05 583.504 1144.75 584.462C1144.46 585.325 1143.39 585.9 1142.51 585.612Z" fill="#4E009C"/>
<path d="M1147.68 573.442C1146.8 572.963 1146.61 571.813 1147.09 571.047C1147.58 570.184 1148.75 569.993 1149.53 570.472C1150.41 570.951 1150.6 572.101 1150.12 572.867C1149.63 573.634 1148.46 573.921 1147.68 573.442Z" fill="#4E009C"/>
<path d="M1155.87 562.997C1155.19 562.326 1155.19 561.176 1155.97 560.506C1156.65 559.835 1157.82 559.835 1158.5 560.601C1159.19 561.272 1159.19 562.422 1158.41 563.093C1157.72 563.668 1156.55 563.668 1155.87 562.997Z" fill="#4E009C"/>
<path d="M1166.6 554.948C1166.11 554.085 1166.5 553.031 1167.28 552.552C1168.16 552.073 1169.23 552.456 1169.72 553.223C1170.2 554.085 1169.81 555.139 1169.03 555.619C1168.16 556.098 1167.08 555.81 1166.6 554.948Z" fill="#4E009C"/>
<path d="M1179.08 549.965C1178.88 549.006 1179.47 548.048 1180.44 547.857C1181.42 547.665 1182.39 548.24 1182.59 549.198C1182.78 550.156 1182.2 551.115 1181.22 551.306C1180.25 551.498 1179.27 550.923 1179.08 549.965Z" fill="#4E009C"/>
<path d="M1291.1 170.422C1318.22 170.422 1340.2 149.421 1340.2 123.516C1340.2 97.6111 1318.22 76.6108 1291.1 76.6108C1263.98 76.6108 1242 97.6111 1242 123.516C1242 149.421 1263.98 170.422 1291.1 170.422Z" fill="url(#paint25_radial_189_1141)"/>
<path d="M451.024 620.065C467.054 620.065 480.049 607.652 480.049 592.338C480.049 577.025 467.054 564.611 451.024 564.611C434.995 564.611 422 577.025 422 592.338C422 607.652 434.995 620.065 451.024 620.065Z" fill="url(#paint26_radial_189_1141)"/>
<path d="M852.108 583.891C858.52 583.891 863.718 578.925 863.718 572.8C863.718 566.674 858.52 561.709 852.108 561.709C845.696 561.709 840.498 566.674 840.498 572.8C840.498 578.925 845.696 583.891 852.108 583.891Z" fill="url(#paint27_radial_189_1141)"/>
<path d="M843.158 426.076C843.158 412.212 855.01 400.89 869.522 400.89C884.034 400.89 895.886 412.212 895.886 426.076" stroke="url(#paint28_linear_189_1141)" stroke-width="1.2875" stroke-miterlimit="10"/>
<path d="M505.75 608.845C505.75 622.709 493.898 634.031 479.386 634.031C464.874 634.031 453.022 622.709 453.022 608.845" stroke="#4E009C" stroke-width="1.2" stroke-miterlimit="10"/>
</g>
<defs>
<linearGradient id="paint0_linear_189_1141" x1="185.206" y1="-203.619" x2="-168.288" y2="222.889" gradientUnits="userSpaceOnUse">
<stop stop-color="#DB70FF"/>
<stop offset="1" stop-color="#FF38D7"/>
</linearGradient>
<linearGradient id="paint1_linear_189_1141" x1="160.479" y1="-176.392" x2="-146.123" y2="193.539" gradientUnits="userSpaceOnUse">
<stop stop-color="#DB70FF"/>
<stop offset="1" stop-color="#FF38D7"/>
</linearGradient>
<linearGradient id="paint2_linear_189_1141" x1="135.753" y1="-149.165" x2="-123.957" y2="164.189" gradientUnits="userSpaceOnUse">
<stop stop-color="#DB70FF"/>
<stop offset="1" stop-color="#FF38D7"/>
</linearGradient>
<linearGradient id="paint3_linear_189_1141" x1="111.026" y1="-121.937" x2="-101.792" y2="134.838" gradientUnits="userSpaceOnUse">
<stop stop-color="#DB70FF"/>
<stop offset="1" stop-color="#FF38D7"/>
</linearGradient>
<linearGradient id="paint4_linear_189_1141" x1="86.2988" y1="-94.7102" x2="-79.6273" y2="105.488" gradientUnits="userSpaceOnUse">
<stop stop-color="#DB70FF"/>
<stop offset="1" stop-color="#FF38D7"/>
</linearGradient>
<linearGradient id="paint5_linear_189_1141" x1="61.5717" y1="-67.4827" x2="-57.4624" y2="76.1376" gradientUnits="userSpaceOnUse">
<stop stop-color="#DB70FF"/>
<stop offset="1" stop-color="#FF38D7"/>
</linearGradient>
<linearGradient id="paint6_linear_189_1141" x1="36.8453" y1="-40.2555" x2="-35.2965" y2="46.787" gradientUnits="userSpaceOnUse">
<stop stop-color="#DB70FF"/>
<stop offset="1" stop-color="#FF38D7"/>
</linearGradient>
<linearGradient id="paint7_linear_189_1141" x1="545.85" y1="741.616" x2="423.502" y2="889.235" gradientUnits="userSpaceOnUse">
<stop stop-color="#DB70FF"/>
<stop offset="1" stop-color="#FF38D7"/>
</linearGradient>
<linearGradient id="paint8_linear_189_1141" x1="528.857" y1="760.327" x2="438.733" y2="869.066" gradientUnits="userSpaceOnUse">
<stop stop-color="#DB70FF"/>
<stop offset="1" stop-color="#FF38D7"/>
</linearGradient>
<linearGradient id="paint9_linear_189_1141" x1="511.865" y1="779.037" x2="453.964" y2="848.897" gradientUnits="userSpaceOnUse">
<stop stop-color="#DB70FF"/>
<stop offset="1" stop-color="#FF38D7"/>
</linearGradient>
<linearGradient id="paint10_linear_189_1141" x1="494.874" y1="797.746" x2="469.196" y2="828.728" gradientUnits="userSpaceOnUse">
<stop stop-color="#DB70FF"/>
<stop offset="1" stop-color="#FF38D7"/>
</linearGradient>
<linearGradient id="paint11_linear_189_1141" x1="1485.5" y1="156.836" x2="1132" y2="583.344" gradientUnits="userSpaceOnUse">
<stop stop-color="#DB70FF"/>
<stop offset="1" stop-color="#FF38D7"/>
</linearGradient>
<linearGradient id="paint12_linear_189_1141" x1="1460.77" y1="184.063" x2="1154.17" y2="553.994" gradientUnits="userSpaceOnUse">
<stop stop-color="#DB70FF"/>
<stop offset="1" stop-color="#FF38D7"/>
</linearGradient>
<linearGradient id="paint13_linear_189_1141" x1="1436.05" y1="211.29" x2="1176.33" y2="524.644" gradientUnits="userSpaceOnUse">
<stop stop-color="#DB70FF"/>
<stop offset="1" stop-color="#FF38D7"/>
</linearGradient>
<linearGradient id="paint14_linear_189_1141" x1="1411.32" y1="238.517" x2="1198.5" y2="495.293" gradientUnits="userSpaceOnUse">
<stop stop-color="#DB70FF"/>
<stop offset="1" stop-color="#FF38D7"/>
</linearGradient>
<linearGradient id="paint15_linear_189_1141" x1="1386.59" y1="265.745" x2="1220.67" y2="465.943" gradientUnits="userSpaceOnUse">
<stop stop-color="#DB70FF"/>
<stop offset="1" stop-color="#FF38D7"/>
</linearGradient>
<linearGradient id="paint16_linear_189_1141" x1="1361.86" y1="292.972" x2="1242.83" y2="436.592" gradientUnits="userSpaceOnUse">
<stop stop-color="#DB70FF"/>
<stop offset="1" stop-color="#FF38D7"/>
</linearGradient>
<linearGradient id="paint17_linear_189_1141" x1="1337.14" y1="320.199" x2="1265" y2="407.242" gradientUnits="userSpaceOnUse">
<stop stop-color="#DB70FF"/>
<stop offset="1" stop-color="#FF38D7"/>
</linearGradient>
<linearGradient id="paint18_linear_189_1141" x1="669.527" y1="368.237" x2="608.488" y2="441.884" gradientUnits="userSpaceOnUse">
<stop stop-color="#FF5EDF"/>
<stop offset="1" stop-color="#FF38D7"/>
</linearGradient>
<linearGradient id="paint19_linear_189_1141" x1="1336.31" y1="635.059" x2="1197.47" y2="792.912" gradientUnits="userSpaceOnUse">
<stop stop-color="#8941C4"/>
<stop offset="1" stop-color="#4E009C"/>
</linearGradient>
<linearGradient id="paint20_linear_189_1141" x1="1307.42" y1="663.397" x2="1258.73" y2="722.151" gradientUnits="userSpaceOnUse">
<stop stop-color="#DB70FF"/>
<stop offset="1" stop-color="#FF38D7"/>
</linearGradient>
<linearGradient id="paint21_linear_189_1141" x1="27.2717" y1="-44.8147" x2="40.0765" y2="279.849" gradientUnits="userSpaceOnUse">
<stop stop-color="#8941C4"/>
<stop offset="1" stop-color="#4E009C"/>
</linearGradient>
<linearGradient id="paint22_linear_189_1141" x1="28.2009" y1="18.3677" x2="36.075" y2="134.617" gradientUnits="userSpaceOnUse">
<stop stop-color="#DB70FF"/>
<stop offset="1" stop-color="#FF38D7"/>
</linearGradient>
<linearGradient id="paint23_linear_189_1141" x1="-19.9095" y1="30.3584" x2="114.497" y2="159.896" gradientUnits="userSpaceOnUse">
<stop stop-color="#8941C4"/>
<stop offset="1" stop-color="#4E009C"/>
</linearGradient>
<linearGradient id="paint24_linear_189_1141" x1="6.20451" y1="54.6623" x2="56.7437" y2="100.56" gradientUnits="userSpaceOnUse">
<stop stop-color="#DB70FF"/>
<stop offset="1" stop-color="#FF38D7"/>
</linearGradient>
<radialGradient id="paint25_radial_189_1141" cx="0" cy="0" r="1" gradientUnits="userSpaceOnUse" gradientTransform="translate(1271.1 110.297) scale(73.4837 70.1997)">
<stop stop-color="#DA6EFF"/>
<stop offset="0.5388" stop-color="#FF38D7"/>
<stop offset="0.9703" stop-color="#4E009C"/>
</radialGradient>
<radialGradient id="paint26_radial_189_1141" cx="0" cy="0" r="1" gradientUnits="userSpaceOnUse" gradientTransform="translate(439.212 584.533) scale(43.4248 41.4842)">
<stop stop-color="#C370FF"/>
<stop offset="0.5388" stop-color="#A21DF6"/>
<stop offset="0.9703" stop-color="#4E009C"/>
</radialGradient>
<radialGradient id="paint27_radial_189_1141" cx="0" cy="0" r="1" gradientUnits="userSpaceOnUse" gradientTransform="translate(847.391 569.687) scale(17.3699 16.5936)">
<stop stop-color="#DA6EFF"/>
<stop offset="0.5388" stop-color="#FF38D7"/>
<stop offset="0.9703" stop-color="#4E009C"/>
</radialGradient>
<linearGradient id="paint28_linear_189_1141" x1="885.244" y1="403.803" x2="856.541" y2="438.435" gradientUnits="userSpaceOnUse">
<stop stop-color="#DB70FF"/>
<stop offset="1" stop-color="#FF38D7"/>
</linearGradient>
</defs>
</svg>
