<svg width="30" height="23" viewBox="0 0 30 23" fill="none" xmlns="http://www.w3.org/2000/svg">
<path d="M24.2725 0.292254L24.2725 0.29221L12.8437 4.79331C12.8436 4.79339 12.8434 4.79346 12.8432 4.79354C12.5591 4.90907 12.2553 4.96847 11.9486 4.96844H4.63125C4.04734 4.96844 3.48735 5.2004 3.07447 5.61328C2.66158 6.02617 2.42963 6.58616 2.42963 7.17007V7.35532V7.46932H2.31563H0.114V12.7988H2.31563H2.42963V12.9128V13.1522C2.44376 13.7265 2.68174 14.2724 3.09282 14.6736C3.50422 15.0752 4.05635 15.2999 4.63122 15.2997L4.70351 15.2997L4.73436 15.3651L7.513 21.2558C7.69197 21.6331 7.97373 21.9523 8.32593 22.1767C8.67797 22.401 9.08612 22.5215 9.50353 22.5244H10.67C11.2506 22.5197 11.8059 22.2857 12.2149 21.8734C12.624 21.461 12.8535 20.9037 12.8535 20.3228V15.636V15.4677L13.0098 15.5301L24.2729 20.0316L24.2725 0.292254ZM24.2725 0.292254L24.2755 0.290977M24.2725 0.292254L24.2755 0.290977M24.2755 0.290977C24.6071 0.149313 24.9685 0.091287 25.3278 0.121998C25.6867 0.152677 26.0327 0.270964 26.3352 0.466476M24.2755 0.290977L26.3352 0.466476M26.3352 0.466476C26.6317 0.667111 26.8748 0.937031 27.0435 1.25285C27.2122 1.56888 27.3013 1.92131 27.303 2.27956C27.303 2.2797 27.303 2.27984 27.303 2.27998L27.303 18.0426C27.2927 18.3914 27.1996 18.7328 27.0314 19.0386C26.863 19.3449 26.624 19.6067 26.3343 19.8023C25.9692 20.0482 25.5406 20.183 25.1005 20.1903C24.8171 20.1903 24.5363 20.1365 24.273 20.0317L26.3352 0.466476ZM27.5866 12.3327V7.93539C28.129 7.96349 28.6434 8.19135 29.0294 8.57728C29.4422 8.99017 29.6742 9.55016 29.6742 10.1341C29.6742 10.718 29.4422 11.278 29.0294 11.6909C28.6434 12.0768 28.129 12.3046 27.5866 12.3327ZM10.7659 7.17007V7.05607H10.6519H4.63125H4.51725V7.17007V13.1536V13.2676H4.63125H10.6519H10.7659V13.1536V7.17007ZM10.6519 20.4368H10.7659V20.3228V15.4137V15.2997H10.6519H7.20623H7.02763L7.10282 15.4617L9.3814 20.3708L9.41203 20.4368H9.4848H10.6519ZM13.601 13.533L13.6008 13.5335L13.6108 13.5374L25.0592 18.0946L25.2154 18.1567V17.9887V2.27947V2.11139L25.0592 2.17355L13.6112 6.73052C13.6112 6.73054 13.6111 6.73055 13.6111 6.73057C13.3949 6.81552 13.1719 6.88181 12.9445 6.92874L12.8535 6.94751V7.04039V13.1536V13.2379L12.934 13.2626C13.1638 13.3332 13.387 13.4236 13.601 13.533Z" fill="#4E009C" stroke="#FFEFFC" stroke-width="0.228"/>
</svg>
