<svg width="28" height="27" viewBox="0 0 28 27" fill="none" xmlns="http://www.w3.org/2000/svg">
<path d="M10.2871 13.0497C10.2871 11.6998 10.2871 10.3499 10.2871 8.99993C10.2871 7.7625 11.1087 6.98828 12.4106 6.98828C13.4759 6.98828 14.5342 6.98828 15.5994 6.98828C16.7831 6.9949 17.6325 7.78897 17.6325 8.90729C17.6394 11.6667 17.6394 14.4195 17.6325 17.1789C17.6325 18.3038 16.7831 19.1045 15.5994 19.1045C14.5063 19.1111 13.4132 19.1111 12.3201 19.1045C11.1365 19.0979 10.2941 18.3038 10.2871 17.1789C10.2871 15.8091 10.2871 14.4327 10.2871 13.0497ZM11.2688 13.0497C11.2688 14.4195 11.2688 15.7893 11.2688 17.159C11.2688 17.7877 11.6796 18.1781 12.3341 18.1781C13.4063 18.1781 14.4785 18.1781 15.5507 18.1781C16.2539 18.1781 16.6438 17.8009 16.6508 17.1259C16.6508 14.4062 16.6508 11.6865 16.6508 8.96685C16.6508 8.2985 16.2539 7.92132 15.5507 7.92132C14.4994 7.92132 13.448 7.92132 12.3967 7.92132C11.6587 7.92132 11.2688 8.29189 11.2688 8.99993C11.2688 10.3499 11.2688 11.6998 11.2688 13.0497Z" fill="#4E009C"/>
<path d="M4.4316 17.9861C5.42722 17.9861 6.24879 18.2375 6.97984 18.7404C7.13302 18.8463 7.2096 18.8132 7.32796 18.7007C7.78052 18.2574 8.247 17.814 8.71349 17.3839C8.99198 17.1258 9.30529 17.1324 9.5072 17.3905C9.66734 17.5956 9.63949 17.8206 9.40973 18.039C8.95717 18.4757 8.50461 18.9125 8.04509 19.336C7.90585 19.4617 7.878 19.5411 7.99636 19.7132C8.95021 21.0697 9.07553 22.5057 8.26093 23.9482C7.45329 25.3908 6.12346 26.1055 4.40375 26.0988C2.23147 26.0856 0.414279 24.4313 0.233256 22.3402C0.0591953 20.3153 1.58397 18.436 3.69358 18.0588C3.97208 18.0059 4.24361 17.9927 4.4316 17.9861ZM4.50818 18.9257C2.69099 18.9257 1.21496 20.322 1.21496 22.0424C1.21496 23.7629 2.69099 25.1724 4.50122 25.179C6.31145 25.1856 7.78748 23.7828 7.79445 22.0557C7.78748 20.322 6.32537 18.9257 4.50818 18.9257Z" fill="#4E009C"/>
<path d="M19.1571 22.0956C19.1571 21.1758 19.4147 20.395 19.9508 19.7001C20.0622 19.5546 20.0413 19.4818 19.916 19.3627C19.4425 18.9325 18.983 18.4892 18.5304 18.0458C18.2798 17.8076 18.2589 17.5561 18.4608 17.351C18.6697 17.1393 18.9551 17.1459 19.2128 17.3841C19.6792 17.8208 20.1457 18.2576 20.5983 18.7009C20.7306 18.8333 20.8141 18.8333 20.9742 18.734C22.4294 17.8142 23.9611 17.7017 25.4859 18.5024C27.0316 19.3163 27.7696 20.6266 27.693 22.3073C27.5955 24.319 25.8271 25.9799 23.6896 26.1057C21.5521 26.2314 19.6096 24.7888 19.2336 22.7904C19.1779 22.5323 19.171 22.2875 19.1571 22.0956ZM20.1457 22.0427C20.1457 23.7698 21.6148 25.1726 23.425 25.1726C25.2353 25.1726 26.7182 23.7698 26.7182 22.0493C26.7182 20.3288 25.2492 18.9259 23.432 18.9259C21.6148 18.9193 20.1457 20.3089 20.1457 22.0427Z" fill="#4E009C"/>
<path d="M8.76899 3.98419C8.76899 4.92384 8.51138 5.70468 7.98223 6.40611C7.8778 6.54507 7.8778 6.61786 8.01008 6.74359C8.42087 7.12077 8.82469 7.51119 9.22851 7.89499C9.48612 8.13983 9.51397 8.41114 9.31206 8.60966C9.10318 8.82141 8.79684 8.80156 8.53226 8.55011C8.12844 8.1663 7.71766 7.78912 7.3208 7.39208C7.19548 7.26635 7.11889 7.26635 6.96572 7.36561C5.50361 8.29865 3.96492 8.40452 2.42622 7.5906C0.894487 6.77668 0.163432 5.47307 0.233056 3.80552C0.316605 1.80049 2.09899 0.126315 4.23645 0.00720391C6.36695 -0.118524 8.30947 1.31081 8.6924 3.28275C8.7481 3.54083 8.76202 3.7989 8.76899 3.98419ZM7.78729 4.06359C7.79425 2.33648 6.32518 0.933622 4.51495 0.927005C2.70472 0.920388 1.22172 2.32325 1.21476 4.04374C1.2078 5.76423 2.67687 7.16709 4.49406 7.17371C6.30429 7.18695 7.78032 5.79732 7.78729 4.06359Z" fill="#4E009C"/>
<path d="M23.4739 8.11316C22.5131 8.11316 21.6915 7.8617 20.9605 7.35879C20.8073 7.25291 20.7307 7.27277 20.6123 7.39188C20.2016 7.79553 19.7769 8.19257 19.3591 8.58961C19.1851 8.75504 18.9692 8.80797 18.7464 8.69548C18.5445 8.59622 18.4679 8.41756 18.5027 8.2058C18.5236 8.07346 18.6141 7.98082 18.7046 7.88817C19.1085 7.50437 19.5053 7.11395 19.9231 6.73677C20.0554 6.61766 20.0554 6.54487 19.9579 6.39929C18.9692 5.00304 18.8578 3.53401 19.7212 2.06497C20.5845 0.609172 21.9631 -0.0724074 23.7176 0.00038266C25.8063 0.0930245 27.5748 1.78043 27.7001 3.75238C27.8324 5.84344 26.3355 7.68304 24.2189 8.04037C23.9473 8.09331 23.6897 8.10654 23.4739 8.11316ZM23.4391 7.18674C25.2563 7.17351 26.7254 5.77065 26.7184 4.05015C26.7114 2.32966 25.2215 0.926801 23.4112 0.933418C21.601 0.940036 20.1319 2.34951 20.1389 4.07662C20.1528 5.80373 21.6289 7.19336 23.4391 7.18674Z" fill="#4E009C"/>
<path d="M7.66932 13.5193C7.18195 13.5193 6.68762 13.5325 6.20025 13.5127C5.99137 13.5061 5.90782 13.559 5.84516 13.7575C5.504 14.7501 4.45268 15.3788 3.39439 15.253C2.30825 15.1273 1.41706 14.2803 1.33351 13.2877C1.243 12.176 1.89747 11.2363 2.99057 10.9253C4.18811 10.5812 5.46223 11.2099 5.85213 12.348C5.91479 12.5333 5.99137 12.5863 6.18632 12.5796C7.19587 12.573 8.21239 12.573 9.22194 12.5796C9.62576 12.5796 9.86944 12.8973 9.7302 13.2215C9.63272 13.4333 9.4517 13.5127 9.21498 13.5127C8.69279 13.5127 8.17758 13.5193 7.66932 13.5193ZM2.30129 13.0627C2.30825 13.7708 2.90006 14.3332 3.64504 14.3332C4.38305 14.3332 4.98879 13.7575 4.99575 13.0561C5.00271 12.348 4.37609 11.7591 3.62415 11.7723C2.87917 11.779 2.29433 12.348 2.30129 13.0627Z" fill="#4E009C"/>
<path d="M20.257 12.5865C20.7583 12.5865 21.2596 12.5732 21.7608 12.5931C21.9697 12.5997 22.0254 12.5203 22.0881 12.3483C22.4223 11.3954 23.3622 10.7998 24.4205 10.8395C25.43 10.8792 26.3073 11.574 26.551 12.5203C26.8504 13.6585 26.1681 14.8033 24.9844 15.1606C23.8078 15.5113 22.5476 14.9356 22.1299 13.8239C22.0324 13.5658 21.9071 13.4997 21.6355 13.5063C20.6886 13.5261 19.7348 13.5129 18.7879 13.5129C18.405 13.5129 18.1822 13.3408 18.1891 13.0431C18.1891 12.7519 18.4119 12.5799 18.8018 12.5799C19.2753 12.5799 19.7626 12.5865 20.257 12.5865ZM25.625 13.0431C25.625 12.335 25.0262 11.7726 24.2812 11.7726C23.5432 11.7726 22.9375 12.3483 22.9305 13.0497C22.9236 13.7577 23.5502 14.3467 24.2952 14.3401C25.0401 14.3268 25.632 13.7577 25.625 13.0431Z" fill="#4E009C"/>
<path d="M13.4756 5.80365C13.4622 5.43453 13.6079 5.04069 13.4615 4.70159C13.3789 4.51038 13.193 4.36555 12.8838 4.23535C11.8672 3.80523 11.4217 2.69353 11.735 1.6877C12.0622 0.642173 13.0717 0.0135322 14.2414 0.112791C15.2719 0.198816 16.1422 1.02598 16.2814 2.05827C16.4207 3.07071 15.7453 4.08316 14.694 4.4074C14.499 4.46696 14.4433 4.53975 14.4503 4.72503C14.4642 5.08236 14.4573 5.4397 14.4503 5.80365C14.4433 6.12128 14.2484 6.32641 13.9629 6.32641C13.6775 6.32641 13.4825 6.12128 13.4756 5.80365ZM13.9629 1.03259C13.218 1.03259 12.6192 1.59506 12.6122 2.29649C12.6053 3.01116 13.2319 3.60009 13.9769 3.59348C14.7149 3.58686 15.3136 3.00454 15.3136 2.30311C15.3067 1.59506 14.7149 1.03259 13.9629 1.03259Z" fill="#4E009C"/>
<path d="M14.4641 20.2824C14.4508 20.6742 14.328 21.0992 14.5065 21.4482C14.591 21.6135 14.7575 21.7458 15.042 21.8573C16.0585 22.261 16.511 23.3925 16.2047 24.3983C15.8844 25.4306 14.9027 26.0659 13.733 25.9865C12.6887 25.9137 11.7975 25.0865 11.6513 24.0476C11.512 23.055 12.1526 22.0558 13.176 21.725C13.4336 21.6455 13.4963 21.5331 13.4824 21.2948C13.4615 20.9574 13.4754 20.6133 13.4824 20.2758C13.4893 19.978 13.6843 19.7795 13.9628 19.7729C14.2482 19.7662 14.4571 19.9714 14.4641 20.2824ZM13.9698 25.0667C14.7147 25.0667 15.3135 24.4976 15.3135 23.7962C15.3135 23.0947 14.7147 22.519 13.9767 22.5058C13.2317 22.4992 12.6121 23.0881 12.619 23.8028C12.619 24.5108 13.2178 25.0733 13.9698 25.0667Z" fill="#4E009C"/>
<path d="M16.0584 11.7994C16.0654 12.0179 15.9749 12.1569 15.7939 12.2429C15.5571 12.3555 15.3622 12.2827 15.1812 12.1238C14.659 11.6803 14.0463 11.5876 13.3849 11.7663C13.1342 11.8325 12.9253 11.9715 12.7304 12.1304C12.4589 12.3555 12.1664 12.3422 11.9785 12.1238C11.7974 11.9186 11.8392 11.6538 12.0829 11.4353C13.1203 10.5085 14.7913 10.5019 15.8356 11.4221C15.954 11.5346 16.0584 11.6538 16.0584 11.7994Z" fill="#4E009C"/>
<path d="M13.9769 12.0967C14.4434 12.0967 14.889 12.2357 15.258 12.5601C15.4877 12.7587 15.5226 13.0301 15.3485 13.2287C15.1605 13.4471 14.889 13.4604 14.6174 13.2618C14.1579 12.9242 13.768 12.9308 13.2876 13.2684C13.0161 13.4604 12.7376 13.4471 12.5566 13.2287C12.3825 13.0235 12.4173 12.7653 12.654 12.5601C13.03 12.2423 13.4617 12.0967 13.9769 12.0967Z" fill="#4E009C"/>
<path d="M13.9838 16.8943C14.2971 16.8943 14.6174 16.8877 14.9307 16.8943C15.2231 16.9009 15.425 17.0863 15.432 17.3378C15.4389 17.5828 15.244 17.8079 14.9655 17.8145C14.3041 17.8277 13.6426 17.8277 12.9812 17.8145C12.6818 17.8079 12.4799 17.5828 12.4938 17.318C12.5078 17.0664 12.7097 16.8943 13.0091 16.8877C13.3363 16.8877 13.6566 16.8943 13.9838 16.8943Z" fill="#4E009C"/>
<path d="M13.977 14.5192C13.6428 14.5258 13.3643 14.2742 13.3643 13.9631C13.3643 13.6652 13.6219 13.407 13.9421 13.4004C14.2833 13.3872 14.5548 13.6321 14.5688 13.9432C14.5757 14.2478 14.3111 14.5125 13.977 14.5192Z" fill="#090909"/>
</svg>
