<svg width="35" height="34" viewBox="0 0 35 34" fill="none" xmlns="http://www.w3.org/2000/svg">
<path d="M16.784 0.496338C16.944 0.496338 17.1029 0.521138 17.2575 0.562535C17.6016 0.654695 17.9529 0.730998 18.2718 0.892528C19.6404 1.59169 20.4225 2.65208 20.5202 4.14362C20.5306 4.33051 20.5844 4.41776 20.7406 4.41939C20.8057 4.42007 20.8706 4.41163 20.9357 4.41163C21.3878 4.44658 21.73 4.42328 22.0111 3.93387C22.3654 3.30463 23.233 3.11818 23.9662 3.37454C24.6383 3.60759 25.1271 4.31841 25.066 4.97095C25.0049 5.72838 24.4672 6.33431 23.7096 6.4858C22.9886 6.63728 22.1944 6.32266 21.8766 5.67011C21.73 5.39045 21.5589 5.35549 21.2901 5.35549C20.5447 5.36714 20.5447 5.35549 20.5447 6.07796C20.5447 6.81207 20.5569 7.54619 20.5447 8.28031C20.5447 8.49005 20.6058 8.54832 20.8257 8.54832C22.0599 8.53666 23.2819 8.53666 24.5161 8.54832C24.7483 8.54832 24.9194 8.4784 25.0782 8.32692C25.5915 7.8375 26.1047 7.34809 26.6301 6.85868C26.7523 6.74216 26.7768 6.67224 26.7035 6.5091C26.2636 5.63515 26.6546 4.63303 27.5711 4.2718C28.4876 3.91056 29.5507 4.38832 29.8562 5.27392C30.1617 6.18283 29.6118 7.10339 28.6342 7.35975C28.3776 7.41801 28.121 7.44132 27.8766 7.35975C27.6566 7.28983 27.5344 7.35975 27.3878 7.49958C26.8623 8.01229 26.3246 8.50171 25.7992 9.01442C25.4448 9.35235 25.0416 9.51549 24.5406 9.50383C23.3064 9.49218 22.0844 9.50383 20.8502 9.49218C20.6302 9.49218 20.5691 9.55044 20.5691 9.76019C20.5813 10.2496 20.5813 10.739 20.5691 11.2284C20.5569 11.4498 20.6424 11.4848 20.8502 11.4848C22.5121 11.4731 24.1862 11.4848 25.8481 11.4731C26.3613 11.4731 26.7768 11.6246 27.1312 11.9858C27.4 12.2539 27.6933 12.5102 27.9621 12.7782C28.2065 13.0229 28.2187 13.3142 28.011 13.5123C27.791 13.7104 27.5222 13.6988 27.2656 13.4657C26.9723 13.1977 26.6912 12.9297 26.4102 12.65C26.2635 12.4986 26.0925 12.4403 25.8725 12.4403C24.1984 12.4403 22.5121 12.452 20.838 12.4403C20.6058 12.4403 20.5569 12.5102 20.5691 12.7083C20.5813 13.4541 20.5813 14.1999 20.5691 14.9456C20.5691 15.1554 20.6302 15.2369 20.8502 15.202C20.9235 15.1903 21.009 15.1903 21.0823 15.202C21.51 15.2369 21.84 15.2136 22.0966 14.7475C22.4632 14.1066 23.343 13.9085 24.0762 14.1649C24.7483 14.4096 25.2249 15.0971 25.176 15.773C25.1149 16.5187 24.565 17.1363 23.8074 17.2878C23.062 17.4393 22.2921 17.1014 21.95 16.4372C21.8278 16.1925 21.6811 16.1458 21.4367 16.1575C21.1557 16.1808 20.7891 16.0759 20.6302 16.2158C20.4347 16.3789 20.5691 16.7401 20.5691 17.0081C20.5569 17.8122 20.5691 18.6046 20.5569 19.4086C20.5569 19.6183 20.618 19.6766 20.838 19.6766C22.4021 19.6649 23.9662 19.6649 25.5304 19.6766C25.7259 19.6766 25.8114 19.63 25.9092 19.4552C26.2758 18.7211 27.0945 18.3715 27.8888 18.5812C28.6953 18.791 29.1963 19.4785 29.1352 20.2942C29.0863 21.0516 28.4509 21.6692 27.62 21.7741C26.9112 21.8556 26.2147 21.4944 25.897 20.8535C25.8114 20.6787 25.7137 20.6321 25.5181 20.6321C23.954 20.6438 22.3899 20.6438 20.8257 20.6321C20.6058 20.6321 20.5447 20.6904 20.5447 20.9001C20.5569 21.7974 20.5569 22.6946 20.5447 23.5919C20.5447 23.8016 20.6058 23.8599 20.8257 23.8599C22.1088 23.8482 23.4041 23.8482 24.6872 23.8599C24.8705 23.8599 24.956 23.8133 25.0293 23.6501C25.3837 22.9277 26.1658 22.5781 26.9723 22.7529C27.7299 22.916 28.2798 23.5919 28.2798 24.3377C28.2798 25.0951 27.7299 25.7476 26.9356 25.9224C26.1658 26.0972 25.3837 25.736 25.0293 25.0135C24.9438 24.8504 24.8583 24.8038 24.675 24.8038C23.3919 24.8154 22.0966 24.8154 20.8135 24.8038C20.5813 24.8038 20.5325 24.8737 20.5447 25.0718C20.5569 25.7593 20.5569 26.4351 20.5447 27.1226C20.5447 27.3207 20.5936 27.379 20.8013 27.379C21.5345 27.3673 22.2799 27.379 23.0131 27.3673C23.5141 27.3673 23.9296 27.5188 24.2717 27.8568C24.565 28.1481 24.8827 28.4277 25.176 28.719C25.3226 28.8705 25.4448 28.9055 25.6648 28.8472C26.5813 28.6025 27.51 29.1269 27.7544 30.0008C27.9988 30.8631 27.4611 31.7371 26.5324 31.9818C25.6526 32.2148 24.7116 31.7254 24.455 30.8631C24.345 30.4902 24.345 30.129 24.5406 29.7794C24.6261 29.628 24.6139 29.5231 24.4795 29.3949C24.1617 29.1269 23.8685 28.8356 23.5752 28.5443C23.4286 28.3928 23.2575 28.3229 23.0375 28.3229C22.3043 28.3229 21.5589 28.3345 20.8257 28.3229C20.6058 28.3229 20.5447 28.3811 20.5447 28.5909C20.5569 29.3366 20.5936 30.0824 20.2758 30.7932C19.616 32.2498 18.4673 33.1004 16.8299 33.217C15.1802 33.3335 13.8849 32.6809 13.0173 31.3059C12.8829 31.0962 12.7607 31.003 12.4796 31.003C10.2556 30.9797 8.4715 29.4066 8.27598 27.2974C8.26376 27.1226 8.21488 27.0877 8.04381 27.0993C7.79941 27.1226 7.55501 27.1226 7.31062 27.0993C7.02956 27.076 6.85848 26.9245 6.84626 26.6449C6.83404 26.3652 7.00512 26.2021 7.28618 26.1671C7.44503 26.1438 7.61611 26.1555 7.78719 26.1555C8.43484 26.1205 9.03361 25.9224 9.57128 25.5728C9.6446 25.5262 9.71792 25.4796 9.79124 25.433C10.0601 25.2932 10.3289 25.3281 10.4755 25.5379C10.6344 25.7476 10.5977 26.0273 10.3534 26.2137C10.0845 26.4118 9.81568 26.6099 9.49796 26.7148C9.30245 26.7847 9.25357 26.8896 9.26579 27.076C9.36355 28.3345 10.0112 29.2551 11.2087 29.7794C12.3696 30.2805 13.4938 30.129 14.5325 29.4066C14.6303 29.3366 14.7158 29.2551 14.8258 29.1852C15.0946 29.0104 15.3635 29.022 15.5468 29.2318C15.7301 29.4415 15.7178 29.6979 15.4735 29.9193C15.0702 30.2805 14.6181 30.5602 14.0926 30.7466C13.9704 30.7932 13.8604 30.8049 13.9826 30.9797C14.6669 31.9002 15.5957 32.3547 16.7688 32.2731C17.6865 32.2086 18.398 31.831 18.9335 31.1633C19.1336 30.9138 18.9334 30.5887 18.6139 30.5718C18.3207 30.5602 18.1618 30.4087 18.1252 30.1407C18.1007 29.8843 18.2718 29.6746 18.5773 29.6396C18.8339 29.6163 19.0905 29.6163 19.3471 29.628C19.5182 29.628 19.5793 29.6047 19.5793 29.4182C19.5671 28.3695 19.5671 27.3324 19.5793 26.2836C19.5793 26.1205 19.5182 26.0856 19.3594 26.0856C18.9072 26.0972 18.4673 26.0739 18.0152 26.0972C17.1476 26.1322 16.561 26.6798 16.4633 27.4955C16.4266 27.8684 16.2189 28.0782 15.9256 28.0665C15.6079 28.0432 15.4368 27.8101 15.4612 27.4139C15.5468 26.1322 16.6588 25.1766 18.1007 25.1417C18.504 25.13 18.9072 25.13 19.3105 25.1417C19.506 25.1533 19.5793 25.1184 19.5793 24.9086C19.5671 22.8694 19.5671 20.8302 19.5793 18.791C19.5793 18.5579 19.4816 18.5463 19.286 18.5463C16.7932 18.5463 14.3004 18.5463 11.8075 18.5463C11.7342 18.5463 11.6487 18.5463 11.5753 18.5463C11.1599 18.5463 10.9155 18.3598 10.9155 18.0685C10.9277 17.7772 11.1721 17.5908 11.5876 17.5908C14.1293 17.5908 16.671 17.5791 19.2005 17.6024C19.4938 17.6024 19.5793 17.5442 19.5793 17.2412C19.5671 14.7825 19.5671 12.3354 19.5793 9.87672C19.5793 9.55044 19.4816 9.50383 19.1761 9.50383C17.9785 9.52714 16.781 9.51549 15.5834 9.50383C14.0804 9.49218 12.9073 8.4551 12.8462 7.09174C12.834 6.7305 12.9806 6.52076 13.2861 6.4858C13.6038 6.46249 13.8116 6.64894 13.8482 7.02182C13.9582 7.95403 14.6058 8.52501 15.5834 8.53666C16.8299 8.54832 18.0641 8.53666 19.3105 8.54832C19.5182 8.54832 19.5793 8.51336 19.5793 8.30361C19.5671 7.3947 19.5671 6.4858 19.5793 5.58854C19.5793 5.39045 19.5182 5.33219 19.3227 5.34384C19.1272 5.35549 18.9194 5.35549 18.7239 5.34384C18.3573 5.33219 18.1374 5.1574 18.1252 4.87773C18.1129 4.58642 18.3451 4.39997 18.7361 4.38832C18.9072 4.38832 19.0783 4.37667 19.2372 4.38832C19.506 4.42328 19.5915 4.35336 19.5671 4.0737C19.4571 2.88513 18.5651 1.883 17.2698 1.53342C16.1089 1.23045 14.7403 1.71987 14.0437 2.67538C13.8727 2.90844 13.9582 2.95505 14.1782 3.04827C15.8034 3.72412 16.6832 4.91269 16.8176 6.59067C16.8543 6.99851 16.6832 7.23157 16.3655 7.25487C16.0478 7.27818 15.84 7.05678 15.8156 6.63728C15.6812 4.936 14.2881 3.68916 12.5285 3.68916C10.7566 3.68916 9.26579 5.14574 9.30245 6.83538C9.32689 7.76759 9.22913 7.8375 8.2882 7.66272C5.96644 7.23157 3.90129 9.31739 4.51228 11.4731C4.57338 11.6712 4.62226 11.7062 4.81777 11.6363C5.35545 11.4498 5.91756 11.3683 6.49189 11.3566C6.89514 11.3566 7.12732 11.4964 7.15176 11.7878C7.1762 12.0907 6.94402 12.2888 6.52855 12.3121C5.41654 12.3587 4.43896 12.7083 3.57135 13.3609C1.10295 15.2369 1.32291 19.0357 3.97461 20.6671C4.13346 20.7603 4.19456 20.7253 4.2801 20.6088C4.61004 20.201 5.01329 19.863 5.47764 19.595C5.8198 19.4086 6.10085 19.4319 6.27193 19.6766C6.44301 19.9213 6.35747 20.201 6.01532 20.3991C5.13549 20.9118 4.5856 21.6459 4.42674 22.6131C4.29232 23.4054 4.48784 24.1396 4.95219 24.8038C5.03773 24.9319 5.14771 25.0368 5.22103 25.165C5.37989 25.4097 5.34323 25.6661 5.11105 25.8175C4.86665 25.9807 4.62226 25.9457 4.42674 25.736C3.98683 25.2582 3.68133 24.6989 3.51025 24.0813C3.30252 23.3355 3.32696 22.5781 3.58357 21.844C3.64467 21.6692 3.62023 21.5876 3.46137 21.4828C1.29847 20.0378 0.455299 18.0569 0.980751 15.5982C1.27403 14.2115 2.11719 13.1162 3.3514 12.3121C3.55913 12.1723 3.63245 12.0791 3.54691 11.8111C2.65487 9.1426 5.00107 6.42753 7.93383 6.68389C8.12934 6.69555 8.2271 6.69555 8.23932 6.46249C8.38596 4.39997 10.2434 2.7686 12.4429 2.7453C12.7118 2.7453 12.8462 2.66373 12.9806 2.44233C13.5549 1.48681 14.4103 0.880875 15.5223 0.612864C15.7199 0.565756 15.9429 0.496338 16.146 0.496338C16.3587 0.496338 16.5713 0.496338 16.784 0.496338ZM28.1943 6.45084C28.5731 6.45084 28.903 6.13622 28.903 5.77499C28.903 5.42541 28.5487 5.09913 28.1821 5.11079C27.8155 5.12244 27.4978 5.42541 27.4978 5.76333C27.4855 6.14787 27.8032 6.45084 28.1943 6.45084ZM28.1087 20.1544C28.0965 19.7931 27.7666 19.4902 27.3878 19.5018C27.0212 19.5135 26.7035 19.8281 26.7035 20.166C26.7035 20.5156 27.0456 20.8419 27.4244 20.8302C27.8032 20.8302 28.121 20.5272 28.1087 20.1544ZM26.0925 31.0962C26.4835 31.0962 26.789 30.7932 26.789 30.4203C26.7768 30.0708 26.4591 29.7794 26.0925 29.7678C25.7137 29.7678 25.3837 30.0708 25.3837 30.432C25.3837 30.8049 25.7014 31.0962 26.0925 31.0962ZM23.4163 16.3789C23.8074 16.3789 24.1373 16.0759 24.1373 15.7147C24.1373 15.3651 23.7951 15.0505 23.4286 15.0505C23.062 15.0505 22.7442 15.3418 22.732 15.703C22.7198 16.0759 23.0253 16.3789 23.4163 16.3789ZM22.6465 4.90104C22.6465 5.27392 22.9642 5.56524 23.3552 5.55359C23.7218 5.54193 24.0395 5.25062 24.0518 4.90104C24.064 4.55146 23.7218 4.22518 23.343 4.22518C22.9642 4.22518 22.6465 4.53981 22.6465 4.90104ZM27.2534 24.3493C27.2534 23.9881 26.9234 23.6735 26.5446 23.6735C26.1658 23.6735 25.8481 23.9997 25.8481 24.3493C25.8603 24.6989 26.1658 24.9902 26.5324 25.0019C26.9234 25.0135 27.2534 24.7105 27.2534 24.3493Z" fill="#4E009C"/>
<path d="M33.425 17.148C33.4005 17.7772 33.0584 18.2783 32.3985 18.5696C31.7875 18.8376 31.0299 18.7211 30.5411 18.255C30.0279 17.7656 29.8812 17.1829 30.1256 16.5304C30.1867 16.3556 30.1623 16.2624 30.0279 16.1459C29.759 15.9128 29.5146 15.6681 29.2702 15.4234C29.0381 15.1903 29.0258 14.9107 29.2336 14.7126C29.4413 14.5145 29.7346 14.5261 29.979 14.7475C30.2356 14.9689 30.48 15.202 30.7122 15.4467C30.8466 15.5865 30.9688 15.6215 31.1765 15.5516C32.2641 15.167 33.425 15.9594 33.425 17.148ZM32.4107 17.0664C32.4107 16.6935 32.093 16.4022 31.702 16.4139C31.3354 16.4139 31.0177 16.7052 31.0054 17.0548C30.9932 17.416 31.3232 17.7306 31.702 17.7306C32.1052 17.7423 32.4107 17.4393 32.4107 17.0664Z" fill="#4E009C"/>
<path d="M7.6164 14.7709C7.55531 14.7709 7.48199 14.7826 7.42089 14.7826C7.15205 14.7709 6.98097 14.6427 6.94431 14.3747C6.90766 14.1067 7.02985 13.9203 7.32313 13.862C7.55531 13.8154 7.78748 13.8037 8.00744 13.7455C8.9728 13.4775 9.59602 12.6035 9.49826 11.6946C9.38828 10.7158 8.60621 9.99332 7.59196 9.91175C7.51865 9.9001 7.43311 9.9001 7.35979 9.88844C7.06651 9.81853 6.90765 9.62043 6.95653 9.35242C7.00541 9.08441 7.18871 8.94458 7.46977 8.94458C8.58177 8.96789 9.47382 9.42234 10.0481 10.3196C11.1846 12.0908 10.2192 14.2349 8.1052 14.7243C7.93412 14.7593 7.77526 14.7592 7.6164 14.7709C7.6164 14.7826 7.6164 14.7826 7.6164 14.7709Z" fill="#4E009C"/>
<path d="M10.9523 21.1565C11.661 21.1565 12.3575 21.1565 13.0663 21.1565C13.4818 21.1565 13.6895 21.3196 13.7017 21.6226C13.7139 21.9256 13.4818 22.1237 13.0663 22.1237C11.7588 22.1237 10.4512 22.1237 9.14372 22.1237C8.04394 22.1237 7.53071 22.5432 7.34741 23.5686C7.28631 23.9298 7.09079 24.093 6.7853 24.0697C6.4798 24.0464 6.33316 23.8366 6.3576 23.4637C6.43092 22.2285 7.44517 21.2381 8.75269 21.1798C9.47366 21.1448 10.2068 21.1681 10.9523 21.1565Z" fill="#4E009C"/>
<path d="M32.7767 24.4543C31.8358 24.4543 31.0659 23.7318 31.0659 22.8346C31.0659 21.9373 31.8602 21.1799 32.8011 21.1915C33.7421 21.2032 34.4997 21.9373 34.4875 22.8346C34.4752 23.7318 33.7176 24.4543 32.7767 24.4543ZM32.7889 23.4871C33.1799 23.4871 33.4854 23.1725 33.4732 22.8113C33.461 22.4617 33.1433 22.1704 32.7767 22.1704C32.3979 22.1704 32.0679 22.485 32.0679 22.8346C32.0679 23.1958 32.3979 23.4871 32.7889 23.4871Z" fill="#4E009C"/>
<path d="M31.0419 12.1606C30.1009 12.1373 29.3555 11.3916 29.38 10.506C29.4044 9.62036 30.1987 8.8979 31.1274 8.9212C32.0928 8.94451 32.8382 9.69028 32.8015 10.5992C32.7771 11.4848 31.9828 12.1956 31.0419 12.1606ZM31.103 11.2051C31.494 11.2051 31.8117 10.8905 31.7995 10.5293C31.7873 10.1797 31.4818 9.88837 31.103 9.88837C30.7242 9.88837 30.3942 10.1913 30.3942 10.5526C30.382 10.9022 30.7119 11.2051 31.103 11.2051Z" fill="#4E009C"/>
<path d="M32.3006 27.8452C32.3006 28.7308 31.5185 29.4649 30.5898 29.4766C29.6611 29.4766 28.8791 28.7424 28.8668 27.8568C28.8546 26.9596 29.6367 26.2138 30.5898 26.2255C31.5308 26.2255 32.3006 26.9479 32.3006 27.8452ZM30.5898 27.181C30.1988 27.181 29.8811 27.4723 29.8811 27.8452C29.8811 28.2064 30.211 28.521 30.5898 28.5094C30.9564 28.5094 31.2741 28.2064 31.2864 27.8568C31.2986 27.484 30.9809 27.181 30.5898 27.181Z" fill="#4E009C"/>
<path d="M13.5922 25.2816C13.6579 25.5324 13.6553 25.7983 13.6056 26.0528C13.3871 27.1711 12.5019 27.9279 11.2704 28.0433C10.916 28.0782 10.6716 27.9034 10.635 27.6238C10.6105 27.3441 10.7938 27.1344 11.136 27.1111C11.8325 27.0412 12.3458 26.7382 12.5657 26.0856C12.8346 25.2933 12.3091 24.4776 11.4415 24.2911C11.3315 24.2678 11.2215 24.2562 11.1116 24.2445C10.7938 24.1979 10.6105 23.9998 10.635 23.7318C10.6594 23.4754 10.8794 23.3007 11.1604 23.289C12.2969 23.2657 13.4455 24.1979 13.5922 25.2816Z" fill="#4E009C"/>
<path d="M18.504 14.0718C18.5162 15.1788 17.5875 16.1343 16.4266 16.1809C16.0478 16.1926 15.8279 16.0527 15.8034 15.7614C15.779 15.4585 15.9623 15.272 16.3411 15.2371C16.891 15.1788 17.2576 14.9341 17.4409 14.4447C17.6731 13.7921 17.2209 13.093 16.5122 12.9764C16.4266 12.9648 16.3289 12.9531 16.2433 12.9415C15.9134 12.8716 15.7668 12.6851 15.8156 12.4055C15.8523 12.1491 16.06 12.0093 16.3655 12.0093C17.5386 12.0209 18.4918 12.9531 18.504 14.0718Z" fill="#4E009C"/>
<path d="M10.8428 15.738C10.6962 15.738 10.5495 15.7613 10.4151 15.6914C10.2196 15.5982 10.1218 15.4234 10.1463 15.2253C10.1707 15.0039 10.3051 14.8524 10.5495 14.8175C10.9283 14.7592 11.3316 14.7475 11.686 14.5844C12.5658 14.1766 13.1035 13.5357 13.2257 12.6034C13.2379 12.5102 13.2501 12.417 13.2623 12.3238C13.299 12.0092 13.5189 11.8111 13.8 11.8344C14.0811 11.8577 14.2766 12.0791 14.2643 12.4054C14.2399 13.0113 14.0811 13.5823 13.7389 14.095C13.0546 15.0855 12.1014 15.6564 10.8428 15.738Z" fill="#4E009C"/>
<path d="M7.59183 18.5581C6.73645 18.6047 5.94216 18.4882 5.27007 17.9288C4.68352 17.4394 4.39024 16.8102 4.34136 16.0761C4.32914 15.7848 4.52466 15.5634 4.7935 15.54C5.06233 15.5167 5.28229 15.7032 5.33117 15.9945C5.51447 17.1248 6.07658 17.5909 7.2619 17.5909C7.60405 17.5909 7.95843 17.5909 8.30058 17.5909C8.71606 17.5909 8.94823 17.7774 8.94823 18.0803C8.94823 18.3716 8.71606 18.5464 8.3128 18.5464C8.09285 18.5581 7.84845 18.5581 7.59183 18.5581Z" fill="#4E009C"/>
<path d="M12.6629 4.57483C12.8462 4.56317 13.0539 4.57483 13.1884 4.73803C13.3105 4.87791 13.335 5.05277 13.2617 5.21597C13.1761 5.43746 12.9806 5.49574 12.7607 5.51906C11.9541 5.61231 11.7098 5.82214 11.5265 6.5682C11.4531 6.85963 11.221 7.03449 10.9643 6.99951C10.6711 6.95289 10.5 6.71974 10.5367 6.41666C10.6344 5.39083 11.5387 4.6098 12.6629 4.57483Z" fill="#4E009C"/>
<path d="M16.256 22.1124C15.9383 22.1124 15.6328 22.124 15.3151 22.1124C14.924 22.1007 14.7041 21.9142 14.7163 21.6111C14.7285 21.3197 14.924 21.1565 15.3151 21.1448C15.9505 21.1448 16.5859 21.1332 17.2214 21.1448C17.5757 21.1448 17.7835 21.3197 17.7957 21.5995C17.8079 21.8792 17.588 22.0891 17.2336 22.1007C16.9037 22.124 16.5859 22.1124 16.256 22.1124Z" fill="#4E009C"/>
</svg>
