<svg width="36" height="37" viewBox="0 0 36 37" fill="none" xmlns="http://www.w3.org/2000/svg">
<path d="M27.3661 11.9333L27.4561 12.0532L27.576 11.9633L28.1915 11.5025L28.3116 11.4126L28.2217 11.2926C28.0125 11.0132 27.788 10.7411 27.5541 10.4842L27.4531 10.3733L27.3422 10.4743L26.774 10.9922L26.6632 11.0931L26.7641 11.204C26.9744 11.4351 27.1766 11.6805 27.3661 11.9333Z" fill="white" stroke="white" stroke-width="0.3"/>
<circle cx="18" cy="18.823" r="18" fill="#D758FF"/>
<mask id="mask0_46_1393" style="mask-type:luminance" maskUnits="userSpaceOnUse" x="5" y="6" width="22" height="22">
<path d="M6 6.85H5.85V7V27.6499V27.7999H6H26.6499H26.7999V27.6499V7V6.85H26.6499H6Z" fill="white" stroke="white" stroke-width="0.3"/>
</mask>
<g mask="url(#mask0_46_1393)">
<path d="M8.69683 27.7123L8.79223 27.8281L8.90802 27.7327L9.50143 27.2436L9.61394 27.1508L9.52444 27.0357C7.88672 24.9298 6.97275 22.3508 6.91872 19.6834L6.91873 18.9134L6.91872 18.9124C6.90706 17.1488 7.57105 13.4731 10.1197 10.9073L10.1197 10.9073C12.0838 8.92982 14.832 7.91914 18.2999 7.91914C21.5058 7.91914 24.0993 8.78425 26.0231 10.476L26.1357 10.575L26.2348 10.4624L26.7422 9.88581L26.8413 9.77316L26.7286 9.67407C24.5929 7.79615 21.7539 6.85049 18.3 6.85049C14.5569 6.85049 11.5436 7.95699 9.36104 10.1539L9.36102 10.1539C6.55928 12.9752 5.83687 16.9884 5.84968 18.9168V19.6824C5.84659 20.1522 5.90053 24.3169 8.69683 27.7123Z" fill="white" stroke="white" stroke-width="0.3"/>
</g>
<mask id="mask1_46_1393" style="mask-type:luminance" maskUnits="userSpaceOnUse" x="9" y="11" width="22" height="21">
<path d="M9.55957 12.0214H9.40957V12.1714V31.6001V31.7501H9.55957H30.5996H30.7496V31.6001V12.1714V12.0214H30.5996H9.55957Z" fill="white" stroke="white" stroke-width="0.3"/>
</mask>
<g mask="url(#mask1_46_1393)">
<path d="M9.4694 28.5556C11.6095 30.6461 14.5241 31.716 18.1254 31.7494L18.1252 31.7508H18.2997C22.0423 31.7508 25.0558 30.6443 27.2382 28.4475L27.1317 28.3417L27.2382 28.4475C30.0399 25.6266 30.7623 21.613 30.7495 19.6846V18.874H30.7496L30.7495 18.8702C30.6881 16.4805 30.0067 14.148 28.772 12.1012L28.6935 11.9711L28.5644 12.0513L27.9109 12.4572L27.7852 12.5352L27.8615 12.662C28.9934 14.5418 29.62 16.6821 29.6808 18.8757L29.681 19.6889L29.681 19.6898C29.6927 21.452 29.0289 25.1277 26.48 27.6935L26.48 27.6935C24.5159 29.671 21.7677 30.6815 18.2998 30.6815C14.8872 30.6815 12.1739 29.7037 10.2171 27.7913L10.11 27.6866L10.0051 27.7937L9.46703 28.3434L9.36199 28.4507L9.4694 28.5556Z" fill="white" stroke="white" stroke-width="0.3"/>
</g>
<path d="M24.8342 18.2969H24.9842V18.1469C24.9842 17.2739 24.7633 16.3811 24.3506 15.7016C23.9376 15.0215 23.3193 14.5375 22.5278 14.5375C21.7364 14.5375 21.1181 15.0216 20.7052 15.7017C20.2925 16.3812 20.0717 17.274 20.0717 18.1469V18.2969H20.2217H20.9903H21.1403V18.1469C21.1403 17.5182 21.2903 16.8702 21.5468 16.3843C21.8066 15.8923 22.1516 15.6062 22.5278 15.6062C22.9042 15.6062 23.2491 15.8923 23.5089 16.3843C23.7654 16.8702 23.9153 17.5182 23.9153 18.1469V18.2969H24.0653H24.8342Z" fill="white" stroke="white" stroke-width="0.3"/>
<path d="M16.3779 18.2969H16.5279V18.1469C16.5279 17.2739 16.3071 16.3811 15.8944 15.7016C15.4815 15.0215 14.8632 14.5375 14.0718 14.5375C13.2803 14.5375 12.6621 15.0216 12.2491 15.7017C11.8365 16.3812 11.6156 17.274 11.6156 18.1469V18.2969H11.7656H12.5343H12.6843V18.1469C12.6843 17.5182 12.8343 16.8702 13.0908 16.3843C13.3506 15.8923 13.6955 15.6062 14.0718 15.6062C14.4482 15.6062 14.7931 15.8923 15.0528 16.3843C15.3093 16.8702 15.4593 17.5182 15.4593 18.1469V18.2969H15.6093H16.3779Z" fill="white" stroke="white" stroke-width="0.3"/>
<path d="M24.8342 18.2969H24.9842V18.1469C24.9842 17.2739 24.7633 16.3811 24.3506 15.7016C23.9376 15.0215 23.3193 14.5375 22.5278 14.5375C21.7364 14.5375 21.1181 15.0216 20.7052 15.7017C20.2925 16.3812 20.0717 17.274 20.0717 18.1469V18.2969H20.2217H20.9903H21.1403V18.1469C21.1403 17.5182 21.2903 16.8702 21.5468 16.3843C21.8066 15.8923 22.1516 15.6062 22.5278 15.6062C22.9042 15.6062 23.2491 15.8923 23.5089 16.3843C23.7654 16.8702 23.9153 17.5182 23.9153 18.1469V18.2969H24.0653H24.8342Z" fill="white" stroke="white" stroke-width="0.3"/>
<path d="M16.3779 18.2969H16.5279V18.1469C16.5279 17.2739 16.3071 16.3811 15.8944 15.7016C15.4815 15.0215 14.8632 14.5375 14.0718 14.5375C13.2803 14.5375 12.6621 15.0216 12.2491 15.7017C11.8365 16.3812 11.6156 17.274 11.6156 18.1469V18.2969H11.7656H12.5343H12.6843V18.1469C12.6843 17.5182 12.8343 16.8702 13.0908 16.3843C13.3506 15.8923 13.6955 15.6062 14.0718 15.6062C14.4482 15.6062 14.7931 15.8923 15.0528 16.3843C15.3093 16.8702 15.4593 17.5182 15.4593 18.1469V18.2969H15.6093H16.3779Z" fill="white" stroke="white" stroke-width="0.3"/>
<path d="M13.4153 21.8804C13.5987 21.824 13.7951 21.827 13.9767 21.8885C15.3715 22.3586 16.8283 22.6186 18.2995 22.6601C19.7707 22.6182 21.2274 22.3577 22.622 21.8871C22.8038 21.825 23.0003 21.8221 23.1837 21.8785C23.3669 21.9348 23.5279 22.0473 23.6436 22.2002C23.7591 22.3501 23.8246 22.5329 23.8305 22.7221C23.8365 22.9115 23.7826 23.0977 23.6768 23.2547C23.0016 24.2778 21.4039 25.9845 18.2996 25.9845H18.2995C15.2112 25.9845 13.614 24.2953 12.9328 23.2721L12.9226 23.2569C12.8165 23.0998 12.7625 22.9133 12.7684 22.7236L12.7684 22.7236C12.7744 22.5344 12.8399 22.3516 12.9554 22.2016C13.0712 22.049 13.2321 21.9365 13.4153 21.8804ZM13.4153 21.8804C13.4153 21.8804 13.4153 21.8803 13.4153 21.8803L13.4593 22.0238L13.4152 21.8804C13.4152 21.8804 13.4152 21.8804 13.4153 21.8804ZM18.296 23.7288L18.296 23.7289L18.3031 23.7288C19.7297 23.6952 21.1443 23.4661 22.5074 23.0486C21.7677 23.9716 20.4812 24.9156 18.2995 24.9156C16.1101 24.9156 14.8215 23.9647 14.0845 23.0464C15.4497 23.4653 16.8667 23.6951 18.296 23.7288Z" fill="white" stroke="white" stroke-width="0.3"/>
</svg>
