<svg width="33" height="33" viewBox="0 0 33 33" fill="none" xmlns="http://www.w3.org/2000/svg">
<path d="M8.65346 8.19145C8.64234 8.50186 9.00178 8.6932 9.26758 8.53246C9.8232 8.19647 10.3579 7.87393 10.8925 7.55139C11.1549 7.39138 11.3998 7.21452 11.671 7.09661C11.9946 6.94502 12.0733 6.73448 12.0645 6.39761C12.0383 5.36173 12.0645 4.31743 12.0558 3.28155C12.0558 2.97836 12.1608 2.77624 12.4406 2.62465C13.6214 1.99301 14.7847 1.34454 15.9479 0.687637C16.2278 0.527623 16.4552 0.527623 16.7351 0.687637C17.8896 1.33611 19.0529 1.98459 20.2162 2.6078C20.5223 2.77624 20.636 2.98678 20.636 3.31523C20.6185 4.41849 20.6273 5.52174 20.6273 6.625C20.6273 6.75132 20.6185 6.85238 20.7672 6.94502C21.8255 7.56823 22.8751 8.20829 23.9247 8.83992C23.9731 8.86323 24.0209 8.80479 24.0213 8.75106C24.0229 8.54753 24.0284 8.34315 24.0209 8.13249C24.0121 7.87984 24.1083 7.69456 24.3532 7.56823C25.5777 6.90291 26.7935 6.22917 28.0092 5.55543C28.2366 5.4291 28.4291 5.43752 28.6477 5.56385C29.8547 6.23759 31.0617 6.90291 32.2775 7.55981C32.5136 7.68614 32.6098 7.863 32.6098 8.12407C32.6011 9.26944 32.6011 10.4148 32.6098 11.5602C32.6098 11.8465 32.4961 12.0234 32.2337 12.1581C31.1579 12.7139 30.0996 13.2866 29.0238 13.834C28.8489 13.9267 28.7789 14.0277 28.7789 14.2214C28.7877 15.7374 28.7877 17.2449 28.7789 18.7608C28.7789 18.9545 28.8401 19.0555 29.0151 19.1482C30.0909 19.7293 31.1492 20.3272 32.2162 20.8999C32.4961 21.0515 32.6098 21.2452 32.6098 21.5568C32.5923 22.6685 32.5923 23.7802 32.6098 24.9003C32.6098 25.2119 32.4961 25.4056 32.2075 25.5487C31.0267 26.1551 29.8547 26.7699 28.6827 27.3931C28.4203 27.5279 28.2104 27.5279 27.948 27.3847C26.9946 26.871 26.0413 26.3825 25.0879 25.8688C24.913 25.7761 24.7906 25.7761 24.6244 25.8856C23.3824 26.6941 22.1316 27.4942 20.8722 28.2942C20.6972 28.4037 20.6185 28.5216 20.6273 28.7238C20.6448 29.1954 20.6273 29.667 20.636 30.1386C20.6448 30.4081 20.5398 30.5934 20.2862 30.7197C19.0792 31.3429 17.8809 31.9746 16.6739 32.6146C16.4377 32.7409 16.2366 32.7325 16.0004 32.6062C14.8022 31.9661 13.5952 31.3345 12.3882 30.7113C12.1433 30.585 12.0471 30.4165 12.0471 30.1555C12.0558 29.6754 12.0383 29.187 12.0558 28.7069C12.0645 28.5216 12.0121 28.4037 11.8371 28.2942C10.5689 27.4942 9.30943 26.6857 8.0587 25.8688C7.88377 25.7593 7.76132 25.7677 7.59514 25.8603C6.64178 26.3657 5.68843 26.8625 4.73507 27.3678C4.48142 27.5026 4.26276 27.511 4.00037 27.3678C2.81961 26.7362 1.63885 26.113 0.449337 25.4982C0.186945 25.3635 0.0732422 25.1866 0.0732422 24.9003C0.0819886 23.7633 0.0819886 22.6348 0.0732422 21.4979C0.0732422 21.2115 0.178199 21.0347 0.440591 20.8915C1.52514 20.3104 2.5922 19.704 3.67676 19.1229C3.85168 19.0303 3.91291 18.9208 3.91291 18.7271C3.90416 17.2112 3.90416 15.7037 3.91291 14.1878C3.91291 13.9941 3.85168 13.893 3.66801 13.8004C2.60095 13.2529 1.55138 12.6803 0.484323 12.1413C0.195692 11.9981 0.0732422 11.8128 0.0732422 11.4928C0.0819886 10.3727 0.0819886 9.24417 0.0732422 8.12407C0.0732422 7.83773 0.169452 7.65245 0.431844 7.5177C1.61261 6.87765 2.79337 6.22917 3.97413 5.56385C4.25402 5.40384 4.49017 5.41226 4.76131 5.56385C5.90709 6.21233 7.05287 6.84396 8.21614 7.46717C8.53101 7.63561 8.68844 7.84615 8.65346 8.19145ZM12.0558 16.6132C12.0558 16.15 12.0471 15.6868 12.0558 15.2321C12.0558 15.0636 12.0033 14.9626 11.8634 14.8699C10.5952 14.0783 9.32693 13.2866 8.0587 12.4866C7.9275 12.4023 7.82255 12.3855 7.68261 12.4613C6.79922 12.9329 5.91583 13.4045 5.0237 13.8593C4.88376 13.9351 4.82253 14.0109 4.82253 14.1709C4.83128 15.7121 4.83128 17.2533 4.82253 18.7945C4.82253 18.9545 4.87501 19.0387 5.01495 19.1145C6.0033 19.6535 6.98289 20.1925 7.95374 20.7399C8.11118 20.8241 8.20739 20.8157 8.35608 20.7146C9.51935 19.9146 10.6826 19.1313 11.8546 18.3481C12.0121 18.2471 12.0558 18.1292 12.0558 17.9607C12.0471 17.5144 12.0558 17.0596 12.0558 16.6132ZM27.8518 16.4869C27.8518 15.7205 27.8518 14.9541 27.8518 14.1878C27.8518 14.0362 27.8168 13.9435 27.6681 13.8677C26.776 13.4045 25.8926 12.9413 25.0092 12.4697C24.8693 12.3939 24.7643 12.4023 24.6244 12.4866C23.3649 13.2866 22.0967 14.0783 20.8197 14.8699C20.6797 14.9541 20.6098 15.0468 20.6098 15.2236C20.6185 16.15 20.6185 17.068 20.6098 17.9944C20.6098 18.1376 20.636 18.2471 20.776 18.3397C21.9655 19.1313 23.1462 19.9398 24.327 20.7483C24.4582 20.841 24.5544 20.8494 24.7031 20.7652C25.6739 20.2262 26.636 19.6872 27.6156 19.1566C27.7993 19.064 27.8518 18.9545 27.843 18.7608C27.8518 17.9944 27.8518 17.2364 27.8518 16.4869ZM11.6165 27.1121C11.8018 27.2346 12.074 27.0999 12.0471 26.8794C12.0033 26.5004 12.1608 26.2646 12.5194 26.0793C13.5777 25.5235 14.6185 24.934 15.6681 24.3613C15.8168 24.2855 15.8955 24.2097 15.8867 24.0244C15.878 22.9885 15.878 21.9442 15.8867 20.9083C15.8867 20.7652 15.843 20.6894 15.703 20.622C14.7147 20.1167 13.7351 19.5945 12.7555 19.0724C12.6068 18.9882 12.4931 18.9882 12.3444 19.0892C11.1899 19.8809 10.0354 20.6641 8.88086 21.4389C8.70593 21.5568 8.65346 21.6831 8.65346 21.8768C8.6622 22.6601 8.71468 23.4517 8.64471 24.2349C8.57474 24.9676 8.81089 25.414 9.48436 25.7761C10.216 26.1636 10.8926 26.6336 11.6165 27.1121ZM20.6264 27.2261C20.6273 27.2881 20.6945 27.3566 20.7452 27.3211C20.7507 27.3172 20.7526 27.3155 20.7583 27.3118C21.805 26.6399 22.8517 25.968 23.8984 25.2961C23.9859 25.2371 24.0209 25.1782 24.0209 25.0687C24.0121 23.9739 24.0121 22.8875 24.0121 21.7926C24.0121 21.641 23.9596 21.5484 23.8284 21.4558C22.6564 20.6725 21.4932 19.8809 20.3299 19.0808C20.1725 18.9713 20.05 18.9798 19.8926 19.064C18.9305 19.5777 17.9684 20.083 17.0063 20.5799C16.8401 20.6641 16.7789 20.7567 16.7789 20.942C16.7876 21.9526 16.7876 22.9548 16.7789 23.9654C16.7789 24.1591 16.8401 24.2602 17.015 24.3528C18.0908 24.934 19.1666 25.5403 20.2424 26.1214C20.4961 26.2562 20.6273 26.4415 20.6098 26.7278C20.6169 26.899 20.624 27.0591 20.6264 27.2261ZM15.8867 10.7348C15.8867 10.2548 15.878 9.76632 15.8955 9.28628C15.9042 9.11784 15.843 9.0252 15.6856 8.94941C14.7934 8.48621 13.91 8.02301 13.0267 7.55139C12.8692 7.46717 12.7555 7.48402 12.6156 7.56823C11.3648 8.3262 10.1141 9.08416 8.85462 9.83369C8.71468 9.91791 8.6622 10.0106 8.67095 10.1621C8.6797 10.6422 8.68844 11.1306 8.67095 11.6107C8.6622 11.7707 8.72343 11.8549 8.85462 11.9391C10.0266 12.6634 11.1899 13.3961 12.3532 14.1288C12.4931 14.213 12.5893 14.2214 12.7293 14.1456C13.7176 13.5898 14.706 13.0508 15.703 12.5034C15.843 12.4276 15.9042 12.3434 15.8955 12.1834C15.878 11.6949 15.8867 11.2149 15.8867 10.7348ZM16.7963 10.7096C16.7963 11.2064 16.8051 11.6949 16.7963 12.1918C16.7963 12.335 16.8313 12.4192 16.9713 12.4866C17.9859 13.034 18.9917 13.5982 19.9975 14.1541C20.12 14.2214 20.2074 14.213 20.3211 14.1372C21.5019 13.3877 22.6914 12.6466 23.8722 11.9055C23.9859 11.8297 24.0296 11.7623 24.0209 11.6275C24.0121 11.1475 24.0121 10.659 24.0209 10.179C24.0296 10.0021 23.9684 9.90107 23.8022 9.80001C22.5515 9.05889 21.3095 8.30093 20.0675 7.55139C19.9188 7.45875 19.8051 7.46717 19.6564 7.54297C18.773 8.01459 17.8896 8.48621 16.9975 8.94099C16.8401 9.0252 16.7876 9.11784 16.7963 9.28628C16.8051 9.7579 16.7963 10.2379 16.7963 10.7096ZM16.1304 25.1187C14.9813 25.751 14.9984 27.4034 16.1579 28.0163C16.2803 28.0837 16.3853 28.1005 16.5165 28.0247C17.6787 27.3994 17.698 25.7507 16.5456 25.1073C16.5126 25.0888 16.4795 25.0703 16.4465 25.0519C16.3678 25.0098 16.3066 25.0182 16.2366 25.0603C16.2012 25.0798 16.1658 25.0992 16.1304 25.1187ZM30.8496 8.18085C30.9973 8.10371 31.0106 7.88472 30.8605 7.81247C30.2833 7.49244 29.6798 7.22294 29.1463 6.85238C28.569 6.44814 28.0967 6.43129 27.5019 6.83554C26.6566 7.41537 26.6282 8.64071 27.5363 9.11625C27.7468 9.22648 27.9567 9.33639 28.1667 9.44629C28.2629 9.49682 28.3328 9.51367 28.4378 9.45471C29.2386 9.0247 30.0326 8.60774 30.8496 8.18085ZM16.1255 13.2605C14.9926 13.9036 15.0087 15.5534 16.1579 16.1669C16.2716 16.2258 16.359 16.2595 16.4902 16.1837C17.6662 15.5571 17.6841 13.8802 16.5192 13.2331C16.5008 13.2229 16.4824 13.2126 16.464 13.2024C16.3853 13.1603 16.3153 13.1519 16.2278 13.2024C16.1937 13.2218 16.1596 13.2412 16.1255 13.2605ZM16.5252 4.51955C17.6762 3.89408 17.6962 2.24445 16.5511 1.60832C16.5191 1.59057 16.4872 1.57283 16.4552 1.55508C16.3853 1.51297 16.324 1.50455 16.2453 1.54666C16.2191 1.56134 16.1928 1.57601 16.1666 1.59067C15.0084 2.23761 15.0266 3.90406 16.1928 4.53639C16.324 4.60377 16.4115 4.57008 16.5252 4.51955ZM28.464 22.8117C29.6409 22.1956 29.6333 20.5188 28.4728 19.8725C28.3678 19.8135 28.2891 19.7882 28.1754 19.8472C28.1627 19.8543 28.1499 19.8613 28.1372 19.8684C26.9716 20.5156 26.99 22.1931 28.1667 22.8201C28.2804 22.879 28.3591 22.8622 28.464 22.8117ZM4.56889 9.41261C5.71859 8.79881 5.73712 7.162 4.5976 6.52949C4.55886 6.50799 4.52013 6.48649 4.48142 6.46498C4.34148 6.38076 4.25402 6.4734 4.15781 6.52393C3.52807 6.86923 2.88958 7.22294 2.25984 7.56823C1.92454 7.74636 1.93225 8.23491 2.2685 8.41122C2.91785 8.75171 3.55318 9.08422 4.18405 9.42103C4.33274 9.49682 4.43769 9.47998 4.56889 9.41261ZM5.16557 22.4755C6.0643 22 6.03861 20.7822 5.19863 20.2093C4.60387 19.8051 4.11408 19.7967 3.55431 20.2262C3.30066 20.4199 2.99454 20.5462 2.71465 20.6978C2.19112 20.9891 2.19701 21.743 2.72742 22.0216C3.23668 22.289 3.73962 22.5532 4.24527 22.8201C4.34148 22.8706 4.4202 22.8706 4.51641 22.8201C4.7326 22.7049 4.94878 22.5902 5.16557 22.4755ZM4.82253 10.4485C4.83465 11.5915 6.03358 12.3248 7.04594 11.7941C7.2378 11.6935 7.4294 11.5931 7.62138 11.4928C7.74383 11.4254 7.74383 11.3328 7.74383 11.2317C7.74383 10.4822 7.73508 9.74105 7.74383 8.99152C7.74383 8.77255 7.68261 8.77255 7.50768 8.86519C6.66802 9.31154 5.82837 9.74948 4.98872 10.1874C4.87501 10.2464 4.81379 10.3137 4.82253 10.4485ZM25.6048 11.7846C26.6268 12.3117 27.8518 11.5731 27.8518 10.4232C27.8518 10.2969 27.7906 10.2379 27.6856 10.1874C26.846 9.74948 26.0063 9.31154 25.1666 8.86519C25.0092 8.78097 24.9217 8.75571 24.9217 8.99152C24.9305 9.74948 24.9305 10.499 24.9217 11.257C24.9217 11.3749 24.9567 11.4507 25.0704 11.5096C25.2488 11.6012 25.4268 11.6928 25.6048 11.7846ZM25.6689 25.1881C26.6654 25.7112 27.8449 24.9896 27.8693 23.8644C27.8693 23.7044 27.8081 23.6202 27.6681 23.5528C27.362 23.4012 27.0559 23.2328 26.7497 23.0727C25.9323 22.6381 24.948 23.2374 24.948 24.1632C24.948 24.3391 24.948 24.5144 24.948 24.6897C24.948 24.7908 25.0005 24.8329 25.0879 24.8834C25.2811 24.9845 25.4746 25.086 25.6689 25.1881ZM7.73508 24.6308C7.74741 23.4916 6.53894 22.7647 5.53017 23.2941C5.33764 23.3951 5.14568 23.4954 4.95373 23.5949C4.86627 23.637 4.82253 23.6875 4.82253 23.7886C4.82253 24.9485 6.05327 25.6902 7.07992 25.1505C7.26063 25.0555 7.44101 24.9609 7.62138 24.8666C7.72634 24.8076 7.73508 24.7318 7.73508 24.6308ZM1.68774 11.7889C2.70251 12.3151 3.89718 11.5829 3.92166 10.4401C3.92166 10.28 3.83419 10.2295 3.71174 10.1706C3.10824 9.85896 2.51349 9.53893 1.90998 9.22733C1.50477 9.00785 1.00911 9.31177 1.00911 9.77261C1.00911 10.296 1.00911 10.806 1.00911 11.3159C1.00911 11.4001 1.04409 11.4507 1.11406 11.4928C1.30546 11.5911 1.49647 11.6897 1.68774 11.7889ZM16.7963 17.2364C16.8085 18.3614 17.9901 19.0799 18.9868 18.5581C19.175 18.4597 19.363 18.3616 19.5515 18.2639C19.6827 18.1965 19.7089 18.1123 19.7089 17.986C19.7089 17.2449 19.7002 16.4953 19.7089 15.7542C19.7089 15.5605 19.6739 15.5184 19.4815 15.6195C18.6418 16.0658 17.8109 16.5122 16.9625 16.9417C16.8226 17.0175 16.7963 17.1017 16.7963 17.2364ZM28.7702 23.856C28.7702 24.9827 29.9491 25.6739 30.9646 25.1855C31.0289 25.1546 31.0933 25.1241 31.1579 25.094C31.569 24.9003 31.7177 24.6729 31.6827 24.2349C31.6215 23.2797 30.6574 22.6644 29.8099 23.1095C29.5007 23.272 29.1928 23.4334 28.8839 23.5949C28.7527 23.6623 28.7702 23.7549 28.7702 23.856ZM15.1209 28.4716C14.1456 27.9664 12.99 28.67 12.9654 29.7681C12.9654 29.9702 13.0441 30.0628 13.2191 30.1555C14.0237 30.5681 14.8197 30.9976 15.6243 31.4103C15.774 31.4904 15.8867 31.378 15.8867 31.2083C15.8867 30.4886 15.8867 29.7756 15.8867 29.069C15.8867 28.968 15.9042 28.8753 15.773 28.808C15.5558 28.6964 15.3387 28.5844 15.1209 28.4716ZM14.7934 4.78905C13.9646 4.35478 13.0097 4.95994 12.97 5.89484C12.9686 5.92772 12.9671 5.96056 12.9654 5.99336C12.9392 6.39761 13.0791 6.60815 13.4552 6.78501C13.8328 6.96486 14.2048 7.15559 14.5781 7.35216C15.1738 7.66581 15.8867 7.23923 15.8867 6.56604C15.8867 6.17022 16.0092 5.69018 15.8342 5.39541C15.6506 5.10065 15.1608 4.98275 14.7934 4.78905ZM1.72083 25.1807C2.7201 25.7075 3.90069 24.9855 3.91291 23.856C3.91291 23.6959 3.85168 23.6117 3.71174 23.5444C2.88084 23.1148 2.04993 22.6769 1.21902 22.239C1.08634 22.166 1.00036 22.2884 1.00036 22.4399C1.00036 23.1689 1.00036 23.904 1.00036 24.6392C1.00036 24.7403 1.00911 24.816 1.12281 24.8666C1.32235 24.9709 1.52149 25.0756 1.72083 25.1807ZM19.7089 4.01387C19.7089 3.94727 19.6425 3.8772 19.5864 3.91318C18.7118 4.37638 17.8372 4.83958 16.9538 5.28593C16.8051 5.36173 16.7963 5.46279 16.7963 5.58912C16.7963 6.11127 16.7963 6.64184 16.7963 7.16399C16.7963 7.56661 17.2234 7.82552 17.58 7.63846C18.2466 7.2887 18.8903 6.94843 19.534 6.60815C19.6214 6.56604 19.7089 6.52393 19.7089 6.40603C19.7089 5.61384 19.7089 4.81404 19.7089 4.01387ZM31.674 11.2654C31.674 10.1228 30.4584 9.39099 29.4466 9.92183C29.256 10.0218 29.0658 10.1214 28.8751 10.2211C28.7964 10.2632 28.7702 10.3053 28.7702 10.3895C28.7702 11.1936 28.7702 11.9977 28.7702 12.8017C28.7702 12.8534 28.811 12.9216 28.8576 12.8992C29.7585 12.4276 30.6506 11.9644 31.5515 11.4928C31.6565 11.4423 31.674 11.3665 31.674 11.2654ZM19.7089 29.886C19.7089 28.7357 18.4852 27.999 17.4666 28.5334C17.281 28.6307 17.0957 28.7278 16.9101 28.8248C16.8313 28.8669 16.7963 28.909 16.7963 28.9933C16.7963 30.1622 18.0412 30.9121 19.0782 30.3727C19.2451 30.2859 19.4116 30.1995 19.5777 30.1134C19.6827 30.0628 19.7089 29.987 19.7089 29.886ZM13.6723 18.5493C14.6787 19.0732 15.8712 18.3455 15.8955 17.2112C15.8955 17.0512 15.8168 16.9922 15.6943 16.9333C14.8721 16.5037 14.05 16.0742 13.2278 15.6447C13.0768 15.572 12.9742 15.6867 12.9742 15.8544C12.9742 16.5822 12.9742 17.3211 12.9742 18.0534C12.9742 18.1628 13.0354 18.2218 13.1229 18.2639C13.3062 18.3589 13.4891 18.454 13.6723 18.5493Z" fill="#4E009C"/>
</svg>
