<svg width="72" height="45" viewBox="0 0 72 45" fill="none" xmlns="http://www.w3.org/2000/svg">
<path fill-rule="evenodd" clip-rule="evenodd" d="M58.8424 34.7405V44.3288H55.3132V34.7405H58.8424ZM47.5024 36.847C49.4158 36.847 50.9843 38.0184 50.9843 39.4556C50.9843 40.8987 49.4158 42.0701 47.5024 42.0701C45.589 42.0701 44.0209 40.8987 44.0209 39.4556C44.0209 38.0184 45.589 36.847 47.5024 36.847ZM48.433 34.7405L45.5418 31.478H49.8548L53.8279 36.847C54.215 37.3959 54.5076 38.3319 54.5494 39.2729C54.6912 42.1742 51.3765 44.5637 47.5024 44.5637C43.6284 44.5637 40.4554 42.185 40.4554 39.2729C40.455 36.3558 43.299 34.0762 48.433 34.7405ZM31.8504 40.1098C31.8504 41.4112 33.0577 42.0701 34.051 42.0701C35.0442 42.0701 36.3674 41.3381 36.3674 40.1098V34.7405H39.7076V40.1098C39.7076 43.8317 36.4142 44.5792 34.051 44.5792C31.6932 44.5792 28.3317 43.8317 28.3317 40.1098V34.7405H31.8504V40.1098ZM21.2579 31.478L29.3663 44.3283H25.3197L23.8925 42.0701H16.0512L14.5713 44.3283H10.4414L17.9905 32.7117L16.8463 31.478H21.2579ZM22.4502 39.7591H17.5411L20.0297 35.9373L22.4502 39.7591Z" fill="#CC2229"/>
<path fill-rule="evenodd" clip-rule="evenodd" d="M58.4123 21.618C59.4056 21.6966 60.3362 21.5967 61.3085 21.3722C61.859 21.217 62.3973 21.0212 62.9188 20.7865C63.4218 20.5314 63.9043 20.2378 64.3619 19.9082C64.8049 19.562 65.2209 19.1828 65.6065 18.7736C65.9754 18.3495 66.3126 17.8987 66.6152 17.425C66.981 16.8025 67.2582 16.1755 67.4939 15.4907C67.6507 14.9209 67.7707 14.367 67.8443 13.7863C67.8756 13.3319 67.8861 12.8921 67.8756 12.4427C67.8234 11.6953 67.6925 11.0105 67.4939 10.2894C67.3524 9.886 67.1952 9.48828 67.0228 9.0971C66.6311 8.3233 66.1712 7.65944 65.6065 7.0006C65.2192 6.59474 64.8033 6.21724 64.3619 5.87104C63.79 5.45688 63.1768 5.10287 62.5322 4.81464C61.9982 4.60427 61.4497 4.43312 60.8909 4.30253C60.099 4.16225 59.2948 4.10272 58.4909 4.12486C57.1419 4.23439 55.7878 4.64742 54.6482 5.38987C54.57 5.44714 54.4814 5.5203 54.4028 5.57757C55.302 6.93204 55.8978 8.51058 56.2585 10.0841C56.363 10.5912 56.4467 11.0991 56.4989 11.6108C56.6711 13.2362 56.5094 14.8833 56.0595 16.4518C55.6779 17.7431 55.0872 19.0499 54.3083 20.1532C55.4897 21.0014 56.9696 21.5131 58.4123 21.618ZM51.9456 9.98043C51.7974 9.57564 51.6228 9.181 51.423 8.79903C50.9523 9.6878 50.6128 10.6338 50.4607 11.6325C50.3775 12.2019 50.3407 12.7776 50.3775 13.3578C50.4556 14.5969 50.8536 15.8406 51.4439 16.9338C51.8201 16.1759 52.1027 15.4276 52.275 14.5969C52.5626 13.1747 52.4735 11.6689 52.0442 10.2781L51.9456 9.98043ZM45.0758 21.5348C46.179 21.3517 47.1727 20.9801 48.1501 20.4466L48.5259 20.2221C48.3169 19.9395 48.1338 19.6156 47.9612 19.3121C47.373 18.2713 46.9263 17.1567 46.633 15.9978C46.4667 15.3224 46.3497 14.6358 46.2827 13.9435C46.1991 12.8982 46.2413 11.8467 46.4085 10.8115C46.7275 8.9349 47.4231 7.17325 48.4938 5.60474C48.0393 5.30668 47.5686 5.02951 47.067 4.82049C46.215 4.46473 45.3158 4.22436 44.3906 4.15621C42.4664 4.0099 40.5847 4.45428 38.964 5.50023C40.114 7.23052 40.8251 9.25888 41.1127 11.3136C41.1754 11.9356 41.2172 12.5263 41.2122 13.1534C41.1809 14.3825 40.9719 15.5797 40.6056 16.7557C40.2135 18.0052 39.6333 19.1507 38.9226 20.2481C40.721 21.4299 42.948 21.8692 45.0758 21.5348ZM36.5903 9.90226C36.4386 9.48292 36.2517 9.07721 36.0314 8.6895C35.6974 9.33246 35.4093 9.99632 35.2212 10.6919C35.0381 11.4076 34.9236 12.1455 34.9236 12.8875C34.9286 13.3582 34.9704 13.834 35.0594 14.2938C35.2557 15.2478 35.5922 16.1675 36.0581 17.0228C36.3504 16.4526 36.6016 15.8569 36.7738 15.2399C36.9306 14.6174 37.046 14.0162 37.0828 13.3787C37.1191 12.5104 37.0564 11.643 36.8574 10.8011C36.7897 10.503 36.6902 10.1899 36.5903 9.90226ZM31.1858 9.75594C31.5253 8.42279 32.0691 7.18914 32.7903 6.01777L33.0679 5.60516L33.1097 5.54245C32.1105 4.92542 31.0391 4.49692 29.884 4.27201C29.0475 4.10981 28.1378 4.09392 27.2905 4.16207C26.1095 4.3297 24.9849 4.69591 23.9712 5.32298C23.8508 5.40157 23.7199 5.4902 23.6104 5.57882C24.5155 6.93329 25.1053 8.51183 25.4665 10.0854C25.6496 10.9243 25.7529 11.7787 25.775 12.6371C25.7846 13.4158 25.7287 14.1938 25.6078 14.9631C25.5202 15.4653 25.4067 15.9626 25.2675 16.453C24.8863 17.7444 24.2952 19.0512 23.5163 20.1544C26.2713 22.1259 30.297 22.1464 33.0837 20.2171C32.0173 18.6227 31.2903 16.8711 30.9718 14.9786C30.7609 13.6722 30.7487 12.3415 30.9354 11.0314C31.0023 10.6025 31.0859 10.1794 31.1858 9.75594ZM21.1005 9.83913C20.9648 9.48328 20.8077 9.13595 20.6301 8.79903C20.1649 9.6878 19.8246 10.6338 19.6732 11.6325C19.5892 12.2019 19.5524 12.7776 19.5892 13.3578C19.6682 14.5969 20.0654 15.8406 20.6506 16.9338C20.9332 16.364 21.1736 15.8046 21.3408 15.1876C21.8325 13.4778 21.7384 11.5076 21.1005 9.83913ZM15.6738 15.2399C15.4831 14.2041 15.4148 13.1495 15.4702 12.0978C15.6207 9.77286 16.3916 7.53071 17.7026 5.60474C17.2528 5.30668 16.777 5.02951 16.2804 4.82049C15.423 4.46473 14.5238 4.22436 13.6036 4.15621C12.9189 4.10396 12.2391 4.14116 11.5594 4.22436C11.1313 4.30272 10.7073 4.4022 10.2889 4.52242C9.61423 4.74823 8.9644 5.04254 8.34963 5.40074C7.87667 5.70219 7.42749 6.03943 7.00603 6.40948C6.5957 6.79399 6.21633 7.21026 5.87146 7.65442C5.45729 8.22539 5.10499 8.83877 4.82049 9.48421C4.60738 10.0177 4.43439 10.5663 4.30295 11.1255L4.22979 11.5594C4.15345 12.1486 4.12382 12.743 4.14116 13.3369C4.1675 13.7813 4.22979 14.2152 4.30337 14.6542C4.50737 15.5116 4.77952 16.2749 5.18711 17.0592C5.39885 17.425 5.62749 17.7807 5.87229 18.1252C6.31124 18.6904 6.78196 19.1762 7.3204 19.6469C7.7646 19.995 8.23286 20.3113 8.72169 20.5934C9.36465 20.9178 10.0126 21.1786 10.7082 21.3722C11.1263 21.4713 11.5657 21.5553 11.9942 21.6071C12.4749 21.6385 12.9402 21.6594 13.4159 21.633C14.6892 21.5416 15.9307 21.193 17.0655 20.6084L17.3631 20.4462L17.7343 20.2217C17.384 19.7405 17.091 19.1762 16.8192 18.6428C16.2915 17.5629 15.9065 16.419 15.6738 15.2399ZM66.8242 23.207C66.3198 23.5684 65.7981 23.9052 65.2612 24.2162C64.7019 24.4989 64.1296 24.7553 63.5463 24.9845C62.9448 25.1885 62.3382 25.3662 61.7161 25.5075L61.0836 25.6225C59.9754 25.7583 58.8617 25.816 57.753 25.6956C56.4222 25.5471 55.1214 25.1981 53.8949 24.6605C53.0266 24.2665 52.1999 23.7866 51.4272 23.2279C50.5648 23.829 49.6756 24.347 48.7036 24.7546C47.3689 25.304 45.9552 25.6373 44.5156 25.742C43.5109 25.8 42.5027 25.7475 41.5095 25.5853C39.5175 25.2249 37.6413 24.4511 35.9892 23.2697C35.2835 23.7663 34.5461 24.2107 33.7568 24.5711C32.126 25.3135 30.4003 25.7215 28.6073 25.7633C27.4259 25.7788 26.2545 25.6534 25.1041 25.3557C23.4837 24.9318 22.0038 24.2107 20.6347 23.2275C19.9128 23.7291 19.1862 24.1685 18.3969 24.5397C16.7603 25.2976 14.9727 25.7265 13.1689 25.7633C12.416 25.7738 11.679 25.7111 10.9365 25.622C10.3056 25.5091 9.68077 25.3643 9.06449 25.1881C8.46864 24.9853 7.88247 24.7552 7.30786 24.4983C6.75384 24.2158 6.21469 23.9051 5.69253 23.5673C5.01965 23.0891 4.38189 22.5632 3.78415 21.9938C3.35608 21.5447 2.9497 21.0754 2.56638 20.5875C2.20751 20.0825 1.87256 19.5609 1.56266 19.0244C1.27872 18.4641 1.01888 17.8918 0.783836 17.3092C0.580322 16.7082 0.405934 16.0977 0.261279 15.4798C0.149942 14.841 0.0697217 14.1972 0.0209024 13.5505L0 12.8917L0.0209024 12.2278L0.0677233 11.5744L0.151751 10.9311L0.261279 10.2986L0.413029 9.67108L0.580248 9.06491L0.783836 8.46919L1.0192 7.87849L1.28047 7.3087L1.56266 6.75437L1.87619 6.21049L2.20561 5.69253L2.56638 5.18586L2.94806 4.70511C3.35565 4.22979 3.78415 3.78541 4.22854 3.35607C4.70037 2.95258 5.18879 2.5689 5.69253 2.20603C6.21727 1.87251 6.75622 1.56189 7.30786 1.27504C7.88254 1.01662 8.46869 0.784507 9.06449 0.579412C9.68194 0.406759 10.3036 0.255009 10.9365 0.151334C11.8621 0.0359533 12.7922 -0.0267548 13.7232 0.025919C14.9046 0.114545 16.0546 0.34447 17.1633 0.73158C18.2417 1.1261 19.2686 1.64923 20.2217 2.28964L20.4358 2.44139L20.6084 2.5668C22.4541 1.19185 24.6656 0.32984 26.9556 0.0731593C28.3251 -0.057271 29.7105 -0.000417717 31.0591 0.292632C32.2644 0.558871 33.4272 0.989887 34.5147 1.57352C35.0377 1.86156 35.5343 2.18554 36.0205 2.525C36.8416 1.90796 37.7617 1.39586 38.7081 0.998712C40.522 0.229925 42.5454 -0.0890423 44.5165 0.0263384C45.1494 0.0731595 45.7923 0.162202 46.409 0.292632C47.8852 0.615313 49.2935 1.19399 50.5702 2.00244C50.8474 2.17969 51.135 2.37367 51.3962 2.5668C52.6683 1.62992 54.097 0.927208 55.6156 0.491623C56.7656 0.162203 57.9316 0.0158857 59.1288 0L59.8082 0.0158866L60.4825 0.0685602L61.1409 0.15217C61.7821 0.26323 62.4173 0.406099 63.0443 0.580248C63.6474 0.778977 64.2391 1.01121 64.8164 1.27588C65.3737 1.55549 65.9148 1.86631 66.4371 2.20687C66.9388 2.56722 67.4199 2.94346 67.8852 3.35691C68.3305 3.77872 68.7514 4.22565 69.1456 4.69549C69.5253 5.18085 69.8777 5.6869 70.2012 6.21133L70.5047 6.75521L70.7873 7.30953L71.0327 7.87933L71.2576 8.46459L71.4512 9.06575L71.618 9.67191C71.7593 10.3053 71.8692 10.9269 71.9474 11.5753C71.9942 12.2341 72.0097 12.8925 71.9942 13.5514C71.9464 14.1984 71.8644 14.8424 71.7484 15.4807L71.6021 16.1081L71.4298 16.7147L71.2258 17.31C70.998 17.8949 70.7397 18.4674 70.452 19.0253C70.0401 19.7419 69.5753 20.4269 69.0616 21.0745C68.6588 21.5464 68.2313 21.9966 67.7807 22.4231L67.31 22.8261L66.8242 23.207Z" fill="white"/>
<path fill-rule="evenodd" clip-rule="evenodd" d="M20.8344 20.1178C18.9314 18.2145 17.8495 15.7785 17.8495 12.8923C17.8495 10.1424 18.8792 7.69559 20.6199 5.81397C22.3297 7.68012 23.3857 10.1688 23.3857 12.8923C23.3857 14.7848 23.0199 16.3797 22.1307 17.911C23.4538 13.7079 23.0717 10.7486 21.4514 8.40125C21.744 8.81428 22.5387 11.1303 22.3924 12.8919C22.3924 14.8421 21.7963 16.6564 20.7817 18.1618L20.8344 20.1178ZM71.614 12.8927C71.614 19.7679 66.0042 25.3664 59.1345 25.3664C56.2591 25.3664 53.6033 24.3886 51.4336 22.7268C49.2594 24.3685 46.5872 25.3664 43.686 25.3664C40.8207 25.3664 38.1753 24.3886 35.9956 22.7737C33.8155 24.4049 31.1864 25.3664 28.342 25.3664C25.4667 25.3664 22.8113 24.3886 20.6412 22.7268C18.4716 24.3685 15.7948 25.3664 12.8986 25.3664C6.0234 25.3664 0.414062 19.7675 0.414062 12.8927C0.414062 6.01797 6.0234 0.408213 12.8986 0.408213C15.7948 0.408213 18.4716 1.40734 20.6145 3.07994C22.7636 1.40734 25.4454 0.408213 28.342 0.408213C31.2383 0.408213 33.8786 1.40149 36.027 3.03271C38.216 1.32846 40.9118 0.4047 43.686 0.408213C46.5872 0.408213 49.2594 1.40734 51.4027 3.07994C53.5561 1.40734 56.2382 0.408213 59.1345 0.408213C66.2655 0.408213 71.614 6.00251 71.614 12.8927ZM59.1345 1.71544C57.0221 1.71544 55.0778 2.31659 53.3993 3.36756C56.1438 1.17658 60.5508 0.701264 65.6121 2.46834C63.7877 1.3601 61.435 0.643991 59.1345 0.643991C56.2119 0.643991 53.5038 1.70499 51.3918 3.43027L51.4232 4.83657C49.4103 2.90771 46.6813 1.71586 43.6856 1.71586C41.6593 1.71239 39.6738 2.2854 37.9609 3.36798C40.6957 1.177 45.1082 0.701682 50.1632 2.46876C48.3384 1.36052 45.9911 0.644409 43.6856 0.644409C40.7731 0.644409 38.1389 1.62724 36.0266 3.35753V4.83699C34.0195 2.90813 31.3373 1.71628 28.3416 1.71628C26.3137 1.71269 24.3266 2.28567 22.6119 3.3684C25.3509 1.17742 29.7584 0.702099 34.8188 2.46918C32.9941 1.36094 30.6471 0.644828 28.3416 0.644828C25.4241 0.644828 22.7164 1.70583 20.599 3.4311L20.6308 4.83741C18.6233 2.90855 15.8939 1.7167 12.8986 1.7167C10.8692 1.71377 8.88062 2.28665 7.16383 3.36881C9.9083 1.17784 14.3153 0.702517 19.3758 2.4696C17.5514 1.36136 15.1987 0.645246 12.8986 0.645246C6.15425 0.645246 0.649422 6.15551 0.649422 12.894C0.649422 15.2363 1.46461 17.7977 2.85002 19.8628C0.0532883 14.3475 1.46461 10.1545 3.248 7.54593C2.56282 9.07765 1.66904 11.1269 1.71628 12.894C1.88893 18.9745 6.74537 24.0717 12.899 24.0717C16.0197 24.0717 18.6547 22.9635 20.7252 20.872C22.7745 23.0103 25.1745 24.0717 28.3425 24.0717C29.7806 24.072 31.2045 23.7861 32.531 23.2305C33.8575 22.6749 35.0601 21.8608 36.0688 20.8356C38.0616 22.8326 40.6593 24.0717 43.6864 24.0717C46.813 24.0717 49.4429 22.9635 51.5127 20.872C53.5674 23.0103 55.9619 24.0717 59.1349 24.0717C65.2885 24.0717 70.3072 19.0476 70.3072 12.894C70.3067 6.78132 65.2463 1.71544 59.1345 1.71544ZM34.5525 20.071C32.83 21.5684 30.6244 22.3929 28.342 22.3924C26.0992 22.3552 25.0951 21.9635 24.1386 21.4932C26.878 23.6261 32.9635 22.8 34.5157 21.4614C32.8222 22.6796 30.694 23.3807 28.3416 23.3807C25.4554 23.3807 23.0245 22.3247 21.1115 20.4372C23.0772 18.4348 24.0704 15.9202 24.0704 12.8932C24.0704 9.9497 22.9154 7.2579 21.0384 5.25546C22.476 3.81236 25.32 2.40104 28.342 2.40104C31.0919 2.40104 33.6796 3.65058 35.5621 5.39634H34.1763C32.4042 7.51876 31.4469 9.92921 31.4469 12.8932C31.4469 15.2355 32.2625 17.7968 33.6429 19.862C30.8461 14.3467 32.2625 10.1537 34.0404 7.54509C33.3552 9.07681 32.4719 11.1315 32.5137 12.8932C32.5768 15.6276 33.8155 18.163 35.4936 20.1287L34.5525 20.071ZM36.0215 19.8933C34.2545 18.0113 33.2039 15.6426 33.2039 12.8927C33.2039 10.1428 34.2754 7.62828 36.0266 5.75126C37.8095 7.62285 38.8291 10.106 38.8291 12.8927C38.8291 14.7852 38.4629 16.3801 37.5742 17.9114C38.8969 13.7083 38.5148 10.749 36.8944 8.40167C37.1875 8.8147 37.9822 11.1307 37.8409 12.8923C37.8409 14.9002 37.2084 16.7768 36.1365 18.314L36.0215 19.8933ZM36.5654 20.4468C38.4165 18.4707 39.5189 15.8308 39.5189 12.8923C39.5189 9.94886 38.4424 7.40839 36.5654 5.3955C38.4475 3.54523 40.8525 2.4002 43.686 2.4002C46.4204 2.4002 48.9818 3.42985 50.8484 5.16056L49.6461 5.16599C47.8589 7.3442 46.8831 10.0752 46.8853 12.8927C46.8853 15.2351 47.7009 17.7964 49.0863 19.8616C46.2896 14.3463 47.7013 10.1533 49.4839 7.54468C48.7987 9.0764 47.9095 11.1206 47.9517 12.8927C48.0144 15.8203 48.9977 18.2308 50.8898 20.2537L49.8079 20.1391C48.1557 21.5354 46.0124 22.3928 43.6856 22.3928C41.4428 22.3556 40.5277 21.9117 39.4876 21.4936C42.2216 23.6265 48.3071 22.8004 49.8597 21.4618C48.1658 22.68 46.0379 23.3811 43.6856 23.3811C40.6694 23.3803 38.5052 22.183 36.5654 20.4468ZM38.3639 20.3532C39.8588 21.4301 41.7199 22.0576 43.6856 22.0576C45.6567 22.0576 47.5855 21.3933 49.0964 20.3323C47.6064 18.2671 46.6495 15.6272 46.6495 12.8927C46.6495 10.1483 47.5437 7.60237 49.0646 5.51088C47.5133 4.34633 45.6249 3.71881 43.6852 3.72332C41.7195 3.72332 39.8998 4.32447 38.4048 5.39592C39.8421 7.4247 40.8149 10.1901 40.8149 12.8927C40.8157 15.6272 39.8538 18.288 38.3639 20.3532ZM36.0588 17.8282C37.0071 16.357 37.5099 14.6431 37.5069 12.8927C37.5069 11.042 36.9939 9.31176 36.027 7.9159C35.0964 9.38492 34.5216 11.0788 34.5216 12.8927C34.5216 14.6703 35.1696 16.411 36.0588 17.8282ZM33.6533 20.3164C32.127 18.194 31.2065 15.6426 31.2065 12.8927C31.2058 10.2062 32.0772 7.59199 33.6897 5.44316C32.1943 4.40264 30.2864 3.72332 28.3471 3.72332C26.0202 3.59247 23.4797 4.92562 23.1085 5.55269C24.4889 7.54468 25.3773 10.2524 25.3773 12.8927C25.3773 15.6217 24.4889 18.1526 22.9618 20.2483C24.4521 21.3987 26.3237 22.0576 28.3416 22.0576C30.3127 22.0576 32.1534 21.4301 33.6533 20.3164ZM20.0973 20.2537L19.015 20.1391C17.3629 21.5354 15.225 22.3928 12.8986 22.3928C10.6558 22.3556 9.99108 21.8226 8.6897 21.4936C11.43 23.6265 17.5147 22.8004 19.0727 21.4618C17.3738 22.68 15.2459 23.3811 12.8986 23.3811C7.12705 23.3811 2.40605 18.6706 2.40605 12.8936C2.40605 7.1166 7.12161 2.40146 12.8986 2.40146C15.6326 2.40146 18.1944 3.4311 20.061 5.16181L18.8532 5.16725C17.1334 7.27378 16.0929 9.97143 16.0929 12.894C16.0929 15.2363 16.9135 17.7977 18.2939 19.8628C15.4972 14.3475 16.9139 10.1545 18.6915 7.54593C18.0067 9.07765 17.1229 11.1219 17.1652 12.894C17.227 15.8203 18.2048 18.2303 20.0973 20.2537ZM20.6567 17.7496C21.5763 16.2965 22.0639 14.612 22.0626 12.8923C22.0626 11.1048 21.5455 9.42672 20.6408 7.99366C19.747 9.39495 19.1722 11.1048 19.1722 12.8923C19.1722 14.6439 19.7938 16.3692 20.6567 17.7496ZM18.3094 20.3323C16.8194 18.2671 15.8571 15.6272 15.8571 12.8927C15.8571 10.1483 16.7517 7.60237 18.2726 5.51088C16.7234 4.34633 14.8367 3.71875 12.8986 3.72332C7.84817 3.72332 3.72875 7.84274 3.72875 12.8927C3.72875 17.9436 7.84817 22.0576 12.8986 22.0576C14.8647 22.0576 16.799 21.3933 18.3094 20.3323ZM51.6272 20.1178C49.7243 18.2145 48.6419 15.7785 48.6419 12.8923C48.6419 10.1424 49.672 7.69559 51.4073 5.81397C53.1221 7.68012 54.1727 10.1688 54.1727 12.8923C54.1727 14.7848 53.8073 16.3797 52.9181 17.911C54.2463 13.7079 53.8591 10.7486 52.2438 8.40125C52.5314 8.81428 53.3316 11.1303 53.1848 12.8919C53.1848 14.8421 52.5891 16.6564 51.5745 18.1618L51.6272 20.1178ZM51.9039 20.4368C53.8646 18.4344 54.8633 15.9198 54.8633 12.8927C54.8633 9.94928 53.7074 7.25748 51.8254 5.25504C53.2684 3.81194 56.1074 2.40062 59.1341 2.40062C64.906 2.40062 69.6157 7.11576 69.6157 12.8927C69.6157 14.7852 69.2554 16.3801 68.3666 17.9114C69.6893 13.7083 69.3022 10.749 67.6873 8.40167C67.9749 8.8147 68.7746 11.1307 68.6279 12.8923C68.6279 18.1254 64.3621 22.392 59.1341 22.392C56.8912 22.3548 55.8875 21.9631 54.9256 21.4928C57.6655 23.6257 63.7501 22.7996 65.3032 21.461C63.6092 22.6792 61.4814 23.3803 59.1341 23.3803C56.2487 23.3803 53.8173 22.3243 51.9039 20.4368ZM53.7496 20.2483C55.2445 21.3987 57.1161 22.0576 59.1345 22.0576C64.179 22.0576 68.2993 17.9432 68.2993 12.8927C68.2993 7.84274 64.1794 3.72332 59.1345 3.72332C56.808 3.59247 54.2672 4.92562 53.8964 5.55269C55.2763 7.54468 56.1655 10.2524 56.1655 12.8927C56.1651 15.6213 55.2763 18.1522 53.7496 20.2483ZM51.4495 17.7496C52.3379 16.3328 52.8554 14.6703 52.8554 12.8923C52.8554 11.1048 52.3329 9.42672 51.4336 7.99366C50.5344 9.39495 49.9642 11.1048 49.9642 12.8923C49.9642 14.6439 50.5817 16.3692 51.4495 17.7496Z" fill="#D0D1D3"/>
</svg>
