<svg width="84" height="35" viewBox="0 0 84 35" fill="none" xmlns="http://www.w3.org/2000/svg">
<path fill-rule="evenodd" clip-rule="evenodd" d="M34.4821 17.4795C31.9717 18.8719 29.8738 21.78 28.6913 24.1426C28.0809 25.0357 28.3627 26.8519 30.1018 25.7139C31.383 24.8741 33.9079 21.3078 35.5498 18.655C35.7291 18.3645 35.9316 17.7519 35.8606 17.4609C35.6003 16.9501 34.8067 17.3276 34.4821 17.4795ZM44.6969 19.2533C42.934 19.7369 41.6554 21.2344 40.9768 22.7847C40.6206 23.5964 40.1916 24.9378 40.6949 25.6025C40.9024 25.8538 41.2631 25.7075 41.4695 25.56C42.1726 25.0841 42.683 24.3453 43.1126 23.6845C43.9011 22.3056 44.5937 20.8325 44.7901 19.2327L44.6969 19.2533ZM51.6021 19.7157C50.6854 20.1802 50.1632 21.6827 49.9851 22.5148C49.7638 23.5615 49.5599 24.9866 50.0455 25.6128C50.1572 25.7184 50.303 25.7951 50.4811 25.7906C51.2098 25.806 51.7164 24.7033 52.0021 24.0697C52.4805 23.0159 52.9094 21.3498 52.7562 20.2857C52.698 19.7369 52.1632 19.4942 51.6021 19.7157ZM33.5931 3.12529C35.3643 4.90288 35.8997 7.56738 35.0497 9.85516C33.026 14.9303 27.7738 18.5462 22.257 19.9985C19.6467 20.5768 15.8701 20.8603 13.4745 19.6597C11.3326 18.5004 10.3071 16.0542 10.7244 13.7407C11.3926 10.2017 14.1698 7.62925 17.4516 5.93211C20.1867 4.64132 23.4178 4.06303 26.6879 4.42377C27.0492 4.47969 27.3809 4.65106 27.4731 5.06074C27.5098 5.35498 27.4631 5.55408 27.3233 5.74288C27.0919 6.01968 26.8245 6.08605 26.527 6.06921C22.8424 6.04742 19.0553 6.94392 16.3555 9.28833C14.7741 10.7593 13.499 13.0863 14.7203 15.5577C15.5021 17.1145 18.3043 17.5909 19.9508 17.4435C29.5268 16.5753 32.4833 10.8426 33.0437 8.8756C34.1963 4.83274 30.1556 1.39272 22.3929 2.45027C12.3492 3.81832 6.1016 10.5032 4.82368 17.3527C3.4813 24.5488 10.5529 27.601 17.92 26.0824C20.9225 25.4653 24.0859 24.0651 27.1739 21.1854C29.7193 18.5668 33.2036 14.7552 37.1495 15.3439C37.6356 15.4521 38.227 15.6936 38.3663 16.2217C38.5994 17.1562 38.1094 17.9903 37.7993 18.8198C34.6614 24.0663 34.9827 26.1943 35.543 26.4662C36.6956 26.8242 37.4386 25.2135 38.0023 24.311C38.7519 20.9162 41.4837 17.6986 45.008 16.7221C45.1152 16.3137 45.1263 15.9003 45.1152 15.4771C45.0606 13.6597 44.1901 12.4004 43.6362 10.9159C43.5054 10.525 43.6406 10.0445 43.9515 9.75132C44.198 9.50153 44.7301 9.22589 45.1612 9.34062C45.5823 9.41076 45.8715 9.74304 46.0961 10.0342C46.8969 11.2418 47.7826 11.9386 49.4593 11.9382C50.7103 11.98 51.9809 11.8968 52.9842 11.2495C53.6156 10.5417 54.3371 9.77586 55.2799 9.52607C55.7371 9.43647 56.1017 9.52985 56.4152 9.80346C56.7082 10.0935 56.783 10.5308 56.6227 10.9203C56.3337 11.6481 55.301 12.3508 54.5695 13.1115C53.3698 14.3636 52.4915 15.8894 51.8777 17.5138C52.255 17.399 52.7811 17.276 53.2661 17.3674C54.6617 17.6259 55.1045 18.9383 55.1839 20.1878C55.2088 20.58 55.1971 21 55.1372 21.4051C55.9374 21.2829 56.4467 20.9898 57.0466 20.6883C58.0715 20.1248 58.9221 19.2951 59.7435 18.5076C60.1075 18.1789 60.6576 18.0604 61.0709 18.2106C61.3959 18.3053 61.6641 18.588 61.7213 18.9377C61.8664 19.8837 61.0038 20.1802 59.7679 22.0183C59.0781 23.047 58.2936 24.1147 58.1614 25.3745C58.1436 25.602 58.201 25.8163 58.3534 25.9832C58.6364 26.2144 59.1036 26.0927 59.4078 25.9207C60.0426 25.5748 60.5503 25.0177 60.9244 24.4443C61.4703 22.4936 62.2533 20.6399 63.8481 19.2844C64.2521 18.9867 64.7414 18.7045 65.2703 18.8192C65.5549 18.8682 65.7869 19.0678 65.8447 19.2912C66.162 20.2226 65.5084 21.4374 65.055 22.2178C64.474 23.2227 63.5346 24.1882 62.7316 25.0738C62.71 25.5388 62.8171 25.8377 63.185 25.9283C63.7454 26.0006 64.1882 25.5916 64.6233 25.2489C65.8382 24.1392 66.9866 22.8401 67.7053 21.353C67.5871 20.0133 68.0549 18.4727 69.2757 17.7662C69.6902 17.5627 70.1718 17.5832 70.5036 17.8048C70.8426 18.0592 70.8543 18.5434 70.7894 18.9557C70.6934 19.4388 70.4155 19.8201 70.1691 20.24C70.8465 20.2825 71.4425 19.9702 72.0684 19.8168C72.3931 19.7504 72.5862 19.8419 72.7671 19.981C73.0928 20.282 73.1244 20.6741 72.9607 21.063C72.6171 21.7774 72.1533 22.1619 71.6611 22.8336C70.9831 23.7612 70.3642 25.008 70.3426 25.9413C70.3466 26.1617 70.4404 26.3128 70.5936 26.376C70.9576 26.5024 71.2721 26.2362 71.5745 26.0565C73.6743 24.4998 75.2813 22.2777 77.0231 20.4299C77.4798 20.0127 78.002 19.583 78.6445 19.7821C78.8687 19.8588 79.0447 20.0345 79.1045 20.2715C79.2017 20.7198 78.9342 21.2801 78.6474 21.6549C77.7773 22.9562 76.6125 24.4361 76.5671 25.9734C76.5743 26.2427 76.6597 26.3342 76.7845 26.3728C77.2912 26.5157 77.8976 26.0089 78.3522 25.596C79.8798 24.2197 80.9009 22.4698 82.0545 20.8569C82.2798 20.5092 82.6249 20.2226 83.0434 20.177C83.3357 20.1595 83.5782 20.2368 83.7674 20.4299C84.272 21.1262 83.8502 22.1657 83.4961 22.8336C81.9429 25.7068 80.3016 28.6128 78.6656 31.5447C77.8411 32.9563 77.3878 33.7506 77.3379 34.8493C77.2905 34.975 77.1734 35.0381 76.9988 34.9756C76.0705 34.6388 75.7019 34.0764 75.6946 33.4003C75.6881 32.8025 76.2308 31.955 76.4351 31.5595C77.2373 30.0085 78.326 28.3701 79.0835 26.8198C78.9758 26.9048 78.78 27.1 78.6086 27.2371C77.5986 28.0454 76.6408 29.0812 75.2847 28.8989C74.8425 28.8222 74.4496 28.381 74.3279 27.941C74.1099 27.1952 74.2497 26.128 74.4785 25.3647L74.3951 25.4453C73.2394 26.6517 71.993 27.9965 70.4331 28.7488C69.9543 28.9625 69.1257 29.1159 68.6441 28.6889C67.7303 27.7653 67.9516 26.1236 68.4515 24.9202C68.8511 23.9324 69.4038 23.0083 70.0048 22.138C69.5614 22.2707 69.1653 22.3333 68.719 22.3365L68.5693 22.5503C67.1521 24.6299 65.8119 26.971 63.7204 28.4094C63.0057 28.9021 62.0596 28.9419 61.467 28.571C60.967 28.2548 60.7639 27.6815 60.6208 27.1521C59.5709 27.9327 57.7463 29.3015 56.4795 28.6933C55.7187 28.2939 55.3909 27.4503 55.4263 26.5962C55.4552 25.3636 56.0085 24.0903 56.5118 22.9849C56.3186 23.0745 56.2149 23.1138 56.015 23.2021C55.5301 23.4153 55.0335 23.5653 54.5401 23.7475C54.1772 24.7511 53.4087 26.1617 52.9842 26.7251C52.3587 27.6674 51.1137 28.8538 49.9857 28.889C49.0926 28.949 48.3076 28.5427 47.8824 27.8144C46.8713 26.2078 47.3424 24.013 47.7458 22.1227C48.4718 19.2882 49.6276 16.6526 50.9921 14.1754C50.5521 14.2303 50.2064 14.2547 49.7669 14.2804C48.9817 14.3293 48.3812 14.4017 47.5318 14.2374C47.5934 18.7671 46.3786 23.4365 43.3472 27.0098C42.4877 28.021 41.1054 29.085 39.5954 28.8532C38.6384 28.7139 37.9353 27.7587 37.7999 26.8945C37.1245 28.0313 35.8348 29.3994 33.9716 28.3957C32.8679 27.7974 32.8507 27.2615 32.7725 26.0721C32.7725 26.0721 30.4406 29.5371 27.3771 28.7238C25.9954 28.3456 24.8107 26.9982 25.5427 24.8529C21.7359 27.7298 17.4548 29.6023 13.652 29.6665C8.40116 29.7574 3.77049 27.6571 1.52086 24.1469C-1.56833 19.3268 0.388261 12.5653 4.34412 8.28365C8.29731 4 12.7847 2.22182 15.6979 1.28772C23.7824 -1.30257 30.7187 0.377718 33.5931 3.12529Z" fill="#3E2774"/>
</svg>
