<svg width="85" height="81" viewBox="0 0 85 81" fill="none" xmlns="http://www.w3.org/2000/svg">
<path d="M12.094 7.92963L0 15.688L0.114094 19.6813L0.285235 23.6176L11.6946 30.9196C17.9698 34.9129 23.5604 38.3357 24.1309 38.5639C24.8154 38.7921 27.896 37.1377 33.7148 33.4296C38.3926 30.4061 42.443 27.9531 42.6711 27.9531C42.9564 27.9531 46.9497 30.4061 51.6846 33.3726C56.3624 36.339 60.5268 38.735 60.9262 38.678C61.3825 38.5639 66.9161 35.141 73.3054 31.0907L84.943 23.6746L85 19.6243V15.5739L72.6778 7.75849L60.4128 0.000102997L51.5705 5.7048C46.6644 8.84239 42.6141 11.4095 42.5 11.4095C42.3859 11.4095 38.7349 9.12762 34.3993 6.38937C30.0638 3.59406 26.0134 1.084 25.3859 0.741714C24.4161 0.228291 22.4195 1.31218 12.094 7.92963ZM42.7282 12.4934C52.198 18.4833 60.2416 23.3894 60.5839 23.3894C61.7248 23.3894 73.1342 15.8592 72.6208 15.4028C71.651 14.49 60.9262 7.98668 60.4698 7.98668C60.1846 7.98668 57.3893 9.64104 54.2517 11.6377L48.604 15.3457L45.9228 13.6343C44.4396 12.6645 43.2987 11.8659 43.4128 11.7518C44.7819 10.6679 60.0134 1.14104 60.4128 1.14104C61.3255 1.14104 83.5738 15.4598 83.2886 15.8592C83.0034 16.3726 62.3523 29.6645 61.2685 30.0639C60.8691 30.235 52.5403 25.329 42.7282 19.1679C32.9732 13.0068 24.8154 7.98668 24.5302 7.98668C24.245 7.98668 21.2785 9.75514 17.9698 11.9229L11.8658 15.8592L18.3121 19.8525L24.7013 23.8457L27.5537 21.9632L30.406 20.0236L32.745 21.3927C34 22.1914 35.1409 22.99 35.255 23.2753C35.3121 23.5605 32.9732 25.329 30.0638 27.2115L24.7013 30.6914L13.4631 23.5035C7.30201 19.6243 2.11074 16.5437 1.9396 16.6578C1.8255 16.829 6.78859 20.1377 12.9497 24.0739L24.245 31.2048L24.4161 34.3994C24.5302 36.2249 24.3591 37.6511 24.1309 37.6511C23.9027 37.6511 18.6544 34.4565 12.5503 30.6343L1.42617 23.5605L1.25503 20.3659C1.14094 18.5404 1.31208 16.7149 1.59732 16.2014C2.33893 14.8323 23.5604 1.19809 24.5872 1.36923C25.1007 1.48333 33.2584 6.44641 42.7282 12.4934ZM23.9597 12.5504V15.9162L21.3356 17.4565L18.7114 18.9967L16.2013 17.6276C14.8322 16.886 13.6913 16.0874 13.6913 15.9162C13.6913 15.5739 23.3322 9.12762 23.8456 9.12762C23.9027 9.12762 23.9597 10.6679 23.9597 12.5504ZM44.1544 20.8223L60.4698 31.0907V34.3424C60.4698 36.1679 60.2987 37.6511 60.1275 37.6511C59.8993 37.6511 51.9698 32.7451 42.443 26.6981L25.1007 15.7451V12.4363C25.1007 8.38601 22.6477 7.30212 44.1544 20.8223ZM60.0134 11.6947C60.0134 13.1209 60.0705 14.5471 60.1275 14.9464C60.1846 15.2887 58.9295 16.3726 57.3893 17.2853L54.651 18.9967L52.7114 17.9699C49.1745 16.0874 49.2886 15.8021 54.3658 12.3793C56.9329 10.6108 59.2148 9.18467 59.5 9.18467C59.7282 9.12762 59.9564 10.2686 60.0134 11.6947ZM66.745 12.4934L71.9933 15.8021L69.3691 17.3424C68 18.141 66.6879 18.8256 66.5168 18.8256C66.3456 18.8256 65.0336 18.141 63.6074 17.2853L61.0403 15.688V12.4363C61.0403 10.6108 61.1544 9.12762 61.3255 9.12762C61.4396 9.12762 63.8926 10.6108 66.745 12.4934ZM27.3825 17.9699C28.6376 18.7686 29.6644 19.5102 29.6644 19.6813C29.6644 19.7954 28.5235 20.5941 27.0973 21.3927L24.5872 22.8759L21.9631 21.3357C20.5369 20.537 19.453 19.6813 19.6242 19.5672C20.594 18.5974 23.7886 16.6008 24.4161 16.5437C24.8154 16.5437 26.1275 17.1712 27.3825 17.9699ZM63.4933 17.9699C64.6342 18.7686 65.604 19.5672 65.604 19.6813C65.604 19.7954 64.4631 20.5941 63.0369 21.4498L60.4698 22.933L57.8456 21.2786L55.2785 19.5672L57.4463 18.084C60.1846 16.2014 60.8691 16.2014 63.4933 17.9699ZM84.4295 19.7954V23.1041L73.0772 30.3491C66.8591 34.3994 61.6107 37.6511 61.3825 37.6511C60.698 37.6511 61.0403 31.5471 61.7819 30.9196C63.094 29.7786 83.5738 16.6008 84.0302 16.6008C84.2584 16.5437 84.4295 18.027 84.4295 19.7954ZM39.1342 25.4431C40.5034 26.2417 41.6443 27.0974 41.6443 27.2686C41.5872 27.7249 26.0705 37.6511 25.443 37.6511C25.2718 37.6511 25.1007 36.1679 25.1007 34.3424L25.1577 31.0907L30.6913 27.5538C33.7148 25.6142 36.2819 24.0169 36.396 24.0169C36.5101 23.9598 37.7081 24.6444 39.1342 25.4431Z" fill="black"/>
<path d="M47.7487 57.3322C45.9803 60.9262 44.4971 64.1779 44.4971 64.4631C44.4971 64.8054 44.8964 65.0336 45.3528 65.0336C45.8662 65.0336 47.1783 63.0369 48.6045 60.1846C49.9165 57.5034 51.1716 55.3356 51.3998 55.3356C51.742 55.3356 54.7655 61.6678 54.7655 62.4094C54.7655 62.5805 53.6816 62.7517 52.3125 62.7517C50.0306 62.7517 48.4904 63.4933 48.4904 64.6342C48.4904 64.8624 50.6581 65.0336 53.3394 64.9765C56.0206 64.9195 58.1883 64.8054 58.1883 64.6342C58.1883 64.349 51.3427 50.7718 51.1716 50.7718C51.1145 50.7718 49.5743 53.7383 47.7487 57.3322Z" fill="black"/>
<path d="M6.50363 52.141C0.79893 54.6511 0.970071 62.7517 6.78886 64.5202C9.41302 65.3188 11.1815 64.9766 13.3493 63.2652C14.5473 62.2954 14.7184 61.896 14.205 61.2685C13.6345 60.5269 13.3493 60.5839 12.2654 61.6108C11.0674 62.7517 8.44322 63.094 6.56067 62.4094C5.59088 62.0101 3.99356 59.3289 3.99356 57.9598C3.99356 57.5034 4.67812 56.3625 5.47678 55.3927C7.41638 53.0537 10.0405 52.9967 12.2083 55.1645C13.3493 56.3054 13.8627 56.5336 14.3761 56.0202C15.2318 55.1645 13.5204 53.1678 11.0103 52.141C8.78551 51.1712 8.72846 51.1712 6.50363 52.141Z" fill="black"/>
<path d="M17.6846 58.1879C17.6846 63.7215 17.8557 65.0336 18.4832 65.0336C19.6812 65.0336 19.7953 64.1208 19.5101 58.5873L19.2819 53.6242H22.9899C26.1275 53.6242 26.8121 53.7953 27.0973 54.7081C27.6107 56.4765 26.8121 57.6175 25.0436 57.6175H23.3893L25.2148 61.3255C26.4698 63.8356 27.3826 65.0336 28.0671 65.0336C29.3792 65.0336 29.3792 64.9195 27.896 62.0671C26.8121 59.9564 26.755 59.6141 27.5537 59.0436C29.094 57.9027 29.6074 55.7349 28.8087 53.8524C27.896 51.6275 27.0973 51.3423 21.906 51.3423H17.6846V58.1879Z" fill="black"/>
<path d="M31.9463 58.188V65.0907L36.9094 64.9196C41.1309 64.7484 41.9295 64.5773 42.1007 63.7216C42.2718 62.8659 41.8154 62.7518 38.2785 62.7518H34.2282L34.1711 60.2988C34.1711 58.9867 34.057 56.933 33.8859 55.792L33.6577 53.6813L37.7651 53.5102C41.0168 53.3961 41.9295 53.1679 41.9295 52.4833C41.9295 51.7987 40.9027 51.5706 36.9664 51.4565L31.9463 51.2853V58.188Z" fill="black"/>
<path d="M57.6172 52.4833C57.6172 53.5101 57.9024 53.6242 59.785 53.5101L61.8957 53.339L62.0669 58.8725C62.1809 63.2651 62.4091 64.4631 63.0367 64.4631C63.6642 64.4631 63.8924 63.2651 64.0064 58.8725L64.1776 53.339L66.3454 53.0537C70.3957 52.5403 68.5132 51.6276 63.0367 51.4564C57.9024 51.2853 57.6172 51.3423 57.6172 52.4833Z" fill="black"/>
<path d="M71.3086 57.9027V64.4631H76.4428C80.6073 64.4631 81.5771 64.292 81.5771 63.6074C81.5771 62.9229 80.7784 62.7517 77.5838 62.7517H73.5905V57.9027V53.0537H77.5838C80.7784 53.0537 81.5771 52.8826 81.5771 52.198C81.5771 51.5135 80.6073 51.3423 76.4428 51.3423H71.3086V57.9027Z" fill="black"/>
<path d="M35.3691 58.4732C35.3691 59.1577 36.1108 59.3289 38.792 59.3289C41.5873 59.3289 42.1007 59.1577 41.8725 58.4732C41.5873 57.8456 40.6745 57.6174 38.4497 57.6174C36.1108 57.6174 35.3691 57.8456 35.3691 58.4732Z" fill="black"/>
<path d="M74.7314 58.4732C74.7314 59.1577 75.4731 59.3289 78.1543 59.3289C80.8355 59.3289 81.5771 59.1577 81.5771 58.4732C81.5771 57.7886 80.8355 57.6174 78.1543 57.6174C75.4731 57.6174 74.7314 57.7886 74.7314 58.4732Z" fill="black"/>
<path d="M68.1709 70.6241C66.1743 71.0235 64.4629 73.0772 64.4629 75.0168C64.4629 76.8423 65.832 79.2953 66.8018 79.2953C67.1441 79.2953 66.973 78.7248 66.5166 78.0403C65.2615 76.2718 65.3756 73.8188 66.7448 72.4497C68.228 70.9664 69.6542 71.0235 71.5367 72.5067C73.2481 73.8758 73.4763 76.1007 72.0501 77.698C71.5367 78.2684 71.3085 78.896 71.5367 79.1812C72.0501 79.6376 73.5334 77.8121 73.9327 76.0436C74.6743 73.2483 71.1944 69.9396 68.1709 70.6241Z" fill="black"/>
<path d="M1.71191 75.5873C1.71191 78.4396 1.9401 80.4363 2.28238 80.4363C2.62467 80.4363 2.85285 78.6108 2.85285 76.1007V71.8222L5.87634 71.9933C8.6146 72.1645 8.84279 72.2786 8.84279 73.5906C8.84279 74.6175 8.5005 75.0739 7.58775 75.188C5.99044 75.4161 5.8193 76.443 7.35957 76.443C9.69849 76.443 11.2388 73.0772 9.5844 71.4229C9.18507 71.0235 7.35957 70.7383 5.30587 70.7383H1.71191V75.5873Z" fill="black"/>
<path d="M12.5508 75.6443C12.5508 78.896 12.7219 80.3792 13.1783 80.151C13.5206 79.9228 13.6347 78.3255 13.4635 75.9866C13.2924 73.9329 13.4065 72.0504 13.6917 71.8792C13.977 71.7081 15.3461 71.651 16.7723 71.7651C19.1112 71.9933 19.3964 72.1644 19.3964 73.4195C19.3964 74.3322 18.9971 74.9598 18.2555 75.1309C16.8293 75.5302 16.8293 75.4161 18.3125 78.2114C19.6246 80.8926 20.4803 80.7785 19.3964 78.0973C18.7119 76.5571 18.7689 76.2718 19.5676 75.7584C20.7085 75.1879 20.8796 72.4497 19.8528 71.4228C19.4535 71.0235 17.685 70.7383 15.8595 70.7383H12.5508V75.6443Z" fill="black"/>
<path d="M24.4731 71.4799C22.9899 72.6208 22.1342 74.7316 22.5335 76.443C22.9329 78.2114 24.8154 80.2081 25.3288 79.4094C25.5 79.1242 25.1577 78.4396 24.5302 77.8691C21.5637 75.1879 24.8725 70.7383 28.8657 72.0503C31.2617 72.9061 31.7181 75.9866 29.7785 78.2685C29.151 79.0671 29.0939 79.2953 29.6644 79.2953C30.8053 79.2953 31.8892 77.4698 31.9463 75.4161C31.9463 71.8222 27.2684 69.3121 24.4731 71.4799Z" fill="black"/>
<path d="M34.6849 71.1376L36.5104 71.3658V75.9295C36.5104 78.8389 36.7386 80.3792 37.0808 80.151C37.4231 79.9799 37.6513 77.9262 37.6513 75.5873V71.3658L39.5339 71.1376C40.5037 71.0235 39.4198 70.9094 37.0808 70.9094C34.7419 70.9094 33.658 71.0235 34.6849 71.1376Z" fill="black"/>
<path d="M43.5263 71.9933C42.8988 72.7349 42.2142 73.7617 42.0431 74.3322C41.5297 75.7584 43.0699 79.2953 44.2109 79.2953C44.9525 79.2953 44.8954 79.0101 43.8116 77.5839C42.7847 76.1577 42.6706 75.5872 43.127 74.2752C43.4122 73.4194 44.382 72.3926 45.2377 71.9933C47.2344 71.0235 49.6303 72.1074 50.429 74.2752C50.8854 75.5872 50.7713 76.1577 49.7444 77.5839C48.7176 78.896 48.6605 79.2953 49.2881 79.2953C50.429 79.2953 51.3988 77.4127 51.4559 75.245C51.5699 71.3087 46.1505 69.1409 43.5263 71.9933Z" fill="black"/>
<path d="M54.8794 72.0504C53.168 73.8759 53.2251 77.0134 54.9365 78.6108C56.4767 80.094 59.6714 80.2651 61.3828 79.0671C63.0371 77.8121 62.0103 77.4128 60.0136 78.5537C58.5875 79.3524 58.074 79.4094 56.819 78.8389C53.5673 77.3557 53.8526 72.849 57.2183 71.7081C58.5875 71.2517 59.215 71.4228 60.5841 72.4497C62.5808 73.9329 63.3224 73.5906 61.668 71.9363C59.9566 70.2248 56.4767 70.3389 54.8794 72.0504Z" fill="black"/>
<path d="M75.873 75.3021V79.8658L79.7522 79.7518L83.5744 79.6377L80.3227 79.4665L77.014 79.2383V75.0169C77.014 72.5638 76.7858 70.7383 76.4435 70.7383C76.1012 70.7383 75.873 72.6209 75.873 75.3021Z" fill="black"/>
</svg>
