<svg width="45" height="45" viewBox="0 0 45 45" fill="none" xmlns="http://www.w3.org/2000/svg">
<path d="M0 0C14.85 0 29.7 0 45 0C45 14.85 45 29.7 45 45C30.15 45 15.3 45 0 45C0 30.15 0 15.3 0 0Z" fill="#020202"/>
<path d="M21.4003 14.6001C21.7303 14.7321 22.0603 14.8641 22.4003 15.0001C21.8335 15.6759 21.2691 16.3328 20.6378 16.9501C19.8969 17.7121 19.9357 18.4852 19.9401 19.4962C20.03 20.2488 20.3177 20.6271 20.8003 21.2001C21.0643 21.0681 21.3283 20.9361 21.6003 20.8001C21.5075 20.6454 21.5075 20.6454 21.4128 20.4876C21.1184 19.8122 21.0003 19.3444 21.0003 18.6001C21.3094 17.9844 21.739 17.5078 22.2003 17.0001C22.4107 16.7518 22.4107 16.7518 22.6253 16.4985C23.9002 15.0864 23.9002 15.0864 24.7753 14.9501C26.0392 15.0922 26.9982 16.5083 27.8003 17.4001C27.9511 17.5424 28.1019 17.6847 28.2573 17.8313C28.6003 18.2001 28.6003 18.2001 28.7378 18.8501C28.5393 19.933 27.9603 20.4387 27.2003 21.2001C27.0683 21.3509 26.9363 21.5017 26.8003 21.6571C25.7979 22.7672 25.7979 22.7672 24.8503 22.9251C24.285 22.8164 23.882 22.7084 23.4003 22.4001C23.3095 22.528 23.2188 22.6558 23.1253 22.7876C22.8003 23.2001 22.8003 23.2001 22.4003 23.4001C22.4003 23.5321 22.4003 23.6641 22.4003 23.8001C21.9053 23.8991 21.9053 23.8991 21.4003 24.0001C21.7351 23.2087 22.2266 22.6312 22.8003 22.0001C22.9323 22.0001 23.0643 22.0001 23.2003 22.0001C23.2663 21.8021 23.3323 21.6041 23.4003 21.4001C23.6003 21.2001 23.8003 21.0001 24.0003 20.8001C24.5363 19.9073 24.5413 19.0148 24.4003 18.0001C24.0413 17.3827 24.0413 17.3827 23.6003 17.0001C22.9759 17.2619 22.9759 17.2619 22.6003 17.8001C22.7323 17.8001 22.8643 17.8001 23.0003 17.8001C23.3721 18.5656 23.4438 18.9844 23.2003 19.8001C22.8956 20.2196 22.8956 20.2196 22.5253 20.6126C22.1502 21.0157 21.8 21.4005 21.48 21.8493C21.3877 21.9651 21.2954 22.0808 21.2003 22.2001C21.0683 22.2001 20.9363 22.2001 20.8003 22.2001C20.7343 22.3981 20.6683 22.5961 20.6003 22.8001C19.9984 22.9613 19.6096 23.0564 19.0003 23.0001C18.373 22.6261 17.9064 22.1217 17.4003 21.6001C17.2497 21.4702 17.0992 21.3402 16.944 21.2063C15.6993 20.1018 15.6993 20.1018 15.6128 19.2001C15.716 18.1798 16.4465 17.4413 17.2003 16.8001C17.3323 16.8001 17.4643 16.8001 17.6003 16.8001C17.6539 16.6805 17.7075 16.5608 17.7628 16.4376C18.0156 15.9718 18.1631 15.7016 18.6003 15.4001C19.5117 15.3157 20.177 15.4009 21.0003 15.8001C21.1323 15.6681 21.2643 15.5361 21.4003 15.4001C21.4003 15.1361 21.4003 14.8721 21.4003 14.6001Z" fill="#060303"/>
<path d="M31.2002 15.3999C32.1861 15.3834 33.1719 15.3669 34.1877 15.3499C34.495 15.3427 34.8023 15.3354 35.1189 15.3279C38.0248 15.3044 38.0248 15.3044 39.2002 16.1999C39.8809 17.1092 39.8983 18.0051 39.8877 19.0999C39.8937 19.32 39.8937 19.32 39.8998 19.5445C39.8987 20.7868 39.4861 21.514 38.6002 22.3999C37.8531 22.6803 37.0648 22.6253 36.2783 22.6195C36.1494 22.6193 36.0204 22.6191 35.8876 22.6189C35.4085 22.6178 34.9293 22.615 34.4502 22.6124C33.3777 22.6083 32.3052 22.6042 31.2002 22.5999C31.2002 20.2239 31.2002 17.8479 31.2002 15.3999Z" fill="#883282"/>
<path d="M25.6001 13.7999C26.5485 14.3518 27.3377 15.045 28.1376 15.7874C28.2511 15.8899 28.3647 15.9924 28.4817 16.098C29.223 16.782 29.8992 17.4224 30.0797 18.4562C30.0666 19.6972 29.8452 20.3421 28.9626 21.2499C28.6841 21.5222 28.6841 21.5222 28.4001 21.7999C28.1369 22.1077 27.8744 22.4161 27.6126 22.7249C26.7489 23.6952 26.1235 24.1335 24.8126 24.2999C23.8521 24.2703 23.3209 23.8006 22.6001 23.1999C22.9961 22.7049 22.9961 22.7049 23.4001 22.1999C23.5032 22.2659 23.6063 22.3319 23.7126 22.3999C24.4052 22.6841 24.853 22.6911 25.6001 22.5999C26.1323 22.2421 26.5445 21.7973 26.9751 21.3249C27.0911 21.2043 27.2071 21.0836 27.3266 20.9593C28.1689 20.0903 28.1689 20.0903 28.4751 18.9374C28.3978 18.1774 28.3071 17.972 27.736 17.4929C27.4001 17.1999 27.4001 17.1999 26.9891 16.7382C26.0756 15.6731 26.0756 15.6731 24.8251 15.1499C23.5661 15.2943 22.5674 16.6814 21.8001 17.5999C21.2604 18.3751 21.2604 18.3751 21.2376 19.3124C21.3713 19.8784 21.5035 20.3057 21.8001 20.7999C21.6021 20.9979 21.4041 21.1959 21.2001 21.3999C20.6909 21.2068 20.4108 21.0122 20.0501 20.5999C19.6936 19.7444 19.6543 18.9142 19.8001 17.9999C20.2532 17.0174 21.0279 16.3127 21.7876 15.5624C21.9117 15.4368 22.0358 15.3111 22.1637 15.1816C22.2848 15.0611 22.4058 14.9405 22.5305 14.8163C22.6398 14.7075 22.7491 14.5987 22.8617 14.4865C23.6686 13.8031 24.5575 13.5811 25.6001 13.7999Z" fill="#A22D73"/>
<path d="M20.7843 14.179C21.1124 14.4001 21.1124 14.4001 21.5999 14.8001C21.5499 15.1751 21.5499 15.1751 21.3999 15.6001C20.9874 15.8501 20.9874 15.8501 20.5999 16.0001C20.4019 15.8681 20.2039 15.7361 19.9999 15.6001C19.3169 15.4667 19.3169 15.4667 18.5999 15.6001C18.1004 16.0844 18.1004 16.0844 17.8374 16.4688C17.3986 17.0809 16.8469 17.6212 16.2374 18.0626C15.9009 18.5407 15.907 18.9968 15.9165 19.5683C16.0731 20.379 16.627 20.842 17.2124 21.3876C17.3247 21.5027 17.437 21.6178 17.5526 21.7364C18.3251 22.486 18.8855 22.78 19.9999 22.8001C20.2969 22.7011 20.2969 22.7011 20.5999 22.6001C20.6659 22.4681 20.7319 22.3361 20.7999 22.2001C20.9319 22.2001 21.0639 22.2001 21.1999 22.2001C21.2512 22.0843 21.3025 21.9686 21.3554 21.8493C21.7025 21.2117 22.1889 20.7417 22.6882 20.2196C23.0481 19.7351 23.1364 19.3962 23.1999 18.8001C23.1245 18.2551 23.1245 18.2551 22.9999 17.8001C22.8679 17.8001 22.7359 17.8001 22.5999 17.8001C22.7319 17.5361 22.8639 17.2721 22.9999 17.0001C23.7999 17.0001 23.7999 17.0001 24.2499 17.3751C24.7454 18.2598 24.7563 19.0073 24.5999 20.0001C24.3062 20.7693 23.8577 21.4918 23.1999 22.0001C23.0679 22.0001 22.9359 22.0001 22.7999 22.0001C22.7478 22.1166 22.6957 22.2331 22.6421 22.3532C22.1978 23.1729 21.6033 23.7312 20.7999 24.2001C19.7928 24.4404 18.8571 24.4705 17.9468 23.9321C17.5365 23.5759 17.1717 23.1959 16.7999 22.8001C16.5184 22.5646 16.235 22.3312 15.9499 22.1001C14.988 21.248 14.3795 20.4378 14.2749 19.1126C14.3883 17.1312 16.6094 15.4541 17.9999 14.2001C18.8969 13.9011 19.9023 13.7685 20.7843 14.179Z" fill="#F14F51"/>
<path d="M9.21077 15.3804C9.43249 15.381 9.65421 15.3817 9.88265 15.3823C10.1111 15.384 10.3395 15.3857 10.5748 15.3874C10.9244 15.3888 10.9244 15.3888 11.2811 15.3902C11.854 15.3925 12.4269 15.3958 12.9998 15.3999C12.9998 15.9279 12.9998 16.4559 12.9998 16.9999C12.7698 17.0074 12.7698 17.0074 12.5352 17.0151C11.84 17.0383 11.1449 17.0629 10.4498 17.0874C10.2085 17.0953 9.96721 17.1032 9.71859 17.1113C9.48656 17.1196 9.25452 17.128 9.01546 17.1366C8.8018 17.144 8.58814 17.1513 8.368 17.1589C7.88321 17.1939 7.46406 17.2623 6.99984 17.3999C6.86784 17.8619 6.73584 18.3239 6.59984 18.7999C8.64584 18.7999 10.6918 18.7999 12.7998 18.7999C12.7998 19.2619 12.7998 19.7239 12.7998 20.1999C10.7538 20.1999 8.70784 20.1999 6.59984 20.1999C6.59984 20.9919 6.59984 21.7839 6.59984 22.5999C6.13784 22.5999 5.67584 22.5999 5.19984 22.5999C5.17653 21.725 5.16236 20.8501 5.14984 19.9749C5.14313 19.7274 5.13643 19.4799 5.12952 19.2249C5.10499 16.943 5.10499 16.943 5.99984 15.9999C6.92209 15.3544 8.12161 15.3748 9.21077 15.3804Z" fill="#F68437"/>
<path d="M32.8003 17C33.5211 16.9946 34.2419 16.9906 34.9628 16.9875C35.1676 16.9858 35.3725 16.9841 35.5835 16.9824C35.8784 16.9815 35.8784 16.9815 36.1792 16.9805C36.3604 16.9794 36.5416 16.9784 36.7283 16.9773C37.2003 17 37.2003 17 37.8003 17.2C37.8003 17.332 37.8003 17.464 37.8003 17.6C37.9323 17.6 38.0643 17.6 38.2003 17.6C38.4463 18.092 38.4269 18.4263 38.4253 18.975C38.4261 19.2341 38.4261 19.2341 38.4269 19.4984C38.3792 20.3988 38.3792 20.3988 38.2003 20.8C37.4932 21.1507 36.9242 21.2482 36.1401 21.2391C35.9448 21.2378 35.7496 21.2365 35.5483 21.2352C35.3469 21.2318 35.1454 21.2285 34.9378 21.225C34.7324 21.2232 34.5271 21.2214 34.3155 21.2195C33.8104 21.2148 33.3054 21.2077 32.8003 21.2C32.8003 19.814 32.8003 18.428 32.8003 17Z" fill="#030203"/>
<path d="M19.7998 26.2C20.5052 26.1876 21.2106 26.1753 21.9373 26.1625C22.2682 26.1543 22.2682 26.1543 22.6058 26.146C24.399 26.1307 24.399 26.1307 25.1998 26.8C25.3998 27 25.3998 27 25.4373 27.6625C25.4034 28.3293 25.3509 28.6514 24.9998 29.2C25.1318 29.332 25.2638 29.464 25.3998 29.6C25.4538 30.1377 25.4173 30.6583 25.3998 31.2C25.0698 31.2 24.7398 31.2 24.3998 31.2C24.3338 30.738 24.2678 30.276 24.1998 29.8C23.0778 29.734 21.9558 29.668 20.7998 29.6C20.7998 30.062 20.7998 30.524 20.7998 31C20.4698 31 20.1398 31 19.7998 31C19.7998 29.416 19.7998 27.832 19.7998 26.2Z" fill="#B6B6B8"/>
<path d="M14.9337 26.1805C15.1122 26.1811 15.2907 26.1818 15.4747 26.1824C15.7533 26.1849 15.7533 26.1849 16.0376 26.1875C16.2257 26.1884 16.4137 26.1893 16.6075 26.1902C17.0717 26.1926 17.5359 26.1959 18.0001 26.2C18.0001 26.596 18.0001 26.992 18.0001 27.4C15.8221 27.499 15.8221 27.499 13.6001 27.6C13.5341 27.798 13.4681 27.996 13.4001 28.2C14.9181 28.2 16.4361 28.2 18.0001 28.2C18.0001 28.53 18.0001 28.86 18.0001 29.2C16.4821 29.2 14.9641 29.2 13.4001 29.2C13.4661 29.464 13.5321 29.728 13.6001 30C15.0521 30 16.5041 30 18.0001 30C18.0001 30.33 18.0001 30.66 18.0001 31C17.2501 31.0174 16.5002 31.0281 15.7501 31.0375C15.431 31.045 15.431 31.045 15.1055 31.0527C14.9006 31.0547 14.6956 31.0566 14.4845 31.0586C14.2959 31.0617 14.1074 31.0649 13.9132 31.0681C13.3036 30.9872 13.0389 30.825 12.6001 30.4C12.2728 29.4181 12.2744 28.4234 12.4001 27.4C13.1127 26.4177 13.7548 26.173 14.9337 26.1805Z" fill="#99999B"/>
<path d="M36.5971 26.1609C36.8774 26.1629 36.8774 26.1629 37.1635 26.1648C37.4539 26.1699 37.4539 26.1699 37.7502 26.175C37.9469 26.1768 38.1436 26.1786 38.3463 26.1805C38.831 26.1852 39.3156 26.1917 39.8002 26.2C39.8002 26.53 39.8002 26.86 39.8002 27.2C37.6222 27.299 37.6222 27.299 35.4002 27.4C35.3342 27.664 35.2682 27.928 35.2002 28.2C36.7182 28.2 38.2362 28.2 39.8002 28.2C39.8002 28.53 39.8002 28.86 39.8002 29.2C37.6222 29.299 37.6222 29.299 35.4002 29.4C35.4662 29.532 35.5322 29.664 35.6002 29.8C36.9862 29.866 38.3722 29.932 39.8002 30C39.8002 30.33 39.8002 30.66 39.8002 31C39.0503 31.0232 38.3004 31.0374 37.5502 31.05C37.3375 31.0567 37.1248 31.0634 36.9057 31.0703C36.7007 31.0729 36.4957 31.0755 36.2846 31.0781C36.096 31.0823 35.9075 31.0865 35.7133 31.0908C35.0449 30.9725 34.8177 30.724 34.4002 30.2C34.0499 29.1492 34.0222 28.0271 34.4502 27C35.0792 26.2811 35.6618 26.1495 36.5971 26.1609Z" fill="#BABABA"/>
<path d="M30.3624 26.1625C30.5582 26.1652 30.754 26.168 30.9558 26.1707C31.4373 26.1778 31.9185 26.1876 32.3999 26.2C32.3999 26.53 32.3999 26.86 32.3999 27.2C31.0799 27.266 29.7599 27.332 28.3999 27.4C28.3339 27.598 28.2679 27.796 28.1999 28C28.4193 28.0075 28.6387 28.015 28.8648 28.0227C29.1557 28.0358 29.4465 28.0491 29.7374 28.0625C29.9538 28.0693 29.9538 28.0693 30.1745 28.0762C31.1487 28.1251 31.879 28.2791 32.5999 29C32.6935 30.2633 32.6935 30.2633 32.3661 30.7417C31.8588 31.0996 31.5083 31.0684 30.8913 31.0586C30.5694 31.0557 30.5694 31.0557 30.2409 31.0528C30.017 31.0477 29.7931 31.0427 29.5624 31.0375C29.3362 31.0348 29.11 31.0321 28.8769 31.0293C28.3178 31.0223 27.7589 31.0124 27.1999 31C27.1999 30.736 27.1999 30.472 27.1999 30.2C29.2789 30.101 29.2789 30.101 31.3999 30C31.4659 29.802 31.5319 29.604 31.5999 29.4C31.414 29.3926 31.2282 29.3851 31.0366 29.3774C28.0167 29.2168 28.0167 29.2168 27.1999 28.4C27.087 27.2332 27.087 27.2332 27.1999 26.8C28.0872 25.9616 29.2222 26.1327 30.3624 26.1625Z" fill="#B6B6B7"/>
<path d="M23.199 16.8C23.8783 17.0811 24.2095 17.3774 24.599 18C24.7809 18.9784 24.7217 19.9105 24.2365 20.7875C23.5816 21.7044 23.5816 21.7044 23.199 22C23.067 22 22.935 22 22.799 22C22.7469 22.1166 22.6949 22.2331 22.6412 22.3532C22.1987 23.1696 21.6053 23.7415 20.799 24.2C19.8762 24.3431 18.8534 24.4272 17.999 24C18.098 23.406 18.098 23.406 18.199 22.8C18.322 22.8024 18.445 22.8047 18.5717 22.8071C18.8142 22.8098 18.8142 22.8098 19.0615 22.8125C19.2216 22.8149 19.3817 22.8172 19.5467 22.8196C20.0327 22.8194 20.0327 22.8194 20.599 22.6C20.665 22.468 20.731 22.336 20.799 22.2C20.931 22.2 21.063 22.2 21.199 22.2C21.2503 22.0843 21.3016 21.9685 21.3545 21.8493C21.7016 21.2116 22.1881 20.7417 22.6873 20.2196C23.0473 19.7351 23.1356 19.3961 23.199 18.8C23.1236 18.255 23.1236 18.255 22.999 17.8C22.867 17.8 22.735 17.8 22.599 17.8C22.974 17.025 22.974 17.025 23.199 16.8Z" fill="#CF2A62"/>
<path d="M31.2002 15.3999C32.1861 15.3834 33.1719 15.3669 34.1877 15.3499C34.495 15.3427 34.8023 15.3354 35.1189 15.3279C38.0244 15.3044 38.0244 15.3044 39.2002 16.1999C39.8869 17.1142 39.8925 18.0119 39.8752 19.1124C39.8775 19.2608 39.8798 19.4092 39.8822 19.562C39.8773 20.4758 39.7657 21.0444 39.2002 21.7999C39.1466 21.6721 39.0929 21.5442 39.0377 21.4124C38.8229 20.9337 38.8229 20.9337 38.2002 20.7999C38.2002 19.7439 38.2002 18.6879 38.2002 17.5999C38.0682 17.5999 37.9362 17.5999 37.8002 17.5999C37.8002 17.4679 37.8002 17.3359 37.8002 17.1999C36.2162 17.1339 34.6322 17.0679 33.0002 16.9999C33.0002 16.9339 33.0002 16.8679 33.0002 16.7999C33.1264 16.7949 33.2526 16.7899 33.3826 16.7848C33.951 16.7616 34.5193 16.7371 35.0877 16.7124C35.2863 16.7046 35.485 16.6967 35.6896 16.6886C35.8785 16.6802 36.0673 16.6718 36.2619 16.6632C36.4368 16.6559 36.6117 16.6486 36.7919 16.641C37.1987 16.6436 37.1987 16.6436 37.4002 16.3999C37.0331 15.9156 36.8477 15.8072 36.2364 15.7135C36.0133 15.7082 35.7902 15.703 35.5604 15.6976C35.3426 15.691 35.1248 15.6843 34.9004 15.6775C34.624 15.6725 34.3475 15.6676 34.0627 15.6624C33.1841 15.6418 32.3054 15.6212 31.4002 15.5999C31.4002 17.9099 31.4002 20.2199 31.4002 22.5999C31.3342 22.5999 31.2682 22.5999 31.2002 22.5999C31.2002 20.2239 31.2002 17.8479 31.2002 15.3999Z" fill="#67397D"/>
<path d="M5.2002 26.2C5.5302 26.2 5.8602 26.2 6.2002 26.2C6.7942 27.454 7.3882 28.708 8.0002 30C8.1322 30 8.2642 30 8.4002 30C8.99419 28.746 9.58819 27.492 10.2002 26.2C10.5962 26.2 10.9922 26.2 11.4002 26.2C11.2677 26.5336 11.1341 26.8668 11.0002 27.2C10.9269 27.3829 10.9269 27.3829 10.8521 27.5696C10.6837 27.9852 10.5109 28.3988 10.3377 28.8125C10.2811 28.9539 10.2245 29.0953 10.1662 29.241C9.79142 30.126 9.44464 30.6777 8.6002 31.2C8.0002 31.25 8.0002 31.25 7.4002 31C6.38314 29.8837 5.2002 27.6919 5.2002 26.2Z" fill="#BBBBBD"/>
<path d="M23.401 15.8C23.5314 16.1594 23.5314 16.1594 23.601 16.6C23.328 17.0668 22.9726 17.4012 22.601 17.8C22.733 17.8 22.865 17.8 23.001 17.8C23.3728 18.5656 23.4444 18.9844 23.201 19.8C22.8963 20.2196 22.8963 20.2196 22.526 20.6125C22.1508 21.0156 21.8006 21.4005 21.4806 21.8493C21.3883 21.965 21.296 22.0808 21.201 22.2C21.069 22.2 20.937 22.2 20.801 22.2C20.735 22.398 20.669 22.596 20.601 22.8C20.5762 22.6144 20.5762 22.6144 20.551 22.425C20.4447 21.9651 20.4447 21.9651 20.0135 21.8125C19.601 21.6 19.601 21.6 19.3642 21.1594C19.1716 20.4996 19.2312 20.1052 19.376 19.4375C19.4167 19.2424 19.4574 19.0472 19.4994 18.8461C19.5497 18.6253 19.5497 18.6253 19.601 18.4C19.667 18.4 19.733 18.4 19.801 18.4C19.8229 18.5351 19.8448 18.6702 19.8674 18.8094C19.8991 18.9878 19.9308 19.1662 19.9635 19.35C19.9936 19.5264 20.0238 19.7027 20.0549 19.8844C20.2118 20.4383 20.4301 20.7652 20.801 21.2C21.065 21.068 21.329 20.936 21.601 20.8C21.5391 20.6969 21.4772 20.5938 21.4135 20.4875C21.119 19.8121 21.001 19.3443 21.001 18.6C21.5773 17.5086 22.5156 16.6432 23.401 15.8Z" fill="#090404"/>
<path d="M23.4001 14.8C23.4661 14.932 23.5321 15.064 23.6001 15.2C23.7321 15.266 23.8641 15.332 24.0001 15.4C23.8482 15.5473 23.6964 15.6945 23.5399 15.8461C23.3391 16.0432 23.1383 16.2404 22.9376 16.4375C22.8377 16.5341 22.7378 16.6307 22.6348 16.7301C22.0488 17.3084 21.5577 17.8551 21.2001 18.6C21.2436 19.4264 21.3727 20.0879 21.8001 20.8C21.6021 20.998 21.4041 21.196 21.2001 21.4C20.6909 21.2069 20.4108 21.0123 20.0501 20.6C19.6936 19.7445 19.6543 18.9143 19.8001 18C20.1782 17.2402 20.6697 16.6656 21.2626 16.0625C21.4103 15.9092 21.558 15.7558 21.7102 15.5977C22.255 15.1555 22.7271 14.9816 23.4001 14.8Z" fill="#DB2560"/>
<path d="M31.6006 16C31.6666 16 31.7326 16 31.8006 16C31.8006 16.33 31.8006 16.66 31.8006 17C31.9986 17 32.1966 17 32.4006 17C32.5326 18.386 32.6646 19.772 32.8006 21.2C34.1206 21.266 35.4406 21.332 36.8006 21.4C36.8006 21.466 36.8006 21.532 36.8006 21.6C36.2726 21.6 35.7446 21.6 35.2006 21.6C35.2006 21.864 35.2006 22.128 35.2006 22.4C34.0126 22.4 32.8246 22.4 31.6006 22.4C31.6006 20.288 31.6006 18.176 31.6006 16Z" fill="#942F8E"/>
<path d="M34.1995 27.6C34.2655 27.6 34.3315 27.6 34.3995 27.6C34.3995 28.128 34.3995 28.656 34.3995 29.2C34.5315 29.134 34.6635 29.068 34.7995 29C35.1622 28.983 35.5255 28.9785 35.8886 28.9804C36.1039 28.9811 36.3191 28.9817 36.5409 28.9824C36.7665 28.9841 36.9921 28.9857 37.2245 28.9875C37.4517 28.9884 37.6788 28.9893 37.9128 28.9902C38.4751 28.9926 39.0373 28.9959 39.5995 29C39.6655 28.736 39.7315 28.472 39.7995 28.2C39.7995 28.53 39.7995 28.86 39.7995 29.2C37.6215 29.299 37.6215 29.299 35.3995 29.4C35.4655 29.532 35.5315 29.664 35.5995 29.8C36.9855 29.866 38.3715 29.932 39.7995 30C39.7995 30.33 39.7995 30.66 39.7995 31C39.0496 31.0232 38.2997 31.0374 37.5495 31.05C37.3368 31.0567 37.1241 31.0634 36.905 31.0703C36.7 31.0729 36.4951 31.0754 36.2839 31.0781C36.0954 31.0823 35.9069 31.0865 35.7126 31.0908C35.0443 30.9725 34.8171 30.7239 34.3995 30.2C34.1985 29.597 34.1789 29.1916 34.187 28.5625C34.1888 28.3823 34.1906 28.2021 34.1925 28.0164C34.1948 27.879 34.1971 27.7416 34.1995 27.6Z" fill="#A2A2A3"/>
<path d="M14.9331 26.1805C15.1116 26.1811 15.2901 26.1817 15.4741 26.1824C15.7527 26.1849 15.7527 26.1849 16.037 26.1875C16.225 26.1884 16.4131 26.1893 16.6069 26.1902C17.0711 26.1926 17.5353 26.1959 17.9995 26.2C17.9995 26.596 17.9995 26.992 17.9995 27.4C15.8215 27.499 15.8215 27.499 13.5995 27.6C13.4015 28.062 13.2035 28.524 12.9995 29C12.8675 29 12.7355 29 12.5995 29C12.373 27.9721 12.373 27.9721 12.3995 27.4C13.1356 26.4389 13.7534 26.1729 14.9331 26.1805Z" fill="#949496"/>
<path d="M10.6004 15.3751C10.9473 15.3778 10.9473 15.3778 11.3012 15.3805C11.8676 15.3852 12.434 15.3918 13.0004 15.4001C13.0004 15.9281 13.0004 16.4561 13.0004 17.0001C11.8784 17.0001 10.7564 17.0001 9.60039 17.0001C9.60039 16.8021 9.60039 16.6041 9.60039 16.4001C9.27039 16.4001 8.94039 16.4001 8.60039 16.4001C8.66639 16.2681 8.73239 16.1361 8.80039 16.0001C8.27239 15.9341 7.74439 15.8681 7.20039 15.8001C7.13439 15.9321 7.06839 16.0641 7.00039 16.2001C6.80239 16.0681 6.60439 15.9361 6.40039 15.8001C7.81241 15.3605 9.12911 15.3532 10.6004 15.3751Z" fill="#D56E4A"/>
<path d="M30.9997 28.4C31.5403 28.3562 31.8876 28.3343 32.3622 28.6125C32.7338 29.2188 32.674 29.7069 32.5997 30.4C32.3643 30.7401 32.3643 30.7401 31.9997 31C31.491 31.0681 31.491 31.0681 30.8911 31.0586C30.5692 31.0557 30.5692 31.0557 30.2407 31.0527C30.0168 31.0477 29.7929 31.0427 29.5622 31.0375C29.336 31.0348 29.1097 31.0321 28.8767 31.0293C28.3176 31.0222 27.7587 31.0124 27.1997 31C27.1997 30.736 27.1997 30.472 27.1997 30.2C29.2787 30.101 29.2787 30.101 31.3997 30C31.4657 29.802 31.5317 29.604 31.5997 29.4C31.3357 29.268 31.0717 29.136 30.7997 29C30.8657 28.802 30.9317 28.604 30.9997 28.4Z" fill="#C1C1C4"/>
<path d="M38.6003 20.6001C39.0003 21.0001 39.0003 21.0001 39.0503 21.5001C39.0003 22.0001 39.0003 22.0001 38.6003 22.4001C37.9968 22.6061 37.4377 22.6235 36.8034 22.6196C36.6165 22.619 36.4296 22.6183 36.237 22.6177C36.0434 22.616 35.8498 22.6143 35.6503 22.6126C35.3552 22.6112 35.3552 22.6112 35.0542 22.6099C34.5696 22.6075 34.0849 22.6042 33.6003 22.6001C33.6003 22.5341 33.6003 22.4681 33.6003 22.4001C34.1283 22.4001 34.6563 22.4001 35.2003 22.4001C35.2003 22.1361 35.2003 21.8721 35.2003 21.6001C34.4083 21.5341 33.6163 21.4681 32.8003 21.4001C32.8003 21.3341 32.8003 21.2681 32.8003 21.2001C32.9263 21.1961 33.0522 21.1922 33.182 21.1881C33.759 21.1689 34.3359 21.147 34.9128 21.1251C35.21 21.1158 35.21 21.1158 35.5132 21.1063C36.6087 21.0627 37.5624 20.9582 38.6003 20.6001Z" fill="#7E3A8F"/>
<path d="M20.7839 14.179C21.112 14.4001 21.112 14.4001 21.5995 14.8001C21.5495 15.1751 21.5495 15.1751 21.3995 15.6001C20.987 15.8501 20.987 15.8501 20.5995 16.0001C20.4015 15.8681 20.2035 15.7361 19.9995 15.6001C18.9326 15.5232 18.9326 15.5232 17.9995 16.0001C17.9995 15.8681 17.9995 15.7361 17.9995 15.6001C17.6695 15.5341 17.3395 15.4681 16.9995 15.4001C17.9719 14.1649 19.1816 13.4332 20.7839 14.179Z" fill="#E7275E"/>
<path d="M23.2001 16.8C23.8793 17.0811 24.2106 17.3774 24.6001 18C24.7879 19.0103 24.713 19.9288 24.2001 20.825C24.0681 21.0148 23.9361 21.2045 23.8001 21.4C23.4701 21.07 23.1401 20.74 22.8001 20.4C22.8702 20.268 22.9403 20.136 23.0126 20C23.2658 19.1898 23.1413 18.6333 23.0001 17.8C22.8681 17.8 22.7361 17.8 22.6001 17.8C22.9751 17.025 22.9751 17.025 23.2001 16.8Z" fill="#BD2C66"/>
<path d="M25.5999 13.8C26.4886 14.2527 26.9549 14.71 27.3999 15.6C27.2679 15.732 27.1359 15.864 26.9999 16C26.8102 15.9051 26.6204 15.8102 26.4249 15.7125C25.2697 15.2137 24.0422 15.2 22.7999 15.2C22.6679 15.134 22.5359 15.068 22.3999 15C23.478 14.0859 24.1134 13.6007 25.5999 13.8Z" fill="#BC2969"/>
<path d="M22.7877 26.35C22.9716 26.3459 23.1556 26.3418 23.3451 26.3375C23.5218 26.3365 23.6986 26.3355 23.8807 26.3344C24.0426 26.3325 24.2044 26.3307 24.3712 26.3287C24.9089 26.4181 25.0823 26.5623 25.4002 27C25.4752 27.7125 25.4752 27.7125 25.4002 28.4C25.2022 28.532 25.0042 28.664 24.8002 28.8C24.6682 28.734 24.5362 28.668 24.4002 28.6C24.3342 28.204 24.2682 27.808 24.2002 27.4C22.8802 27.334 21.5602 27.268 20.2002 27.2C20.2662 27.002 20.3322 26.804 20.4002 26.6C21.129 26.2356 21.9854 26.3545 22.7877 26.35Z" fill="#C3C4C5"/>
<path d="M20.7998 27.2C21.3623 27.1947 21.9248 27.1907 22.4873 27.1875C22.6478 27.1859 22.8083 27.1842 22.9736 27.1825C23.3824 27.1807 23.7912 27.1896 24.1998 27.2C24.3998 27.4 24.3998 27.4 24.4123 27.9125C24.4082 28.0734 24.4041 28.2343 24.3998 28.4C23.7622 28.7189 23.074 28.6204 22.3748 28.6125C22.224 28.6116 22.0732 28.6107 21.9178 28.6098C21.5451 28.6075 21.1725 28.6039 20.7998 28.6C20.7998 28.138 20.7998 27.676 20.7998 27.2Z" fill="#040404"/>
<path d="M23.4001 22.2C23.5089 22.2657 23.6177 22.3314 23.7298 22.3992C24.2982 22.6418 24.7099 22.6332 25.3251 22.6125C26.3612 22.5805 26.3612 22.5805 26.8001 22.8C26.8001 22.932 26.8001 23.064 26.8001 23.2C26.6021 23.266 26.4041 23.332 26.2001 23.4C26.2001 23.598 26.2001 23.796 26.2001 24C25.4522 24.2492 24.7752 24.3329 24.0001 24.2C23.4691 23.9145 23.0672 23.5892 22.6001 23.2C22.8641 22.87 23.1281 22.54 23.4001 22.2Z" fill="#C3296F"/>
<path d="M34.9994 27.6C35.0654 27.798 35.1314 27.996 35.1994 28.2C36.6514 28.2 38.1034 28.2 39.5994 28.2C39.5994 28.464 39.5994 28.728 39.5994 29C37.8834 29.066 36.1674 29.132 34.3994 29.2C34.3994 28.738 34.3994 28.276 34.3994 27.8C34.5974 27.734 34.7954 27.668 34.9994 27.6Z" fill="#C6C6C7"/>
<path d="M6.60059 18.8C8.64659 18.8 10.6926 18.8 12.8006 18.8C12.8006 19.262 12.8006 19.724 12.8006 20.2C10.7546 20.2 8.70859 20.2 6.60059 20.2C6.60059 20.134 6.60059 20.068 6.60059 20C6.91151 19.9888 6.91151 19.9888 7.22871 19.9774C7.50268 19.9643 7.77663 19.951 8.05059 19.9375C8.18697 19.933 8.32335 19.9285 8.46387 19.9239C9.38076 19.8749 9.62855 19.7791 10.4006 19.2C9.14659 19.134 7.89259 19.068 6.60059 19C6.60059 18.934 6.60059 18.868 6.60059 18.8Z" fill="#DD754F"/>
<path d="M5.2002 17.2C5.5302 17.2 5.8602 17.2 6.2002 17.2C6.1342 18.982 6.0682 20.764 6.0002 22.6C5.7362 22.6 5.4722 22.6 5.2002 22.6C5.2002 20.818 5.2002 19.036 5.2002 17.2Z" fill="#F49825"/>
<path d="M12.5999 28.2C12.6659 28.332 12.7319 28.464 12.7999 28.6C12.7339 28.732 12.6679 28.864 12.5999 29C12.7319 29 12.8639 29 12.9999 29C13.0659 28.736 13.1319 28.472 13.1999 28.2C14.7179 28.2 16.2359 28.2 17.7999 28.2C17.7999 28.464 17.7999 28.728 17.7999 29C16.2819 29 14.7639 29 13.1999 29C13.1999 29.132 13.1999 29.264 13.1999 29.4C12.9359 29.334 12.6719 29.268 12.3999 29.2C12.4659 28.87 12.5319 28.54 12.5999 28.2Z" fill="#C6C6C9"/>
<path d="M21.4008 14.6001C21.7308 14.7321 22.0608 14.8641 22.4008 15.0001C21.1707 16.4967 21.1707 16.4967 20.4008 17.0001C20.2647 16.7526 20.2647 16.7526 20.1258 16.5001C19.9649 16.2526 19.9649 16.2526 19.8008 16.0001C19.6688 16.0001 19.5368 16.0001 19.4008 16.0001C19.3348 16.1321 19.2688 16.2641 19.2008 16.4001C18.8633 16.5876 18.8633 16.5876 18.4008 16.8001C18.0914 16.9672 18.0914 16.9672 17.7758 17.1376C17.586 17.2242 17.3963 17.3108 17.2008 17.4001C17.0688 17.3341 16.9368 17.2681 16.8008 17.2001C16.9245 17.1506 17.0483 17.1011 17.1758 17.0501C17.6822 16.7522 17.7622 16.5249 18.0008 16.0001C18.2383 15.6501 18.2383 15.6501 18.6008 15.4001C19.5122 15.3157 20.1775 15.4009 21.0008 15.8001C21.1328 15.6681 21.2648 15.5361 21.4008 15.4001C21.4008 15.1361 21.4008 14.8721 21.4008 14.6001Z" fill="#060604"/>
<path d="M33.5994 15.8C34.9194 15.8 36.2394 15.8 37.5994 15.8C37.5994 15.998 37.5994 16.196 37.5994 16.4C37.1994 16.8 37.1994 16.8 36.8235 16.8455C36.6748 16.8434 36.5261 16.8413 36.3729 16.8391C36.2117 16.8378 36.0506 16.8365 35.8846 16.8352C35.7162 16.8319 35.5479 16.8285 35.3744 16.825C35.1196 16.8223 35.1196 16.8223 34.8596 16.8196C34.4395 16.8149 34.0194 16.8077 33.5994 16.8C33.5334 16.602 33.4674 16.404 33.3994 16.2C33.4654 16.068 33.5314 15.936 33.5994 15.8Z" fill="#863396"/>
<path d="M13.3992 26.4C14.8512 26.4 16.3032 26.4 17.7992 26.4C17.7992 26.664 17.7992 26.928 17.7992 27.2C17.1076 27.2058 16.4159 27.2094 15.7242 27.2125C15.4288 27.215 15.4288 27.215 15.1273 27.2176C14.845 27.2186 14.845 27.2186 14.557 27.2196C14.2962 27.2211 14.2962 27.2211 14.0302 27.2227C13.5992 27.2 13.5992 27.2 13.1992 27C13.2652 26.802 13.3312 26.604 13.3992 26.4Z" fill="#C8C8CA"/>
<path d="M16.0004 20.6001C17.1073 21.0591 17.8012 21.7371 18.6004 22.6001C18.4024 22.6991 18.4024 22.6991 18.2004 22.8001C18.0693 23.3056 18.0693 23.3056 18.0004 23.8001C17.7793 23.6129 17.5585 23.4253 17.3379 23.2376C17.2149 23.1332 17.0919 23.0288 16.9652 22.9212C16.8448 22.8152 16.7244 22.7093 16.6004 22.6001C16.4869 22.5032 16.3735 22.4062 16.2566 22.3063C15.8282 21.7943 15.9643 21.2375 16.0004 20.6001Z" fill="#EB425A"/>
<path d="M36.1905 30.1772C36.357 30.1783 36.5235 30.1793 36.6951 30.1804C36.8749 30.1811 37.0548 30.1817 37.24 30.1824C37.5237 30.1849 37.5237 30.1849 37.8131 30.1875C38.003 30.1884 38.1928 30.1893 38.3885 30.1902C38.8592 30.1926 39.3299 30.1958 39.8006 30.2C39.8006 30.464 39.8006 30.728 39.8006 31C38.4806 31 37.1606 31 35.8006 31C35.7346 30.802 35.6686 30.604 35.6006 30.4C35.8006 30.2 35.8006 30.2 36.1905 30.1772Z" fill="#C6C5CB"/>
<path d="M14.3938 30.1545C14.551 30.1566 14.7081 30.1587 14.8699 30.1609C15.0401 30.1622 15.2102 30.1635 15.3855 30.1648C15.6524 30.1698 15.6524 30.1698 15.9246 30.175C16.1938 30.1777 16.1938 30.1777 16.4684 30.1804C16.9122 30.1851 17.3559 30.1917 17.7996 30.2C17.7996 30.464 17.7996 30.728 17.7996 31C17.1746 31.0115 16.5497 31.0187 15.9246 31.025C15.7467 31.0283 15.5688 31.0317 15.3855 31.0351C15.2154 31.0364 15.0452 31.0377 14.8699 31.039C14.6343 31.0422 14.6343 31.0422 14.3938 31.0454C13.9996 31 13.9996 31 13.5996 30.6C13.9996 30.2 13.9996 30.2 14.3938 30.1545Z" fill="#C8C7CC"/>
<path d="M17.4756 15.4249C17.7355 15.5115 17.7355 15.5115 18.0006 15.5999C17.8821 16.314 17.6062 16.6915 17.1256 17.2249C17.0044 17.3616 16.8832 17.4982 16.7584 17.639C16.4006 17.9999 16.4006 17.9999 15.8006 18.3999C15.8006 18.1359 15.8006 17.8719 15.8006 17.5999C15.9326 17.5999 16.0646 17.5999 16.2006 17.5999C16.131 17.2048 16.131 17.2048 16.0006 16.7999C15.8686 16.7339 15.7366 16.6679 15.6006 16.5999C16.5879 15.392 16.5879 15.392 17.4756 15.4249Z" fill="#D14957"/>
<path d="M36.7143 27.1804C36.8934 27.1811 37.0726 27.1817 37.2572 27.1824C37.5384 27.1849 37.5384 27.1849 37.8252 27.1875C38.0142 27.1884 38.2031 27.1893 38.3979 27.1902C38.8653 27.1925 39.3327 27.1958 39.8002 27.2C39.8002 27.266 39.8002 27.332 39.8002 27.4C39.5733 27.4577 39.3464 27.5155 39.1127 27.575C38.8776 27.6492 38.6424 27.7235 38.4002 27.8C38.3342 27.932 38.2682 28.064 38.2002 28.2C37.2102 28.2 36.2202 28.2 35.2002 28.2C35.2662 27.936 35.3322 27.672 35.4002 27.4C35.8803 27.1599 36.1789 27.177 36.7143 27.1804Z" fill="#1D1D1F"/>
<path d="M31.6006 16C31.6666 16 31.7326 16 31.8006 16C31.8006 16.33 31.8006 16.66 31.8006 17C31.9986 17 32.1966 17 32.4006 17C32.4666 18.254 32.5326 19.508 32.6006 20.8C32.4686 20.8 32.3366 20.8 32.2006 20.8C32.1346 20.272 32.0686 19.744 32.0006 19.2C31.9346 20.256 31.8686 21.312 31.8006 22.4C31.7346 22.4 31.6686 22.4 31.6006 22.4C31.6006 20.288 31.6006 18.176 31.6006 16Z" fill="#9A2C8C"/>
<path d="M16.0008 16.6001C16.1328 16.7981 16.2648 16.9961 16.4008 17.2001C16.3348 17.3321 16.2688 17.4641 16.2008 17.6001C16.0688 17.6001 15.9368 17.6001 15.8008 17.6001C15.7348 18.2601 15.6688 18.9201 15.6008 19.6001C15.5348 19.6001 15.4688 19.6001 15.4008 19.6001C15.4008 19.0061 15.4008 18.4121 15.4008 17.8001C15.2688 17.8001 15.1368 17.8001 15.0008 17.8001C15.0049 18.0558 15.009 18.3116 15.0133 18.5751C15.0258 19.3501 15.0258 19.3501 14.8008 19.8001C14.8567 20.1354 14.9224 20.4693 15.0008 20.8001C14.467 20.2885 14.3399 19.8537 14.3008 19.1376C14.3316 18.1571 14.6903 17.4726 15.4008 16.8001C15.5988 16.7341 15.7968 16.6681 16.0008 16.6001Z" fill="#E05458"/>
<path d="M8.5875 16.7625C8.77905 16.7679 8.97061 16.7733 9.16797 16.7789C9.31054 16.7858 9.45311 16.7928 9.6 16.8C9.6 16.866 9.6 16.932 9.6 17C8.742 17.132 7.884 17.264 7 17.4C6.868 17.862 6.736 18.324 6.6 18.8C6.534 18.8 6.468 18.8 6.4 18.8C6.4 19.262 6.4 19.724 6.4 20.2C6.466 20.2 6.532 20.2 6.6 20.2C6.6 20.992 6.6 21.784 6.6 22.6C6.402 22.6 6.204 22.6 6 22.6C6 20.884 6 19.168 6 17.4C7.575 16.725 7.575 16.725 8.5875 16.7625Z" fill="#E29432"/>
<path d="M19.601 18.3999C19.667 18.3999 19.733 18.3999 19.801 18.3999C19.8229 18.535 19.8448 18.6701 19.8674 18.8093C19.8991 18.9877 19.9308 19.1661 19.9635 19.3499C19.9936 19.5262 20.0238 19.7026 20.0549 19.8843C20.2148 20.4487 20.3943 20.7785 20.801 21.1999C20.999 21.1999 21.197 21.1999 21.401 21.1999C21.335 21.5299 21.269 21.8599 21.201 22.1999C21.069 22.1999 20.937 22.1999 20.801 22.1999C20.735 22.3979 20.669 22.5959 20.601 22.7999C20.5762 22.6143 20.5762 22.6143 20.551 22.4249C20.4447 21.965 20.4447 21.965 20.0135 21.8124C19.601 21.5999 19.601 21.5999 19.3642 21.1593C19.1716 20.4995 19.2312 20.105 19.376 19.4374C19.4167 19.2422 19.4574 19.0471 19.4994 18.846C19.5329 18.6988 19.5664 18.5516 19.601 18.3999Z" fill="#13080A"/>
<path d="M13.0005 15.6001C13.1325 15.8641 13.2645 16.1281 13.4005 16.4001C13.9838 16.4335 13.9838 16.4335 14.6005 16.4001C14.7325 16.2681 14.8645 16.1361 15.0005 16.0001C15.5255 16.0751 15.5255 16.0751 16.0005 16.2001C15.6045 16.7281 15.2085 17.2561 14.8005 17.8001C14.4005 17.6001 14.4005 17.6001 14.0005 17.0001C13.8025 17.1981 13.6045 17.3961 13.4005 17.6001C13.2685 17.5341 13.1365 17.4681 13.0005 17.4001C13.0005 16.8061 13.0005 16.2121 13.0005 15.6001Z" fill="#0C0707"/>
<path d="M30.7998 15.6001C30.9318 15.6001 31.0638 15.6001 31.1998 15.6001C31.1998 15.7321 31.1998 15.8641 31.1998 16.0001C31.0018 16.0991 31.0018 16.0991 30.7998 16.2001C30.7183 16.6644 30.6509 17.1315 30.5998 17.6001C30.5338 17.6001 30.4678 17.6001 30.3998 17.6001C30.3923 17.8241 30.3849 18.0482 30.3771 18.279C30.364 18.5735 30.3507 18.8681 30.3373 19.1626C30.3328 19.3102 30.3283 19.4578 30.3236 19.6099C30.2694 20.6996 30.2694 20.6996 29.9186 21.2063C29.5998 21.4001 29.5998 21.4001 29.1623 21.3376C29.0427 21.2922 28.9231 21.2468 28.7998 21.2001C28.9277 21.0805 29.0556 20.9608 29.1873 20.8376C29.7689 20.2207 29.8276 19.7283 29.8248 18.9126C29.8256 18.684 29.8256 18.684 29.8264 18.4509C29.8148 17.9972 29.8148 17.9972 29.6826 17.561C29.6553 17.4419 29.628 17.3228 29.5998 17.2001C29.8498 16.9126 29.8498 16.9126 30.1998 16.6001C30.3029 16.4227 30.4061 16.2453 30.5123 16.0626C30.6546 15.8337 30.6546 15.8337 30.7998 15.6001Z" fill="#050307"/>
<path d="M18.199 22.8C18.397 22.8 18.595 22.8 18.799 22.8C18.799 22.932 18.799 23.064 18.799 23.2C19.0836 23.1939 19.0836 23.1939 19.374 23.1875C19.999 23.2 19.999 23.2 20.399 23.4C20.399 23.598 20.399 23.796 20.399 24C19.6987 24.2335 19.1337 24.2268 18.399 24.2C18.267 24.134 18.135 24.068 17.999 24C18.065 23.604 18.131 23.208 18.199 22.8Z" fill="#E6275E"/>
<path d="M10.1994 26.2C10.5954 26.2 10.9914 26.2 11.3994 26.2C11.1327 26.8666 10.8661 27.5333 10.5994 28.2C10.4674 28.2 10.3354 28.2 10.1994 28.2C10.0674 28.332 9.93541 28.464 9.79941 28.6C9.66741 28.534 9.53541 28.468 9.39941 28.4C9.49488 28.1082 9.5908 27.8165 9.68691 27.525C9.74028 27.3625 9.79365 27.2001 9.84863 27.0328C9.99941 26.6 9.99941 26.6 10.1994 26.2Z" fill="#BEBDC1"/>
<path d="M6.2002 17.6001C6.2662 17.6001 6.3322 17.6001 6.4002 17.6001C6.4662 17.9961 6.5322 18.3921 6.6002 18.8001C7.1942 18.8991 7.1942 18.8991 7.8002 19.0001C7.8662 19.3301 7.9322 19.6601 8.0002 20.0001C7.5382 20.0661 7.0762 20.1321 6.6002 20.2001C6.5342 20.9261 6.4682 21.6521 6.4002 22.4001C6.3342 22.4001 6.2682 22.4001 6.2002 22.4001C6.2002 20.8161 6.2002 19.2321 6.2002 17.6001Z" fill="#F98F28"/>
<path d="M36.8005 15.6C37.9505 15.575 37.9505 15.575 38.4005 15.8C38.4005 15.932 38.4005 16.064 38.4005 16.2C38.2685 16.2 38.1365 16.2 38.0005 16.2C38.0665 16.662 38.1325 17.124 38.2005 17.6C38.0685 17.6 37.9365 17.6 37.8005 17.6C37.8005 17.468 37.8005 17.336 37.8005 17.2C36.2165 17.134 34.6325 17.068 33.0005 17C33.0005 16.934 33.0005 16.868 33.0005 16.8C33.1267 16.795 33.2529 16.79 33.3829 16.7849C33.9513 16.7617 34.5196 16.7372 35.088 16.7125C35.2866 16.7047 35.4853 16.6968 35.6899 16.6887C35.8788 16.6803 36.0676 16.672 36.2622 16.6633C36.4371 16.656 36.612 16.6487 36.7922 16.6411C37.199 16.6437 37.199 16.6437 37.4005 16.4C37.3015 16.3052 37.2025 16.2103 37.1005 16.1125C36.8005 15.8 36.8005 15.8 36.8005 15.6Z" fill="#723C82"/>
<path d="M38.7998 16C39.5641 16.715 39.7838 17.0985 39.8404 18.1672C39.8447 18.4698 39.8478 18.7724 39.8498 19.075C39.8539 19.2261 39.8581 19.3772 39.8623 19.5328C39.8688 20.4613 39.7806 21.0327 39.1998 21.8C38.9748 21.4875 38.9748 21.4875 38.7998 21C38.9748 20.25 38.9748 20.25 39.1998 19.6C39.2658 19.6 39.3318 19.6 39.3998 19.6C39.4658 18.94 39.5318 18.28 39.5998 17.6C39.4678 17.6 39.3358 17.6 39.1998 17.6C38.9485 17.0188 38.7998 16.6408 38.7998 16Z" fill="#6B418B"/>
<path d="M35.238 21.3626C35.3879 21.3653 35.5378 21.368 35.6923 21.3708C36.0617 21.3779 36.4311 21.3886 36.8005 21.4001C36.8005 21.4661 36.8005 21.5321 36.8005 21.6001C36.2725 21.6001 35.7445 21.6001 35.2005 21.6001C35.2005 21.8641 35.2005 22.1281 35.2005 22.4001C34.9089 22.4109 34.6172 22.4187 34.3255 22.4251C34.1631 22.4297 34.0006 22.4344 33.8333 22.4392C33.4005 22.4001 33.4005 22.4001 33.0005 22.0001C33.5464 21.178 34.3542 21.3325 35.238 21.3626Z" fill="#892F94"/>
<path d="M27.1997 30.2C28.5857 30.2 29.9717 30.2 31.3997 30.2C31.3997 30.266 31.3997 30.332 31.3997 30.4C30.4757 30.466 29.5517 30.532 28.5997 30.6C29.9857 30.699 29.9857 30.699 31.3997 30.8C31.3997 30.866 31.3997 30.932 31.3997 31C30.0137 31 28.6277 31 27.1997 31C27.1997 30.736 27.1997 30.472 27.1997 30.2Z" fill="#CDCCCF"/>
<path d="M25.5994 14C26.2677 14.2348 26.7616 14.4309 27.1994 15C27.3369 15.4375 27.3369 15.4375 27.3994 15.8C26.7363 15.8 26.2034 15.6655 25.5619 15.5C25.3446 15.4443 25.1272 15.3886 24.9033 15.3312C24.6539 15.2663 24.6539 15.2663 24.3994 15.2C24.3994 15.134 24.3994 15.068 24.3994 15C25.0146 14.9414 25.0146 14.9414 25.6299 14.8828C25.7518 14.8555 25.8738 14.8282 25.9994 14.8C26.0654 14.668 26.1314 14.536 26.1994 14.4C26.0014 14.4 25.8034 14.4 25.5994 14.4C25.5994 14.268 25.5994 14.136 25.5994 14Z" fill="#B32C72"/>
<path d="M38.5996 21.6001C38.6656 21.7981 38.7316 21.9961 38.7996 22.2001C38.096 22.5186 37.5542 22.6486 36.7832 22.6392C36.5969 22.6379 36.4107 22.6366 36.2188 22.6353C36.0268 22.6319 35.8349 22.6286 35.6371 22.6251C35.4413 22.6233 35.2455 22.6215 35.0438 22.6196C34.5623 22.6149 34.081 22.6084 33.5996 22.6001C33.5996 22.5341 33.5996 22.4681 33.5996 22.4001C33.826 22.3903 34.0523 22.3805 34.2855 22.3704C34.5819 22.3554 34.8783 22.3403 35.1746 22.3251C35.3239 22.3189 35.4732 22.3127 35.627 22.3063C36.5066 22.2888 36.5066 22.2888 37.1996 21.8001C37.6997 21.6388 38.0675 21.6001 38.5996 21.6001Z" fill="#763E89"/>
<path d="M23.3999 14.8C23.4659 14.932 23.5319 15.064 23.5999 15.2C23.7319 15.266 23.8639 15.332 23.9999 15.4C23.7761 15.6346 23.5508 15.8676 23.3249 16.1C23.1996 16.23 23.0743 16.3599 22.9452 16.4938C22.5999 16.8 22.5999 16.8 22.1999 16.8C22.1266 15.7012 22.1266 15.7012 22.4624 15.2375C22.7999 15 22.7999 15 23.3999 14.8Z" fill="#D12968"/>
<path d="M5.0004 18.2C5.0664 18.2 5.1324 18.2 5.2004 18.2C5.2004 19.718 5.2004 21.236 5.2004 22.8C5.4644 22.866 5.7284 22.932 6.0004 23C6.0004 23.264 6.0004 23.528 6.0004 23.8C5.6044 23.8 5.2084 23.8 4.8004 23.8C4.8994 23.503 4.8994 23.503 5.0004 23.2C4.9344 23.068 4.8684 22.936 4.8004 22.8C4.79716 22.4514 4.8074 22.1027 4.82462 21.7546C4.83429 21.5484 4.84395 21.3421 4.85392 21.1296C4.86513 20.9136 4.87635 20.6975 4.8879 20.475C4.89834 20.2574 4.90878 20.0398 4.91954 19.8156C4.94553 19.277 4.97252 18.7385 5.0004 18.2Z" fill="#1F1B16"/>
<path d="M6.6002 20.2C6.9962 20.2 7.3922 20.2 7.8002 20.2C7.6022 20.266 7.4042 20.332 7.2002 20.4C7.20948 20.5518 7.21876 20.7037 7.22832 20.8601C7.23554 21.0589 7.24276 21.2577 7.2502 21.4625C7.25948 21.6597 7.26876 21.8569 7.27832 22.0601C7.2002 22.6 7.2002 22.6 6.83457 22.9835C6.4002 23.2 6.4002 23.2 5.8002 23C5.6022 22.868 5.4042 22.736 5.2002 22.6C5.6622 22.6 6.1242 22.6 6.6002 22.6C6.6002 21.808 6.6002 21.016 6.6002 20.2Z" fill="#140C08"/>
<path d="M13.5994 27.4C13.8634 27.4 14.1274 27.4 14.3994 27.4C14.3994 27.532 14.3994 27.664 14.3994 27.8C15.4554 27.8 16.5114 27.8 17.5994 27.8C17.5994 27.866 17.5994 27.932 17.5994 28C16.1958 28.2202 14.8183 28.2195 13.3994 28.2C13.4654 27.936 13.5314 27.672 13.5994 27.4Z" fill="#08080A"/>
<path d="M26.9996 21.2C27.1996 21.6 27.1996 21.6 27.0996 21.975C26.986 22.4577 27.0497 22.7336 27.1996 23.2C26.7046 23.497 26.7046 23.497 26.1996 23.8C26.1996 23.668 26.1996 23.536 26.1996 23.4C26.0676 23.334 25.9356 23.268 25.7996 23.2C26.1296 23.2 26.4596 23.2 26.7996 23.2C26.7996 23.068 26.7996 22.936 26.7996 22.8C26.4036 22.8 26.0076 22.8 25.5996 22.8C25.7953 22.5707 25.9912 22.3416 26.1871 22.1125C26.2962 21.9848 26.4052 21.8572 26.5176 21.7257C26.6732 21.546 26.8315 21.3681 26.9996 21.2Z" fill="#A42D6B"/>
<path d="M20.8006 17.8C21.0976 17.998 21.0976 17.998 21.4006 18.2C21.3552 18.4145 21.3098 18.629 21.2631 18.85C21.129 19.586 21.129 19.586 21.4881 20.0875C21.5912 20.1907 21.6943 20.2938 21.8006 20.4C21.6686 20.664 21.5366 20.928 21.4006 21.2C21.1366 21.2 20.8726 21.2 20.6006 21.2C20.7326 21.134 20.8646 21.068 21.0006 21C20.9694 20.8026 20.9382 20.6051 20.9061 20.4016C20.8671 20.1453 20.8282 19.8891 20.7881 19.625C20.7486 19.3698 20.7092 19.1146 20.6686 18.8516C20.6006 18.2 20.6006 18.2 20.8006 17.8Z" fill="#C62B5E"/>
<path d="M23.4006 15.8C23.5311 16.1594 23.5311 16.1594 23.6006 16.6C23.3276 17.0668 22.9722 17.4012 22.6006 17.8C22.7326 17.8 22.8646 17.8 23.0006 17.8C22.9346 17.932 22.8686 18.064 22.8006 18.2C22.2066 18.101 22.2066 18.101 21.6006 18C21.8823 17.357 22.2213 16.9357 22.7256 16.45C22.8519 16.3273 22.9782 16.2046 23.1084 16.0782C23.253 15.9405 23.253 15.9405 23.4006 15.8Z" fill="#240E16"/>
<path d="M35.1998 29.8C36.7178 29.866 38.2358 29.932 39.7998 30C39.7998 30.066 39.7998 30.132 39.7998 30.2C38.4798 30.266 37.1598 30.332 35.7998 30.4C35.7998 30.598 35.7998 30.796 35.7998 31C35.4123 30.9375 35.4123 30.9375 34.9998 30.8C34.9338 30.602 34.8678 30.404 34.7998 30.2C34.9318 30.2 35.0638 30.2 35.1998 30.2C35.1998 30.068 35.1998 29.936 35.1998 29.8Z" fill="#A7A7AA"/>
<path d="M23.4004 21.3999C23.5504 21.7374 23.5504 21.7374 23.6004 22.1999C23.2434 22.7293 22.9763 23.1119 22.4004 23.3999C22.4004 23.5319 22.4004 23.6639 22.4004 23.7999C22.0704 23.8659 21.7404 23.9319 21.4004 23.9999C21.7352 23.2085 22.2267 22.631 22.8004 21.9999C22.9324 21.9999 23.0644 21.9999 23.2004 21.9999C23.2664 21.8019 23.3324 21.6039 23.4004 21.3999Z" fill="#12070A"/>
<path d="M7.74492 15.7805C8.07557 15.784 8.07557 15.784 8.41289 15.7875C8.63384 15.7894 8.85478 15.7912 9.08242 15.793C9.25335 15.7953 9.42428 15.7977 9.60039 15.8C9.60039 15.866 9.60039 15.932 9.60039 16C9.28816 16.068 8.97559 16.1343 8.66289 16.2C8.40186 16.2557 8.40186 16.2557 8.13555 16.3125C7.60039 16.4 7.60039 16.4 7.05898 16.3875C6.56021 16.3486 6.56021 16.3486 6.20039 16.8C6.06839 16.734 5.93639 16.668 5.80039 16.6C5.80039 16.732 5.80039 16.864 5.80039 17C5.93239 17.066 6.06439 17.132 6.20039 17.2C5.93639 17.2 5.67239 17.2 5.40039 17.2C5.77539 16.225 5.77539 16.225 6.00039 16C6.33372 16 6.66706 16 7.00039 16C7.20039 15.8 7.20039 15.8 7.74492 15.7805Z" fill="#E88C31"/>
<path d="M18.7998 24.2C19.3938 24.2 19.9878 24.2 20.5998 24.2C20.6658 24.53 20.7318 24.86 20.7998 25.2C20.2718 25.2 19.7438 25.2 19.1998 25.2C19.0678 24.87 18.9358 24.54 18.7998 24.2Z" fill="#120809"/>
<path d="M28.7998 18C28.8658 18 28.9318 18 28.9998 18C28.9998 18.396 28.9998 18.792 28.9998 19.2C29.1318 19.2 29.2638 19.2 29.3998 19.2C29.3998 18.87 29.3998 18.54 29.3998 18.2C29.5318 18.266 29.6638 18.332 29.7998 18.4C29.6982 19.2635 29.5604 20.0066 29.1998 20.8C29.0678 20.8 28.9358 20.8 28.7998 20.8C28.7998 19.876 28.7998 18.952 28.7998 18Z" fill="#B02882"/>
<path d="M17.0004 15.3999C17.3304 15.4659 17.6604 15.5319 18.0004 15.5999C17.8888 16.2469 17.726 16.5956 17.2004 16.9999C17.0024 16.9999 16.8044 16.9999 16.6004 16.9999C16.5344 16.8019 16.4684 16.6039 16.4004 16.3999C16.5984 16.3339 16.7964 16.2679 17.0004 16.1999C17.0004 15.9359 17.0004 15.6719 17.0004 15.3999Z" fill="#E63C56"/>
<path d="M9.6002 16.8001C9.6002 16.8661 9.6002 16.9321 9.6002 17.0001C8.7422 17.1321 7.8842 17.2641 7.0002 17.4001C6.8682 17.8621 6.7362 18.3241 6.6002 18.8001C6.5342 18.8001 6.4682 18.8001 6.4002 18.8001C6.28073 18.2475 6.2002 17.768 6.2002 17.2001C7.32899 16.7119 8.3957 16.7615 9.6002 16.8001Z" fill="#D5873C"/>
<path d="M8.79961 16C9.59161 16.066 10.3836 16.132 11.1996 16.2C11.1996 16.398 11.1996 16.596 11.1996 16.8C10.6716 16.8 10.1436 16.8 9.59961 16.8C9.59961 16.668 9.59961 16.536 9.59961 16.4C9.26961 16.4 8.93961 16.4 8.59961 16.4C8.66561 16.268 8.73161 16.136 8.79961 16Z" fill="#F77C41"/>
<path d="M20.399 14C21.0115 14.3 21.0115 14.3 21.399 14.6C21.049 14.9125 21.049 14.9125 20.599 15.2C20.149 15.1375 20.149 15.1375 19.799 15C19.799 14.868 19.799 14.736 19.799 14.6C19.931 14.534 20.063 14.468 20.199 14.4C19.473 14.4 18.747 14.4 17.999 14.4C18.8045 13.8631 19.4528 13.8857 20.399 14Z" fill="#B72D56"/>
<path d="M10.2002 28C10.4002 28.6 10.4002 28.6 10.2447 28.9648C10.0299 29.3099 9.81504 29.6549 9.6002 30C9.4682 29.934 9.3362 29.868 9.2002 29.8C9.2002 29.338 9.2002 28.876 9.2002 28.4C9.32807 28.3711 9.45595 28.3422 9.5877 28.3125C9.99529 28.238 9.99529 28.238 10.2002 28Z" fill="#C3C3C5"/>
<path d="M16.8008 21C17.0266 21.1865 17.2514 21.3743 17.4758 21.5625C17.6011 21.6669 17.7264 21.7713 17.8555 21.8789C18.2008 22.2 18.2008 22.2 18.6008 22.8C18.4688 22.8 18.3368 22.8 18.2008 22.8C18.1348 23.13 18.0688 23.46 18.0008 23.8C17.8028 23.602 17.6048 23.404 17.4008 23.2C17.5328 23.2 17.6648 23.2 17.8008 23.2C17.7631 22.711 17.7631 22.711 17.6008 22.2C17.2073 21.928 17.2073 21.928 16.8008 21.8C16.8008 21.536 16.8008 21.272 16.8008 21Z" fill="#D03D5A"/>
<path d="M38.6008 20.6001C39.0008 21.0001 39.0008 21.0001 39.0258 21.5251C39.0175 21.6818 39.0093 21.8386 39.0008 22.0001C38.8688 22.0001 38.7368 22.0001 38.6008 22.0001C38.6008 21.8681 38.6008 21.7361 38.6008 21.6001C38.2667 21.662 38.2667 21.662 37.9258 21.7251C37.6865 21.7498 37.4473 21.7746 37.2008 21.8001C37.0688 21.6681 36.9368 21.5361 36.8008 21.4001C37.0235 21.3423 37.2463 21.2846 37.4758 21.2251C38.2014 21.0616 38.2014 21.0616 38.6008 20.6001Z" fill="#7B3C9C"/>
<path d="M28.3992 18C28.5312 18 28.6632 18 28.7992 18C28.8385 18.3165 28.8755 18.6332 28.9117 18.95C28.9326 19.1263 28.9535 19.3027 28.975 19.4844C28.9981 19.9769 28.9465 20.3331 28.7992 20.8C28.9312 20.866 29.0632 20.932 29.1992 21C29.0012 21.198 28.8032 21.396 28.5992 21.6C28.5992 21.468 28.5992 21.336 28.5992 21.2C28.4672 21.2 28.3352 21.2 28.1992 21.2C28.1992 21.068 28.1992 20.936 28.1992 20.8C28.3312 20.8 28.4632 20.8 28.5992 20.8C28.5992 20.602 28.5992 20.404 28.5992 20.2C28.4672 20.134 28.3352 20.068 28.1992 20C28.2652 19.868 28.3312 19.736 28.3992 19.6C28.413 19.3253 28.4162 19.05 28.4117 18.775C28.4076 18.5192 28.4035 18.2635 28.3992 18Z" fill="#91306E"/>
<path d="M18.6008 15.3999C18.7328 15.4659 18.8648 15.5319 19.0008 15.5999C18.8688 15.7319 18.7368 15.8639 18.6008 15.9999C18.6008 16.1979 18.6008 16.3959 18.6008 16.5999C18.0258 17.0152 17.498 17.2708 16.8008 17.3999C16.9328 17.2019 17.0648 17.0039 17.2008 16.7999C17.3328 16.7999 17.4648 16.7999 17.6008 16.7999C17.6544 16.6803 17.708 16.5607 17.7633 16.4374C17.9978 16.0055 18.2395 15.7283 18.6008 15.3999Z" fill="#210F0E"/>
<path d="M10.2005 26.2C10.5965 26.2 10.9925 26.2 11.4005 26.2C11.2505 26.6875 11.2505 26.6875 11.0005 27.2C10.5755 27.3625 10.5755 27.3625 10.2005 27.4C9.97549 26.65 9.97549 26.65 10.2005 26.2Z" fill="#ABABAB"/>
<path d="M24.9994 29.4C25.1314 29.466 25.2634 29.532 25.3994 29.6C25.3994 30.128 25.3994 30.656 25.3994 31.2C25.0694 31.2 24.7394 31.2 24.3994 31.2C24.6634 31.134 24.9274 31.068 25.1994 31C25.0014 30.934 24.8034 30.868 24.5994 30.8C24.5994 30.47 24.5994 30.14 24.5994 29.8C24.7314 29.8 24.8634 29.8 24.9994 29.8C24.9994 29.668 24.9994 29.536 24.9994 29.4Z" fill="#99999A"/>
<path d="M7.00059 17.2C7.19859 17.266 7.39659 17.332 7.60059 17.4C7.60059 17.532 7.60059 17.664 7.60059 17.8C7.46859 17.8 7.33659 17.8 7.20059 17.8C7.26659 18.13 7.33259 18.46 7.40059 18.8C7.13659 18.8 6.87259 18.8 6.60059 18.8C6.77559 17.425 6.77559 17.425 7.00059 17.2Z" fill="#100906"/>
<path d="M21.6 15.8C21.666 16.064 21.732 16.328 21.8 16.6C21.668 16.6 21.536 16.6 21.4 16.6C21.4 16.732 21.4 16.864 21.4 17C21.268 17 21.136 17 21 17C21 17.132 21 17.264 21 17.4C20.67 17.466 20.34 17.532 20 17.6C20.1915 17.3749 20.3832 17.1499 20.575 16.925C20.6817 16.7998 20.7885 16.6745 20.8984 16.5454C21.1229 16.2884 21.3587 16.0413 21.6 15.8Z" fill="#C3285A"/>
<path d="M35.8006 30.2C36.2131 30.2875 36.2131 30.2875 36.6006 30.4C36.5346 30.532 36.4686 30.664 36.4006 30.8C37.2586 30.8 38.1166 30.8 39.0006 30.8C39.0006 30.866 39.0006 30.932 39.0006 31C37.9446 31 36.8886 31 35.8006 31C35.7346 30.802 35.6686 30.604 35.6006 30.4C35.6666 30.334 35.7326 30.268 35.8006 30.2Z" fill="#CCCBD0"/>
<path d="M22.6002 20.3999C22.7982 20.5979 22.9962 20.7959 23.2002 20.9999C23.0022 20.9999 22.8042 20.9999 22.6002 20.9999C22.6002 21.1319 22.6002 21.2639 22.6002 21.3999C22.4682 21.3999 22.3362 21.3999 22.2002 21.3999C22.1342 21.5979 22.0682 21.7959 22.0002 21.9999C21.7362 21.9339 21.4722 21.8679 21.2002 21.7999C21.6622 21.3379 22.1242 20.8759 22.6002 20.3999Z" fill="#BB2C60"/>
<path d="M13.0005 15.6001C13.1325 15.8641 13.2645 16.1281 13.4005 16.4001C13.5325 16.4001 13.6645 16.4001 13.8005 16.4001C13.8665 16.5981 13.9325 16.7961 14.0005 17.0001C13.8025 17.1981 13.6045 17.3961 13.4005 17.6001C13.2685 17.5341 13.1365 17.4681 13.0005 17.4001C13.0005 16.8061 13.0005 16.2121 13.0005 15.6001Z" fill="#1D0E0D"/>
<path d="M21.3998 14.6001C21.8948 14.7981 21.8948 14.7981 22.3998 15.0001C22.0038 15.4621 21.6078 15.9241 21.1998 16.4001C21.0678 16.2681 20.9358 16.1361 20.7998 16.0001C20.9483 15.8763 20.9483 15.8763 21.0998 15.7501C21.4866 15.3757 21.4866 15.3757 21.3998 14.6001Z" fill="#140C0D"/>
<path d="M17.7995 14.3999C18.1995 14.9999 18.1995 14.9999 18.1995 15.3999C18.3315 15.4659 18.4635 15.5319 18.5995 15.5999C18.4015 15.7319 18.2035 15.8639 17.9995 15.9999C17.9995 15.8679 17.9995 15.7359 17.9995 15.5999C17.6695 15.5339 17.3395 15.4679 16.9995 15.3999C17.2635 15.0699 17.5275 14.7399 17.7995 14.3999Z" fill="#D83B5C"/>
<path d="M6.3998 16.2C6.7298 16.266 7.0598 16.332 7.3998 16.4C7.3998 16.598 7.3998 16.796 7.3998 17C6.2498 17.225 6.2498 17.225 5.7998 17C5.7998 16.868 5.7998 16.736 5.7998 16.6C5.9978 16.534 6.1958 16.468 6.3998 16.4C6.3998 16.334 6.3998 16.268 6.3998 16.2Z" fill="#F58B20"/>
<path d="M11.2002 16.2C11.7282 16.2 12.2562 16.2 12.8002 16.2C12.8002 16.398 12.8002 16.596 12.8002 16.8C12.2722 16.8 11.7442 16.8 11.2002 16.8C11.2002 16.602 11.2002 16.404 11.2002 16.2Z" fill="#F36B49"/>
<path d="M6.80039 28.4C6.99839 28.532 7.19639 28.664 7.40039 28.8C7.43789 29.325 7.43789 29.325 7.40039 29.8C6.90539 29.602 6.90539 29.602 6.40039 29.4C6.57539 28.625 6.57539 28.625 6.80039 28.4Z" fill="#C4C4C5"/>
<path d="M20.8006 22.4C21.0646 22.532 21.3286 22.664 21.6006 22.8C21.6006 23.064 21.6006 23.328 21.6006 23.6C21.2706 23.534 20.9406 23.468 20.6006 23.4C20.6006 22.8 20.6006 22.8 20.8006 22.4Z" fill="#DC2663"/>
<path d="M23.7994 18C23.8654 18.132 23.9314 18.264 23.9994 18.4C24.1314 18.4 24.2634 18.4 24.3994 18.4C24.4654 18.664 24.5314 18.928 24.5994 19.2C24.2694 19.2 23.9394 19.2 23.5994 19.2C23.5334 18.87 23.4674 18.54 23.3994 18.2C23.5314 18.134 23.6634 18.068 23.7994 18Z" fill="#CF256A"/>
<path d="M13.2005 29.8C13.5305 29.866 13.8605 29.932 14.2005 30C14.0025 30.297 14.0025 30.297 13.8005 30.6C13.8665 30.732 13.9325 30.864 14.0005 31C13.6705 30.934 13.3405 30.868 13.0005 30.8C13.0665 30.47 13.1325 30.14 13.2005 29.8Z" fill="#BFBFC3"/>
<path d="M8.99941 28.8C9.51251 29.3131 9.50751 29.6954 9.59941 30.4C9.40141 30.499 9.40141 30.499 9.19941 30.6C9.06741 30.468 8.93541 30.336 8.79941 30.2C8.66741 30.134 8.53541 30.068 8.39941 30C8.59741 29.604 8.79541 29.208 8.99941 28.8Z" fill="#AEAEB0"/>
<path d="M7.3999 29C7.6639 29 7.9279 29 8.1999 29C8.3319 29.33 8.4639 29.66 8.5999 30C8.3359 30 8.0719 30 7.7999 30C7.6679 29.67 7.5359 29.34 7.3999 29Z" fill="#101012"/>
<path d="M24.5994 23.6C24.5994 23.732 24.5994 23.864 24.5994 24C24.9294 24 25.2594 24 25.5994 24C25.5994 24.066 25.5994 24.132 25.5994 24.2C24.0979 24.2738 24.0979 24.2738 23.5994 23.9C23.5334 23.801 23.4674 23.702 23.3994 23.6C23.9994 23.4 23.9994 23.4 24.5994 23.6Z" fill="#9A2C5A"/>
<path d="M23.4003 22.2C23.6643 22.332 23.9283 22.464 24.2003 22.6C23.9363 22.798 23.6723 22.996 23.4003 23.2C23.2683 23.134 23.1363 23.068 23.0003 23C22.9343 23.132 22.8683 23.264 22.8003 23.4C22.8003 22.8 22.8003 22.8 23.1003 22.4625C23.2488 22.3325 23.2488 22.3325 23.4003 22.2Z" fill="#A72B5B"/>
<path d="M29.7998 19.8C29.9318 19.998 30.0638 20.196 30.1998 20.4C30.0248 20.9375 30.0248 20.9375 29.7998 21.4C29.1998 21.4 29.1998 21.4 28.7998 21.2C28.9916 21.0206 28.9916 21.0206 29.1873 20.8375C29.6404 20.4184 29.6404 20.4184 29.7998 19.8Z" fill="#150A12"/>
<path d="M27.2 27C27.332 27 27.464 27 27.6 27C27.8779 27.3923 28.1452 27.7923 28.4 28.2C28.202 28.266 28.004 28.332 27.8 28.4C27.602 28.268 27.404 28.136 27.2 28C27.1625 27.475 27.1625 27.475 27.2 27Z" fill="#CACACC"/>
<path d="M24.3994 23.4C24.9934 23.466 25.5874 23.532 26.1994 23.6C26.1994 23.732 26.1994 23.864 26.1994 24C25.6714 24 25.1434 24 24.5994 24C24.5334 23.802 24.4674 23.604 24.3994 23.4Z" fill="#BD2C73"/>
<path d="M9.59961 19C10.1276 19 10.6556 19 11.1996 19C11.1996 19.198 11.1996 19.396 11.1996 19.6C10.6716 19.6 10.1436 19.6 9.59961 19.6C9.59961 19.402 9.59961 19.204 9.59961 19Z" fill="#F2783B"/>
<path d="M21.4 14.8C21.466 14.998 21.532 15.196 21.6 15.4C21.402 15.598 21.204 15.796 21 16C20.505 15.802 20.505 15.802 20 15.6C20.1279 15.5753 20.2557 15.5505 20.3875 15.525C20.5917 15.4632 20.5917 15.4632 20.8 15.4C20.866 15.268 20.932 15.136 21 15C21.132 15.066 21.264 15.132 21.4 15.2C21.4 15.068 21.4 14.936 21.4 14.8Z" fill="#A52851"/>
<path d="M27.3997 27.8C27.6967 27.998 27.6967 27.998 27.9997 28.2C28.7276 28.1366 28.7276 28.1366 29.3997 28C28.8123 28.3046 28.2163 28.5602 27.5997 28.8C27.4677 28.536 27.3357 28.272 27.1997 28C27.2657 27.934 27.3317 27.868 27.3997 27.8Z" fill="#B1B1B3"/>
<path d="M14.7998 20.8C15.2618 21.196 15.7238 21.592 16.1998 22C16.1338 22.132 16.0678 22.264 15.9998 22.4C15.7358 22.334 15.4718 22.268 15.1998 22.2C15.0678 21.738 14.9358 21.276 14.7998 20.8Z" fill="#1E0E0D"/>
<path d="M15.6006 18.8C15.6666 18.8 15.7326 18.8 15.8006 18.8C15.8542 19.0145 15.9078 19.229 15.9631 19.45C16.173 20.1131 16.3498 20.4878 16.8006 21C16.4046 20.868 16.0086 20.736 15.6006 20.6C15.6006 20.006 15.6006 19.412 15.6006 18.8Z" fill="#AF464F"/>
<path d="M38.7998 16C39.5343 16.616 39.7134 17.0497 39.7998 18C39.7338 17.868 39.6678 17.736 39.5998 17.6C39.4678 17.6 39.3358 17.6 39.1998 17.6C38.9485 17.0188 38.7998 16.6408 38.7998 16Z" fill="#5D3D7C"/>
<path d="M20.7998 22.2C21.2618 22.266 21.7238 22.332 22.1998 22.4C22.1998 22.598 22.1998 22.796 22.1998 23C22.0018 23.132 21.8038 23.264 21.5998 23.4C21.5421 23.2762 21.4843 23.1525 21.4248 23.025C21.2124 22.5733 21.2124 22.5733 20.7998 22.2Z" fill="#BF2A5C"/>
<path d="M21.2006 20.2C21.3986 20.266 21.5966 20.332 21.8006 20.4C21.6686 20.664 21.5366 20.928 21.4006 21.2C21.1366 21.2 20.8726 21.2 20.6006 21.2C20.7326 21.134 20.8646 21.068 21.0006 21C21.131 20.595 21.131 20.595 21.2006 20.2Z" fill="#BB315E"/>
<path d="M21 18.6001C21.066 18.7321 21.132 18.8641 21.2 19.0001C21.332 19.0001 21.464 19.0001 21.6 19.0001C21.666 19.3301 21.732 19.6601 21.8 20.0001C21.602 20.0001 21.404 20.0001 21.2 20.0001C21.134 19.5381 21.068 19.0761 21 18.6001Z" fill="#220B0F"/>
<path d="M35.4002 27.4C35.6642 27.4 35.9282 27.4 36.2002 27.4C36.1342 27.664 36.0682 27.928 36.0002 28.2C35.7362 28.2 35.4722 28.2 35.2002 28.2C35.2662 27.936 35.3322 27.672 35.4002 27.4Z" fill="#0F0F11"/>
<path d="M28.3992 27.2C29.0592 27.2 29.7192 27.2 30.3992 27.2C30.3992 27.266 30.3992 27.332 30.3992 27.4C29.784 27.4585 29.784 27.4585 29.1687 27.5171C29.0468 27.5445 28.9249 27.5718 28.7992 27.6C28.7332 27.732 28.6672 27.864 28.5992 28C28.4672 28 28.3352 28 28.1992 28C28.2652 27.736 28.3312 27.472 28.3992 27.2Z" fill="#101011"/>
<path d="M15 20.8C15.8 20.8 15.8 20.8 16.2 21C16.134 21.264 16.068 21.528 16 21.8C15.6125 21.6375 15.6125 21.6375 15.2 21.4C15.134 21.202 15.068 21.004 15 20.8Z" fill="#D35059"/>
<path d="M19.6004 18.3999C19.6664 18.3999 19.7324 18.3999 19.8004 18.3999C19.8664 19.0599 19.9324 19.7199 20.0004 20.3999C19.8024 20.4659 19.6044 20.5319 19.4004 20.5999C19.4664 19.8739 19.5324 19.1479 19.6004 18.3999Z" fill="#2F161B"/>
<path d="M32.3999 16C32.7959 16 33.1919 16 33.5999 16C33.5999 16.264 33.5999 16.528 33.5999 16.8C33.3359 16.866 33.0719 16.932 32.7999 17C32.7999 16.736 32.7999 16.472 32.7999 16.2C32.6679 16.134 32.5359 16.068 32.3999 16Z" fill="#882E88"/>
<path d="M29.1998 16C29.3318 16 29.4638 16 29.5998 16C29.6658 16.33 29.7318 16.66 29.7998 17C29.6018 17 29.4038 17 29.1998 17C29.0678 16.802 28.9358 16.604 28.7998 16.4C28.9318 16.268 29.0638 16.136 29.1998 16Z" fill="#0A0508"/>
</svg>
