<svg width="75" height="75" viewBox="0 0 75 75" fill="none" xmlns="http://www.w3.org/2000/svg">
<path d="M75 0H0V75H75V0Z" fill="#D22127"/>
<path d="M20.2948 25.1024H18.5098V35.1524H20.2948V25.1024Z" fill="white"/>
<path d="M45.4652 25.1024H43.6802V35.1524H45.4652V25.1024Z" fill="white"/>
<path d="M29.3848 25.1024V32.3999L24.6448 25.1024H24.0298H22.2373V35.1524H24.0298V27.8624L28.7623 35.1524H29.3848H31.1773V25.1024H29.3848Z" fill="white"/>
<path d="M37.1545 25.095H33.322V25.11H33.1045V35.16H33.322H37.1545C38.542 35.16 39.802 34.5975 40.7095 33.69C41.617 32.7825 42.1795 31.5225 42.1795 30.135C42.187 27.345 39.9295 25.095 37.1545 25.095ZM39.382 32.8125C38.722 33.4725 37.8145 33.8775 36.802 33.8775H34.8895V26.5875H36.802C38.812 26.5875 40.447 28.2225 40.447 30.2325C40.4545 31.2375 40.042 32.1525 39.382 32.8125Z" fill="white"/>
<path d="M38.4298 35.97H33.3973V35.985H33.1123V49.47H33.3973H38.4298C40.2523 49.47 41.9098 48.7125 43.1023 47.49C44.3023 46.2675 45.0373 44.58 45.0373 42.72C45.0448 38.9925 42.0823 35.97 38.4298 35.97ZM41.3623 46.3275C40.4923 47.2125 39.2998 47.76 37.9723 47.76H35.4523V37.9725H37.9723C40.6198 37.9725 42.7648 40.1625 42.7648 42.8625C42.7648 44.2125 42.2248 45.4425 41.3623 46.3275Z" fill="white"/>
<path d="M52.0802 25.095H50.5577L46.2227 35.145H48.1652L49.0577 32.7975H53.5877L54.5027 35.1525H56.5052L52.0802 25.095ZM49.7027 31.2975L51.3602 27.3525L52.9052 31.2975H49.7027Z" fill="white"/>
<path d="M51.7647 36.0975H50.0622L44.2422 49.47H46.2147L47.5422 46.1325H54.0447L55.3872 49.47H57.4497L51.7647 36.0975ZM48.1647 44.6625L50.7822 38.025L53.3997 44.6625H48.1647Z" fill="white"/>
<path d="M8.27246 36.1425V37.695H12.5025V49.455H14.445V37.695H18.6675V36.1425H8.27246Z" fill="white"/>
<path d="M24.9673 35.58C21.0148 35.58 17.8198 38.79 17.8198 42.7425C17.8198 46.7025 21.0223 49.905 24.9673 49.905C28.9123 49.905 32.1148 46.695 32.1148 42.7425C32.1148 38.7825 28.9123 35.58 24.9673 35.58ZM24.9898 48.2925C22.1248 48.2925 19.7998 45.81 19.7998 42.7425C19.7998 39.675 22.1248 37.1925 24.9898 37.1925C27.8548 37.1925 30.1798 39.675 30.1798 42.7425C30.1798 45.81 27.8548 48.2925 24.9898 48.2925Z" fill="white"/>
<path d="M55.0195 36.0975H57.157L60.952 42.1875L64.672 36.0975H66.727L61.822 43.605V49.47H59.9245L59.947 43.5825L55.0195 36.0975Z" fill="white"/>
</svg>
