<svg width="127" height="99" viewBox="0 0 127 99" fill="none" xmlns="http://www.w3.org/2000/svg">
<path fill-rule="evenodd" clip-rule="evenodd" d="M0.302781 83.4524L0.259423 84.1469H0.909063C1.386 84.1469 1.99228 84.1895 1.99228 84.7958L1.77549 96.5385C1.77549 96.972 1.5587 97.449 0.692275 97.449H0.0433578L0 98.142H4.37622V97.449H3.63987C3.07622 97.449 2.68672 97.2755 2.68672 96.5385L2.90279 85.2727L7.58323 97.4049H8.05944L12.7825 85.1427L12.9993 96.5385C12.9993 96.928 12.6091 97.449 12.0028 97.449H11.093V98.142H16.5958V97.449H15.9455C15.4692 97.449 14.9056 97.1881 14.9056 96.5811L14.6888 84.97C14.6888 84.5805 15.1224 84.1469 15.5552 84.1469H16.3783V83.4524H12.4357L8.36222 94.1126L4.28951 83.4524H0.302781ZM18.8482 92.8552H25.3656C25.3656 89.7754 24.0049 87.2787 21.0147 87.2787C18.242 87.2787 16.6637 89.7754 16.6637 92.8552C16.6637 95.9351 17.9811 98.4317 21.0147 98.4317C23.9608 98.4317 24.828 96.972 25.2796 94.6365L24.2643 94.6322C24.1776 95.4986 23.6147 97.449 21.4482 97.4916C18.979 97.5408 18.8049 94.372 18.8482 92.8552ZM30.6776 98.142V97.579H30.244C29.8538 97.579 29.1608 97.449 29.1608 96.6685V90.9923C29.1608 89.2154 30.0706 88.5665 30.9804 88.5665C31.3265 88.5665 31.544 88.7399 31.4573 89.3895C31.3706 90.0399 31.9343 90.4735 32.4105 90.4294C32.8867 90.3853 33.4937 90.2993 33.407 89.086C33.3203 87.8735 32.6273 87.3105 31.414 87.3105C30.4608 87.3105 29.6804 87.9161 29.4636 88.2196C29.2114 88.5722 28.9007 88.4371 28.8573 88.0476C28.814 87.6567 28.6405 87.2672 28.2077 87.3972C27.2538 87.7007 26.3874 87.8308 25.651 87.8742V88.3078C27.4713 88.2203 27.2972 89.1308 27.2972 89.5637V96.67C27.2972 97.4504 26.6042 97.5805 26.214 97.5805H25.6077V98.1434H30.6776V98.142ZM40.2893 87.9688C39.6505 87.5028 38.8476 87.2361 37.8699 87.2361C35.0972 87.2361 33.519 89.7328 33.519 92.8126C33.519 95.8924 34.8363 98.3732 37.8699 98.3891C40.5566 98.4021 41.2063 96.8846 41.6586 94.5505L40.6426 94.5462C40.5559 95.4126 40.2524 97.4056 38.3028 97.4497C35.8336 97.5032 35.6594 94.3294 35.7028 92.8133C35.7028 91.8595 35.8328 88.0469 37.9126 88.0469C39.6888 88.0469 40.7727 89.3028 40.7727 90.7329H41.3356V87.093H40.8594L40.2893 87.9688ZM60.749 95.8881V83.7993C60.749 83.3014 60.4888 82.8888 60.056 83.0189C59.1028 83.3224 58.2357 83.4524 57.4993 83.4958V83.9294C58.756 83.8434 58.886 84.2329 58.886 84.6665V88.3923C58.3224 87.8727 57.6727 87.3524 56.5028 87.3524C55.0294 87.3524 52.3 88.5224 52.3 92.6392C52.3 98.0545 55.463 98.4021 56.4161 98.4021C57.3692 98.4021 58.6259 97.6231 58.886 97.2112C58.9077 97.1238 59.0371 97.0161 59.0811 97.2112C59.1245 97.6007 59.4056 98.1868 59.8392 98.0553C60.6683 97.7912 61.5272 97.6314 62.3958 97.5798V97.1462C60.5755 97.2315 60.749 96.321 60.749 95.8881ZM86.0531 91.9462V90.9482H80.3343V91.9462H86.0531ZM72.4909 94.458V98.142H72.9678L73.4014 97.1881C73.835 97.5791 74.7433 98.228 75.914 98.228C77.0846 98.228 78.7308 97.579 79.3804 96.365C80.0308 95.151 79.7273 93.158 78.2538 92.5517C76.964 92.0213 75.8316 91.3847 74.9608 90.9482C74.2678 90.6021 74.1002 89.9091 74.1804 89.4762C74.3105 88.7832 74.9175 88.0462 76.3042 88.0028C77.6902 87.9587 78.3832 89.1294 78.5566 90.4727H79.0336V87.0063H78.6L78.123 87.8294C77.2125 87.2224 76.8231 87.1364 76 87.1364C75.1755 87.1364 73.7895 87.57 73.009 88.7832C72.23 89.9958 72.4461 91.9021 74.309 92.6825C76.172 93.4615 77.0398 93.9385 77.5594 94.1986C78.079 94.4587 78.3825 95.4986 78.0363 96.1056C77.6895 96.7126 77.0398 97.4056 76 97.4056C74.9601 97.4056 73.3125 96.6685 72.923 94.4587H72.4909V94.458ZM88.0035 95.9315V85.2287C88.0035 84.1462 86.8769 84.0146 86.2266 84.0146V83.4517H92.7259C95.7587 83.4517 96.2357 85.5755 96.2357 86.8322C96.2357 88.0888 95.1958 89.951 94.1552 90.2126C96.2357 90.6462 96.9287 92.3357 96.9287 93.765C96.8427 98.0119 93.1587 98.142 91.5552 98.142H86.2259V97.535C87.9602 97.535 88.0035 96.5385 88.0035 95.9315ZM114.52 90.2552V96.6685C114.52 97.449 113.827 97.579 113.438 97.579H113.178V98.142H117.901V97.579H117.467C117.078 97.579 116.385 97.449 116.385 96.6685V90.2993C116.341 87.3958 113.741 87.3098 112.831 87.3098C111.878 87.3098 110.838 87.9154 110.62 88.2189C110.369 88.5715 110.057 88.4364 110.015 88.0469C109.971 87.6559 109.797 87.2665 109.364 87.3965C108.412 87.7 107.545 87.8301 106.808 87.8735V88.307C108.628 88.2196 108.454 89.1301 108.454 89.563V96.6693C108.454 97.4497 107.761 97.5798 107.371 97.5798H106.764V98.1427H111.834V97.5798H111.401C111.011 97.5798 110.317 97.4497 110.317 96.6693V90.993C110.317 90.0406 110.664 88.5231 112.441 88.393C114.217 88.2622 114.52 89.4322 114.52 90.2552ZM118.854 90.4727L119.634 87.5259H127L120.674 97.5357H124.053C124.834 97.5357 125.441 97.2322 126.264 95.2392H126.611L125.918 98.1427H118.378L124.659 88.1329H121.844C121.151 88.1329 120.371 88.1329 119.287 90.4727H118.854ZM44.8461 92.8552H51.3635C51.3635 89.7754 50.0021 87.2787 47.0126 87.2787C44.2399 87.2787 42.6616 89.7754 42.6616 92.8552C42.6616 95.9351 43.9797 98.4317 47.0126 98.4317C49.9594 98.4317 50.8259 96.972 51.2782 94.6365L50.2622 94.6322C50.1755 95.4986 49.6126 97.449 47.4462 97.4916C44.9769 97.5408 44.8028 94.372 44.8461 92.8552ZM64.6042 92.8552H71.1223C71.1223 89.7754 69.7616 87.2787 66.772 87.2787C63.9986 87.2787 62.4204 89.7754 62.4204 92.8552C62.4204 95.9351 63.7385 98.4317 66.772 98.4317C69.7175 98.4317 70.5839 96.972 71.0355 94.6365L70.021 94.6322C69.935 95.4986 69.3721 97.449 67.2042 97.4916C64.7357 97.5408 64.5623 94.372 64.6042 92.8552ZM100.05 92.8552H106.566C106.566 89.7754 105.206 87.2787 102.215 87.2787C99.4434 87.2787 97.8652 89.7754 97.8652 92.8552C97.8652 95.9351 99.1818 98.4317 102.215 98.4317C105.162 98.4317 106.029 96.972 106.48 94.6365L105.466 94.6322C105.38 95.4986 104.815 97.449 102.649 97.4916C100.18 97.5408 100.006 94.372 100.05 92.8552Z" fill="black"/>
<path fill-rule="evenodd" clip-rule="evenodd" d="M18.892 91.988C18.892 91.0356 18.8053 88.2181 21.1018 88.2181C22.9214 88.2181 23.1815 90.558 23.1815 91.988H18.892ZM58.8857 94.5881C58.8424 96.972 57.5857 97.7083 56.5459 97.7083C54.206 97.6643 54.3795 94.1118 54.3795 92.5951C54.3795 91.079 54.4662 88.0888 56.5892 88.3482C58.7123 88.6091 58.8857 90.8622 58.8857 92.2056V94.5881ZM89.8669 97.4489H92.0759C93.7228 97.4489 95.0228 96.1489 95.0228 93.9811C95.0228 91.8161 93.7669 90.8181 92.3368 90.8181H89.8669V97.4489ZM89.8669 90.1251H92.0333C93.7228 90.1251 94.2857 88.695 94.2857 86.8321C94.2857 85.3146 93.6368 84.1461 92.0333 84.1461H89.8669V90.1251ZM44.8907 91.988C44.8907 91.0356 44.8039 88.2181 47.1004 88.2181C48.9207 88.2181 49.1802 90.558 49.1802 91.988H44.8907ZM64.6487 91.988C64.6487 91.0356 64.5627 88.2181 66.8592 88.2181C68.6788 88.2181 68.9382 90.558 68.9382 91.988H64.6487ZM100.093 91.988C100.093 91.0356 100.007 88.2181 102.303 88.2181C104.123 88.2181 104.384 90.558 104.384 91.988H100.093Z" fill="white"/>
<path fill-rule="evenodd" clip-rule="evenodd" d="M63.0507 73.9311C42.4067 73.9297 25.6722 57.3772 25.6758 36.9609C25.6779 16.5452 42.4168 -0.00289012 63.0608 3.78611e-07C83.7055 0.00289088 100.439 16.5554 100.436 36.971C100.433 57.3873 83.6954 73.9354 63.0507 73.9311Z" fill="black"/>
<path fill-rule="evenodd" clip-rule="evenodd" d="M32.402 54.7013L33.0588 54.1802C31.1272 50.6408 29.4262 45.3281 29.3308 45.2168C29.2874 45.3671 30.0672 50.3019 32.402 54.7013Z" fill="black"/>
<path fill-rule="evenodd" clip-rule="evenodd" d="M63.5728 3.67299L68.6515 33.232L63.3474 36.3472L63.1638 3.68527C63.1638 3.29288 62.8863 3.2965 62.8459 3.68527L59.8347 34.6678L57.6061 33.3736L62.387 3.68021C43.8748 3.79583 29.2561 18.6595 29.2539 37.0294C29.2532 42.8313 31.0785 48.9166 33.7053 53.6714L57.0287 34.2697L59.2645 35.5502L33.0672 54.3832C32.4385 54.8204 32.6271 55.0394 33.323 54.6528L62.5669 37.7636L62.5662 43.8452L34.3325 54.6152C40.2378 64.276 50.7231 70.4255 62.9536 70.427C75.1667 70.4284 85.8225 64.2637 91.7365 54.6282L63.5403 43.8654V37.7824L91.6649 54.0039C92.303 54.3637 92.4959 54.1679 91.8933 53.7372L66.8427 35.5653L69.0771 34.2841L92.3919 53.704C95.0605 48.9224 96.8295 42.8191 96.831 36.9672C96.8331 18.8351 81.7527 4.16798 63.5728 3.67299Z" fill="white"/>
<path fill-rule="evenodd" clip-rule="evenodd" d="M98.8327 30.5308C97.4171 22.5906 93.3451 16.7243 93.3451 16.7243C86.8863 7.14521 75.8793 0.89378 63.1271 0.892334C42.8892 0.889444 26.5283 17.2945 26.5254 37.5338C26.5247 42.3002 27.7408 46.8535 29.3957 51.0317C30.1559 52.9496 33.3817 58.4813 33.5276 58.5998C33.5125 58.4249 31.2362 53.9988 30.0388 51.0548C29.0127 48.5307 27.7351 43.4998 27.7358 37.6653C27.738 18.0316 43.6567 2.11718 63.289 2.12007C73.5481 2.12152 83.1865 7.13004 89.1012 13.6228C90.3614 15.0059 91.4511 16.2611 92.4267 17.5373C92.4267 17.5366 94.9985 19.9436 98.8327 30.5308Z" fill="white"/>
<path fill-rule="evenodd" clip-rule="evenodd" d="M97.6879 36.8727C97.6879 42.95 95.7838 49.2477 92.9764 54.1883C93.1332 54.5959 92.9865 54.8054 92.5103 54.9261C86.3932 64.782 75.4693 71.2314 63.0329 71.23C51.3654 71.2285 42.032 64.9605 39.0815 61.7217C36.6867 59.0935 34.9119 57.1279 33.5411 54.8965L32.7383 55.2058C37.9874 65.2438 48.9995 72.5387 63.0452 72.5401C82.9795 72.543 98.8961 56.4234 98.8975 36.9667C98.8975 36.9667 99.5154 30.7131 94.0863 21.8132C94.0863 21.8132 97.8714 28.7042 97.6879 36.8727Z" fill="white"/>
<path fill-rule="evenodd" clip-rule="evenodd" d="M60.726 36.4181L55.7515 40.48C55.7515 40.48 54.7015 41.3471 56.2082 40.571L62.232 37.2852L60.726 36.4181ZM61.2275 35.4144L62.6879 13.2348C62.6879 13.2348 62.8245 10.5423 62.9618 13.2803C63.0962 15.9714 62.6879 36.3726 62.6879 36.3726L61.2275 35.4144ZM63.8745 37.2852L65.4722 36.3726L84.3653 49.0149C84.3653 49.0149 85.7809 49.9731 84.1832 49.1515L63.8745 37.2852Z" fill="black"/>
</svg>
