<svg width="53" height="53" viewBox="0 0 53 53" fill="none" xmlns="http://www.w3.org/2000/svg">
<circle cx="26.5" cy="26.5" r="26.5" fill="#FEEDDD"/>
<path d="M18.5512 19.0142H25.3087L25.8387 19.4779L26.1699 20.1404L26.2362 20.6704L25.9712 21.2004L25.5074 21.6642L25.2424 21.7967L24.3812 21.8629L18.6837 21.9292L18.1537 22.1942L17.8224 22.7242V23.4529L18.0874 23.8504L18.3524 24.0492L19.2799 24.2479L21.8637 24.5792L23.7187 24.8442L24.7787 25.1754L25.3749 25.5067L26.0374 26.1029L26.5012 26.7654L26.8324 27.4942L27.0312 28.4217V29.2167L26.8987 29.8792L26.5674 30.7404L25.9712 31.6017L25.5074 32.0654L24.8449 32.4629L24.0499 32.7942L23.7187 32.8604L20.8699 32.9267H12.2574L10.5349 32.8604L10.0712 32.6617L10.0049 32.4629L9.80617 32.3967L9.60742 31.9329V31.0717L9.87242 30.4754L10.2699 30.1442L10.4687 30.0779L12.8537 30.0117H22.7912L23.3874 29.9454L23.7849 29.6804L24.1162 29.0179L24.0499 28.4217L23.7849 28.0242L23.5199 27.8254L22.3937 27.6267L18.0874 27.0304L17.2262 26.7654L16.4974 26.3679L15.7024 25.5729L15.2387 24.7779L14.9737 23.9829L14.9074 23.6517V22.4592L15.1062 21.6642L15.5699 20.7367L16.0999 20.0742L16.9612 19.4779L17.7562 19.1467L18.5512 19.0142Z" fill="#F2A371"/>
<path d="M35.8419 18.8813H36.6369L37.0344 19.0801L37.4319 19.5438L37.6306 20.0738V20.7363L37.2994 21.2663L36.7031 21.6638L35.3119 22.1276L34.5831 22.5913L33.9869 23.1213L33.3906 24.0488L33.1256 24.7113L32.9931 25.3076V26.5663L33.3906 27.7588L33.7881 28.4876L34.2519 29.0176L35.1131 29.6138L36.1731 30.0113L36.4381 30.0776H37.8294L38.8231 29.7463L39.6844 29.2826L40.4794 28.4876L40.9431 27.8251L41.3406 27.4938L41.6056 27.3613H42.2681L42.7981 27.6263L43.2619 28.2226L43.3944 28.6201V29.2163L43.0631 29.8788L42.3344 30.7401L41.6056 31.4688L40.6119 32.1313L39.2206 32.7276L38.1606 32.9926L37.4981 33.0588H36.7694L35.7756 32.9263L34.4506 32.5288L33.3244 31.9326L32.4631 31.2701L31.8669 30.7401L31.2044 29.8788L30.6744 28.8188L30.2769 27.7588L30.0781 26.6326V25.0426L30.4094 23.6513L30.8731 22.5913L31.5356 21.5313L32.2644 20.7363L32.8606 20.2063L33.9869 19.5438L34.7156 19.2126L35.8419 18.8813Z" fill="#F2A371"/>
</svg>
