<svg width="75" height="26" viewBox="0 0 75 26" fill="none" xmlns="http://www.w3.org/2000/svg">
<path d="M4.31501 18.5689C4.63195 19.4088 5.07075 20.127 5.63148 20.7234C6.19222 21.3198 6.85653 21.7763 7.62441 22.0928C8.39236 22.4093 9.22732 22.5675 10.1294 22.5675C11.007 22.5675 11.8298 22.4031 12.5977 22.0744C13.3657 21.7457 14.0361 21.2832 14.6089 20.6868C15.1818 20.0904 15.6268 19.3783 15.9437 18.5506C16.2606 17.7229 16.4191 16.7979 16.4191 15.7753V0H20.2587V25.5618H16.4557V23.1882C15.6024 24.0889 14.5967 24.7827 13.4388 25.2697C12.2807 25.7565 11.0314 26 9.69056 26C8.32529 26 7.05153 25.7626 5.86913 25.2879C4.68681 24.8132 3.66283 24.1377 2.79746 23.2612C1.93208 22.3848 1.2494 21.332 0.749672 20.1026C0.249864 18.8732 0 17.5038 0 15.9944V0H3.83963V15.7753C3.83963 16.7979 3.99806 17.7289 4.31501 18.5689ZM26.8772 0V9.31178C27.7304 8.45973 28.7178 7.78424 29.8392 7.28513C30.9606 6.78602 32.1796 6.5365 33.496 6.5365C34.8613 6.5365 36.141 6.79208 37.3356 7.30331C38.5302 7.81454 39.5662 8.50838 40.4439 9.38483C41.3215 10.2613 42.0164 11.2959 42.5283 12.4887C43.0403 13.6817 43.2962 14.9476 43.2962 16.2866C43.2962 17.6254 43.0403 18.8853 42.5283 20.066C42.0164 21.2467 41.3215 22.2753 40.4439 23.1516C39.5662 24.028 38.5302 24.7219 37.3356 25.2331C36.141 25.7443 34.8612 25.9999 33.496 25.9999C32.1795 25.9999 30.9545 25.7504 29.8209 25.2513C28.6873 24.7523 27.6939 24.0767 26.8406 23.2246V25.5617H23.1838V0H26.8772ZM27.2977 18.8062C27.6268 19.5853 28.0839 20.2669 28.669 20.8512C29.2541 21.4355 29.9367 21.898 30.7168 22.2389C31.497 22.5797 32.338 22.7501 33.2401 22.7501C34.1177 22.7501 34.9465 22.5797 35.7266 22.2389C36.5067 21.898 37.1832 21.4355 37.7562 20.8512C38.3291 20.267 38.7862 19.5853 39.1275 18.8062C39.4688 18.0272 39.6394 17.1873 39.6394 16.2866C39.6394 15.3858 39.4688 14.5398 39.1275 13.7486C38.7862 12.9574 38.3291 12.2697 37.7562 11.6854C37.1833 11.1012 36.5068 10.6447 35.7266 10.3161C34.9465 9.98744 34.1177 9.82301 33.2401 9.82301C32.3625 9.82301 31.5336 9.98736 30.7535 10.3161C29.9734 10.6448 29.2908 11.1012 28.7056 11.6854C28.1206 12.2697 27.6574 12.9574 27.3161 13.7486C26.9748 14.5398 26.8041 15.3858 26.8041 16.2866C26.804 17.1873 26.9686 18.0272 27.2977 18.8062ZM45.3802 12.5253C45.8677 11.3568 46.5383 10.3283 47.3914 9.43969C48.2446 8.55112 49.2564 7.85122 50.4266 7.33999C51.5968 6.82876 52.8645 6.57319 54.2297 6.57319C55.5705 6.57319 56.8138 6.81664 57.9597 7.30347C59.1054 7.79038 60.0927 8.46596 60.9216 9.33021C61.7505 10.1944 62.3966 11.2169 62.8597 12.3976C63.3229 13.5783 63.5545 14.8625 63.5545 16.2502V17.4553H48.3788C48.5008 18.2099 48.7446 18.9098 49.1102 19.5549C49.4759 20.2 49.9329 20.76 50.4815 21.2347C51.03 21.7094 51.6516 22.0807 52.3465 22.3484C53.0413 22.6162 53.7786 22.7502 54.5588 22.7502C56.7773 22.7502 58.5692 21.8372 59.9344 20.0113L62.6038 21.9832C61.6774 23.2248 60.5317 24.1986 59.1665 24.9046C57.8012 25.6105 56.2654 25.9636 54.5589 25.9636C53.1693 25.9636 51.8712 25.72 50.6644 25.2332C49.4577 24.7464 48.4094 24.0646 47.5196 23.1882C46.6298 22.3117 45.9289 21.2832 45.417 20.1026C44.905 18.9219 44.649 17.6376 44.649 16.25C44.6488 14.9355 44.8927 13.6939 45.3802 12.5253ZM50.518 11.0829C49.4819 11.9471 48.7933 13.0974 48.452 14.5337H59.8247C59.5077 13.0974 58.8312 11.9471 57.7951 11.0829C56.759 10.2187 55.5461 9.78657 54.1566 9.78657C52.767 9.78657 51.5541 10.2187 50.518 11.0829ZM70.4656 11.5028C69.6855 12.3548 69.2954 13.5112 69.2954 14.9719V25.5619H65.602V6.93825H69.2588V9.23882C69.722 8.48414 70.3254 7.88766 71.0689 7.44948C71.8125 7.01121 72.6962 6.79208 73.7202 6.79208H75V10.2247H73.4642C72.2453 10.2248 71.2457 10.6507 70.4656 11.5028Z" fill="#010202"/>
</svg>
