<svg width="18" height="18" viewBox="0 0 18 18" fill="none" xmlns="http://www.w3.org/2000/svg">
<path d="M16.0232 10.7091C15.7954 10.4171 14.517 10.5688 13.9374 10.639C13.7645 10.6607 13.7373 10.5085 13.8944 10.3948C14.38 10.0854 14.9716 9.90165 15.6062 9.90165C16.0292 9.90165 16.4327 9.98321 16.8029 10.1317L16.7812 10.124C16.7953 10.2371 16.8035 10.3682 16.8035 10.5009C16.8035 11.4269 16.4076 12.2604 15.7758 12.8412L15.7736 12.8433C15.6279 12.9684 15.4865 12.9031 15.5518 12.7411C15.7687 12.205 16.2505 10.9968 16.0232 10.7091ZM15.2804 11.5546C13.4431 12.8161 11.1702 13.5692 8.72227 13.5692C8.70868 13.5692 8.69509 13.5692 8.68149 13.5692H8.68367C8.66518 13.5692 8.64343 13.5692 8.62222 13.5692C5.54297 13.5692 2.73613 12.4034 0.61931 10.4889L0.629642 10.4981C0.462167 10.347 0.613329 10.1404 0.813973 10.26C3.12872 11.6052 5.90782 12.3996 8.87235 12.3996C8.87235 12.3996 8.87289 12.3996 8.87344 12.3996C11.0957 12.3871 13.2071 11.9266 15.126 11.1028L15.0211 11.1425C15.3191 11.0065 15.5735 11.3371 15.281 11.5541L15.2804 11.5546ZM14.2566 8.92181C14.256 8.92181 14.2549 8.92181 14.2538 8.92181C13.9586 8.92181 13.672 8.88647 13.3974 8.81958L13.4219 8.82448C13.187 8.77554 12.9788 8.7005 12.7852 8.601L12.7988 8.60752C12.6808 8.56185 12.5981 8.44929 12.5981 8.31716C12.5981 8.31281 12.5981 8.30792 12.5987 8.30357V8.30411V8.02788C12.5987 7.91478 12.6422 7.86041 12.7226 7.86041C12.7574 7.86041 12.7912 7.86639 12.8227 7.87727L12.8205 7.87672C12.8531 7.8876 12.9021 7.90935 12.9565 7.9311C13.1266 8.00831 13.3257 8.07356 13.5334 8.11706L13.5524 8.12032C13.746 8.16165 13.9689 8.18557 14.1967 8.18557C14.2223 8.1872 14.2522 8.18829 14.2821 8.18829C14.5409 8.18829 14.784 8.12087 14.9944 8.00287L14.9868 8.00668C15.157 7.90282 15.2685 7.71795 15.2685 7.50697C15.2685 7.50153 15.2685 7.49664 15.2685 7.4912C15.2685 7.48685 15.2685 7.48196 15.2685 7.47652C15.2685 7.33515 15.213 7.20682 15.1222 7.11221C14.97 6.9828 14.7862 6.88547 14.5839 6.83272L14.5741 6.83055L13.7889 6.5864C13.4382 6.49505 13.1413 6.30039 12.9249 6.03776L12.9227 6.03504C12.7547 5.82026 12.6525 5.54675 12.6514 5.24986C12.6514 5.2428 12.6514 5.2341 12.6514 5.22594C12.6514 5.01388 12.7058 4.81487 12.8015 4.64141L12.7982 4.64739C12.8977 4.47013 13.0288 4.32223 13.1848 4.20641L13.1886 4.20369C13.3485 4.0808 13.5366 3.98456 13.74 3.92529L13.752 3.92203C13.9477 3.8633 14.1728 3.82959 14.4061 3.82959C14.4159 3.82959 14.4262 3.82959 14.436 3.82959H14.4344C14.4398 3.82959 14.4469 3.82959 14.4534 3.82959C14.5747 3.82959 14.6937 3.83775 14.8112 3.85297L14.7976 3.85134C14.9216 3.86765 15.0352 3.8894 15.1489 3.91115C15.2576 3.93834 15.3604 3.96553 15.4577 3.99706C15.5452 4.02425 15.6208 4.05742 15.6915 4.09766L15.6855 4.0944C15.7508 4.12756 15.8052 4.17324 15.8476 4.2287L15.8487 4.22979C15.8791 4.27492 15.8976 4.33093 15.8976 4.39128C15.8976 4.39726 15.8976 4.40325 15.8971 4.40923V4.40814V4.66261C15.8971 4.7768 15.8536 4.83607 15.772 4.83607C15.6953 4.82683 15.6257 4.80399 15.5637 4.76919L15.5665 4.77082C15.2717 4.63706 14.9276 4.5593 14.5649 4.5593C14.5513 4.5593 14.5382 4.5593 14.5246 4.55985H14.5268C14.5018 4.55821 14.4724 4.55713 14.4431 4.55713C14.2103 4.55713 13.9912 4.61422 13.7982 4.71481L13.8058 4.71101C13.6519 4.80345 13.5502 4.96983 13.5502 5.16015C13.5502 5.17156 13.5508 5.18298 13.5513 5.1944V5.19277C13.5513 5.19603 13.5513 5.19984 13.5513 5.20365C13.5513 5.351 13.6139 5.48422 13.7139 5.5772L13.7144 5.57775C13.8819 5.71205 14.0809 5.81537 14.2984 5.87355L14.3098 5.87627L15.0793 6.11932C15.4164 6.20795 15.7029 6.39065 15.9172 6.63752L15.9188 6.63969C16.0743 6.84305 16.1678 7.10079 16.1678 7.38082C16.1678 7.3868 16.1678 7.39278 16.1678 7.39877V7.39768C16.1678 7.40257 16.1678 7.4091 16.1678 7.41508C16.1678 7.63747 16.1162 7.8479 16.0238 8.03441L16.0276 8.02625C15.9281 8.21548 15.7948 8.3748 15.635 8.50095L15.6317 8.50312C15.4615 8.63634 15.2609 8.74074 15.0428 8.80327L15.0303 8.80653C14.8036 8.87831 14.5426 8.91963 14.2723 8.91963C14.2663 8.91963 14.2604 8.91963 14.2549 8.91963H14.256L14.2566 8.92181ZM7.29765 8.77608C7.2884 8.77717 7.27753 8.77772 7.26666 8.77772C7.20086 8.77772 7.13996 8.75705 7.09048 8.72117L7.09157 8.72171C7.03665 8.66516 6.99641 8.59338 6.97792 8.51345L6.97738 8.51073L5.705 4.32331C5.68217 4.26024 5.66477 4.18683 5.65661 4.11016L5.65607 4.10581C5.65498 4.10038 5.65498 4.0944 5.65498 4.08841C5.65498 4.02262 5.70827 3.96933 5.77406 3.96933C5.77841 3.96933 5.78222 3.96933 5.78657 3.96988H5.78602H6.31727C6.3276 3.96879 6.34011 3.9677 6.35261 3.9677C6.41841 3.9677 6.47931 3.98891 6.52879 4.0248L6.5277 4.02425C6.58099 4.08135 6.61959 4.15312 6.63591 4.23305L6.63645 4.23577L7.54723 7.82126L8.39222 4.23577C8.40418 4.15312 8.44116 4.08026 8.49499 4.02371C8.55045 3.98945 8.61787 3.96879 8.68965 3.96879C8.69726 3.96879 8.70542 3.96879 8.71303 3.96933H8.71194H9.14477C9.15456 3.96825 9.16597 3.9677 9.17794 3.9677C9.24645 3.9677 9.31007 3.98836 9.36336 4.02425L9.36227 4.02371C9.41719 4.07917 9.45416 4.15203 9.46449 4.2336V4.23523L10.3204 7.86422L11.2572 4.23523C11.2757 4.15312 11.3138 4.08135 11.366 4.02316L11.3654 4.02371C11.4193 3.98945 11.4845 3.96879 11.5547 3.96879C11.5623 3.96879 11.5699 3.96879 11.5775 3.96933H11.5764H12.0805C12.0854 3.96879 12.0903 3.96825 12.0957 3.96825C12.1626 3.96825 12.217 4.02262 12.217 4.0895C12.217 4.09494 12.2164 4.10038 12.2159 4.10581C12.2142 4.1379 12.2099 4.16671 12.2039 4.19553L12.2044 4.19173C12.1947 4.24338 12.1816 4.28906 12.1648 4.33256L12.1664 4.32712L10.8614 8.514C10.844 8.59719 10.8037 8.66897 10.7472 8.72497C10.6945 8.75923 10.6297 8.77989 10.5601 8.77989C10.5536 8.77989 10.5471 8.77989 10.5406 8.77935H10.5417H10.0757C10.0659 8.78043 10.0539 8.78098 10.042 8.78098C9.97344 8.78098 9.90982 8.76032 9.85708 8.72443L9.85817 8.72497C9.80379 8.66733 9.76682 8.59284 9.75649 8.50965V8.50802L8.91639 5.01496L8.08174 8.50258C8.06814 8.58686 8.03171 8.66081 7.97951 8.72008L7.98006 8.71953C7.92786 8.75433 7.86315 8.775 7.79409 8.775C7.78322 8.775 7.77234 8.77445 7.76201 8.77337H7.7631L7.29765 8.77608ZM2.94765 8.19101C3.14829 8.18883 3.33969 8.15295 3.5175 8.08933L3.50499 8.09313C3.70999 8.02082 3.88344 7.90173 4.01829 7.7484L4.01938 7.74731C4.10366 7.65107 4.16782 7.5347 4.20262 7.40583L4.20425 7.39985C4.23851 7.26174 4.25863 7.10351 4.25863 6.94038C4.25863 6.93658 4.25863 6.93223 4.25863 6.92842V6.92897V6.70168C4.12432 6.66688 3.95522 6.63425 3.78285 6.61196L3.76001 6.60924C3.60722 6.58858 3.4305 6.57716 3.2516 6.57662C3.22224 6.5739 3.18744 6.57281 3.15264 6.57281C2.88729 6.57281 2.64152 6.65546 2.43924 6.79629L2.44305 6.79357C2.27992 6.93277 2.17715 7.13831 2.17715 7.36832C2.17715 7.38517 2.1777 7.40148 2.17879 7.41834V7.41617C2.17715 7.43411 2.17661 7.45477 2.17661 7.47598C2.17661 7.67499 2.25382 7.85606 2.37943 7.99091L2.37889 7.99037C2.51265 8.11597 2.69263 8.19318 2.8911 8.19318C2.91067 8.19318 2.93025 8.19264 2.94982 8.19101H2.94765ZM5.14657 7.36723C5.14603 7.37973 5.14603 7.39496 5.14603 7.41018C5.14603 7.56624 5.16778 7.7174 5.20911 7.86095L5.20639 7.84953C5.26185 8.00342 5.32057 8.13228 5.38745 8.25572L5.37984 8.24049C5.40322 8.27529 5.41736 8.31825 5.4179 8.36447C5.41084 8.43407 5.37169 8.49279 5.31568 8.52705L5.31459 8.52759L4.97312 8.75488C4.93397 8.7837 4.88503 8.80164 4.83229 8.80382H4.83174C4.76758 8.79947 4.71103 8.77119 4.66971 8.72823C4.59956 8.65265 4.53486 8.56946 4.47885 8.48083L4.4745 8.47376C4.41396 8.36972 4.35795 8.26315 4.30648 8.15403C3.93673 8.61133 3.37558 8.90115 2.747 8.90115C2.73559 8.90115 2.72362 8.90115 2.7122 8.9006H2.71384C2.69045 8.90169 2.66272 8.90278 2.63499 8.90278C2.2473 8.90278 1.89386 8.75379 1.6296 8.51019L1.63069 8.51128C1.38219 8.26007 1.22885 7.91424 1.22885 7.53253C1.22885 7.51078 1.2294 7.48903 1.23049 7.46782V7.47108C1.22994 7.45586 1.2294 7.43737 1.2294 7.41943C1.2294 6.99367 1.42025 6.61305 1.72095 6.35748L1.72312 6.35585C2.0559 6.0905 2.4822 5.9301 2.94602 5.9301C2.98245 5.9301 3.01888 5.93118 3.05477 5.93282H3.04987C3.25378 5.93445 3.45279 5.95022 3.64745 5.97903L3.62407 5.97632C3.82472 6.0035 4.03134 6.047 4.24721 6.09594V5.70009C4.25102 5.66366 4.25319 5.62179 4.25319 5.57938C4.25319 5.29608 4.15477 5.03617 3.99056 4.83118L3.99219 4.83335C3.78557 4.67403 3.52239 4.57779 3.23692 4.57779C3.19234 4.57779 3.14775 4.57996 3.10425 4.58486L3.10969 4.58431C3.1086 4.58431 3.10751 4.58431 3.10642 4.58431C2.8998 4.58431 2.69915 4.60987 2.50721 4.65772L2.52407 4.65391C2.29406 4.70938 2.09885 4.77245 1.91017 4.84858L1.93899 4.83825C1.88788 4.86217 1.8248 4.8861 1.7601 4.90567L1.74922 4.90839C1.72367 4.91709 1.6943 4.92253 1.66385 4.92416C1.58773 4.92416 1.54912 4.86978 1.54912 4.75668V4.49133C1.54804 4.48209 1.54804 4.47176 1.54804 4.46088C1.54804 4.4027 1.56272 4.34778 1.58827 4.29939L1.58719 4.30102C1.62797 4.25263 1.67854 4.21402 1.73672 4.18846L1.73944 4.18738C1.93464 4.08787 2.16247 4.00359 2.40009 3.94758L2.4213 3.94323C2.66599 3.87798 2.94656 3.84046 3.23584 3.84046C3.24671 3.84046 3.25759 3.84046 3.26846 3.84046H3.26683C3.31685 3.83611 3.37504 3.8334 3.4343 3.8334C3.91063 3.8334 4.3478 4.00196 4.68928 4.28199L4.68602 4.27927C4.96822 4.5941 5.14059 5.01279 5.14059 5.47171C5.14059 5.5212 5.13842 5.56959 5.13461 5.61798L5.13516 5.61146V7.36614L5.14657 7.36723Z" fill="black"/>
</svg>
