<svg width="10" height="14" viewBox="0 0 10 14" fill="none" xmlns="http://www.w3.org/2000/svg">
<path d="M2.33495 14C3.62236 14 4.66747 12.9549 4.66747 11.6675V9.33496H2.33495C1.04754 9.33496 0.00244141 10.3801 0.00244141 11.6675C0.00244141 12.9549 1.04754 14 2.33495 14Z" fill="#0ACF83"/>
<path d="M0 6.99999C0 5.71258 1.0451 4.66748 2.33251 4.66748H4.66503V9.33495H2.33251C1.0451 9.33495 0 8.28985 0 7.00244V6.99999Z" fill="#A259FF"/>
<path d="M0 2.33251C0 1.0451 1.0451 0 2.33251 0H4.66503V4.66747H2.33251C1.0451 4.66747 0 3.62237 0 2.33496V2.33251Z" fill="#F24E1E"/>
<path d="M4.64575 0H6.97826C8.26567 0 9.31078 1.0451 9.31078 2.33251C9.31078 3.61992 8.26567 4.66502 6.97826 4.66502H4.64575V0Z" fill="#FF7262"/>
<path d="M9.33525 6.99999C9.33525 8.2874 8.29015 9.33251 7.00274 9.33251C5.71533 9.33251 4.64575 8.2874 4.64575 6.99999C4.64575 5.71258 5.69085 4.66748 6.97826 4.66748C8.26567 4.66748 9.31078 5.71258 9.31078 6.99999H9.33525Z" fill="#1ABCFE"/>
</svg>
