<svg width="24" height="14" viewBox="0 0 24 14" fill="none" xmlns="http://www.w3.org/2000/svg">
<path d="M0 12.0442H0.790667V8.92298L2.01469 11.6449C2.15907 11.973 2.35688 12.0909 2.74454 12.0909C3.1322 12.0909 3.32228 11.9743 3.46689 11.6449L4.69103 8.92298V12.0453H5.48182V8.92814C5.48182 8.62404 5.35994 8.47697 5.10916 8.40103C4.50857 8.21353 4.10556 8.37571 3.92322 8.78118L2.72204 11.4675L1.5586 8.78001C1.38375 8.37454 0.973246 8.21235 0.372658 8.39986C0.121641 8.47591 0 8.62298 0 8.92697V12.0442ZM6.13901 9.50283H6.92944V11.2231C6.92206 11.3167 6.95944 11.536 7.39257 11.5427C7.61358 11.5462 9.09812 11.5427 9.11195 11.5427V9.49427H9.90414C9.90765 9.49427 9.90332 12.2873 9.90343 12.2993C9.90777 12.9881 9.04867 13.1378 8.6528 13.1494H6.15623V12.6173L8.65726 12.6172C9.16609 12.5633 9.10609 12.3105 9.10609 12.2253V12.0179H7.42561C6.64373 12.0109 6.14592 11.6695 6.13971 11.2769C6.13912 11.2418 6.15658 9.5197 6.13924 9.50271L6.13901 9.50283Z" fill="#00618A"/>
<path d="M10.5137 12.0441H12.7869C13.0529 12.0441 13.3115 11.9884 13.517 11.892C13.8592 11.7349 14.0264 11.522 14.0264 11.2432V10.6655C14.0264 10.4373 13.8363 10.2245 13.4639 10.0826C13.2662 10.0064 13.0229 9.96598 12.7872 9.96598H11.8292C11.51 9.96598 11.3579 9.86965 11.3199 9.65684C11.3123 9.63153 11.3123 9.60997 11.3123 9.58582V9.22606C11.3123 9.20578 11.3123 9.18539 11.3199 9.16008C11.3579 8.99789 11.4416 8.95219 11.7228 8.9257C11.7457 8.9257 11.776 8.92055 11.799 8.92055H14.057V8.39355H11.837C11.5176 8.39355 11.3504 8.41383 11.1983 8.45941C10.7265 8.60649 10.5212 8.84086 10.5212 9.24633V9.70758C10.5212 10.0624 10.9243 10.3665 11.6007 10.4374C11.6769 10.4425 11.7528 10.4475 11.8288 10.4475H12.6499C12.6804 10.4475 12.7108 10.4475 12.7336 10.4527C12.9843 10.4729 13.091 10.5185 13.1669 10.6097C13.2138 10.6566 13.2279 10.7011 13.2279 10.7503V11.2116C13.2279 11.2674 13.1899 11.3384 13.1138 11.3991C13.0454 11.46 12.9314 11.5004 12.7793 11.5106C12.7488 11.5106 12.7261 11.5157 12.6957 11.5157H10.5137V12.0428V12.0441ZM18.9587 11.1267C18.9587 11.6691 19.3616 11.9732 20.1751 12.034C20.251 12.0399 20.3271 12.0432 20.4032 12.0441H22.4636V11.517H20.3879C19.9242 11.517 19.7493 11.4004 19.7493 11.1216V8.39461H18.9586V11.1265L18.9587 11.1267ZM14.5308 11.1541V9.27504C14.5308 8.79762 14.8659 8.50805 15.5287 8.41664C15.5994 8.40654 15.6707 8.40145 15.7421 8.40141H17.243C17.3169 8.40145 17.3907 8.40654 17.464 8.41664C18.1268 8.50805 18.4619 8.7975 18.4619 9.27504V11.1541C18.4619 11.5415 18.3196 11.7488 17.9914 11.8839L18.7703 12.587H17.8522L17.2221 12.0182L16.5878 12.0584H15.7421C15.5974 12.0584 15.4451 12.038 15.2774 11.9923C14.7735 11.8552 14.5308 11.591 14.5308 11.1541ZM15.3842 11.1073C15.3842 11.1327 15.3919 11.158 15.3995 11.1886C15.4463 11.407 15.6508 11.5289 15.962 11.5289H16.6803L16.0206 10.9333H16.9386L17.5128 11.4527C17.6189 11.3963 17.6886 11.3098 17.7121 11.1988C17.7197 11.1735 17.7197 11.1481 17.7197 11.1226V9.32086C17.7197 9.30059 17.7197 9.27399 17.7121 9.24973C17.6652 9.04664 17.4606 8.92981 17.1559 8.92981H15.9634C15.6118 8.92981 15.3845 9.08215 15.3845 9.32086V11.1087L15.3842 11.1073Z" fill="#E48E00"/>
<path d="M23.1591 7.52026C22.6731 7.50714 22.3017 7.55226 21.9844 7.68608C21.8942 7.72417 21.7504 7.72511 21.7356 7.83819C21.7852 7.89011 21.793 7.96769 21.8323 8.03155C21.9081 8.15425 22.0362 8.31866 22.1502 8.40468C22.2749 8.49878 22.4033 8.59956 22.5373 8.68124C22.7752 8.82632 23.0407 8.90917 23.2697 9.05437C23.4047 9.13992 23.5388 9.24773 23.6705 9.34453C23.7355 9.39234 23.7795 9.46664 23.8638 9.49652V9.48269C23.8193 9.42609 23.8079 9.34828 23.7672 9.28933L23.5875 9.10968C23.4117 8.87531 23.1888 8.67175 22.9518 8.50148C22.7627 8.36577 22.3396 8.18249 22.2607 7.96241L22.2469 7.94859C22.3809 7.93335 22.5379 7.88495 22.6617 7.85191C22.8695 7.79624 23.0553 7.81054 23.2699 7.75523L23.5602 7.67226V7.61694C23.4517 7.50561 23.3744 7.35831 23.2561 7.25765C22.9467 6.99397 22.6089 6.73089 22.2612 6.51116C22.0683 6.38928 21.8299 6.3103 21.6254 6.20706C21.5567 6.17237 21.4358 6.15432 21.3905 6.09643C21.2831 5.95956 21.2247 5.78588 21.1418 5.62768C20.9684 5.29369 20.798 4.92877 20.6442 4.57732C20.5393 4.33767 20.4708 4.10131 20.3402 3.88627C19.7127 2.85454 19.0371 2.23181 17.9909 1.61985C17.7682 1.48977 17.5002 1.43821 17.2168 1.37106L16.7607 1.34341C16.6679 1.30473 16.5714 1.19106 16.4842 1.13598C16.1375 0.916841 15.2484 0.440707 14.9917 1.06567C14.8296 1.46094 15.2339 1.84661 15.3786 2.047C15.4801 2.18763 15.6102 2.34501 15.6826 2.5031C15.7303 2.60693 15.7386 2.71111 15.7794 2.82103C15.8798 3.09056 15.9673 3.38623 16.0972 3.63642C16.1628 3.76298 16.2353 3.89634 16.3184 4.00955C16.3693 4.07904 16.4566 4.10963 16.4703 4.21697C16.385 4.3365 16.3801 4.52166 16.3321 4.67307C16.1161 5.35416 16.1975 6.20061 16.5117 6.70475C16.6082 6.85944 16.8351 7.19132 17.1475 7.06405C17.4205 6.95272 17.3584 6.60819 17.4377 6.30397C17.4553 6.23483 17.4445 6.18444 17.4792 6.13815V6.15198L17.728 6.64944C17.912 6.94593 18.2389 7.25589 18.5157 7.46507C18.6593 7.57347 18.7736 7.76097 18.958 7.82437V7.81054H18.9442C18.9082 7.75429 18.852 7.7312 18.8059 7.68632C18.6977 7.58026 18.5774 7.44843 18.488 7.32702C18.236 6.98507 18.0136 6.611 17.8109 6.22135C17.7141 6.03538 17.6298 5.83018 17.5484 5.64092C17.5169 5.56791 17.5173 5.45764 17.4517 5.41979C17.3623 5.55854 17.2305 5.67057 17.1614 5.8344C17.0508 6.0962 17.0365 6.41542 16.9956 6.74659C16.9713 6.75526 16.9821 6.74928 16.9679 6.76042C16.7755 6.71401 16.7078 6.51585 16.6363 6.34581C16.4553 5.91573 16.4218 5.22361 16.581 4.72885C16.622 4.60088 16.8083 4.19752 16.733 4.07927C16.697 3.96127 16.5783 3.89177 16.5118 3.80271C16.4298 3.69138 16.3475 3.54443 16.2907 3.41576C16.1426 3.0806 16.0734 2.70443 15.9176 2.3654C15.843 2.20345 15.7172 2.03962 15.6136 1.89665C15.499 1.73727 15.3707 1.61962 15.2819 1.4279C15.2503 1.35934 15.2074 1.24977 15.2543 1.17911C15.2588 1.1588 15.2689 1.14021 15.2837 1.1255C15.2984 1.1108 15.317 1.10061 15.3373 1.09614C15.4174 1.03438 15.6408 1.11665 15.7242 1.15145C15.9457 1.24356 16.1308 1.33122 16.3186 1.45555C16.4088 1.51415 16.4999 1.63087 16.6087 1.66298H16.733C16.9275 1.70774 17.1455 1.67704 17.3271 1.73212C17.6484 1.82974 17.9362 1.98173 18.1978 2.14673C18.9945 2.6497 19.6457 3.36572 20.0912 4.22095C20.1629 4.35842 20.1939 4.48978 20.257 4.63557C20.3844 4.92854 20.5448 5.2324 20.6716 5.51998C20.7982 5.80709 20.9213 6.09655 21.1001 6.33538C21.1941 6.46077 21.5571 6.52827 21.722 6.59788C21.8377 6.64674 22.027 6.69772 22.1366 6.7637C22.3458 6.88991 22.5485 7.04026 22.7448 7.17854C22.8429 7.24768 23.1444 7.39921 23.1594 7.52401L23.1591 7.52026Z" fill="#00618A"/>
<path fill-rule="evenodd" clip-rule="evenodd" d="M16.9815 2.25463C16.8801 2.25275 16.8085 2.26564 16.7327 2.28229V2.29611H16.7465C16.7948 2.39549 16.8801 2.45936 16.9399 2.5449L17.0781 2.83506L17.092 2.82123C17.1775 2.76088 17.2168 2.66444 17.2162 2.51713C17.1818 2.48104 17.1768 2.4358 17.147 2.39268C17.1075 2.33525 17.0299 2.30268 16.9812 2.25439L16.9815 2.25463Z" fill="#00618A"/>
<path fill-rule="evenodd" clip-rule="evenodd" d="M22.8346 11.5021C22.8346 11.8501 23.1096 12.0848 23.4173 12.0848C23.7249 12.0848 23.9999 11.8501 23.9999 11.5021C23.9999 11.154 23.7249 10.9194 23.4173 10.9194C23.1096 10.9194 22.8346 11.154 22.8346 11.5021ZM23.8694 11.5021C23.8694 11.7662 23.6674 11.9636 23.417 11.9636C23.1639 11.9636 22.9647 11.7662 22.9647 11.5021C22.9647 11.238 23.1637 11.0406 23.417 11.0406C23.6672 11.0406 23.8694 11.238 23.8694 11.5021ZM23.5741 11.8347H23.7045L23.5135 11.5426C23.616 11.5317 23.6936 11.4819 23.6936 11.3608C23.6936 11.2255 23.608 11.1697 23.4435 11.1697H23.1839V11.8348H23.2958V11.5473H23.3999L23.5739 11.8348L23.5741 11.8347ZM23.2958 11.4538V11.2628H23.4248C23.4916 11.2628 23.5724 11.2752 23.5724 11.353C23.5724 11.4462 23.4994 11.454 23.4154 11.454H23.2958V11.4538Z" fill="#E48E00"/>
</svg>
