<svg width="23" height="22" viewBox="0 0 23 22" fill="none" xmlns="http://www.w3.org/2000/svg">
<path d="M13.5346 0C13.3733 0 13.212 0.0345098 13.0685 0.0862745C13.3733 0.276078 13.5346 0.534902 13.6243 0.828235C13.6243 0.862745 13.6422 0.897255 13.6422 0.931765C13.6422 0.966274 13.6601 1.00078 13.6601 1.03529C13.678 1.53569 13.5167 1.60471 13.4091 1.89804C13.2299 2.27765 13.2837 2.69176 13.4988 3.01961C13.5167 3.05412 13.5346 3.10588 13.5705 3.14039C13.3374 1.69098 14.5923 1.48392 14.8253 1.03529C14.8433 0.638431 14.5027 0.379608 14.2338 0.189804C13.9649 0.0345098 13.7498 0 13.5346 0ZM15.4169 0.310588C15.399 0.448627 15.4169 0.414118 15.399 0.483137C15.399 0.534902 15.399 0.586667 15.3811 0.638431C15.3631 0.690196 15.3631 0.724706 15.3452 0.776471C15.3273 0.828235 15.3094 0.862745 15.2914 0.91451C15.2735 0.94902 15.2556 0.983529 15.2377 1.03529C15.2197 1.05255 15.2018 1.08706 15.1839 1.10431C15.166 1.12157 15.166 1.13882 15.148 1.15608C15.1122 1.19059 15.0943 1.24235 15.0584 1.27686L14.9508 1.38039C14.915 1.4149 14.8791 1.44941 14.8433 1.46667C14.7178 1.55294 14.5744 1.62196 14.4489 1.70824C14.413 1.74275 14.3593 1.76 14.3234 1.79451C14.2876 1.82902 14.2517 1.84627 14.2158 1.88078L14.1083 1.98431C14.0724 2.01882 14.0366 2.05333 14.0187 2.1051C13.9828 2.13961 13.9649 2.19137 13.929 2.22588C13.9111 2.27765 13.8932 2.31216 13.8573 2.36392C13.8394 2.41569 13.8215 2.4502 13.8035 2.50196C13.7856 2.55373 13.7677 2.60549 13.7677 2.64C13.7677 2.65725 13.7677 2.69176 13.7498 2.70902C13.7498 2.72627 13.7498 2.76078 13.7318 2.77804V3.01961C13.7318 3.07137 13.7318 3.10588 13.7498 3.15765C13.7498 3.20941 13.7677 3.24392 13.7856 3.29569C13.8035 3.34745 13.8215 3.38196 13.8394 3.43373C13.8573 3.46824 13.8752 3.48549 13.8752 3.52L12.5128 3.01961C12.2798 2.95059 12.0646 2.89882 11.8316 2.84706C11.7061 2.81255 11.5806 2.79529 11.4551 2.76078C11.0966 2.69176 10.7381 2.64 10.3795 2.60549H10.3437C9.98515 2.57098 9.64454 2.55373 9.28601 2.55373C9.01711 2.55373 8.76614 2.57098 8.51517 2.58824C8.15663 2.60549 7.7981 2.65725 7.43957 2.70902L7.17067 2.76078C6.9914 2.79529 6.81213 2.8298 6.63287 2.88157C6.54323 2.89882 6.4536 2.93333 6.36397 2.95059C6.27433 2.9851 6.1847 3.01961 6.11299 3.05412C6.04129 3.08863 5.98751 3.10588 5.9158 3.14039C5.89787 3.14039 5.89787 3.14039 5.87995 3.15765C5.82617 3.19216 5.77239 3.20941 5.71861 3.24392C5.70068 3.24392 5.68275 3.26118 5.68275 3.26118C5.61105 3.29569 5.55727 3.3302 5.50349 3.34745C5.46763 3.36471 5.41385 3.38196 5.378 3.39922C5.36007 3.41647 5.34215 3.41647 5.32422 3.43373C5.27044 3.46824 5.21666 3.48549 5.16288 3.52C5.1091 3.55451 5.05532 3.57176 5.01947 3.60627C4.98361 3.64078 4.92983 3.65804 4.89398 3.69255C4.89398 3.69255 4.87605 3.69255 4.87605 3.7098C4.8402 3.72706 4.80435 3.76157 4.76849 3.79608L4.75057 3.81333C4.71471 3.83059 4.69679 3.8651 4.66093 3.88235C4.64301 3.88235 4.64301 3.89961 4.62508 3.89961C4.58923 3.91686 4.5713 3.95137 4.53545 3.96863C4.53545 3.98588 4.51752 3.98588 4.51752 3.98588L4.40996 4.08941L4.39203 4.10667L4.28447 4.2102C4.28447 4.2102 4.28447 4.22745 4.26655 4.22745L4.17691 4.31373C4.15899 4.33098 4.14106 4.33098 4.14106 4.34824L4.0335 4.45177C4.0335 4.46902 4.01557 4.46902 4.01557 4.48627L3.87216 4.62431L3.85423 4.64157C3.7646 4.7451 3.65704 4.83137 3.54948 4.91765C3.44192 5.00392 3.33436 5.0902 3.20887 5.17647C3.08339 5.26275 2.97583 5.33177 2.85034 5.40078C2.72485 5.4698 2.59937 5.52157 2.47388 5.57333C2.34839 5.6251 2.22291 5.67686 2.09742 5.71137C1.84645 5.76314 1.59547 5.86667 1.38035 5.88392C1.38035 5.79765 1.32657 5.8149 1.27279 5.8149C1.21901 5.83216 1.16523 5.83216 1.12938 5.84941C1.0756 5.86667 1.03975 5.88392 0.985966 5.90118C0.932186 5.91843 0.896333 5.93569 0.842553 5.9702C0.8067 6.00471 0.75292 6.02196 0.717067 6.05647C0.681213 6.09098 0.627433 6.12549 0.59158 6.16C0.555727 6.19451 0.501947 6.22902 0.466093 6.26353C0.43024 6.29804 0.394387 6.33255 0.358533 6.38431C0.32268 6.43608 0.286827 6.47059 0.2689 6.52235C0.233047 6.55686 0.21512 6.60863 0.179267 6.66039C0.16134 6.71216 0.125487 6.76392 0.10756 6.81569L0.05378 6.97098C0.0358533 7.02275 0.0358533 7.05726 0.0179267 7.10902V7.12627C0 7.17804 0 7.24706 0 7.28157C0.0179267 7.26431 0.0179267 7.29882 0.0179267 7.33333V7.40235C0.0179267 7.43686 0.0358533 7.47137 0.0358533 7.50588C0.05378 7.54039 0.05378 7.5749 0.0717067 7.60941C0.0896333 7.64392 0.10756 7.67843 0.143413 7.71294C0.16134 7.74745 0.197193 7.78196 0.21512 7.81647C0.250973 7.85098 0.286827 7.88549 0.32268 7.90275C0.358533 7.93725 0.394387 7.97176 0.43024 7.98902C0.573653 8.1098 0.609507 8.14431 0.788773 8.24784C0.824627 8.2651 0.842553 8.28235 0.878407 8.29961H0.896333V8.33412C0.896333 8.38588 0.91426 8.42039 0.932186 8.47216C0.950113 8.52392 0.96804 8.57569 0.985966 8.6102L1.03975 8.71373C1.03975 8.73098 1.05767 8.73098 1.05767 8.74824C1.0756 8.8 1.11145 8.83451 1.12938 8.86902C1.16523 8.90353 1.18316 8.95529 1.21901 8.9898L1.32657 9.09333L1.43413 9.19686H1.45206C1.48791 9.23137 1.52377 9.24863 1.55962 9.28314C1.59547 9.31765 1.64925 9.3349 1.68511 9.35216C1.72096 9.36941 1.77474 9.40392 1.82852 9.42118C1.86437 9.43843 1.90023 9.45569 1.95401 9.45569C1.95401 9.45569 1.97193 9.45569 1.97193 9.47294C1.98986 9.47294 2.02571 9.4902 2.04364 9.4902C2.02571 9.80078 2.02571 10.0941 2.06157 10.1976C2.11535 10.3184 2.38425 9.95608 2.63522 9.55922C2.59937 9.95608 2.58144 10.422 2.63522 10.56C2.70693 10.698 3.04753 10.2494 3.37021 9.76628C7.56505 8.83451 11.4014 11.6298 11.8137 15.5812C11.742 14.96 10.9532 14.6149 10.5767 14.7012C10.3975 15.1153 10.0927 15.6675 9.60869 15.9953C9.64454 15.6157 9.62662 15.2361 9.55491 14.8565C9.42942 15.3741 9.17845 15.8745 8.81992 16.2886C8.26419 16.3231 7.69054 16.0643 7.40371 15.6675C7.38579 15.6502 7.36786 15.6157 7.34993 15.5984C7.33201 15.5639 7.31408 15.5122 7.29615 15.4776C7.27822 15.4431 7.2603 15.3914 7.2603 15.3569V15.2361V15.1498C7.2603 15.1153 7.27822 15.0635 7.29615 15.029C7.31408 14.9945 7.31408 14.9427 7.33201 14.9082C7.34993 14.8737 7.36786 14.822 7.40371 14.7875C7.51127 14.5114 7.51127 14.2871 7.31408 14.1663L7.20652 14.1145C7.18859 14.1145 7.15274 14.0973 7.13481 14.0973C7.11689 14.0973 7.09896 14.08 7.08103 14.08C7.04518 14.0627 6.9914 14.0627 6.95554 14.0455C6.91969 14.0282 6.86591 14.0282 6.83006 14.0282C6.79421 14.0282 6.74043 14.011 6.70457 14.011H6.61494C6.56116 14.011 6.5253 14.011 6.48945 14.0282C6.4536 14.0282 6.39982 14.0455 6.36397 14.0455C6.32811 14.0627 6.27433 14.0627 6.23848 14.08C6.20263 14.0973 6.16677 14.1145 6.11299 14.1318L6.00543 14.1835C4.62508 15.0463 5.44971 17.0824 6.38189 17.669C6.02336 17.738 5.66483 17.8071 5.55727 17.8761L5.53934 17.8933C5.79031 18.0486 6.05921 18.1694 6.34604 18.2729C6.7225 18.3937 7.13481 18.4973 7.31408 18.549C7.7981 18.6525 8.30005 18.6871 8.80199 18.6525C11.4193 18.48 13.5705 16.5475 13.9649 14.0282C13.9828 14.08 13.9828 14.1318 14.0007 14.1835C14.0187 14.2871 14.0366 14.3906 14.0545 14.5114C14.0724 14.5631 14.0724 14.6149 14.0724 14.6667V14.6839C14.0724 14.7357 14.0904 14.7875 14.0904 14.8392C14.0904 14.9082 14.1083 14.96 14.1083 15.029V15.7537C14.1083 15.8055 14.0904 15.84 14.0904 15.8918V15.9435C14.0904 15.9953 14.0724 16.0471 14.0724 16.1161C14.0545 16.1678 14.0545 16.2196 14.0366 16.2714V16.2886C14.0187 16.3404 14.0187 16.3922 14.0007 16.4439V16.4612C13.9828 16.5129 13.9828 16.5647 13.9649 16.6165V16.6337L13.9111 16.789V16.8063C13.8932 16.858 13.8752 16.9271 13.8573 16.9788C13.8394 17.0306 13.8215 17.0824 13.7856 17.1514C13.7677 17.2031 13.7498 17.2722 13.7139 17.3239C13.696 17.3757 13.6601 17.4275 13.6422 17.4965C13.6243 17.5482 13.5884 17.6 13.5705 17.6518C13.5705 17.669 13.5526 17.6863 13.5526 17.6863C13.5526 17.6863 13.5526 17.7035 13.5346 17.7035C13.1582 18.4455 12.5845 19.1012 11.8675 19.6188C11.8137 19.6533 11.7778 19.6878 11.724 19.7224C11.7061 19.7396 11.6882 19.7396 11.6882 19.7569C11.6523 19.7914 11.5986 19.8086 11.5627 19.8431L11.5806 19.8776C11.6703 19.8604 11.742 19.8604 11.8316 19.8431C11.9929 19.8259 12.1364 19.7914 12.2977 19.7569C12.3335 19.7569 12.3873 19.7396 12.4232 19.7224C12.459 19.7224 12.477 19.7051 12.5128 19.7051C12.5487 19.7051 12.6024 19.6878 12.6383 19.6878C12.6742 19.6706 12.71 19.6706 12.7459 19.6533C13.3374 19.5153 13.9111 19.3255 14.4668 19.1012C13.5167 20.3435 12.2618 21.3443 10.7919 22C11.4731 21.9482 12.1543 21.8447 12.8176 21.6549C15.2018 20.982 17.2096 19.429 18.4107 17.3412C18.1597 18.6525 17.6219 19.9122 16.8152 21.0165C17.3889 20.6541 17.9087 20.2227 18.3928 19.7569C19.7193 18.4282 20.5977 16.72 20.8846 14.9082C21.0818 15.8055 21.1535 16.7373 21.0638 17.6518C25.3483 11.9059 21.4224 5.95294 19.7731 4.38275C19.7731 4.36549 19.7552 4.36549 19.7552 4.34824C19.7552 4.41725 19.7552 4.48627 19.7373 4.55529C19.7193 4.69333 19.7014 4.81412 19.6835 4.9349C19.6476 5.05569 19.6118 5.19373 19.5759 5.31451C19.5401 5.43529 19.4863 5.55608 19.4325 5.67686C19.3787 5.79765 19.3249 5.91843 19.2532 6.02196C19.1815 6.12549 19.1098 6.24627 19.0381 6.3498C18.9664 6.45333 18.8768 6.55686 18.7871 6.66039C18.6975 6.76392 18.6079 6.8502 18.5003 6.95373C18.4465 7.00549 18.3928 7.05726 18.321 7.09177C18.2673 7.12628 18.2314 7.16078 18.1776 7.21255C18.0701 7.29882 17.9625 7.36784 17.837 7.43686C17.7295 7.50588 17.604 7.5749 17.4785 7.62667L17.102 7.78196C16.9766 7.83373 16.8511 7.86824 16.7256 7.90275C16.6001 7.93725 16.4567 7.97176 16.3312 7.98902C16.1878 8.00627 16.0623 8.02353 15.9368 8.04078C15.8472 8.04078 15.7396 8.05804 15.65 8.05804C15.5066 8.05804 15.3811 8.04078 15.2556 8.04078C15.1122 8.02353 14.9867 8.00627 14.8612 7.98902C14.7178 7.97176 14.5923 7.93726 14.4668 7.88549C14.5923 7.86824 14.7357 7.86824 14.8612 7.83373C15.0046 7.81647 15.1301 7.78196 15.2556 7.74745C15.3811 7.71294 15.5245 7.67843 15.632 7.62667L16.0085 7.47137C16.134 7.41961 16.2416 7.35059 16.367 7.28157C16.4746 7.21255 16.6001 7.12628 16.7076 7.05726C16.8152 6.97098 16.9228 6.88471 17.0124 6.79843C17.12 6.71216 17.2096 6.60863 17.2992 6.52235C17.3889 6.41882 17.4785 6.31529 17.5502 6.21176C17.5681 6.19451 17.5681 6.17726 17.5861 6.16C17.6398 6.07373 17.7115 5.9702 17.7653 5.88392C17.837 5.76314 17.8908 5.65961 17.9446 5.53882C17.9984 5.41804 18.0522 5.29726 18.088 5.17647L18.1956 4.81412C18.2135 4.67608 18.2493 4.55529 18.2493 4.43451C18.2673 4.29647 18.2673 4.17569 18.2673 4.0549C18.2673 3.96863 18.2673 3.8651 18.2493 3.77882C18.2314 3.64078 18.2135 3.52 18.1956 3.39922C18.1776 3.26118 18.1418 3.14039 18.1059 3.01961C18.0701 2.89882 18.0163 2.77804 17.9804 2.65725C17.9267 2.53647 17.8729 2.41569 17.8191 2.31216C17.7474 2.19137 17.6936 2.08784 17.6219 1.96706C17.5502 1.86353 17.4606 1.76 17.3889 1.65647C17.2992 1.55294 17.2096 1.46667 17.12 1.36314C17.0662 1.31137 17.0124 1.25961 16.9586 1.2251C16.6897 1.01804 16.4208 0.84549 16.134 0.672941C16.0981 0.655686 16.0623 0.638431 16.0085 0.621177C15.7755 0.431373 15.5962 0.379608 15.4169 0.310588Z" fill="#DF234F"/>
</svg>
