<svg width="30" height="9" viewBox="0 0 30 9" fill="none" xmlns="http://www.w3.org/2000/svg">
<path d="M27.5963 3.00635C27.5232 3.00635 27.4522 3.02143 27.3893 3.057L25.4004 4.20559C25.2717 4.27972 25.1934 4.41982 25.1934 4.56878V6.86185C25.1934 7.01076 25.2717 7.15062 25.4004 7.22498L25.9198 7.52431C26.1722 7.64873 26.2652 7.64674 26.3801 7.64674C26.7537 7.64674 26.967 7.42001 26.967 7.02596V4.76369C26.967 4.7317 26.9393 4.70881 26.9079 4.70881H26.6588C26.6268 4.70881 26.5997 4.73229 26.5997 4.76369V7.02713C26.5997 7.2018 26.4177 7.37752 26.1225 7.22985L25.5825 6.91315C25.5635 6.90276 25.5487 6.88381 25.5487 6.8625V4.56942C25.5487 4.54771 25.5633 4.52552 25.5825 4.51454L27.5673 3.37006C27.5859 3.35938 27.6081 3.35938 27.6264 3.37006L29.6112 4.51454C29.6301 4.52587 29.645 4.547 29.645 4.56942V6.8625C29.645 6.88439 29.634 6.90681 29.6154 6.91738L27.6265 8.06186C27.6089 8.07202 27.5854 8.07202 27.5674 8.06186L27.0564 7.75784C27.0411 7.74892 27.0204 7.74962 27.0058 7.75784C26.8647 7.83778 26.8382 7.84705 26.706 7.89295C26.6734 7.90428 26.6238 7.92194 26.7229 7.97746L27.3901 8.3707C27.4536 8.40744 27.5244 8.42557 27.597 8.42557C27.6707 8.42557 27.7404 8.40797 27.804 8.3707L29.7929 7.22621C29.9216 7.15132 29.9998 7.01199 29.9998 6.86309V4.57001C29.9998 4.42105 29.9216 4.28125 29.7929 4.20682L27.804 3.05823C27.7416 3.02266 27.6701 3.00758 27.597 3.00758L27.5963 3.00635ZM28.1284 4.6449C27.562 4.6449 27.2247 4.88594 27.2247 5.28675C27.2247 5.72107 27.5595 5.84103 28.1031 5.89479C28.7534 5.95847 28.8041 6.05397 28.8041 6.18197C28.8041 6.404 28.6271 6.49867 28.2086 6.49867C27.683 6.49867 27.5674 6.36744 27.5288 6.10544C27.5242 6.07738 27.5026 6.05479 27.4739 6.05479H27.2156C27.2001 6.05513 27.1852 6.06147 27.1742 6.07248C27.1632 6.08349 27.1569 6.09832 27.1565 6.11389C27.1565 6.44861 27.3386 6.84442 28.2081 6.84442C28.8374 6.84442 29.2004 6.59792 29.2004 6.16454C29.2004 5.73609 28.9072 5.62029 28.2967 5.53948C27.6805 5.45731 27.6211 5.41798 27.6211 5.27343C27.6211 5.15417 27.671 4.99464 28.1278 4.99464C28.5359 4.99464 28.6867 5.08268 28.7486 5.35783C28.754 5.38365 28.7768 5.40478 28.8035 5.40478H29.0617C29.0776 5.40478 29.0929 5.39504 29.104 5.38365C29.1148 5.3715 29.1224 5.35783 29.1209 5.34139C29.081 4.86752 28.765 4.64461 28.1285 4.64461L28.1284 4.6449Z" fill="#83CD29"/>
<path d="M15.9032 7.67605e-05C15.881 0.000116873 15.8592 0.00594242 15.8399 0.0169799C15.8207 0.0282059 15.8048 0.0442363 15.7937 0.0634919C15.7826 0.0827475 15.7767 0.104564 15.7766 0.126792V3.35729C15.7766 3.38899 15.7618 3.41739 15.7343 3.4333C15.7209 3.44115 15.7056 3.44528 15.69 3.44528C15.6744 3.44528 15.6591 3.44115 15.6456 3.4333L15.1178 3.12928C15.0793 3.107 15.0356 3.09527 14.9911 3.09527C14.9466 3.09527 14.9029 3.107 14.8644 3.12928L12.7573 4.34542C12.6785 4.39085 12.6305 4.4783 12.6305 4.56921V7.00157C12.6304 7.04608 12.6421 7.08982 12.6644 7.12837C12.6866 7.16692 12.7186 7.19892 12.7572 7.22113L14.8644 8.43734C14.9029 8.45968 14.9466 8.47144 14.9911 8.47144C15.0356 8.47144 15.0793 8.45968 15.1178 8.43734L17.225 7.22113C17.2635 7.19892 17.2956 7.16692 17.3178 7.12837C17.3401 7.08982 17.3518 7.04608 17.3517 7.00157V0.937557C17.3517 0.845294 17.3013 0.758724 17.2208 0.713766L15.9666 0.0126954C15.9469 0.00172012 15.9251 -0.000158006 15.9032 7.67605e-05ZM2.34784 3.03631C2.30764 3.03795 2.2699 3.04494 2.2338 3.06589L0.126657 4.28204C0.0880567 4.30421 0.0560085 4.3362 0.0337644 4.37476C0.0115203 4.41333 -0.000128069 4.45708 1.06205e-06 4.5016L0.00428555 7.76597C0.00428555 7.81139 0.0277622 7.85353 0.0676724 7.87572C0.10682 7.8992 0.155358 7.8992 0.194329 7.87572L1.44428 7.1578C1.52352 7.11085 1.57517 7.02892 1.57517 6.9383V5.41379C1.57517 5.32281 1.623 5.23947 1.70194 5.19428L2.23404 4.88603C2.27249 4.86367 2.31622 4.852 2.36069 4.85222C2.40519 4.85196 2.44895 4.86364 2.48741 4.88603L3.01927 5.1941C3.09809 5.2393 3.14593 5.32276 3.14593 5.41361V6.93806C3.14593 7.0288 3.19875 7.1112 3.27681 7.15757L4.52676 7.87548C4.56609 7.89896 4.61451 7.89896 4.65342 7.87548C4.69216 7.85318 4.71681 7.8111 4.71681 7.76573L4.72103 4.50148C4.72128 4.45694 4.70969 4.41314 4.68743 4.37456C4.66517 4.33597 4.63306 4.304 4.59438 4.28192L2.48723 3.06583C2.45161 3.04494 2.41369 3.03789 2.37319 3.03625H2.34796L2.34784 3.03631ZM21.2831 3.06589C21.2387 3.06577 21.1949 3.07743 21.1564 3.0997L19.0492 4.3159C18.9706 4.36139 18.9225 4.44455 18.9225 4.53541V6.96776C18.9225 7.0592 18.974 7.14208 19.0533 7.18727L21.1436 8.37871C21.2208 8.42272 21.315 8.42607 21.3928 8.38282L22.6596 7.67758C22.6998 7.65527 22.727 7.6136 22.7271 7.56782C22.7272 7.52205 22.7035 7.48084 22.6637 7.45807L20.5438 6.24187C20.5041 6.21921 20.4763 6.17337 20.4763 6.12783V5.36724C20.4763 5.32182 20.5045 5.28015 20.5438 5.25749L21.2026 4.8774C21.2418 4.85475 21.2899 4.85475 21.3293 4.8774L21.9884 5.25749C22.0077 5.26858 22.0237 5.28457 22.0348 5.30384C22.0459 5.32312 22.0518 5.34499 22.0517 5.36724V5.96689C22.0517 5.98915 22.0575 6.01102 22.0686 6.0303C22.0797 6.04957 22.0957 6.06556 22.115 6.07665C22.1545 6.09942 22.2024 6.09954 22.2418 6.07665L23.5044 5.34201C23.5827 5.29646 23.6312 5.21306 23.6312 5.1225V4.53558C23.6312 4.49109 23.6195 4.44737 23.5972 4.40883C23.575 4.37029 23.543 4.33828 23.5044 4.31602L21.4099 3.09981C21.3714 3.07752 21.3277 3.06586 21.2832 3.06601L21.2831 3.06589ZM14.9826 4.88181C14.9944 4.88175 15.006 4.88464 15.0164 4.8902L15.7385 5.30826C15.7581 5.31959 15.7723 5.34054 15.7723 5.36313V6.19925C15.7723 6.22197 15.7582 6.24286 15.7385 6.25413L15.0164 6.67219C14.9967 6.68334 14.9727 6.68334 14.953 6.67219L14.2309 6.25413C14.2113 6.2428 14.1971 6.22185 14.1971 6.19925V5.36302C14.1971 5.34036 14.2113 5.31959 14.2309 5.30814L14.953 4.89014C14.9629 4.88445 14.9716 4.88181 14.9826 4.88181Z" fill="#404137"/>
<path d="M8.67796 3.05328C8.63346 3.05321 8.58973 3.06487 8.55118 3.08709L6.44398 4.29907C6.36522 4.3445 6.31732 4.43201 6.31732 4.52286V6.95522C6.3172 6.99972 6.32886 7.04347 6.3511 7.08202C6.37334 7.12057 6.40539 7.15255 6.44398 7.17472L8.55118 8.39093C8.58967 8.41326 8.63337 8.42503 8.67787 8.42503C8.72236 8.42503 8.76607 8.41326 8.80455 8.39093L10.9118 7.17472C10.9503 7.15251 10.9824 7.12051 11.0046 7.08196C11.0269 7.04341 11.0385 6.99967 11.0385 6.95516V4.5228C11.0385 4.43183 10.9906 4.34438 10.9117 4.29901L8.80449 3.08703C8.76599 3.0647 8.72223 3.05304 8.67772 3.05322L8.67796 3.05328ZM21.279 5.22387C21.2706 5.22387 21.2613 5.22387 21.2537 5.22798L20.8483 5.46451C20.8407 5.4687 20.8344 5.47481 20.83 5.48222C20.8255 5.48962 20.8231 5.49807 20.8229 5.50671V5.97125C20.8229 5.98874 20.8331 6.00471 20.8483 6.01351L21.2537 6.24575C21.2606 6.25007 21.2687 6.25235 21.2769 6.25235C21.2851 6.25235 21.2931 6.25007 21.3 6.24575L21.7054 6.01351C21.7205 6.00488 21.7308 5.98874 21.7308 5.97125V5.50671C21.7308 5.48922 21.7205 5.47325 21.7054 5.46445L21.3 5.22792C21.2925 5.22346 21.2874 5.22381 21.2789 5.22381L21.279 5.22387Z" fill="#83CD29"/>
</svg>
