<svg width="20" height="18" viewBox="0 0 20 18" fill="none" xmlns="http://www.w3.org/2000/svg">
<path d="M20 8.90746C20 7.58255 18.3408 6.32695 15.797 5.54831C16.384 2.95556 16.1231 0.892784 14.9735 0.232368C14.7085 0.0774561 14.3987 0.00407658 14.0603 0.00407658V0.913168C14.2479 0.913168 14.3987 0.949857 14.5251 1.01916C15.0795 1.33714 15.32 2.5479 15.1325 4.10518C15.0876 4.48838 15.0143 4.89197 14.9246 5.30371C14.1256 5.10803 13.2532 4.9572 12.3359 4.85936C11.7856 4.10518 11.2148 3.4203 10.64 2.82104C11.969 1.58581 13.2165 0.909091 14.0644 0.909091V0C12.9433 0 11.4757 0.799022 9.99185 2.18508C8.50795 0.807175 7.04036 0.0163066 5.91928 0.0163066V0.925397C6.76315 0.925397 8.01468 1.59804 9.34366 2.82511C8.77293 3.42438 8.2022 4.10518 7.66001 4.85936C6.73869 4.9572 5.86629 5.10803 5.06727 5.30779C4.9735 4.90012 4.9042 4.50469 4.85528 4.12556C4.66368 2.56828 4.90012 1.35752 5.45047 1.03547C5.57277 0.962087 5.73176 0.929474 5.91928 0.929474V0.0203832C5.57684 0.0203832 5.26702 0.0937627 4.99796 0.248675C3.85243 0.909091 3.5956 2.96779 4.18671 5.55238C1.65104 6.3351 0 7.58663 0 8.90746C0 10.2324 1.65919 11.488 4.20302 12.2666C3.61598 14.8594 3.87689 16.9221 5.0265 17.5826C5.29148 17.7375 5.60131 17.8108 5.94374 17.8108C7.06482 17.8108 8.53241 17.0118 10.0163 15.6258C11.5002 17.0037 12.9678 17.7945 14.0889 17.7945C14.4313 17.7945 14.7411 17.7212 15.0102 17.5662C16.1557 16.9058 16.4126 14.8471 15.8214 12.2625C18.349 11.4839 20 10.2283 20 8.90746ZM14.6922 6.18834C14.5414 6.71423 14.3539 7.25642 14.1419 7.79861C13.9747 7.47248 13.7994 7.14635 13.6078 6.82022C13.4203 6.49409 13.2205 6.17611 13.0208 5.86629C13.5997 5.9519 14.1582 6.05789 14.6922 6.18834ZM12.8251 10.53C12.5071 11.0803 12.181 11.6021 11.8426 12.0872C11.2352 12.1402 10.6196 12.1688 10 12.1688C9.38443 12.1688 8.76886 12.1402 8.16551 12.0913C7.82715 11.6062 7.49694 11.0885 7.17896 10.5422C6.86914 10.0082 6.58785 9.46596 6.33102 8.91969C6.58378 8.37342 6.86914 7.82715 7.17489 7.29311C7.49287 6.74276 7.819 6.22095 8.15736 5.73583C8.76478 5.68284 9.38035 5.6543 10 5.6543C10.6156 5.6543 11.2311 5.68284 11.8345 5.73176C12.1728 6.21688 12.5031 6.73461 12.821 7.28088C13.1309 7.81492 13.4121 8.35711 13.669 8.90338C13.4121 9.44965 13.1309 9.99592 12.8251 10.53ZM14.1419 10C14.362 10.5463 14.5495 11.0925 14.7044 11.6225C14.1704 11.753 13.6078 11.863 13.0249 11.9486C13.2246 11.6347 13.4244 11.3127 13.6119 10.9825C13.7994 10.6563 13.9747 10.3261 14.1419 10ZM10.0082 14.3498C9.62903 13.9584 9.2499 13.5222 8.87485 13.0453C9.24174 13.0616 9.6168 13.0738 9.99592 13.0738C10.3791 13.0738 10.7583 13.0656 11.1292 13.0453C10.7623 13.5222 10.3832 13.9584 10.0082 14.3498ZM6.97513 11.9486C6.39625 11.863 5.83775 11.757 5.30371 11.6266C5.45455 11.1007 5.64207 10.5585 5.85406 10.0163C6.0212 10.3424 6.19649 10.6686 6.3881 10.9947C6.5797 11.3208 6.77538 11.6388 6.97513 11.9486ZM9.98777 3.46514C10.3669 3.8565 10.746 4.2927 11.1211 4.76967C10.7542 4.75336 10.3791 4.74113 10 4.74113C9.6168 4.74113 9.23767 4.74929 8.86669 4.76967C9.23359 4.2927 9.61272 3.8565 9.98777 3.46514ZM6.97106 5.86629C6.7713 6.18019 6.57155 6.50224 6.38402 6.83245C6.19649 7.15858 6.0212 7.48471 5.85406 7.81084C5.63392 7.26457 5.44639 6.7183 5.29148 6.18834C5.82552 6.06197 6.3881 5.9519 6.97106 5.86629ZM3.2817 10.9702C1.83857 10.3547 0.905014 9.54749 0.905014 8.90746C0.905014 8.26743 1.83857 7.45618 3.2817 6.84468C3.63229 6.69384 4.01549 6.55932 4.41093 6.43294C4.64329 7.23196 4.94904 8.0636 5.32817 8.91561C4.95312 9.76356 4.65145 10.5911 4.42316 11.3861C4.01957 11.2597 3.63636 11.1211 3.2817 10.9702ZM5.47493 16.7958C4.92051 16.4778 4.67998 15.267 4.86751 13.7097C4.91235 13.3265 4.98573 12.923 5.07542 12.5112C5.87444 12.7069 6.74684 12.8577 7.66409 12.9556C8.21443 13.7097 8.78516 14.3946 9.35997 14.9939C8.03098 16.2291 6.78353 16.9058 5.93559 16.9058C5.75214 16.9018 5.59723 16.8651 5.47493 16.7958ZM15.1447 13.6894C15.3363 15.2466 15.0999 16.4574 14.5495 16.7795C14.4272 16.8528 14.2682 16.8854 14.0807 16.8854C13.2369 16.8854 11.9853 16.2128 10.6563 14.9857C11.2271 14.3865 11.7978 13.7057 12.34 12.9515C13.2613 12.8537 14.1337 12.7028 14.9327 12.5031C15.0265 12.9148 15.0999 13.3102 15.1447 13.6894ZM16.7142 10.9702C16.3636 11.1211 15.9804 11.2556 15.585 11.382C15.3526 10.583 15.0469 9.75132 14.6678 8.89931C15.0428 8.05137 15.3445 7.22381 15.5728 6.42886C15.9764 6.55524 16.3596 6.69384 16.7183 6.84468C18.1614 7.46025 19.095 8.26743 19.095 8.90746C19.0909 9.54749 18.1574 10.3587 16.7142 10.9702Z" fill="#61DAFB"/>
<path d="M9.99623 10.7705C11.0252 10.7705 11.8593 9.93638 11.8593 8.90746C11.8593 7.87854 11.0252 7.04443 9.99623 7.04443C8.96731 7.04443 8.13321 7.87854 8.13321 8.90746C8.13321 9.93638 8.96731 10.7705 9.99623 10.7705Z" fill="#61DAFB"/>
</svg>
