<svg width="23" height="23" viewBox="0 0 23 23" fill="none" xmlns="http://www.w3.org/2000/svg">
<path d="M17.8592 1H5.14084C2.85392 1 1 2.85392 1 5.14084V17.8592C1 20.1461 2.85392 22 5.14084 22H17.8592C20.1461 22 22 20.1461 22 17.8592V5.14084C22 2.85392 20.1461 1 17.8592 1Z" fill="white" stroke="#003355" stroke-width="0.591549"/>
<path d="M17.8592 1H5.14084C2.85392 1 1 2.85392 1 5.14084V17.8592C1 20.1461 2.85392 22 5.14084 22H17.8592C20.1461 22 22 20.1461 22 17.8592V5.14084C22 2.85392 20.1461 1 17.8592 1Z" stroke="#003355" stroke-width="0.591549"/>
<mask id="mask0_747_2241" style="mask-type:luminance" maskUnits="userSpaceOnUse" x="1" y="1" width="21" height="21">
<path d="M17.5634 1.29541H5.43662C3.1497 1.29541 1.29578 3.14933 1.29578 5.43625V17.563C1.29578 19.8499 3.1497 21.7039 5.43662 21.7039H17.5634C19.8503 21.7039 21.7042 19.8499 21.7042 17.563V5.43625C21.7042 3.14933 19.8503 1.29541 17.5634 1.29541Z" fill="white"/>
</mask>
<g mask="url(#mask0_747_2241)">
<path d="M0.112671 10.9078L0.112671 21.7036H10.9084L21.7042 21.7036V10.9078L21.7042 0.112064L10.9084 0.112064H0.112671L0.112671 10.9078ZM17.5127 10.0476C18.0611 10.1847 18.4792 10.428 18.863 10.8256C19.0618 11.0381 19.3566 11.4254 19.3806 11.5179C19.3874 11.5453 18.4484 12.1759 17.8794 12.5289C17.8589 12.5426 17.7766 12.4535 17.6841 12.3164C17.4065 11.912 17.1152 11.7372 16.6696 11.7064C16.015 11.6618 15.5935 12.0046 15.5969 12.5769C15.5969 12.7448 15.6209 12.8442 15.6894 12.9813C15.8334 13.2795 16.1007 13.4577 16.9404 13.821C18.486 14.4859 19.1475 14.9246 19.5588 15.5483C20.018 16.244 20.1208 17.3545 19.809 18.1804C19.4662 19.0784 18.6163 19.6884 17.4202 19.8906C17.05 19.9557 16.1727 19.9454 15.7751 19.8735C14.908 19.7192 14.0855 19.2908 13.5783 18.7288C13.3795 18.5094 12.9922 17.9371 13.0162 17.896C13.0265 17.8823 13.1156 17.8274 13.215 17.7692C13.3109 17.7143 13.6742 17.5053 14.0169 17.3065L14.6373 16.9466L14.7675 17.1385C14.9491 17.4161 15.3467 17.7966 15.5866 17.9234C16.2755 18.2867 17.2214 18.2353 17.6875 17.8171C17.8863 17.6355 17.9685 17.447 17.9685 17.1694C17.9685 16.9192 17.9377 16.8095 17.8075 16.621C17.6395 16.3811 17.2968 16.1789 16.3235 15.7574C15.2096 15.2776 14.7298 14.9794 14.2911 14.5064C14.0375 14.2323 13.7976 13.7936 13.6982 13.4269C13.616 13.1218 13.5954 12.3576 13.6605 12.0491C13.8901 10.973 14.7024 10.2224 15.8745 9.99962C16.2549 9.92765 17.1391 9.95507 17.5127 10.0476ZM12.4438 10.949L12.4507 11.8332H11.0455H9.64037L9.64037 15.8259V19.8186H8.64647H7.65258L7.65258 15.8259V11.8332L6.24741 11.8332H4.84225V10.9661C4.84225 10.4863 4.85253 10.0853 4.86624 10.075C4.87652 10.0613 6.58671 10.0545 8.66018 10.0579L12.4336 10.0682L12.4438 10.949Z" fill="#007ACC"/>
</g>
</svg>
