<svg width="76" height="77" viewBox="0 0 76 77" fill="none" xmlns="http://www.w3.org/2000/svg">
<g clip-path="url(#clip0_18_1184)">
<path d="M59.375 45.1479L47.5 57.0229L28.5 52.2729L11.875 40.3979" stroke="#1E1E1E" stroke-width="3" stroke-linecap="round" stroke-linejoin="round"/>
<path d="M21.5771 20.9912L38.0003 16.6479L54.4234 20.9912" stroke="#1E1E1E" stroke-width="3" stroke-linecap="round" stroke-linejoin="round"/>
<path d="M10.204 17.9603L2.62778 33.1187C2.34621 33.6818 2.29968 34.3335 2.49841 34.9308C2.69714 35.5281 3.12487 36.0221 3.68762 36.3042L11.8754 40.3981L21.5773 20.9914L13.3925 16.9004C13.1135 16.7606 12.8098 16.677 12.4986 16.6546C12.1873 16.6321 11.8747 16.6713 11.5786 16.7697C11.2825 16.8681 11.0087 17.0239 10.7729 17.2282C10.537 17.4325 10.3437 17.6813 10.204 17.9603Z" stroke="#1E1E1E" stroke-width="3" stroke-linecap="round" stroke-linejoin="round"/>
<path d="M64.1247 40.3981L72.3125 36.3042C72.8753 36.0221 73.303 35.5281 73.5017 34.9308C73.7005 34.3335 73.6539 33.6818 73.3724 33.1187L65.7961 17.9603C65.6564 17.6813 65.4632 17.4325 65.2273 17.2282C64.9914 17.0239 64.7176 16.8681 64.4215 16.7697C64.1254 16.6713 63.8128 16.6321 63.5016 16.6546C63.1904 16.677 62.8866 16.7606 62.6077 16.9004L54.4229 20.9914L64.1247 40.3981Z" stroke="#1E1E1E" stroke-width="3" stroke-linecap="round" stroke-linejoin="round"/>
<path d="M54.6254 21.3979H42.7504L29.1951 34.5465C28.9431 34.7984 28.751 35.1037 28.633 35.4399C28.515 35.7761 28.4742 36.1345 28.5135 36.4886C28.5529 36.8427 28.6714 37.1834 28.8603 37.4855C29.0492 37.7876 29.3036 38.0433 29.6048 38.2337C34.803 41.5558 41.8598 41.3272 47.5004 35.6479L59.3754 45.1479L64.1254 40.3979" stroke="#1E1E1E" stroke-width="3" stroke-linecap="round" stroke-linejoin="round"/>
<path d="M36.8303 64.1479L24.4447 61.0515L16.625 55.4644" stroke="#1E1E1E" stroke-width="3" stroke-linecap="round" stroke-linejoin="round"/>
</g>
<defs>
<clipPath id="clip0_18_1184">
<rect width="76" height="76" fill="white" transform="translate(0 0.0229492)"/>
</clipPath>
</defs>
</svg>
