<svg width="44" height="49" viewBox="0 0 44 49" fill="none" xmlns="http://www.w3.org/2000/svg">
<path d="M19.5 32C17.2958 32 15.2023 31.5245 13.3171 30.6705C12.0107 30.0787 11.3576 29.7827 10.9949 29.6805C10.618 29.5742 10.3996 29.5357 10.009 29.5065C9.63327 29.4785 9.35198 29.5 8.78938 29.543C8.55925 29.5605 8.35625 29.5853 8.16395 29.62C5.08605 30.1773 2.67717 32.586 2.11995 35.664C2 36.3265 2 37.1212 2 38.7102V43C2 44.4002 2 45.1003 2.27248 45.635C2.51218 46.1055 2.89463 46.4878 3.36503 46.7275C3.8998 47 4.59987 47 6 47H13M29.5 12C29.5 17.5229 25.0228 22 19.5 22C13.9771 22 9.5 17.5229 9.5 12C9.5 6.47715 13.9771 2 19.5 2C25.0228 2 29.5 6.47715 29.5 12ZM23.4745 47L28.537 45.9875C28.9785 45.8992 29.1992 45.855 29.405 45.7743C29.5877 45.7028 29.7612 45.6098 29.9222 45.4975C30.1035 45.371 30.2627 45.212 30.581 44.8935L40.9745 34.5C42.3552 33.1193 42.3552 30.8807 40.9745 29.5C39.594 28.1193 37.3552 28.1193 35.9745 29.5L25.581 39.8935C25.2627 40.212 25.1035 40.371 24.977 40.5525C24.8647 40.7132 24.772 40.887 24.7003 41.0697C24.6195 41.2755 24.5755 41.4963 24.487 41.9375L23.4745 47Z" stroke="#1E1E1E" stroke-width="3" stroke-linecap="round" stroke-linejoin="round"/>
</svg>
