<svg width="48" height="49" viewBox="0 0 48 49" fill="none" xmlns="http://www.w3.org/2000/svg">
<path d="M30 20.668C30.7578 20.668 31.4502 20.2402 31.789 19.5626L35.2364 12.668H38C39.1044 12.668 40 11.7724 40 10.668C40 9.56357 39.1044 8.66797 38 8.66797H34C33.2422 8.66797 32.5498 9.09577 32.211 9.77337L28.7636 16.668H26V11.668C26 11.4698 25.9576 11.2832 25.9414 11.0888C25.9402 11.056 25.955 11.0272 25.9522 10.994C25.9456 10.9174 25.9184 10.8456 25.9092 10.7696C25.8694 10.464 25.8156 10.166 25.7376 9.87397C25.6882 9.68337 25.6288 9.49977 25.5636 9.31497C25.4824 9.08937 25.3942 8.87017 25.2912 8.65617C25.1864 8.43517 25.0708 8.22457 24.9436 8.01697C24.8402 7.84937 24.732 7.68817 24.6152 7.53037C24.4644 7.32577 24.306 7.13237 24.1332 6.94657C23.977 6.77697 23.8114 6.62057 23.6394 6.46717C23.5564 6.39497 23.4898 6.30577 23.403 6.23777C23.3284 6.17697 23.2426 6.13377 23.1656 6.07637C22.9954 5.94917 22.822 5.83057 22.6404 5.71897C22.4538 5.60437 22.2628 5.50357 22.067 5.40737C21.8834 5.31697 21.7018 5.22797 21.5096 5.15377C21.2794 5.06457 21.0432 4.99897 20.8052 4.93457C20.634 4.88857 20.4682 4.83237 20.292 4.79937C19.867 4.71757 19.4358 4.66797 19 4.66797C18.5572 4.66797 18.1254 4.71777 17.7028 4.79717C17.5698 4.82217 17.4446 4.86477 17.3144 4.89717C17.0282 4.96857 16.747 5.04877 16.475 5.15437C16.337 5.20817 16.2058 5.27097 16.0722 5.33317C15.818 5.45077 15.5728 5.58017 15.3356 5.72677C15.2142 5.80197 15.0958 5.87857 14.9794 5.96077C14.7458 6.12557 14.5268 6.30597 14.315 6.49837C14.2154 6.58857 14.1142 6.67437 14.02 6.77017C13.814 6.98017 13.6282 7.20797 13.4494 7.44377C13.3716 7.54597 13.2856 7.64017 13.2132 7.74637C13.0422 7.99997 12.898 8.27237 12.7602 8.54977C12.6166 8.83537 12.502 9.13357 12.3982 9.43977C12.34 9.61377 12.2658 9.77937 12.2208 9.95997C12.2178 9.97177 12.217 9.98257 12.2142 9.99417C12.1832 10.1196 12.165 10.248 12.1408 10.376C12.0772 10.7032 12.0368 11.026 12.021 11.344C12.0186 11.3966 12.0032 11.4454 12.002 11.498C10.6622 12.0762 9.4688 12.9492 8.4942 14.0722C6.8858 15.9132 6 18.2558 6 20.668C6 22.039 6.289 23.4034 6.8428 24.668C6.7534 24.8722 6.7152 25.0918 6.6398 25.3006C6.6158 25.3538 6.5722 25.3912 6.5528 25.4472C6.478 25.6608 6.4436 25.8812 6.384 26.0976C6.3172 26.3452 6.2394 26.5868 6.1918 26.8386C6.0744 27.4436 6 28.0538 6 28.668C6 29.2042 6.0592 29.7364 6.1458 30.2646C6.1712 30.4198 6.2052 30.5714 6.238 30.725C6.3236 31.1274 6.434 31.522 6.5686 31.9112C6.6128 32.0388 6.6492 32.1676 6.6984 32.2934C6.8806 32.7594 7.0878 33.2158 7.3388 33.6514C7.3534 33.6772 7.3742 33.6958 7.389 33.7214C7.7072 34.2626 8.071 34.78 8.4902 35.2598L8.4948 35.264L8.498 35.2686C8.9606 35.7948 9.4744 36.264 10.026 36.6764C10.1098 36.7392 10.1976 36.793 10.2832 36.8532C10.8022 37.2164 11.3488 37.5356 11.9242 37.7936C11.9516 37.8056 11.9744 37.8262 12.0018 37.838C12.0928 41.6202 15.1972 44.668 19 44.668C22.8594 44.668 26 41.5274 26 37.668V32.668H28.4384L30.0594 39.1534C30.2822 40.043 31.082 40.668 32 40.668H38C39.1044 40.668 40 39.7724 40 38.668C40 37.5636 39.1044 36.668 38 36.668H33.5616L31.9406 30.1826C31.7178 29.293 30.918 28.668 30 28.668H26V26.668H36C37.1044 26.668 38 25.7724 38 24.668C38 23.5636 37.1044 22.668 36 22.668H26V20.668H30ZM22 16.668H20C18.8956 16.668 18 17.5636 18 18.668C18 19.7724 18.8956 20.668 20 20.668H22V22.668H18C16.8956 22.668 16 23.5636 16 24.668C16 25.7724 16.8956 26.668 18 26.668H22V28.668H20C18.8956 28.668 18 29.5636 18 30.668C18 31.7724 18.8956 32.668 20 32.668H22V37.668C22 39.3222 20.6542 40.668 19 40.668C17.6938 40.668 16.5916 39.824 16.1806 38.6566C17.0174 38.6426 17.7954 38.543 18.541 38.334C19.6044 38.0352 20.2246 36.9306 19.9258 35.8672C19.627 34.8038 18.5196 34.1816 17.459 34.4824C17.0156 34.6074 16.538 34.668 16 34.668C15.1528 34.668 14.3256 34.4836 13.565 34.1424C13.5338 34.1288 13.5046 34.1112 13.4738 34.097C13.1342 33.9376 12.8092 33.7456 12.5022 33.5238C12.4676 33.4988 12.4322 33.4754 12.3982 33.4494C12.0748 33.205 11.7706 32.9298 11.4958 32.619C11.4242 32.5368 11.372 32.4428 11.3054 32.3574C11.1432 32.1542 10.9822 31.9516 10.8448 31.7134C10.808 31.6512 10.7852 31.583 10.7506 31.5196C10.5556 31.1602 10.4042 30.7896 10.2868 30.411C10.248 30.285 10.2106 30.1584 10.18 30.0298C10.0744 29.5848 10 29.133 10 28.668C10 28.225 10.0756 27.7956 10.1714 27.3708C10.207 27.22 10.241 27.0692 10.289 26.9198C10.422 26.4916 10.5812 26.069 10.8136 25.666C11.169 25.0488 11.169 24.287 10.8136 23.67C10.2734 22.7334 10 21.7236 10 20.668C10 19.2236 10.5352 17.8154 11.5098 16.6992C11.9684 16.1716 12.5124 15.749 13.1092 15.4204C13.7054 16.3576 14.5132 17.1628 15.5038 17.7344C15.8194 17.916 16.163 18.002 16.502 18.002C17.1934 18.002 17.8662 17.6436 18.2364 17.002C18.788 16.045 18.46 14.8214 17.504 14.2696C16.7996 13.8634 16.3016 13.1898 16.1008 12.4218C16.0988 12.4144 16.1014 12.4068 16.0996 12.3994C16.0312 12.13 16 11.8974 16 11.668C16 11.4404 16.0318 11.2092 16.0998 10.9396C16.101 10.9348 16.103 10.9302 16.1044 10.9254C16.2644 10.293 16.6254 9.76017 17.0998 9.36617C17.1386 9.33377 17.176 9.29997 17.2164 9.26977C17.4418 9.10137 17.6906 8.96537 17.9568 8.86577C18.0062 8.84717 18.058 8.83437 18.1088 8.81837C18.393 8.72917 18.6894 8.66797 19 8.66797C19.321 8.66797 19.6374 8.73017 19.9426 8.83437C19.9704 8.84357 19.999 8.85057 20.0264 8.86057C20.3248 8.97237 20.6096 9.13457 20.8724 9.34317C20.9046 9.36917 20.9368 9.39477 20.9678 9.42197C21.0538 9.49357 21.131 9.57237 21.2066 9.65257C21.2854 9.73897 21.3612 9.82777 21.4296 9.92277C21.4642 9.97017 21.4968 10.0188 21.5282 10.0682C21.5964 10.1754 21.6562 10.288 21.7106 10.4038C21.7448 10.479 21.7772 10.555 21.8048 10.6336C21.8338 10.7114 21.8568 10.7916 21.8792 10.8724C21.9176 11.0226 21.9518 11.175 21.9662 11.3338C21.9788 11.4448 22 11.5534 22 11.668V16.668Z" fill="#2A2A2A"/>
</svg>
