<svg width="48" height="48" viewBox="0 0 48 48" fill="none" xmlns="http://www.w3.org/2000/svg">
<path d="M40.8242 12.9393L24.8242 5.70293L24.8156 5.70113C24.5656 5.58873 24.2924 5.51953 24 5.51953C23.7076 5.51953 23.4346 5.58853 23.1846 5.70113L23.1758 5.70313L7.1758 12.9395C6.461 13.2635 6 13.9765 6 14.7617V33.2383C6 34.0429 6.4804 34.7675 7.2208 35.0801L7.3576 35.1379C7.3718 35.1435 7.3844 35.1503 7.3988 35.1553L23.221 41.8419C23.4708 41.9471 23.7344 41.9999 24 41.9999C24.2656 41.9999 24.5292 41.9471 24.7792 41.8417L40.7792 35.0799C40.8162 35.0643 40.8442 35.0363 40.88 35.0187C40.9416 34.9847 41.0006 34.9503 41.0586 34.9099C41.6302 34.5475 42 33.9311 42 33.2381V14.7617C42 13.9765 41.539 13.2635 40.8242 12.9393ZM10 16.0527L22 10.6253V24.7157L10 30.2027V16.0527ZM24 37.8281L13.0554 33.2033L24 28.1991L34.9446 33.2031L24 37.8281ZM38 30.2025L26 24.7155V10.6251L38 16.0525V30.2025Z" fill="#2A2A2A"/>
</svg>
