<svg width="48" height="49" viewBox="0 0 48 49" fill="none" xmlns="http://www.w3.org/2000/svg">
<path d="M12 12.332C12 11.2712 12.4214 10.2537 13.1716 9.5036C13.9217 8.75346 14.9391 8.33203 16 8.33203C16.5304 8.33203 17.0391 8.12132 17.4142 7.74624C17.7893 7.37117 18 6.86246 18 6.33203C18 5.8016 17.7893 5.29289 17.4142 4.91782C17.0391 4.54274 16.5304 4.33203 16 4.33203C13.8783 4.33203 11.8434 5.17489 10.3431 6.67518C8.84285 8.17547 8 10.2103 8 12.332V18.332C8 19.3929 7.57857 20.4103 6.82843 21.1605C6.07828 21.9106 5.06087 22.332 4 22.332C3.46957 22.332 2.96086 22.5427 2.58579 22.9178C2.21071 23.2929 2 23.8016 2 24.332C2 24.8625 2.21071 25.3712 2.58579 25.7462C2.96086 26.1213 3.46957 26.332 4 26.332C5.06087 26.332 6.07828 26.7535 6.82843 27.5036C7.57857 28.2537 8 29.2712 8 30.332V36.332C8 38.4538 8.84285 40.4886 10.3431 41.9889C11.8434 43.4892 13.8783 44.332 16 44.332C16.5304 44.332 17.0391 44.1213 17.4142 43.7462C17.7893 43.3712 18 42.8625 18 42.332C18 41.8016 17.7893 41.2929 17.4142 40.9178C17.0391 40.5427 16.5304 40.332 16 40.332C14.9391 40.332 13.9217 39.9106 13.1716 39.1605C12.4214 38.4103 12 37.3929 12 36.332V30.332C11.9936 29.1931 11.744 28.0687 11.2681 27.0339C10.7921 25.9992 10.1006 25.078 9.24 24.332C10.1006 23.586 10.7921 22.6649 11.2681 21.6301C11.744 20.5954 11.9936 19.471 12 18.332V12.332ZM44 22.332C42.9391 22.332 41.9217 21.9106 41.1716 21.1605C40.4214 20.4103 40 19.3929 40 18.332V12.332C40 10.2103 39.1571 8.17547 37.6569 6.67518C36.1566 5.17489 34.1217 4.33203 32 4.33203C31.4696 4.33203 30.9609 4.54274 30.5858 4.91782C30.2107 5.29289 30 5.8016 30 6.33203C30 6.86246 30.2107 7.37117 30.5858 7.74624C30.9609 8.12132 31.4696 8.33203 32 8.33203C33.0609 8.33203 34.0783 8.75346 34.8284 9.5036C35.5786 10.2537 36 11.2712 36 12.332V18.332C36.0064 19.471 36.256 20.5954 36.7319 21.6301C37.2079 22.6649 37.8994 23.586 38.76 24.332C37.8994 25.078 37.2079 25.9992 36.7319 27.0339C36.256 28.0687 36.0064 29.1931 36 30.332V36.332C36 37.3929 35.5786 38.4103 34.8284 39.1605C34.0783 39.9106 33.0609 40.332 32 40.332C31.4696 40.332 30.9609 40.5427 30.5858 40.9178C30.2107 41.2929 30 41.8016 30 42.332C30 42.8625 30.2107 43.3712 30.5858 43.7462C30.9609 44.1213 31.4696 44.332 32 44.332C34.1217 44.332 36.1566 43.4892 37.6569 41.9889C39.1571 40.4886 40 38.4538 40 36.332V30.332C40 29.2712 40.4214 28.2537 41.1716 27.5036C41.9217 26.7535 42.9391 26.332 44 26.332C44.5304 26.332 45.0391 26.1213 45.4142 25.7462C45.7893 25.3712 46 24.8625 46 24.332C46 23.8016 45.7893 23.2929 45.4142 22.9178C45.0391 22.5427 44.5304 22.332 44 22.332Z" fill="#2A2A2A"/>
</svg>
