<svg width="48" height="49" viewBox="0 0 48 49" fill="none" xmlns="http://www.w3.org/2000/svg">
<path d="M15.8831 39.152C15.8231 39.152 15.7556 39.1445 15.6881 39.1295C15.2981 39.0245 15.0731 38.627 15.1781 38.237L15.9056 35.5745C16.0106 35.1845 16.4156 34.9595 16.7981 35.0645C17.1881 35.1695 17.4131 35.567 17.3081 35.957L16.5806 38.6195C16.4981 38.942 16.2056 39.152 15.8831 39.152ZM24.8606 39.152C24.5381 39.152 24.2456 38.942 24.1631 38.612L23.4356 35.9495C23.3306 35.5595 23.5556 35.162 23.9456 35.057C24.3356 34.952 24.7331 35.177 24.8381 35.567L25.5656 38.2295C25.6706 38.6195 25.4456 39.017 25.0556 39.122C24.9881 39.1445 24.9281 39.152 24.8606 39.152Z" fill="#2A2A2A"/>
<path d="M38.265 36.4883H33.375C32.97 36.4883 32.6475 36.1658 32.6475 35.7608C32.6475 35.3558 32.97 35.0333 33.375 35.0333H38.265C38.835 35.0333 39.3 34.5683 39.3 33.9983V33.0758C39.3 32.6708 39.6225 32.3483 40.0275 32.3483C40.4325 32.3483 40.755 32.6708 40.755 33.0758V33.9983C40.755 35.3708 39.6375 36.4883 38.265 36.4883ZM28.4325 36.4883H2.4825C1.1175 36.4883 0 35.3708 0 33.9983V9.35328C0 7.98078 1.1175 6.86328 2.4825 6.86328H38.265C39.6375 6.86328 40.755 7.98078 40.755 9.35328V27.3833C40.755 27.7883 40.4325 28.1108 40.0275 28.1108C39.6225 28.1108 39.3 27.7883 39.3 27.3833V9.35328C39.3 8.78328 38.835 8.31828 38.265 8.31828H2.4825C1.9125 8.31828 1.455 8.78328 1.455 9.35328V33.9908C1.455 34.5608 1.92 35.0258 2.4825 35.0258H28.425C28.83 35.0258 29.1525 35.3483 29.1525 35.7533C29.16 36.1658 28.83 36.4883 28.4325 36.4883ZM28.95 30.5483H3.0975C2.6925 30.5483 2.37 30.2258 2.37 29.8208V9.81078C2.37 9.40578 2.6925 9.08328 3.0975 9.08328H37.6575C38.0625 9.08328 38.385 9.40578 38.385 9.81078V27.4883C38.385 27.8933 38.0625 28.2158 37.6575 28.2158C37.2525 28.2158 36.93 27.8933 36.93 27.4883V10.5383H3.825V29.0933H28.95C29.355 29.0933 29.6775 29.4158 29.6775 29.8208C29.6775 30.2258 29.355 30.5483 28.95 30.5483ZM27.51 41.7983H13.2375C12.8325 41.7983 12.51 41.4758 12.51 41.0708V39.9158C12.51 38.6933 13.5075 37.6958 14.73 37.6958H26.0175C27.24 37.6958 28.2375 38.6933 28.2375 39.9158V41.0708C28.2375 41.4758 27.915 41.7983 27.51 41.7983ZM13.965 40.3433H26.7825V39.9158C26.7825 39.4958 26.4375 39.1508 26.0175 39.1508H14.73C14.31 39.1508 13.965 39.4958 13.965 39.9158V40.3433Z" fill="#2A2A2A"/>
<path d="M20.3763 34.6002C19.3563 34.6002 18.5312 33.7752 18.5312 32.7552C18.5312 31.7352 19.3563 30.9102 20.3763 30.9102C21.3963 30.9102 22.2213 31.7352 22.2213 32.7552C22.2213 33.7677 21.3888 34.6002 20.3763 34.6002ZM20.3763 32.3652C20.1588 32.3652 19.9863 32.5377 19.9863 32.7552C19.9863 32.9727 20.1588 33.1452 20.3763 33.1452C20.5938 33.1452 20.7663 32.9727 20.7663 32.7552C20.7663 32.5377 20.5938 32.3652 20.3763 32.3652Z" fill="#2A2A2A"/>
<path d="M16.0728 24.1086C15.9453 24.1086 15.8178 24.0786 15.6978 24.0036L9.73531 20.4261C9.51781 20.2911 9.38281 20.0586 9.38281 19.8036C9.38281 19.5486 9.51781 19.3086 9.73531 19.1811L15.6978 15.6411C16.0428 15.4386 16.4928 15.5511 16.6953 15.8961C16.8978 16.2411 16.7853 16.6911 16.4403 16.8936L11.5278 19.8111L16.4403 22.7661C16.7853 22.9761 16.8978 23.4186 16.6878 23.7636C16.5603 23.9811 16.3203 24.1086 16.0728 24.1086ZM24.6753 24.1086C24.4278 24.1086 24.1878 23.9811 24.0528 23.7561C23.8428 23.4111 23.9553 22.9686 24.3003 22.7586L29.2128 19.8036L24.3003 16.8861C23.9553 16.6836 23.8428 16.2336 24.0453 15.8886C24.2478 15.5436 24.6978 15.4311 25.0428 15.6336L31.0053 19.1736C31.2228 19.3011 31.3578 19.5411 31.3578 19.7961C31.3578 20.0511 31.2228 20.2911 31.0053 20.4186L25.0428 23.9961C24.9378 24.0786 24.8028 24.1086 24.6753 24.1086ZM18.6003 25.1886C18.5103 25.1886 18.4278 25.1736 18.3378 25.1436C17.9628 25.0011 17.7753 24.5811 17.9178 24.2061L21.4653 14.9286C21.6078 14.5536 22.0278 14.3661 22.4028 14.5086C22.7778 14.6511 22.9653 15.0711 22.8228 15.4461L19.2753 24.7236C19.1703 25.0086 18.8928 25.1886 18.6003 25.1886Z" fill="#2A2A2A"/>
<path d="M30.5644 38.3188C29.7844 38.3188 29.0719 38.0338 28.4869 37.4713C28.3894 37.3888 27.3694 36.4138 27.6619 33.9838L27.7444 33.3313C27.7969 32.9263 27.8419 32.5288 27.8869 32.1238C27.9319 31.7413 27.9994 31.3063 28.0669 30.8638C28.1194 30.5038 28.1794 30.1513 28.2169 29.8363C28.3819 28.4488 29.0194 27.1888 30.0019 26.3038C31.0594 25.3438 33.2269 24.1663 36.0019 26.7688H39.6244C42.3994 24.1663 44.5669 25.3438 45.6244 26.3038C46.6069 27.1963 47.2444 28.4488 47.4094 29.8363C47.4469 30.1513 47.4994 30.5038 47.5594 30.8563C47.6269 31.2913 47.6944 31.7263 47.7394 32.1088C47.7619 32.3413 47.7994 32.5813 47.8294 32.8138C47.8819 33.2188 47.9344 33.6163 47.9719 34.0213C48.1594 36.3613 47.2669 37.3513 47.1694 37.4563C46.4419 38.1538 45.5419 38.4313 44.5669 38.2888C43.6744 38.1538 42.8569 37.6738 42.2569 36.9313L39.7294 33.8038H35.8969L33.3769 36.9313C32.7769 37.6738 31.9594 38.1538 31.0669 38.2888C30.8944 38.3113 30.7294 38.3188 30.5644 38.3188ZM32.6569 26.6488C32.0719 26.6488 31.5169 26.8888 30.9769 27.3763C30.2494 28.0288 29.7844 28.9663 29.6569 30.0088C29.6194 30.3388 29.5594 30.7138 29.4994 31.0888C29.4319 31.5013 29.3719 31.9213 29.3269 32.2813C29.2819 32.6938 29.2294 33.0988 29.1769 33.5113L29.0944 34.1638C28.8994 35.8063 29.4694 36.4138 29.4769 36.4213C29.8594 36.7888 30.3094 36.9238 30.8419 36.8413C31.3744 36.7663 31.8694 36.4663 32.2369 36.0088L34.9819 32.6113C35.1169 32.4388 35.3269 32.3413 35.5444 32.3413H40.0669C40.2844 32.3413 40.4944 32.4388 40.6294 32.6113L43.3744 36.0088C43.7419 36.4663 44.2369 36.7588 44.7694 36.8413C45.3094 36.9238 45.7519 36.7813 46.1269 36.4213C46.1194 36.4213 46.6369 35.7613 46.5094 34.1338C46.4794 33.7588 46.4269 33.3838 46.3819 33.0088C46.3519 32.7613 46.3144 32.5138 46.2844 32.2663C46.2469 31.8988 46.1794 31.4938 46.1194 31.0813C46.0594 30.7138 46.0069 30.3388 45.9619 30.0088C45.8344 28.9663 45.3694 28.0288 44.6419 27.3763C43.3744 26.2288 41.9869 26.4313 40.4194 27.9988C40.2844 28.1338 40.0969 28.2088 39.9019 28.2088H35.6944C35.4994 28.2088 35.3194 28.1338 35.1769 27.9988C34.2994 27.0988 33.4519 26.6488 32.6569 26.6488Z" fill="#2A2A2A"/>
<path d="M42.8659 33.075C41.3959 33.075 40.2034 31.8825 40.2034 30.4125C40.2034 28.9425 41.3959 27.75 42.8659 27.75C44.3359 27.75 45.5284 28.9425 45.5284 30.4125C45.5209 31.8825 44.3284 33.075 42.8659 33.075ZM42.8659 29.205C42.1984 29.205 41.6584 29.745 41.6584 30.4125C41.6584 31.08 42.1984 31.62 42.8659 31.62C43.5334 31.62 44.0734 31.08 44.0734 30.4125C44.0659 29.745 43.5259 29.205 42.8659 29.205ZM32.7484 33.075C31.2784 33.075 30.0859 31.8825 30.0859 30.4125C30.0859 28.9425 31.2784 27.75 32.7484 27.75C34.2184 27.75 35.4109 28.9425 35.4109 30.4125C35.4034 31.8825 34.2109 33.075 32.7484 33.075ZM32.7484 29.205C32.0809 29.205 31.5409 29.745 31.5409 30.4125C31.5409 31.08 32.0809 31.62 32.7484 31.62C33.4159 31.62 33.9559 31.08 33.9559 30.4125C33.9559 29.745 33.4084 29.205 32.7484 29.205Z" fill="#2A2A2A"/>
</svg>
