<svg width="31" height="32" viewBox="0 0 31 32" fill="none" xmlns="http://www.w3.org/2000/svg">
<path d="M25 5.83464H18.3333C17.8333 5.83464 17.5 5.5013 17.5 5.0013C17.5 4.5013 17.8333 4.16797 18.3333 4.16797H25C25.5 4.16797 25.8333 4.5013 25.8333 5.0013C25.8333 5.5013 25.5 5.83464 25 5.83464ZM25 10.0013H20C19.5 10.0013 19.1667 9.66797 19.1667 9.16797C19.1667 8.66797 19.5 8.33464 20 8.33464H25C25.5 8.33464 25.8333 8.66797 25.8333 9.16797C25.8333 9.66797 25.5 10.0013 25 10.0013ZM25 14.168H21.6667C21.1667 14.168 20.8333 13.8346 20.8333 13.3346C20.8333 12.8346 21.1667 12.5013 21.6667 12.5013H25C25.5 12.5013 25.8333 12.8346 25.8333 13.3346C25.8333 13.8346 25.5 14.168 25 14.168Z" fill="#2A2A2A"/>
<path d="M28.3333 24.5L22.0833 18.3333H20.9167C20.4167 18.3333 20.0833 18 20.0833 17.5C20.0833 17 20.4167 16.6667 20.9167 16.6667H22.75L26.6667 20.5V16.6667H28.3333C28.8333 16.6667 29.1667 16.3333 29.1667 15.8333V2.5C29.1667 2 28.8333 1.66667 28.3333 1.66667H15C14.5 1.66667 14.1667 2 14.1667 2.5V5C14.1667 5.5 13.8333 5.83333 13.3333 5.83333C12.8333 5.83333 12.5 5.5 12.5 5V2.5C12.5 1.08333 13.5833 0 15 0H28.3333C29.75 0 30.8333 1.08333 30.8333 2.5V15.8333C30.8333 17.25 29.75 18.3333 28.3333 18.3333V24.5Z" fill="#2A2A2A"/>
<path d="M2.5 32V25.8333C1.08333 25.8333 0 24.75 0 23.3333V22.5C0 22 0.333333 21.6667 0.833333 21.6667C1.33333 21.6667 1.66667 22 1.66667 22.5V23.3333C1.66667 23.8333 2 24.1667 2.5 24.1667H4.16667V28L8.08333 24.1667H15.8333C16.3333 24.1667 16.6667 23.8333 16.6667 23.3333V10C16.6667 9.5 16.3333 9.16667 15.8333 9.16667H2.5C2 9.16667 1.66667 9.5 1.66667 10V19.1667C1.66667 19.6667 1.33333 20 0.833333 20C0.333333 20 0 19.6667 0 19.1667V10C0 8.58333 1.08333 7.5 2.5 7.5H15.8333C17.25 7.5 18.3333 8.58333 18.3333 10V23.3333C18.3333 24.75 17.25 25.8333 15.8333 25.8333H8.75L2.5 32Z" fill="#2A2A2A"/>
<path d="M12.5 13.3346H5.83333C5.33333 13.3346 5 13.0013 5 12.5013C5 12.0013 5.33333 11.668 5.83333 11.668H12.5C13 11.668 13.3333 12.0013 13.3333 12.5013C13.3333 13.0013 13 13.3346 12.5 13.3346ZM10.8333 17.5013H5.83333C5.33333 17.5013 5 17.168 5 16.668C5 16.168 5.33333 15.8346 5.83333 15.8346H10.8333C11.3333 15.8346 11.6667 16.168 11.6667 16.668C11.6667 17.168 11.3333 17.5013 10.8333 17.5013ZM9.16667 21.668H5.83333C5.33333 21.668 5 21.3346 5 20.8346C5 20.3346 5.33333 20.0013 5.83333 20.0013H9.16667C9.66667 20.0013 10 20.3346 10 20.8346C10 21.3346 9.66667 21.668 9.16667 21.668Z" fill="#2A2A2A"/>
</svg>
