<svg width="48" height="48" viewBox="0 0 48 48" fill="none" xmlns="http://www.w3.org/2000/svg">
<path d="M31.5 42.7105H16.5C15.3065 42.7105 14.1619 42.2364 13.318 41.3924C12.4741 40.5485 12 39.4039 12 38.2105V9.79297C12 8.59949 12.4741 7.4549 13.318 6.61099C14.1619 5.76707 15.3065 5.29297 16.5 5.29297H31.5C32.6935 5.29297 33.8381 5.76707 34.682 6.61099C35.5259 7.4549 36 8.59949 36 9.79297V38.2105C36 39.4039 35.5259 40.5485 34.682 41.3924C33.8381 42.2364 32.6935 42.7105 31.5 42.7105ZM16.5 6.79297C15.7044 6.79297 14.9413 7.10904 14.3787 7.67165C13.8161 8.23426 13.5 8.99732 13.5 9.79297V38.2105C13.5 39.0061 13.8161 39.7692 14.3787 40.3318C14.9413 40.8944 15.7044 41.2105 16.5 41.2105H31.5C32.2956 41.2105 33.0587 40.8944 33.6213 40.3318C34.1839 39.7692 34.5 39.0061 34.5 38.2105V9.79297C34.5 8.99732 34.1839 8.23426 33.6213 7.67165C33.0587 7.10904 32.2956 6.79297 31.5 6.79297H16.5Z" fill="#2A2A2A"/>
<path d="M29.625 31.5273H17.3438C17.1448 31.5273 16.9541 31.4483 16.8134 31.3077C16.6728 31.167 16.5938 30.9763 16.5938 30.7773C16.5938 30.5784 16.6728 30.3877 16.8134 30.247C16.9541 30.1064 17.1448 30.0273 17.3438 30.0273H29.625C29.8239 30.0273 30.0147 30.1064 30.1553 30.247C30.296 30.3877 30.375 30.5784 30.375 30.7773C30.375 30.9763 30.296 31.167 30.1553 31.3077C30.0147 31.4483 29.8239 31.5273 29.625 31.5273ZM25.5413 36.1098H17.8275C17.6286 36.1098 17.4378 36.0308 17.2972 35.8902C17.1565 35.7495 17.0775 35.5588 17.0775 35.3598C17.0775 35.1609 17.1565 34.9702 17.2972 34.8295C17.4378 34.6889 17.6286 34.6098 17.8275 34.6098H25.5413C25.7402 34.6098 25.9309 34.6889 26.0716 34.8295C26.2122 34.9702 26.2913 35.1609 26.2913 35.3598C26.2913 35.5588 26.2122 35.7495 26.0716 35.8902C25.9309 36.0308 25.7402 36.1098 25.5413 36.1098ZM25.5413 26.3598H17.8275C17.6286 26.3598 17.4378 26.2808 17.2972 26.1402C17.1565 25.9995 17.0775 25.8088 17.0775 25.6098C17.0775 25.4109 17.1565 25.2202 17.2972 25.0795C17.4378 24.9389 17.6286 24.8598 17.8275 24.8598H25.5413C25.7402 24.8598 25.9309 24.9389 26.0716 25.0795C26.2122 25.2202 26.2913 25.4109 26.2913 25.6098C26.2913 25.8088 26.2122 25.9995 26.0716 26.1402C25.9309 26.2808 25.7402 26.3598 25.5413 26.3598ZM29.115 18.1473C28.9161 18.1473 28.7253 18.0683 28.5847 17.9277C28.444 17.787 28.365 17.5963 28.365 17.3973C28.365 17.1984 28.444 17.0077 28.5847 16.867C28.7253 16.7264 28.9161 16.6473 29.115 16.6473C29.4134 16.6473 29.6995 16.5288 29.9105 16.3178C30.1215 16.1069 30.24 15.8207 30.24 15.5223V12.4023C30.24 12.104 30.1215 11.8178 29.9105 11.6068C29.6995 11.3959 29.4134 11.2773 29.115 11.2773H25.995C25.6966 11.2773 25.4105 11.3959 25.1995 11.6068C24.9885 11.8178 24.87 12.104 24.87 12.4023C24.87 12.6013 24.791 12.792 24.6503 12.9327C24.5097 13.0733 24.3189 13.1523 24.12 13.1523C23.9211 13.1523 23.7303 13.0733 23.5897 12.9327C23.449 12.792 23.37 12.6013 23.37 12.4023C23.37 11.7062 23.6466 11.0385 24.1388 10.5462C24.6311 10.0539 25.2988 9.77734 25.995 9.77734H29.115C29.8112 9.77734 30.4789 10.0539 30.9712 10.5462C31.4634 11.0385 31.74 11.7062 31.74 12.4023V15.5223C31.74 16.2185 31.4634 16.8862 30.9712 17.3785C30.4789 17.8708 29.8112 18.1473 29.115 18.1473Z" fill="#2A2A2A"/>
</svg>
