<svg width="15" height="20" viewBox="0 0 15 20" fill="none" xmlns="http://www.w3.org/2000/svg">
<g clip-path="url(#clip0_1502_4854)">
<path d="M15 7.5C15 12.955 8.65391 19.3638 8.38406 19.6339C8.1496 19.8683 7.83166 19.9999 7.50016 19.9999C7.16865 19.9999 6.85071 19.8683 6.61625 19.6339C6.34609 19.3636 0 12.955 0 7.5C0 5.51088 0.790176 3.60322 2.1967 2.1967C3.60322 0.790176 5.51088 0 7.5 0C9.48912 0 11.3968 0.790176 12.8033 2.1967C14.2098 3.60322 15 5.51088 15 7.5ZM7.5 11.25C8.24168 11.25 8.9667 11.0301 9.58339 10.618C10.2001 10.206 10.6807 9.62029 10.9645 8.93506C11.2484 8.24984 11.3226 7.49584 11.1779 6.76841C11.0333 6.04098 10.6761 5.3728 10.1517 4.84835C9.6272 4.3239 8.95902 3.96675 8.23159 3.82206C7.50416 3.67736 6.75016 3.75162 6.06494 4.03545C5.37971 4.31928 4.79404 4.79993 4.38199 5.41661C3.96993 6.0333 3.75 6.75832 3.75 7.5C3.74998 7.99246 3.84696 8.48011 4.03541 8.93509C4.22386 9.39007 4.50008 9.80347 4.8483 10.1517C5.19653 10.4999 5.60993 10.7761 6.06491 10.9646C6.51989 11.153 7.00754 11.25 7.5 11.25Z" fill="black"/>
</g>
<defs>
<clipPath id="clip0_1502_4854">
<rect width="15" height="20" fill="white"/>
</clipPath>
</defs>
</svg>
