<svg width="32" height="32" viewBox="0 0 32 32" fill="none" xmlns="http://www.w3.org/2000/svg">
<g clip-path="url(#clip0_1452_4140)">
<path d="M26.3125 17.875H23.1084C22.8302 16.7979 21.8503 16 20.6875 16C19.5247 16 18.5448 16.7979 18.2666 17.875H14.125V13.1875C14.125 12.8424 13.8451 12.5625 13.5 12.5625C12.8108 12.5625 12.25 12.0017 12.25 11.3125C12.25 10.6233 12.8108 10.0625 13.5 10.0625C13.8451 10.0625 14.125 9.78263 14.125 9.4375V5.6875C14.125 5.34237 13.8451 5.0625 13.5 5.0625H1.9375C0.903625 5.0625 0.0625 5.90363 0.0625 6.9375C0.0625 7.58956 0.0625 29.4104 0.0625 30.0625C0.0625 31.0964 0.903625 31.9375 1.9375 31.9375C2.58956 31.9375 24.4104 31.9375 25.0625 31.9375C26.0964 31.9375 26.9375 31.0964 26.9375 30.0625V18.5C26.9375 18.1549 26.6576 17.875 26.3125 17.875ZM1.3125 6.9375C1.3125 6.59288 1.59288 6.3125 1.9375 6.3125H12.875V8.89163C11.7979 9.16981 11 10.1497 11 11.3125C11 12.4753 11.7979 13.4552 12.875 13.7334V17.875H8.1875C7.84237 17.875 7.5625 18.1549 7.5625 18.5C7.5625 19.1893 7.00175 19.75 6.3125 19.75C5.62325 19.75 5.0625 19.1893 5.0625 18.5C5.0625 18.1549 4.78263 17.875 4.4375 17.875H1.3125V6.9375ZM12.875 27.5625V30.6875H1.9375C1.59288 30.6875 1.3125 30.4071 1.3125 30.0625V19.125H3.89162C4.16981 20.2021 5.14975 21 6.3125 21C7.47525 21 8.45519 20.2021 8.73337 19.125H12.875V23.8125C12.875 24.1576 13.1549 24.4375 13.5 24.4375C14.1892 24.4375 14.75 24.9982 14.75 25.6875C14.75 26.3768 14.1892 26.9375 13.5 26.9375C13.1549 26.9375 12.875 27.2174 12.875 27.5625ZM25.6875 30.0625C25.6875 30.4071 25.4071 30.6875 25.0625 30.6875H14.125V28.1084C15.2021 27.8302 16 26.8503 16 25.6875C16 24.5247 15.2021 23.5448 14.125 23.2666V19.125H18.8125C19.1576 19.125 19.4375 18.8451 19.4375 18.5C19.4375 17.8107 19.9982 17.25 20.6875 17.25C21.3768 17.25 21.9375 17.8107 21.9375 18.5C21.9375 18.8451 22.2174 19.125 22.5625 19.125H25.6875V30.0625ZM30.0625 0.0625H18.5C18.1549 0.0625 17.875 0.342375 17.875 0.6875V3.89162C16.7979 4.16981 16 5.14975 16 6.3125C16 7.47525 16.7979 8.45519 17.875 8.73337V13.5C17.875 13.8451 18.1549 14.125 18.5 14.125H23.8125C24.1576 14.125 24.4375 13.8451 24.4375 13.5C24.4375 12.8108 24.9982 12.25 25.6875 12.25C26.3768 12.25 26.9375 12.8108 26.9375 13.5C26.9375 13.8451 27.2174 14.125 27.5625 14.125H31.3125C31.6576 14.125 31.9375 13.8451 31.9375 13.5V1.9375C31.9375 0.903625 31.0964 0.0625 30.0625 0.0625ZM30.6875 12.875H28.1084C27.8302 11.7979 26.8503 11 25.6875 11C24.5247 11 23.5448 11.7979 23.2666 12.875H19.125V8.1875C19.125 7.84237 18.8451 7.5625 18.5 7.5625C17.8107 7.5625 17.25 7.00175 17.25 6.3125C17.25 5.62325 17.8107 5.0625 18.5 5.0625C18.8451 5.0625 19.125 4.78263 19.125 4.4375V1.3125H30.0625C30.4071 1.3125 30.6875 1.59288 30.6875 1.9375V12.875Z" fill="#2A2A2A"/>
</g>
<defs>
<clipPath id="clip0_1452_4140">
<rect width="32" height="32" fill="white"/>
</clipPath>
</defs>
</svg>
