<svg width="32" height="32" viewBox="0 0 32 32" fill="none" xmlns="http://www.w3.org/2000/svg">
<path d="M32 15.9988C32 23.4771 25.9478 29.564 18.5043 29.564C15.7565 29.564 13.113 28.7292 10.8522 27.1988C10.2261 26.7466 10.0522 25.9119 10.5043 25.251C10.9565 24.6249 11.7913 24.451 12.4522 24.9032C14.2261 26.1205 16.3478 26.7814 18.5043 26.7814C24.4174 26.7814 29.2174 21.9466 29.2174 15.9988C29.2174 10.051 24.4174 5.2162 18.5043 5.2162C12.7304 5.2162 8 9.84229 7.7913 15.6162L11.0261 12.3466C11.5826 11.7901 12.4522 11.7901 13.0087 12.3466C13.5652 12.9032 13.5652 13.7727 13.0087 14.3292L7.68696 19.651C7.4087 19.9292 7.06087 20.0684 6.71304 20.0684C6.33043 20.0684 5.98261 19.9292 5.73913 19.651L0.417391 14.2945C-0.13913 13.7379 -0.13913 12.8684 0.417391 12.3119C0.973913 11.7553 1.84348 11.7553 2.4 12.3119L5.04348 14.9901C5.53044 7.99881 11.3739 2.43359 18.5043 2.43359C25.9478 2.43359 32 8.52055 32 15.9988ZM18.4348 8.10316C17.6696 8.10316 17.0435 8.72925 17.0435 9.49446V15.9988C17.0435 16.3814 17.2174 16.7292 17.4957 16.9727L20.487 19.964C20.7652 20.2423 21.113 20.3814 21.4957 20.3814C21.8435 20.3814 22.2261 20.2423 22.4696 19.964C23.0261 19.4075 22.9913 18.5379 22.4348 17.9814L19.8261 15.4075V9.49446C19.8261 8.72925 19.2 8.10316 18.4348 8.10316Z" fill="#2A2A2A"/>
</svg>
