<svg width="48" height="48" viewBox="0 0 48 48" fill="none" xmlns="http://www.w3.org/2000/svg">
<path d="M44.161 35.0675H43.891C44.4098 34.4086 44.6947 33.596 44.701 32.7575V11.1275C44.701 10.117 44.2996 9.14792 43.5851 8.43341C42.8706 7.71889 41.9015 7.31748 40.891 7.31748H7.12603C6.11556 7.31748 5.14647 7.71889 4.43195 8.43341C3.71744 9.14792 3.31603 10.117 3.31603 11.1275V32.7425C3.32233 33.581 3.60728 34.3936 4.12603 35.0525H3.84103C3.13059 35.1044 2.46612 35.4233 1.98113 35.945C1.49614 36.4667 1.22656 37.1527 1.22656 37.865C1.22656 38.5773 1.49614 39.2633 1.98113 39.785C2.46612 40.3067 3.13059 40.6256 3.84103 40.6775H44.161C44.8715 40.6256 45.5359 40.3067 46.0209 39.785C46.5059 39.2633 46.7755 38.5773 46.7755 37.865C46.7755 37.1527 46.5059 36.4667 46.0209 35.945C45.5359 35.4233 44.8715 35.1044 44.161 35.0525V35.0675ZM4.81603 32.7425V11.1275C4.81603 10.5148 5.0594 9.92727 5.49261 9.49407C5.92582 9.06086 6.51338 8.81748 7.12603 8.81748H40.876C41.4887 8.81748 42.0762 9.06086 42.5094 9.49407C42.9427 9.92727 43.186 10.5148 43.186 11.1275V32.7425C43.186 33.3551 42.9427 33.9427 42.5094 34.3759C42.0762 34.8091 41.4887 35.0525 40.876 35.0525H7.12603C6.51338 35.0525 5.92582 34.8091 5.49261 34.3759C5.0594 33.9427 4.81603 33.3551 4.81603 32.7425ZM44.161 39.1775H3.84103C3.66834 39.1736 3.49814 39.1355 3.34029 39.0654C3.18244 38.9952 3.04009 38.8944 2.92149 38.7689C2.80289 38.6433 2.7104 38.4954 2.64938 38.3338C2.58836 38.1722 2.56003 38.0001 2.56603 37.8275C2.56993 37.4905 2.70551 37.1685 2.94378 36.9302C3.18205 36.692 3.50409 36.5564 3.84103 36.5525H44.161C44.3337 36.5564 44.5039 36.5945 44.6618 36.6646C44.8196 36.7347 44.962 36.8355 45.0806 36.9611C45.1992 37.0867 45.2917 37.2346 45.3527 37.3962C45.4137 37.5578 45.442 37.7299 45.436 37.9025C45.4361 38.242 45.3022 38.5679 45.0635 38.8094C44.8248 39.0509 44.5006 39.1885 44.161 39.1925V39.1775Z" fill="#2A2A2A"/>
<path d="M24 15C22.5166 15 21.0666 15.4399 19.8332 16.264C18.5999 17.0881 17.6386 18.2594 17.0709 19.6299C16.5032 21.0003 16.3547 22.5083 16.6441 23.9632C16.9335 25.418 17.6478 26.7544 18.6967 27.8033C19.7456 28.8522 21.082 29.5665 22.5368 29.8559C23.9917 30.1453 25.4997 29.9968 26.8701 29.4291C28.2406 28.8614 29.4119 27.9001 30.236 26.6668C31.0601 25.4334 31.5 23.9834 31.5 22.5C31.5 20.5109 30.7098 18.6032 29.3033 17.1967C27.8968 15.7902 25.9891 15 24 15ZM29.85 21.675H28.185C28.1298 20.1964 27.7671 18.7456 27.12 17.415C27.8711 17.8864 28.5065 18.5209 28.9791 19.2713C29.4517 20.0217 29.7494 20.8689 29.85 21.75V21.675ZM23.25 16.785V21.75H21.3C21.2739 20.845 21.4335 19.9442 21.7688 19.1032C22.1042 18.2621 22.6083 17.4987 23.25 16.86V16.785ZM23.25 23.175V28.065C22.6083 27.4263 22.1042 26.6629 21.7688 25.8218C21.4335 24.9808 21.2739 24.08 21.3 23.175H23.25ZM24.75 28.065V23.25H26.7C26.7261 24.155 26.5665 25.0558 26.2312 25.8968C25.8958 26.7379 25.3917 27.5013 24.75 28.14V28.065ZM24.75 21.675V16.86C25.3917 17.4987 25.8958 18.2621 26.2312 19.1032C26.5665 19.9442 26.7261 20.845 26.7 21.75L24.75 21.675ZM20.865 17.415C20.2179 18.7456 19.8552 20.1964 19.8 21.675H18.15C18.2701 20.8217 18.5753 20.0049 19.0443 19.282C19.5133 18.5591 20.1347 17.9475 20.865 17.49V17.415ZM18.15 23.25H19.815C19.8702 24.7286 20.2329 26.1794 20.88 27.51C20.138 27.0463 19.5082 26.4236 19.0361 25.6869C18.564 24.9502 18.2613 24.1179 18.15 23.25ZM27.15 27.51C27.7971 26.1794 28.1598 24.7286 28.215 23.25H29.85C29.7404 24.1166 29.4401 24.9481 28.9706 25.6847C28.5011 26.4213 27.8742 27.0447 27.135 27.51H27.15Z" fill="#2A2A2A"/>
</svg>
