<svg width="300" height="297" viewBox="0 0 300 297" fill="none" xmlns="http://www.w3.org/2000/svg">
<path d="M31.959 79.0183C29.7715 79.0183 28.0918 78.3835 26.9199 77.114C25.748 75.8445 25.1621 74.0216 25.1621 71.6453C25.1621 69.269 25.748 67.4558 26.9199 66.2058C28.0983 64.9493 29.7812 64.321 31.9688 64.321C34.1628 64.321 35.8424 64.9526 37.0078 66.2156C38.1732 67.4786 38.7559 69.295 38.7559 71.6648C38.7559 73.3445 38.4564 74.754 37.8574 75.8933C37.265 77.0261 36.3926 77.8562 35.2402 78.3835L38.6777 82.2214H34.8008L32.1836 79.0183H31.959ZM31.9785 66.8406C30.7741 66.8406 29.8659 67.2475 29.2539 68.0613C28.6419 68.8686 28.3359 70.0697 28.3359 71.6648C28.3359 74.8744 29.5436 76.4792 31.959 76.4792C34.3743 76.4792 35.582 74.8744 35.582 71.6648C35.582 68.4486 34.3809 66.8406 31.9785 66.8406ZM51.5 78.823H49.2148L48.8145 77.4265H48.6582C48.3392 77.9343 47.8867 78.3282 47.3008 78.6082C46.7148 78.8816 46.0475 79.0183 45.2988 79.0183C44.0228 79.0183 43.056 78.6765 42.3984 77.9929C41.7474 77.3093 41.4219 76.3197 41.4219 75.0242V67.905H44.4004V74.282C44.4004 75.0763 44.5404 75.6687 44.8203 76.0593C45.1068 76.45 45.5527 76.6453 46.1582 76.6453C46.9915 76.6453 47.5938 76.3686 47.9648 75.8152C48.3359 75.2618 48.5215 74.3373 48.5215 73.0417V67.905H51.5V78.823ZM54.498 65.0925C54.498 64.116 55.0384 63.6277 56.1191 63.6277C57.1999 63.6277 57.7402 64.1127 57.7402 65.0828C57.7402 65.5515 57.6035 65.9128 57.3301 66.1667C57.0566 66.4207 56.653 66.5476 56.1191 66.5476C55.0384 66.5476 54.498 66.0626 54.498 65.0925ZM57.6035 78.823H54.625V67.905H57.6035V78.823ZM65.1719 79.0183C61.7734 79.0183 60.0742 77.1531 60.0742 73.4226C60.0742 71.5736 60.5365 70.1576 61.4609 69.1746C62.3854 68.1915 63.7103 67.7 65.4355 67.7C66.7051 67.7 67.8346 67.9473 68.8242 68.4421L67.9551 70.7468C66.9004 70.3171 66.0605 70.1023 65.4355 70.1023C63.8861 70.1023 63.1113 71.1863 63.1113 73.3542C63.1113 75.5222 63.8861 76.6062 65.4355 76.6062C66.5293 76.6062 67.5482 76.2904 68.4922 75.6589V78.2078C67.9844 78.5333 67.4961 78.7449 67.0273 78.8425C66.5391 78.9597 65.9206 79.0183 65.1719 79.0183ZM74.0098 78.823H71.0312V63.6277H74.0098V70.405L73.8535 72.8855H73.8926L75.1914 71.2253L78.248 67.905H81.6074L77.2715 72.6414L81.8711 78.823H78.4336L75.2891 74.3992L74.0098 75.4246V78.823ZM98.248 67.0652H94.3711V78.823H91.3438V67.0652H87.4668V64.5457H98.248V67.0652ZM110.23 78.823H107.945L107.545 77.4265H107.389C107.07 77.9343 106.617 78.3282 106.031 78.6082C105.445 78.8816 104.778 79.0183 104.029 79.0183C102.753 79.0183 101.786 78.6765 101.129 77.9929C100.478 77.3093 100.152 76.3197 100.152 75.0242V67.905H103.131V74.282C103.131 75.0763 103.271 75.6687 103.551 76.0593C103.837 76.45 104.283 76.6453 104.889 76.6453C105.722 76.6453 106.324 76.3686 106.695 75.8152C107.066 75.2618 107.252 74.3373 107.252 73.0417V67.905H110.23V78.823ZM119.449 67.7C119.859 67.7 120.195 67.7292 120.455 67.7878L120.23 70.5808C119.996 70.5157 119.703 70.4832 119.352 70.4832C118.401 70.4832 117.659 70.7273 117.125 71.2156C116.598 71.7039 116.334 72.3875 116.334 73.2664V78.823H113.355V67.905H115.611L116.051 69.741H116.197C116.549 69.116 117.005 68.6244 117.564 68.2664C118.137 67.8888 118.766 67.7 119.449 67.7ZM128.639 67.7C129.902 67.7 130.862 68.045 131.52 68.7351C132.184 69.4187 132.516 70.4083 132.516 71.7039V78.823H129.537V72.446C129.537 71.6518 129.394 71.0593 129.107 70.6687C128.827 70.2781 128.385 70.0828 127.779 70.0828C126.946 70.0828 126.344 70.3627 125.973 70.9226C125.602 71.4825 125.416 72.4037 125.416 73.6863V78.823H122.438V67.905H124.713L125.113 69.3113H125.279C125.605 68.7839 126.057 68.3835 126.637 68.1101C127.223 67.8367 127.89 67.7 128.639 67.7ZM135.875 68.6667C137.138 68.0092 138.521 67.6804 140.025 67.6804C141.529 67.6804 142.665 68.0027 143.434 68.6472C144.208 69.2917 144.596 70.2585 144.596 71.5476V78.823H142.516L141.939 77.3386H141.861C141.36 77.9766 140.846 78.4161 140.318 78.657C139.791 78.8979 139.098 79.0183 138.238 79.0183C137.197 79.0183 136.37 78.7188 135.758 78.1199C135.159 77.5209 134.859 76.6583 134.859 75.532C134.859 74.4057 135.26 73.5658 136.061 73.0125C136.861 72.4526 138.089 72.1433 139.742 72.0847L141.637 72.0261V71.5476C141.637 70.4408 141.07 69.8875 139.938 69.8875C139.065 69.8875 138.04 70.1511 136.861 70.6785L135.875 68.6667ZM137.916 75.5808C137.916 76.4207 138.398 76.8406 139.361 76.8406C140.058 76.8406 140.611 76.642 141.021 76.2449C141.432 75.8477 141.637 75.3204 141.637 74.6628V73.7644L140.484 73.8035C139.618 73.8295 138.974 73.9858 138.551 74.2722C138.128 74.5587 137.916 74.9949 137.916 75.5808ZM153.766 67.7C154.176 67.7 154.511 67.7292 154.771 67.7878L154.547 70.5808C154.312 70.5157 154.02 70.4832 153.668 70.4832C152.717 70.4832 151.975 70.7273 151.441 71.2156C150.914 71.7039 150.65 72.3875 150.65 73.2664V78.823H147.672V67.905H149.928L150.367 69.741H150.514C150.865 69.116 151.321 68.6244 151.881 68.2664C152.454 67.8888 153.082 67.7 153.766 67.7ZM161.49 67.7C162.493 67.7 163.388 67.9278 164.176 68.3835C164.97 68.8328 165.582 69.4838 166.012 70.3367C166.448 71.183 166.666 72.1531 166.666 73.2468C166.666 73.2794 166.666 73.3119 166.666 73.3445C166.666 75.1218 166.197 76.5118 165.26 77.5144C164.322 78.517 163.017 79.0183 161.344 79.0183C161.318 79.0183 161.288 79.0183 161.256 79.0183C160.253 79.0183 159.355 78.7904 158.561 78.3347C157.773 77.8725 157.161 77.2149 156.725 76.3621C156.295 75.5092 156.08 74.5359 156.08 73.4421C156.08 73.4096 156.08 73.377 156.08 73.3445C156.08 71.5606 156.546 70.1772 157.477 69.1941C158.408 68.198 159.716 67.7 161.402 67.7C161.428 67.7 161.458 67.7 161.49 67.7ZM163.082 70.9031C162.724 70.3692 162.151 70.1023 161.363 70.1023C160.576 70.1023 160.003 70.366 159.645 70.8933C159.293 71.4207 159.117 72.2377 159.117 73.3445C159.117 74.4447 159.296 75.2683 159.654 75.8152C160.019 76.3556 160.592 76.6257 161.373 76.6257C162.161 76.6257 162.73 76.3556 163.082 75.8152C163.44 75.2748 163.619 74.4545 163.619 73.3542C163.619 72.2475 163.44 71.4304 163.082 70.9031ZM179.156 78.823H176.871L176.471 77.4265H176.314C175.995 77.9343 175.543 78.3282 174.957 78.6082C174.371 78.8816 173.704 79.0183 172.955 79.0183C171.679 79.0183 170.712 78.6765 170.055 77.9929C169.404 77.3093 169.078 76.3197 169.078 75.0242V67.905H172.057V74.282C172.057 75.0763 172.197 75.6687 172.477 76.0593C172.763 76.45 173.209 76.6453 173.814 76.6453C174.648 76.6453 175.25 76.3686 175.621 75.8152C175.992 75.2618 176.178 74.3373 176.178 73.0417V67.905H179.156V78.823ZM188.482 67.7C189.745 67.7 190.706 68.045 191.363 68.7351C192.027 69.4187 192.359 70.4083 192.359 71.7039V78.823H189.381V72.446C189.381 71.6518 189.238 71.0593 188.951 70.6687C188.671 70.2781 188.229 70.0828 187.623 70.0828C186.79 70.0828 186.188 70.3627 185.816 70.9226C185.445 71.4825 185.26 72.4037 185.26 73.6863V78.823H182.281V67.905H184.557L184.957 69.3113H185.123C185.449 68.7839 185.901 68.3835 186.48 68.1101C187.066 67.8367 187.734 67.7 188.482 67.7ZM204.967 78.823H202.682L202.105 77.407H201.979C201.308 78.4812 200.276 79.0183 198.883 79.0183C197.594 79.0183 196.585 78.5235 195.855 77.5339C195.126 76.5378 194.762 75.1511 194.762 73.3738C194.762 71.5899 195.133 70.2 195.875 69.2039C196.624 68.2013 197.669 67.7 199.01 67.7C200.351 67.7 201.383 68.2371 202.105 69.3113H202.203C202.053 68.4714 201.979 67.7423 201.979 67.1238V63.6277H204.967V78.823ZM202.184 73.4031C202.184 72.2377 202.001 71.4011 201.637 70.8933C201.272 70.379 200.686 70.1218 199.879 70.1218C199.208 70.1218 198.691 70.405 198.326 70.9714C197.962 71.5378 197.779 72.3549 197.779 73.4226C197.779 74.4838 197.962 75.2878 198.326 75.8347C198.697 76.3751 199.247 76.6453 199.977 76.6453C200.706 76.6453 201.249 76.4272 201.607 75.991C201.965 75.5483 202.158 74.7931 202.184 73.7253V73.4031ZM214.635 77.114C213.463 75.8445 212.877 74.0216 212.877 71.6453C212.877 69.269 213.463 67.4558 214.635 66.2058C215.813 64.9493 217.496 64.321 219.684 64.321C221.878 64.321 223.557 64.9526 224.723 66.2156C225.888 67.4786 226.471 69.295 226.471 71.6648C226.471 74.0281 225.885 75.8445 224.713 77.114C223.541 78.3835 221.861 79.0183 219.674 79.0183C217.486 79.0183 215.807 78.3835 214.635 77.114ZM219.693 66.8406C218.489 66.8406 217.581 67.2475 216.969 68.0613C216.357 68.8686 216.051 70.0697 216.051 71.6648C216.051 74.8744 217.258 76.4792 219.674 76.4792C222.089 76.4792 223.297 74.8744 223.297 71.6648C223.297 68.4486 222.096 66.8406 219.693 66.8406ZM229.674 67.1042C229.674 65.8542 229.98 64.946 230.592 64.3796C231.204 63.8067 232.184 63.5203 233.531 63.5203C234.553 63.5203 235.468 63.6733 236.275 63.9792L235.514 66.1667C234.908 65.9779 234.378 65.8835 233.922 65.8835C233.466 65.8835 233.141 66.004 232.945 66.2449C232.75 66.4858 232.652 66.8113 232.652 67.2214V67.905H235.23V70.1414H232.652V78.823H229.674V70.1414H228.033V68.7058L229.674 67.905V67.1042ZM24.9082 102.346C25.8978 102.783 26.7214 103.089 27.3789 103.264C28.043 103.434 28.6777 103.518 29.2832 103.518C29.8952 103.518 30.377 103.391 30.7285 103.137C31.0801 102.884 31.2559 102.506 31.2559 102.005C31.2559 101.725 31.181 101.481 31.0312 101.272C30.8815 101.057 30.6504 100.846 30.3379 100.637C30.0319 100.423 29.4264 100.104 28.5215 99.6804C27.6165 99.2507 26.9492 98.8503 26.5195 98.4792C25.5625 97.6524 25.084 96.6173 25.084 95.3738C25.084 94.1303 25.5104 93.1472 26.3633 92.4246C27.2227 91.7019 28.4076 91.3406 29.918 91.3406C31.1875 91.3406 32.6003 91.6759 34.1562 92.3464L33.1797 94.7C32.444 94.4005 31.8223 94.1856 31.3145 94.0554C30.8066 93.9252 30.2891 93.8601 29.7617 93.8601C29.2409 93.8601 28.8242 93.9936 28.5117 94.2605C28.1992 94.5209 28.043 94.8692 28.043 95.3054C28.043 95.5723 28.1016 95.8067 28.2188 96.0085C28.3424 96.2039 28.5378 96.3959 28.8047 96.5847C29.0781 96.767 29.7227 97.099 30.7383 97.5808C32.0664 98.2123 32.9779 98.8536 33.4727 99.5046C33.974 100.13 34.2246 100.914 34.2246 101.858C34.2246 103.134 33.7591 104.153 32.8281 104.915C31.8971 105.65 30.6374 106.018 29.0488 106.018C27.4603 106.018 26.0801 105.732 24.9082 105.159V102.346ZM36.4512 92.0925C36.4512 91.116 36.9915 90.6277 38.0723 90.6277C39.153 90.6277 39.6934 91.1127 39.6934 92.0828C39.6934 92.5515 39.5566 92.9128 39.2832 93.1667C39.0098 93.4207 38.6061 93.5476 38.0723 93.5476C36.9915 93.5476 36.4512 93.0626 36.4512 92.0925ZM39.5566 105.823H36.5781V94.905H39.5566V105.823ZM45.9922 94.905H49.0488V97.1414H45.9922V102.405C45.9922 102.815 46.1061 103.124 46.334 103.333C46.5684 103.541 46.9134 103.645 47.3691 103.645C47.8249 103.645 48.4238 103.531 49.166 103.303V105.52C48.4238 105.852 47.4863 106.018 46.3535 106.018C45.2272 106.018 44.3874 105.722 43.834 105.13C43.2871 104.531 43.0137 103.622 43.0137 102.405V97.1414H41.5879V95.8816L43.2285 94.8855L44.0879 92.5808H45.9922V94.905ZM61.4023 105.823H59.1172L58.7168 104.427H58.5605C58.2415 104.934 57.7891 105.328 57.2031 105.608C56.6172 105.882 55.9499 106.018 55.2012 106.018C53.9251 106.018 52.9583 105.677 52.3008 104.993C51.6497 104.309 51.3242 103.32 51.3242 102.024V94.905H54.3027V101.282C54.3027 102.076 54.4427 102.669 54.7227 103.059C55.0091 103.45 55.4551 103.645 56.0605 103.645C56.8939 103.645 57.4961 103.369 57.8672 102.815C58.2383 102.262 58.4238 101.337 58.4238 100.042V94.905H61.4023V105.823ZM64.8203 95.6667C66.0833 95.0092 67.4668 94.6804 68.9707 94.6804C70.4746 94.6804 71.6107 95.0027 72.3789 95.6472C73.1536 96.2917 73.541 97.2585 73.541 98.5476V105.823H71.4609L70.8848 104.339H70.8066C70.3053 104.977 69.791 105.416 69.2637 105.657C68.7363 105.898 68.043 106.018 67.1836 106.018C66.1419 106.018 65.3151 105.719 64.7031 105.12C64.1042 104.521 63.8047 103.658 63.8047 102.532C63.8047 101.406 64.2051 100.566 65.0059 100.012C65.8066 99.4526 67.0339 99.1433 68.6875 99.0847L70.582 99.0261V98.5476C70.582 97.4408 70.0156 96.8875 68.8828 96.8875C68.0104 96.8875 66.985 97.1511 65.8066 97.6785L64.8203 95.6667ZM66.8613 102.581C66.8613 103.421 67.3431 103.841 68.3066 103.841C69.0033 103.841 69.5566 103.642 69.9668 103.245C70.377 102.848 70.582 102.32 70.582 101.663V100.764L69.4297 100.803C68.5638 100.83 67.9193 100.986 67.4961 101.272C67.0729 101.559 66.8613 101.995 66.8613 102.581ZM79.918 94.905H82.9746V97.1414H79.918V102.405C79.918 102.815 80.0319 103.124 80.2598 103.333C80.4941 103.541 80.8392 103.645 81.2949 103.645C81.7507 103.645 82.3496 103.531 83.0918 103.303V105.52C82.3496 105.852 81.4121 106.018 80.2793 106.018C79.153 106.018 78.3132 105.722 77.7598 105.13C77.2129 104.531 76.9395 103.622 76.9395 102.405V97.1414H75.5137V95.8816L77.1543 94.8855L78.0137 92.5808H79.918V94.905ZM85.1816 92.0925C85.1816 91.116 85.722 90.6277 86.8027 90.6277C87.8835 90.6277 88.4238 91.1127 88.4238 92.0828C88.4238 92.5515 88.2871 92.9128 88.0137 93.1667C87.7402 93.4207 87.3366 93.5476 86.8027 93.5476C85.722 93.5476 85.1816 93.0626 85.1816 92.0925ZM88.2871 105.823H85.3086V94.905H88.2871V105.823ZM96.1582 94.7C97.1608 94.7 98.056 94.9278 98.8438 95.3835C99.638 95.8328 100.25 96.4838 100.68 97.3367C101.116 98.183 101.334 99.1531 101.334 100.247C101.334 100.279 101.334 100.312 101.334 100.344C101.334 102.122 100.865 103.512 99.9277 104.514C98.9902 105.517 97.6849 106.018 96.0117 106.018C95.9857 106.018 95.9564 106.018 95.9238 106.018C94.9212 106.018 94.0228 105.79 93.2285 105.335C92.4408 104.872 91.8288 104.215 91.3926 103.362C90.9629 102.509 90.748 101.536 90.748 100.442C90.748 100.41 90.748 100.377 90.748 100.344C90.748 98.5606 91.2135 97.1772 92.1445 96.1941C93.0755 95.198 94.3841 94.7 96.0703 94.7C96.0964 94.7 96.1257 94.7 96.1582 94.7ZM97.75 97.9031C97.3919 97.3692 96.819 97.1023 96.0312 97.1023C95.2435 97.1023 94.6706 97.366 94.3125 97.8933C93.9609 98.4207 93.7852 99.2377 93.7852 100.344C93.7852 101.445 93.9642 102.268 94.3223 102.815C94.6868 103.356 95.2598 103.626 96.041 103.626C96.8288 103.626 97.3984 103.356 97.75 102.815C98.1081 102.275 98.2871 101.455 98.2871 100.354C98.2871 99.2475 98.1081 98.4304 97.75 97.9031ZM110.006 94.7C111.269 94.7 112.229 95.045 112.887 95.7351C113.551 96.4187 113.883 97.4083 113.883 98.7039V105.823H110.904V99.446C110.904 98.6518 110.761 98.0593 110.475 97.6687C110.195 97.2781 109.752 97.0828 109.146 97.0828C108.313 97.0828 107.711 97.3627 107.34 97.9226C106.969 98.4825 106.783 99.4037 106.783 100.686V105.823H103.805V94.905H106.08L106.48 96.3113H106.646C106.972 95.7839 107.424 95.3835 108.004 95.1101C108.59 94.8367 109.257 94.7 110.006 94.7Z" fill="#1E1E1E"/>
<rect x="14" y="121" width="269" height="140" rx="13.9" fill="#F7F4F4" fill-opacity="0.5"/>
<circle cx="43" cy="36.823" r="18" fill="#D758FF"/>
<path d="M52.6983 47.4092C50.0401 47.4092 47.8896 45.5592 47.8896 43.2792C47.8896 40.9923 50.0401 39.1355 52.6983 39.1355C55.3487 39.1355 57.515 40.9923 57.515 43.2724C57.507 45.5592 55.3566 47.4092 52.6983 47.4092ZM55.6105 42.0436C55.6185 41.9275 55.5867 41.8251 55.5153 41.7296C55.2614 41.3609 54.7377 41.32 54.3568 41.6477C53.6506 42.2552 52.9443 42.8628 52.254 43.484C52.0953 43.6273 52.0159 43.6137 51.8731 43.4772C51.5954 43.2177 51.3097 42.9788 51.0161 42.7331C50.6987 42.4737 50.2623 42.4737 49.9845 42.7194C49.7147 42.9583 49.7068 43.327 50.0083 43.5864C50.5162 44.0369 51.032 44.4807 51.5636 44.9244C51.881 45.1906 52.2857 45.1906 52.5952 44.9244C53.5315 44.1188 54.4599 43.3065 55.3963 42.4941C55.5233 42.3781 55.6185 42.2279 55.6105 42.0436Z" fill="#FFFAFA"/>
<path d="M41.8434 44.3714C40.2405 44.3714 38.6377 44.3714 37.0348 44.3714C36.3603 44.3714 36.146 44.1325 36.3047 43.5659C37.0982 40.7192 40.2405 38.7532 43.6447 38.9648C45.1762 39.0604 46.5172 39.5314 47.6996 40.3642C47.8662 40.4803 47.89 40.5622 47.771 40.7329C47.0251 41.7841 46.787 42.9242 47.0251 44.1393C47.0648 44.3373 47.033 44.385 46.795 44.385C45.1524 44.3646 43.494 44.3714 41.8434 44.3714Z" fill="white"/>
<path d="M46.7316 35.3534C46.7316 37.0464 45.1525 38.4185 43.1766 38.4253C41.2087 38.4322 39.582 37.0532 39.582 35.3602C39.582 33.6809 41.1849 32.2883 43.137 32.2815C45.1128 32.2815 46.7237 33.6536 46.7316 35.3534Z" fill="#FFFAFA"/>
<path d="M29.2581 32.6024C29.7581 32.6706 30.3056 32.7389 30.8452 32.8276C31.1546 32.8823 31.353 32.8481 31.5197 32.5819C31.7736 32.186 32.0751 31.8242 32.3608 31.4419C32.4163 31.3668 32.4639 31.2644 32.6068 31.2985C32.7337 31.3258 32.7179 31.435 32.7337 31.5101C32.829 31.9948 32.9162 32.4863 32.9877 32.971C33.0115 33.1348 33.0829 33.2236 33.2813 33.2645C33.8447 33.3806 34.4081 33.5171 34.9714 33.6468C35.0667 33.6673 35.1778 33.6673 35.1936 33.7834C35.2095 33.8926 35.0984 33.9199 35.0111 33.9608C34.5033 34.1861 33.9954 34.4182 33.4796 34.623C33.2733 34.7049 33.2178 34.8142 33.2337 34.9985C33.2813 35.4832 33.3051 35.9678 33.3368 36.4525C33.3447 36.5344 33.3685 36.6368 33.2575 36.6778C33.1305 36.7324 33.0591 36.6437 32.9797 36.5754C32.575 36.2272 32.1703 35.8791 31.7736 35.5241C31.6387 35.4012 31.5117 35.3808 31.3292 35.449C30.7976 35.6333 30.2659 35.804 29.7343 35.9815C29.6311 36.0156 29.5279 36.0702 29.4327 35.9815C29.3613 35.9064 29.4248 35.8245 29.4724 35.7494C29.7343 35.3125 29.9882 34.8688 30.258 34.4387C30.3611 34.2749 30.3373 34.1725 30.2024 34.0359C29.8215 33.6537 29.4645 33.2577 29.0915 32.8686C29.036 32.8072 28.9645 32.7526 29.0201 32.6638C29.0677 32.6024 29.1312 32.5819 29.2581 32.6024Z" fill="white"/>
<path d="M41.145 30.6842C41.3196 30.1313 41.4624 29.6398 41.637 29.1483C41.7084 28.9571 41.6608 28.8411 41.4703 28.7182C41.018 28.4246 40.5895 28.1174 40.1531 27.8103C40.0817 27.7556 39.9706 27.7079 40.0103 27.6055C40.05 27.5031 40.1611 27.5099 40.2642 27.5099C40.8355 27.4826 41.4069 27.4485 41.9782 27.4416C42.2083 27.4416 42.3035 27.3597 42.375 27.189C42.5575 26.7385 42.7638 26.3016 42.9622 25.8579C43.0018 25.7691 43.0098 25.6394 43.1685 25.6463C43.3113 25.6463 43.3192 25.7691 43.3589 25.8511C43.5652 26.3084 43.7715 26.7658 43.962 27.23C44.0255 27.3802 44.1127 27.4416 44.3032 27.4416C44.8428 27.4553 45.3903 27.4758 45.9299 27.5099C46.0569 27.5167 46.2394 27.4621 46.2949 27.6123C46.3505 27.7625 46.1759 27.8103 46.0727 27.8785C45.668 28.1652 45.2713 28.4588 44.8428 28.725C44.6365 28.8547 44.6127 28.9776 44.6761 29.1756C44.8348 29.6329 44.9697 30.0903 45.1205 30.5477C45.1443 30.6296 45.1999 30.7183 45.1046 30.7866C44.9935 30.8685 44.8983 30.7934 44.811 30.7388C44.3349 30.4726 43.8509 30.2064 43.3748 29.9265C43.2161 29.8309 43.0971 29.8241 42.9225 29.9265C42.4464 30.2132 41.9544 30.4794 41.4624 30.7525C41.3751 30.8003 41.2878 30.8549 41.1926 30.7934C41.145 30.7525 41.145 30.6842 41.145 30.6842Z" fill="white"/>
<path d="M38.5265 31.1757C38.2409 31.1621 37.9552 31.1552 37.6695 31.1279C37.4791 31.1075 37.3839 31.1689 37.3045 31.3123C37.0585 31.7492 36.8046 32.1792 36.5427 32.6093C36.4951 32.698 36.4713 32.8209 36.3126 32.8141C36.1539 32.8073 36.1619 32.6776 36.1301 32.582C35.9873 32.1246 35.8365 31.6672 35.7096 31.203C35.6619 31.0119 35.5429 30.9368 35.3366 30.9163C34.7811 30.8549 34.2257 30.773 33.6623 30.7047C33.5512 30.691 33.4322 30.6842 33.4084 30.5682C33.3846 30.4658 33.5036 30.4316 33.5829 30.3839C34.067 30.1176 34.5431 29.8446 35.0271 29.5852C35.2096 29.4896 35.2493 29.3804 35.2176 29.2097C35.1144 28.7318 35.0271 28.254 34.9398 27.7761C34.924 27.6942 34.8684 27.585 34.9954 27.5235C35.1224 27.4621 35.1938 27.5577 35.2731 27.6123C35.7175 27.9195 36.1698 28.2335 36.6062 28.5475C36.7491 28.6499 36.8601 28.6704 37.0268 28.5885C37.5346 28.3496 38.0584 28.1243 38.5741 27.899C38.6614 27.858 38.7487 27.7966 38.8519 27.8649C38.9709 27.94 38.8915 28.0355 38.8598 28.1175C38.6614 28.5612 38.4789 29.0117 38.2567 29.4418C38.1536 29.6534 38.2012 29.7763 38.3837 29.9265C38.7725 30.2405 39.1455 30.5682 39.5264 30.8958C39.6057 30.9641 39.7406 31.0255 39.6771 31.1484C39.6136 31.2645 39.4708 31.2167 39.3597 31.2167C39.082 31.203 38.8043 31.1894 38.5265 31.1757Z" fill="white"/>
<path d="M51.3974 27.6397C51.3022 28.1585 51.2229 28.6159 51.1197 29.0733C51.0562 29.3395 51.0959 29.5101 51.4054 29.6535C51.8656 29.872 52.2862 30.1314 52.7305 30.3771C52.8178 30.4249 52.9369 30.4659 52.8972 30.5887C52.8654 30.6911 52.7544 30.6911 52.6591 30.7048C52.1116 30.7731 51.5641 30.855 51.0166 30.9164C50.7864 30.9437 50.6595 31.012 50.6039 31.2304C50.4849 31.7015 50.3183 32.1657 50.1754 32.6299C50.1516 32.7118 50.1358 32.8073 50.0167 32.821C49.8898 32.8347 49.858 32.7391 49.8104 32.664C49.5486 32.2203 49.2788 31.7765 49.0328 31.3192C48.9455 31.1622 48.8423 31.1144 48.6439 31.128C48.0647 31.169 47.4775 31.1895 46.8982 31.2168C46.8109 31.2236 46.7078 31.2441 46.6602 31.1553C46.6046 31.0598 46.684 30.9983 46.7633 30.9369C47.168 30.5887 47.5727 30.2338 47.9853 29.8993C48.152 29.7696 48.1678 29.6467 48.0885 29.476C47.8742 29.0323 47.6759 28.5749 47.4775 28.1244C47.4378 28.0356 47.3743 27.9469 47.4775 27.865C47.5727 27.7967 47.6679 27.865 47.7473 27.8991C48.2631 28.1244 48.7868 28.3496 49.2946 28.5886C49.4613 28.6637 49.5724 28.6568 49.7152 28.5544C50.1675 28.2268 50.6277 27.9059 51.088 27.5851C51.1515 27.5373 51.2149 27.4758 51.326 27.5236C51.3895 27.5578 51.3974 27.6192 51.3974 27.6397Z" fill="white"/>
<path d="M53.0002 36.2138C53.024 35.7974 53.0478 35.381 53.0875 34.9646C53.1034 34.7939 53.0478 34.6983 52.8653 34.6301C52.3416 34.4116 51.8258 34.1864 51.31 33.9543C51.2227 33.9201 51.1116 33.886 51.1275 33.7768C51.1434 33.6675 51.2545 33.6607 51.3497 33.6402C51.9051 33.5174 52.4527 33.374 53.0081 33.2648C53.2382 33.217 53.3097 33.1146 53.3414 32.9371C53.4208 32.4593 53.508 31.9814 53.5953 31.5035C53.6112 31.4216 53.6033 31.3261 53.7223 31.2919C53.8651 31.2578 53.9048 31.3602 53.9603 31.4353C54.2698 31.8517 54.5872 32.2613 54.8888 32.6777C54.9919 32.8279 55.1109 32.8688 55.3014 32.8347C55.8568 32.7528 56.4123 32.6777 56.9678 32.6026C57.0789 32.589 57.2058 32.5275 57.2852 32.6504C57.3566 32.7596 57.2455 32.8211 57.182 32.8893C56.8249 33.2716 56.4599 33.6607 56.0949 34.0362C55.9759 34.1591 55.96 34.2546 56.0473 34.398C56.3171 34.828 56.5789 35.2718 56.8329 35.7087C56.8805 35.7906 56.9757 35.8725 56.8884 35.9612C56.7853 36.0636 56.6742 35.9886 56.5631 35.9544C56.0473 35.7838 55.5315 35.6199 55.0237 35.4356C54.8253 35.3673 54.6904 35.381 54.5317 35.5244C54.1587 35.8657 53.7699 36.1933 53.3811 36.521C53.2938 36.5961 53.2224 36.7258 53.0716 36.6576C52.9367 36.6029 53.0081 36.4732 53.0002 36.3777C52.9923 36.3162 53.0002 36.2616 53.0002 36.2002C52.9923 36.2138 53.0002 36.2138 53.0002 36.2138Z" fill="white"/>
</svg>
