<svg width="275" height="178" viewBox="0 0 275 178" fill="none" xmlns="http://www.w3.org/2000/svg">
<path d="M171.425 0.0940882C170.438 0.315871 169.227 1.17528 168.75 1.95152C168.495 2.33964 167.921 2.72776 167.412 2.81093C166.265 3.03271 164.896 4.25252 164.896 5.02876C164.896 5.36144 165.182 5.97134 165.564 6.38718L166.201 7.10798H172.54H178.878L179.515 6.38718C180.312 5.50005 180.344 5.11193 179.706 4.05846C179.42 3.58717 178.815 3.14361 178.114 2.94955C177.413 2.75549 176.808 2.31192 176.521 1.81291C175.757 0.565377 173.177 -0.294032 171.425 0.0940882ZM174.324 1.14756C175.088 1.42479 175.566 1.86835 175.884 2.5337C176.203 3.14361 176.585 3.504 176.967 3.504C177.795 3.504 179.229 4.55747 179.229 5.16738C179.229 6.33174 178.146 6.55352 172.54 6.55352C166.902 6.55352 165.851 6.33174 165.851 5.13965C165.851 4.41886 167.03 3.53173 167.985 3.504C168.399 3.504 168.909 3.14361 169.323 2.56143C169.992 1.61885 171.584 0.759438 172.635 0.731715C172.954 0.731715 173.687 0.925775 174.324 1.14756Z" fill="white"/>
<path d="M135.688 30.0903C134.445 30.5893 133.649 31.1714 132.853 32.1417C132.28 32.8903 132.025 33.0012 131.547 32.7794C130.496 32.2804 129.668 32.4744 128.808 33.4447C128.011 34.3041 127.852 34.3596 127.024 34.1101C125.909 33.7774 124.731 33.9992 123.871 34.7477C123.266 35.2744 123.106 35.2744 121.705 34.9695C119.826 34.5536 118.679 34.7754 117.5 35.8289C116.545 36.6606 116.354 37.4368 116.895 38.3517C117.214 38.8507 117.755 38.8784 133.617 38.8784H149.989L150.881 38.2131C151.582 37.6863 151.773 37.3259 151.773 36.3833C151.773 35.4408 151.582 35.0804 150.881 34.5536C150.371 34.1932 149.702 33.8883 149.384 33.8883C149.034 33.8883 148.556 33.5556 148.269 33.0566C147.759 32.1972 146.899 31.6705 146.071 31.6705C145.275 31.6705 145.498 32.1695 146.485 32.613C146.963 32.8348 147.568 33.417 147.791 33.8883C148.11 34.5259 148.396 34.72 149.065 34.72C150.817 34.72 151.55 36.2447 150.435 37.4645C149.862 38.0467 149.734 38.0744 134.796 38.1299C126.483 38.1853 119.22 38.1576 118.615 38.1022C117.723 38.019 117.532 37.8804 117.532 37.3536C117.532 36.4665 118.966 35.5517 120.272 35.5517C120.845 35.5517 121.864 35.7734 122.501 36.023C123.489 36.4388 123.711 36.4665 123.839 36.1338C123.903 35.9398 124.253 35.5239 124.603 35.219C125.24 34.6645 126.196 34.6368 127.916 35.1358C128.457 35.2744 128.648 35.1635 128.999 34.4705C129.477 33.417 130.623 33.112 131.706 33.722C132.439 34.1378 132.503 34.1378 133.363 33.0012C134.764 31.2269 135.72 30.7279 137.949 30.6724C139.797 30.6447 139.892 30.6724 140.943 31.7259C141.899 32.7239 142.122 32.8071 143.077 32.6408C144.256 32.419 144.988 32.0031 144.765 31.6705C144.574 31.3932 143.237 31.6705 142.95 32.0586C142.791 32.2526 142.249 31.9754 141.485 31.3101C139.733 29.8407 137.503 29.3695 135.688 30.0903Z" fill="white"/>
<path d="M136.644 31.9206C136.644 32.0874 136.803 32.2819 136.962 32.3653C137.154 32.4486 137.281 32.3375 137.281 32.1152C137.281 31.8651 137.154 31.6705 136.962 31.6705C136.803 31.6705 136.644 31.7817 136.644 31.9206Z" fill="white"/>
<path d="M138.555 32.2252C139.415 32.8076 139.829 32.9185 139.829 32.558C139.829 32.142 139.064 31.6705 138.427 31.6705C137.79 31.6705 137.822 31.726 138.555 32.2252Z" fill="white"/>
<path d="M212.355 25.2942C211.909 25.5437 211.208 26.1536 210.826 26.6804C210.412 27.2071 209.838 27.6229 209.488 27.6229C209.169 27.6229 208.5 27.9279 208.023 28.2606C206.908 29.0923 206.844 30.4507 207.863 31.3101C208.5 31.8923 208.883 31.92 214.202 32.0032C219.075 32.0863 219.967 32.0309 220.891 31.615C222.229 31.0051 222.515 30.0626 221.751 28.815C221.337 28.1774 220.859 27.817 220.222 27.7061C219.649 27.5952 219.043 27.1794 218.534 26.514C218.088 25.9596 217.387 25.3497 216.941 25.1556C215.794 24.712 213.278 24.7952 212.355 25.2942ZM217.132 26.2091C217.578 26.4863 217.96 26.9853 218.024 27.318C218.088 27.6507 218.374 27.9833 218.661 28.0665C220.317 28.5101 221.273 29.12 221.273 29.7576C221.273 31.116 220.795 31.2269 214.648 31.2269C209.392 31.2269 208.915 31.1715 208.373 30.6725C207.481 29.813 207.959 28.815 209.52 28.4269C210.316 28.2051 211.049 27.7616 211.495 27.2348C212.96 25.4051 215.157 24.9893 217.132 26.2091Z" fill="white"/>
<path d="M11.4669 47.1953C11.0528 47.5557 10.4158 47.7498 9.55578 47.7498C8.18616 47.7498 6.68913 48.6924 6.68913 49.5241C6.68913 49.7458 6.33877 50.2726 5.89284 50.6884C4.84174 51.6587 4.87359 52.5459 5.95655 53.2944C6.78469 53.8488 7.10321 53.8766 12.932 53.7934C18.9201 53.7102 19.0794 53.6825 19.8757 53.0449C21.5001 51.7142 20.5127 49.5795 18.1239 49.2468C17.2639 49.1082 16.8816 48.9142 16.8816 48.6092C16.8816 48.332 16.4676 47.8052 15.9898 47.3894C14.8431 46.4191 12.4543 46.3359 11.4669 47.1953ZM15.3846 47.9439C15.6713 48.1934 15.9261 48.7478 15.9261 49.1914C15.9261 49.8845 16.0217 49.9676 16.9772 49.9676C18.5698 49.9676 19.3342 50.2449 19.6527 50.8825C20.0668 51.6587 19.5572 52.7122 18.6653 52.9063C18.2831 52.9617 15.4165 52.9894 12.295 52.9617C7.32617 52.8785 6.56173 52.8231 6.24321 52.4072C5.9884 52.0468 6.0521 51.7973 6.62543 51.2706C7.00765 50.9102 7.32617 50.4389 7.32617 50.1894C7.32617 49.9399 7.58098 49.4686 7.93135 49.1082C8.40912 48.6092 8.85504 48.4706 10.0336 48.4429C11.021 48.4429 11.658 48.3043 11.8809 47.9993C12.6454 47.1122 14.2698 47.0844 15.3846 47.9439Z" fill="white"/>
<path d="M163.685 55.1244C162.284 55.4017 161.264 56.0393 160.213 57.2037C159.544 58.0076 159.162 58.174 158.207 58.174C156.678 58.174 155.563 58.7007 154.99 59.6987C154.639 60.2809 154.321 60.5027 153.843 60.4472C150.881 60.0591 149.001 63.9403 151.39 65.576C152.282 66.2136 152.314 66.2136 164.131 66.2136H175.98L176.617 65.4928C176.999 65.077 177.286 64.467 177.286 64.1344C177.286 63.2472 176.203 62.166 175.12 61.972C174.546 61.8611 174.069 61.5284 173.846 61.0849C173.591 60.6413 172.954 60.17 172.221 59.9205C171.202 59.5601 170.947 59.3106 170.756 58.5621C170.533 57.4809 169.291 56.0947 168.081 55.568C166.966 55.069 164.927 54.8749 163.685 55.1244ZM167.603 56.2611C168.972 56.9819 169.801 58.0353 170.087 59.3106C170.278 60.1977 170.438 60.3641 171.425 60.5304C172.253 60.6413 172.731 60.9462 173.209 61.667C173.559 62.1938 174.1 62.6096 174.387 62.6096C174.674 62.6096 175.247 62.8037 175.629 63.0532C176.458 63.5522 176.585 64.9661 175.82 65.2156C175.534 65.2987 170.151 65.3819 163.812 65.3819C151.167 65.3819 151.167 65.3819 151.167 63.6908C151.167 61.8334 152.346 61.0294 154.48 61.3898C155.499 61.5561 155.531 61.5284 155.754 60.4472C155.977 59.2274 156.391 59.0056 158.684 59.0056C159.863 59.0056 160.086 58.8947 160.85 57.8136C161.328 57.1759 162.092 56.4274 162.57 56.1779C163.812 55.5126 166.297 55.568 167.603 56.2611Z" fill="white"/>
<path d="M164.227 56.9263C164.227 57.2313 164.577 57.3423 165.341 57.3423C166.17 57.3423 166.711 57.5364 167.252 58.0633C167.698 58.4793 168.049 58.9508 168.049 59.0895C168.049 59.3113 168.144 59.3113 168.367 59.1172C168.877 58.6735 168.112 57.37 167.061 56.8985C165.851 56.3716 164.227 56.3716 164.227 56.9263Z" fill="white"/>
<path d="M63.4805 61.5003C62.9072 61.7221 62.1109 62.3042 61.7287 62.831C61.2827 63.4409 60.582 63.8844 59.8494 64.0785C58.3524 64.4666 57.8428 65.0211 57.8428 66.2409C57.8428 66.934 58.0657 67.3775 58.5754 67.7379C59.2442 68.2092 59.9131 68.2647 65.3598 68.2647C71.316 68.2647 71.3797 68.2647 72.1441 67.5716C72.5901 67.2112 72.9404 66.7122 72.9404 66.4627C72.9404 65.5201 71.9849 64.4389 70.7745 64.0231C70.0738 63.7735 69.4049 63.3023 69.1819 62.8587C68.7679 62.0547 66.5701 61.0567 65.296 61.0844C64.8501 61.0844 64.022 61.2785 63.4805 61.5003ZM67.239 62.332C67.7805 62.5537 68.4175 63.1636 68.6723 63.7181C69.0227 64.4389 69.3093 64.6607 69.9145 64.6607C70.8701 64.6607 71.9849 65.5478 71.9849 66.2963C71.9849 67.4884 70.9338 67.7102 65.296 67.7102C61.0279 67.7102 59.8813 67.627 59.3079 67.2666C57.8746 66.4072 58.6709 65.0211 60.8368 64.5498C61.2827 64.4666 61.9198 63.9676 62.2701 63.4963C63.3849 61.9438 65.3597 61.4725 67.239 62.332Z" fill="white"/>
<path d="M236.53 87.2551C235.861 87.4769 234.938 87.9759 234.46 88.3363C233.855 88.8353 233.472 88.974 232.995 88.8076C231.02 88.0868 228.376 88.8908 227.739 90.3601C227.516 90.8037 227.198 91.0254 226.656 91.0254C225.732 91.0254 224.681 91.8849 224.426 92.8552C224.14 93.77 225.032 95.2948 226.019 95.7106C226.561 95.9324 230.797 96.0156 239.938 96.0156C254.271 96.0156 254.494 95.9878 254.494 94.4631C254.494 92.273 251.437 90.3047 249.207 91.0254C248.443 91.3027 248.251 91.2195 247.423 90.4433C246.563 89.6393 246.372 89.5839 245.13 89.7225C243.92 89.8888 243.729 89.8334 243.41 89.2512C242.455 87.4215 239.078 86.4512 236.53 87.2551ZM241.117 88.3086C241.69 88.669 242.423 89.3621 242.741 89.8611C243.506 91.1086 243.41 91.0809 244.684 90.6373C245.672 90.2769 245.863 90.2769 246.468 90.6373C246.85 90.8591 247.169 91.3027 247.169 91.5799C247.169 92.3561 247.614 92.467 248.92 91.968C250.481 91.4136 251.5 91.6354 252.806 92.8552C253.953 93.9086 254.144 94.7403 253.348 95.0175C253.061 95.1007 246.914 95.1839 239.683 95.1839C226.529 95.1839 226.497 95.1839 225.828 94.574C224.522 93.3264 225.255 91.8571 227.198 91.8571C227.771 91.8571 228.089 91.6354 228.376 91.0254C229.109 89.473 230.924 88.9462 233.058 89.667C233.855 89.9165 234.046 89.8611 234.651 89.2235C236.212 87.671 239.269 87.2274 241.117 88.3086Z" fill="white"/>
<path d="M168.877 85.1754C168.782 85.314 168.686 86.6447 168.654 88.1695C168.623 89.6665 168.495 91.0526 168.304 91.219C168.145 91.413 167.986 93.4923 167.954 95.8764C167.922 98.6764 167.763 100.284 167.54 100.423C167.317 100.562 167.126 102.89 166.966 107.132C166.807 112.649 166.68 113.702 166.266 113.979C165.851 114.229 165.788 114.534 165.979 115.366C166.329 116.863 166.552 127.092 166.297 129.782C166.106 131.805 166.011 132.055 165.406 132.138C164.609 132.249 164.482 133.247 165.055 135.409C165.533 137.156 165.597 142.617 165.214 150.518C165.055 153.401 165.055 155.896 165.214 156.035C165.756 156.562 165.851 155.481 166.329 142.756C166.52 137.904 166.489 136.989 166.011 135.742C165.692 134.966 165.501 133.968 165.565 133.552L165.66 132.776L171.171 132.692C175.948 132.637 176.681 132.692 176.872 133.053C176.968 133.302 176.745 134.411 176.394 135.52C175.757 137.405 175.725 137.821 176.012 142.645C176.171 145.445 176.331 149.354 176.363 151.35C176.394 155.148 176.649 156.617 177.095 155.952C177.254 155.758 177.286 154.15 177.159 152.348C177.063 150.574 176.872 146.443 176.777 143.172C176.617 138.237 176.681 136.989 177.063 135.964C177.35 135.271 177.605 134.162 177.668 133.496C177.764 132.387 177.7 132.221 177 132.083C176.076 131.888 176.14 132.471 176.012 123.627C175.948 118.748 176.012 116.641 176.331 115.754C176.713 114.617 176.713 114.506 176.076 114.09C175.407 113.675 175.407 113.397 175.311 107.132C175.248 102.253 175.12 100.534 174.802 100.34C174.515 100.146 174.388 98.8428 174.324 95.6824C174.292 93.2982 174.165 91.3299 174.037 91.3299C173.878 91.3299 173.783 90.4705 173.783 89.417C173.783 88.3912 173.687 86.9497 173.591 86.2289L173.368 84.9536H171.203C170.024 84.9536 168.973 85.0645 168.877 85.1754ZM172.668 88.8348V91.4685L171.139 91.5517C169.26 91.6625 169.164 91.4962 169.483 88.3912L169.706 86.0348L171.171 86.118L172.668 86.2011V88.8348ZM173.273 92.1061C173.337 92.217 173.464 94.1022 173.496 96.32L173.591 100.34L170.948 100.423C168.495 100.506 168.304 100.451 168.527 100.007C168.654 99.7299 168.814 97.817 168.877 95.7655C168.941 93.714 169.005 91.9952 169.005 91.9398C169.005 91.7734 173.114 91.9121 173.273 92.1061ZM174.324 102.89C174.292 103.944 174.388 106.855 174.515 109.405L174.77 114.063H171.075H167.38L167.571 112.177C167.699 111.152 167.826 108.241 167.826 105.69L167.89 101.033H171.139H174.356L174.324 102.89ZM175.694 115.005C175.694 115.199 175.471 115.92 175.216 116.558C174.961 117.195 174.802 117.805 174.865 117.916C174.929 117.999 175.088 121.243 175.216 125.069L175.439 132.083H171.203H166.998L167.189 124.514C167.38 118.055 167.317 116.863 166.903 116.17C166.043 114.7 166.329 114.617 171.234 114.617C174.802 114.617 175.694 114.7 175.694 115.005Z" fill="white"/>
<path d="M104.791 77.3301C105.397 77.6905 105.556 77.7183 105.938 77.3578C106.32 77.0251 106.225 76.9697 105.237 76.942C104.123 76.9142 104.123 76.9143 104.791 77.3301Z" fill="white"/>
<path d="M107.722 79.4646C107.786 79.4923 108.041 79.6587 108.296 79.8251C108.646 80.0746 108.901 80.0468 109.347 79.7696C109.857 79.4369 109.793 79.4092 108.774 79.4092C108.137 79.4092 107.659 79.4369 107.722 79.4646Z" fill="white"/>
<path d="M119.953 156.534C119.953 156.507 119.953 156.451 119.953 156.423H92.4015L91.5415 155.73C91.0637 155.342 90.2993 155.037 89.8534 155.037C89.28 155.01 88.8341 154.76 88.3882 154.15C88.006 153.596 87.3689 153.18 86.7319 153.041C86.0949 152.903 85.6489 152.598 85.4897 152.182C85.3941 151.849 85.0119 151.295 84.6615 150.962C83.8334 150.186 84.0564 149.853 86.923 147.469C88.1652 146.416 89.1845 145.501 89.1845 145.445C89.1845 145.168 84.6934 145.362 83.1964 145.695C81.4445 146.111 81.2216 146.055 81.2216 145.362C81.2216 144.558 79.1194 140.705 77.6223 138.792C75.9661 136.629 73.7683 134.522 71.6661 133.109C69.978 131.944 67.3024 130.503 66.315 130.253C65.678 130.059 65.6143 130.142 65.6143 131.029C65.6143 131.584 65.5187 132.027 65.3913 132.027C65.2321 132.027 64.7224 131.445 64.2128 130.697C62.9388 128.922 59.5943 125.235 57.8744 123.71C55.2625 121.409 52.0137 118.998 51.504 118.998C51.4085 118.998 51.5359 119.441 51.7907 120.023L52.3003 121.021L51.2811 120.301C50.7396 119.885 50.1344 119.552 50.007 119.552C49.5929 119.552 49.1152 120.411 48.7648 121.687C48.51 122.602 48.4781 122.629 48.4463 121.964C48.4144 121.548 48.1915 120.744 47.9367 120.19C47.427 119.136 47.2359 119.164 45.7389 120.522C45.3567 120.883 45.1974 120.938 45.293 120.661C45.3885 120.439 45.5796 119.94 45.707 119.552L45.9619 118.887L45.1019 119.386C41.4071 121.493 36.4701 126.122 32.9345 130.78L31.6923 132.443L31.5968 131.251C31.5012 130.17 31.4375 130.087 30.8005 130.253C30.4183 130.336 28.9212 131.113 27.4879 131.944C22.328 134.938 18.2191 139.568 16.3717 144.475C15.8621 145.889 15.7984 145.944 14.8428 145.778C12.9636 145.445 7.9629 145.251 7.99475 145.501C7.99475 145.639 8.8866 146.388 9.96955 147.136C11.0207 147.913 11.8806 148.661 11.8488 148.8C11.8169 148.966 11.371 149.16 10.9251 149.271C9.81029 149.521 8.9503 150.519 8.91845 151.517C8.91845 152.071 8.69549 152.348 8.15401 152.542C7.73994 152.681 7.29402 152.93 7.16661 153.097C7.00735 153.291 6.52958 153.346 5.89255 153.263C5.0644 153.124 4.65033 153.235 3.88589 153.79C3.37627 154.178 2.57998 154.483 2.13406 154.483C1.1148 154.483 0 155.675 0 156.728V157.532L120.208 157.505C120.112 157.172 120.017 156.867 119.953 156.534ZM75.2972 137.156C75.7431 137.6 76.7623 138.875 77.5268 139.956C78.992 142.008 80.7119 145.75 80.4253 146.166C80.0431 146.693 79.3742 146.083 79.2149 145.085C79.0557 144.059 76.9216 139.956 75.2972 137.572L74.469 136.324L75.2972 137.156ZM53.3196 146.027C51.8862 145.196 50.5485 144.503 50.3255 144.503C49.0833 144.503 53.3514 133.303 55.5173 130.974C55.8677 130.558 56.6003 131.445 57.8106 133.857C59.6899 137.516 61.0277 143.089 61.6328 149.548C61.8558 151.822 61.8239 151.988 61.2825 151.988C60.9321 151.988 60.2314 151.544 59.7217 150.99C57.9381 149.105 55.8995 147.524 53.3196 146.027ZM54.4025 148.245C54.307 149.021 54.2114 149.077 53.1285 149.077C52.4596 149.077 51.9181 148.994 51.9181 148.855V147.414C51.9181 146.72 51.9818 146.166 52.0774 146.166C52.1729 146.166 52.7462 146.443 53.3514 146.776C54.2751 147.303 54.4662 147.552 54.4025 148.245ZM58.4477 151.988C57.7788 151.988 57.6514 151.849 57.6514 151.156C57.6514 150.158 57.7469 150.13 58.6069 150.934C59.4351 151.738 59.4032 151.988 58.4477 151.988ZM55.6766 149.16C55.2625 149.105 54.9122 148.855 54.8484 148.578C54.721 148.023 55.4218 147.94 55.9951 148.439C56.6003 148.966 56.441 149.271 55.6766 149.16ZM54.7847 149.493H57.3329V151.988H54.7847V149.493ZM67.1113 153.124C78.4505 153.152 81.2216 153.235 81.2216 153.54C81.2216 153.818 78.4505 153.901 67.0795 153.901C59.2758 153.928 52.8418 153.818 52.7462 153.707C52.6507 153.568 52.6507 153.374 52.7781 153.263C52.9055 153.18 59.3395 153.097 67.1113 153.124ZM65.4869 151.988L66.4106 151.156C66.9202 150.685 67.4298 150.324 67.5891 150.324C67.7165 150.324 67.8439 150.685 67.8439 151.156C67.8439 151.932 67.7483 151.988 66.6654 151.988H65.4869ZM76.7623 151.683C77.2083 152.431 77.1764 152.681 76.6349 152.265C76.3801 152.099 75.8386 151.988 75.4246 152.043C74.9468 152.099 74.6601 151.96 74.5964 151.627C74.5009 151.212 74.5964 151.128 75.1379 151.295C75.5201 151.378 75.8068 151.378 75.8068 151.239C75.8068 150.851 73.5772 149.742 71.9528 149.326C71.1246 149.105 70.3283 148.827 70.2328 148.689C69.978 148.328 75.2653 145.418 76.2846 145.362C76.4757 145.334 77.272 146.499 78.132 147.913C79.8201 150.851 80.0431 151.988 78.8964 151.988C78.4823 151.988 77.8772 151.794 77.5268 151.572C76.6668 151.018 76.3483 151.045 76.7623 151.683ZM71.0609 150.602C71.252 151.489 71.252 151.517 71.3157 150.768C71.3476 150.075 71.4431 150.02 72.1439 150.158C74.1505 150.602 74.5646 150.851 74.2461 151.406C73.832 152.071 72.5579 152.265 70.2965 152.071L68.4809 151.905V149.465L69.6913 149.548C70.7742 149.631 70.9017 149.715 71.0609 150.602ZM66.6017 131.196C66.6972 131.196 67.4935 131.667 68.3535 132.221C69.8505 133.219 70.6468 133.885 72.8446 135.992C74.915 137.988 77.1764 141.675 78.4505 145.196C78.8964 146.416 79.3742 147.663 79.5016 147.968C79.9475 149.105 78.992 147.94 77.9409 146.138C76.9216 144.364 76.9216 144.364 75.6794 144.447C73.9594 144.586 70.9017 145.473 68.7039 146.471C67.6528 146.942 66.7928 147.275 66.7291 147.219C66.538 147.053 66.4106 131.196 66.6017 131.196ZM69.2135 147.025C70.6468 146.443 72.0483 145.861 72.3031 145.806C73.2587 145.501 73.3861 145.639 72.6216 146.111C70.6468 147.303 66.9202 149.798 65.6143 150.851C63.9899 152.126 63.5121 152.293 64.0536 151.35C65.3595 149.188 66.6335 148.107 69.2135 147.025ZM64.7861 149.105C64.181 149.825 63.4484 150.796 63.1299 151.267C62.6839 151.988 62.5884 152.043 62.5247 151.572C62.4928 151.267 62.3017 149.271 62.1106 147.136C61.7284 143.227 60.6454 138.348 59.5625 135.77C58.5114 133.275 58.5114 133.219 59.3077 134.079C59.7217 134.522 60.5817 135.77 61.2825 136.851C62.9706 139.54 64.181 142.229 65.1365 145.279L65.9328 147.829L64.7861 149.105ZM64.6906 132.776C64.9136 132.97 65.0091 133.192 64.9136 133.275C64.818 133.358 64.6269 133.219 64.5313 132.942C64.3402 132.554 64.3721 132.526 64.6906 132.776ZM57.0462 124.736C59.4351 127.204 62.3336 130.835 63.4484 132.72C63.7032 133.164 64.3084 134.19 64.7861 134.994C65.5187 136.241 65.6461 136.851 65.8372 140.233C66.0602 144.336 65.7735 144.918 64.8499 142.174C64.2128 140.289 61.7284 135.881 60.3269 134.162C59.7217 133.441 59.244 132.693 59.244 132.471C59.244 131.889 57.3329 128.091 55.4536 125.013C52.9374 120.827 53.224 120.772 57.0462 124.736ZM54.7529 125.374C55.7084 126.815 57.6514 130.364 57.6514 130.697C57.6514 130.863 57.2373 130.669 56.7277 130.253C56.2499 129.837 55.6447 129.532 55.4218 129.588C55.1351 129.643 54.8166 129.089 54.4662 128.008C54.1796 127.093 53.6062 125.596 53.2559 124.681C52.8737 123.794 52.5551 122.907 52.5551 122.768C52.5551 122.518 53.9248 124.154 54.7529 125.374ZM49.37 124.431C49.5611 122.629 49.784 121.021 49.8796 120.883C50.1663 120.495 51.2174 122.103 52.2685 124.404C52.7462 125.485 53.447 127.37 53.8292 128.617L54.5299 130.863L53.224 133.219C52.5233 134.495 51.4085 136.99 50.7714 138.709C50.1344 140.455 49.5292 142.063 49.4337 142.285C49.0515 143.006 49.0196 127.869 49.37 124.431ZM48.3507 146.915L48.2552 149.077L47.0767 149.16L45.8663 149.243V147.441C45.8663 145.639 45.8982 145.612 46.9174 145.223C47.4589 145.002 48.0641 144.808 48.1915 144.808C48.3189 144.78 48.4144 145.75 48.3507 146.915ZM38.9545 149.687C37.553 150.962 36.2153 151.988 36.0242 151.988C34.9412 151.988 36.3108 141.897 38.0308 136.99C38.9226 134.467 41.0567 130.641 41.5663 130.641C41.6619 130.641 42.3626 131.806 43.1271 133.192C45.0382 136.796 47.1404 142.257 47.1404 143.699C47.1404 144.198 46.8218 144.503 45.9619 144.919C43.7004 145.917 41.5663 147.386 38.9545 149.687ZM45.4841 147.608L45.3885 149.077L44.21 149.16C43.0315 149.243 42.9997 149.243 42.9997 148.273C42.9997 147.552 43.2226 147.192 43.8915 146.748C45.293 145.833 45.5796 145.972 45.4841 147.608ZM41.5663 149.216C40.6426 149.216 40.5471 148.994 41.3434 148.495C42.1078 147.968 42.3626 148.023 42.3626 148.661C42.3626 149.077 42.1397 149.216 41.5663 149.216ZM42.3626 149.493V151.988H39.8145V149.493H42.3626ZM39.496 151.322C39.496 151.849 39.3367 151.988 38.6678 151.988H37.8715L38.413 151.184C39.0501 150.241 39.496 150.297 39.496 151.322ZM47.3633 120.772C47.427 120.827 47.6181 121.992 47.7774 123.322C48.0641 125.707 48.2233 132.831 48.1278 139.485C48.0959 142.867 47.7774 143.227 47.1722 140.621C46.7581 138.986 44.21 133.247 43.2863 131.889C42.9359 131.39 42.7767 130.808 42.8722 130.364C43.9552 126.261 46.7581 120.245 47.3633 120.772ZM44.7833 122.602C44.847 122.602 44.4967 123.572 43.9871 124.764C43.5093 125.928 42.9041 127.564 42.6811 128.368C42.3945 129.505 42.1715 129.81 41.7893 129.671C41.5026 129.588 40.9293 129.81 40.3878 130.281L39.4641 131.029L39.9419 129.893C40.77 127.813 44.2419 122.602 44.7833 122.602ZM32.9664 132.305C33.062 132.305 32.9346 132.61 32.7434 132.998C32.5523 133.386 32.3294 133.635 32.2657 133.58C32.1064 133.441 32.7434 132.305 32.9664 132.305ZM31.5331 136.463L32.9027 134.162C33.6353 132.914 34.3042 131.833 34.3997 131.75C34.4953 131.667 35.2279 130.752 35.9923 129.671C37.5849 127.509 37.5212 127.592 39.8782 125.097C41.9167 122.907 43.1271 121.853 43.2545 122.103C43.3182 122.186 42.5537 123.683 41.5663 125.429C40.5789 127.148 39.5597 128.867 39.3367 129.255C39.1138 129.643 38.6997 130.614 38.3812 131.445C38.0945 132.249 37.1071 133.94 36.2153 135.188C35.3234 136.408 33.9219 138.875 33.0938 140.621L31.5649 143.81L31.5331 140.122V136.463ZM37.9034 134.107C38.5404 133.441 38.5723 133.608 38.0627 134.716C37.776 135.299 37.4256 136.214 37.2664 136.74C35.7056 142.091 35.6738 142.451 34.7819 150.186L34.559 152.126L33.8264 150.934C33.4442 150.269 32.7753 149.41 32.3294 148.994C31.8834 148.578 31.5331 147.94 31.5331 147.552C31.5331 145.251 35.7693 136.352 37.9034 134.107ZM32.0427 149.825C33.9538 152.099 33.9856 152.598 32.1383 151.156C31.119 150.352 28.5709 148.661 25.1628 146.471C23.3472 145.307 24.3028 145.501 27.9657 147.053C30.259 148.023 30.8323 148.384 32.0427 149.825ZM32.0109 151.96L30.6731 151.988C29.3672 151.988 29.3035 151.96 29.3035 151.156C29.3035 150.13 29.5264 150.13 30.896 151.156L32.0109 151.96ZM25.2583 149.326C23.5065 149.798 20.2576 151.184 19.6206 151.738C19.4295 151.877 18.9517 151.988 18.5376 151.988C17.805 151.988 17.7732 151.905 17.9324 150.879C18.028 150.269 18.665 148.717 19.3976 147.414L20.7035 145.029L21.7228 145.501C22.2961 145.778 23.1243 146.194 23.5702 146.443C24.0161 146.693 24.9717 147.247 25.7361 147.691C26.4687 148.107 27.0739 148.55 27.0739 148.661C27.0739 148.744 26.2457 149.049 25.2583 149.326ZM25.7998 151.018C25.7998 151.96 25.7679 151.988 24.4939 151.988C23.3472 151.988 23.2198 151.932 23.3154 151.378C23.4109 150.796 24.5576 150.047 25.4176 150.047C25.6405 150.047 25.7998 150.435 25.7998 151.018ZM22.6146 151.572C22.6146 151.849 22.2961 151.988 21.7546 151.988C20.8946 151.96 20.8946 151.96 21.468 151.572C22.2643 151.045 22.6146 151.045 22.6146 151.572ZM27.3924 149.437C28.539 149.271 28.6664 149.382 28.6664 150.768V151.988H27.3924C26.182 151.988 26.1183 151.96 26.1183 151.073C26.1183 149.936 26.405 149.576 27.3924 149.437ZM24.7805 135.631C26.8509 133.635 30.1316 131.196 30.7049 131.196C30.8642 131.196 30.9279 134.495 30.8005 139.124C30.7049 143.477 30.5775 147.109 30.482 147.164C30.4183 147.247 29.7175 146.998 28.9531 146.637C25.959 145.196 20.8628 143.976 20.1939 144.558C20.0984 144.669 19.525 145.584 18.9198 146.637C17.6458 148.883 17.5502 148.439 18.6332 145.445C20.0028 141.73 22.4235 137.877 24.7805 135.631ZM16.7539 145.418C17.0725 144.309 18.888 141.01 20.0984 139.374C20.9902 138.182 22.5828 136.463 22.8057 136.463C22.8376 136.463 22.328 137.184 21.6272 138.099C20.9583 138.986 20.385 139.79 20.385 139.901C20.385 139.984 20.0028 140.732 19.5569 141.536C19.111 142.313 18.4739 143.671 18.1873 144.503C17.8369 145.445 17.391 146.055 17.0725 146.111C16.6265 146.194 16.5628 146.055 16.7539 145.418ZM14.811 155.037C15.0658 155.037 15.2888 155.231 15.2888 155.453C15.2888 155.786 14.8428 155.869 13.2503 155.869C12.1036 155.869 11.0844 155.98 10.9888 156.146C10.8614 156.313 8.82289 156.423 5.86069 156.423C1.75184 156.423 0.955548 156.368 0.955548 156.008C0.955548 155.509 1.94295 155.037 2.93035 155.037C3.34442 155.037 3.85404 154.788 4.07701 154.483C4.49108 153.901 6.17921 153.707 6.52958 154.206C6.84809 154.649 7.19846 154.511 7.58068 153.79C7.83549 153.319 8.21771 153.097 8.75919 153.097C9.45992 153.097 9.55548 152.986 9.55548 152.016C9.55548 149.881 12.3584 148.966 13.728 150.657C14.1421 151.156 14.4288 151.877 14.3969 152.321C14.3332 152.847 14.4606 153.097 14.811 153.097C15.0658 153.097 15.2888 153.291 15.2888 153.513C15.2888 153.734 15.0658 153.928 14.811 153.928C14.5562 153.928 14.3332 154.178 14.3332 154.483C14.3332 154.788 14.5562 155.037 14.811 155.037ZM14.8747 150.907C14.3969 150.297 13.1866 148.994 12.1036 148.023C11.0525 147.025 10.1925 146.166 10.1925 146.055C10.1925 145.778 11.4984 145.889 14.174 146.388L16.7221 146.887L16.8176 147.913C16.945 149.132 16.308 151.988 15.9577 151.988C15.7984 151.988 15.3206 151.489 14.8747 150.907ZM44.5922 155.73C44.5922 156.34 44.4648 156.423 43.35 156.423C42.6493 156.423 41.9804 156.285 41.8848 156.146C41.7574 155.98 37.0434 155.869 28.7938 155.869C21.7228 155.869 15.9258 155.758 15.9258 155.647C15.9258 155.509 16.0214 155.315 16.1488 155.231C16.2443 155.121 22.7102 155.037 30.482 155.037H44.5922V155.73ZM30.4183 153.928C18.028 153.928 16.2443 153.873 16.2443 153.513C16.2443 153.152 18.028 153.097 30.4183 153.097C42.8085 153.097 44.5922 153.152 44.5922 153.513C44.5922 153.873 42.8085 153.928 30.4183 153.928ZM42.9997 151.988V149.465L44.21 149.548C45.3567 149.631 45.3885 149.659 45.4841 150.796L45.5796 151.988H42.9997ZM45.93 151.212L45.8344 149.493H48.4463L48.3507 151.212L48.2552 152.958H46.0256L45.93 151.212ZM50.2618 156.063C49.4337 156.119 48.0004 156.119 47.0767 156.063C46.153 156.008 46.8218 155.98 48.5737 155.98C50.3255 155.98 51.09 156.008 50.2618 156.063ZM50.2618 154.677C49.4337 154.732 48.0004 154.732 47.0767 154.677C46.153 154.622 46.8218 154.594 48.5737 154.594C50.3255 154.594 51.09 154.622 50.2618 154.677ZM51.2811 153.124L50.1026 153.041L48.8922 152.958L48.7966 151.212L48.7011 149.493H51.2811V153.124ZM51.2811 149.243L50.1026 149.16L48.8922 149.077L48.7966 146.915C48.7329 145.75 48.8285 144.78 48.9878 144.78C49.147 144.78 49.7203 144.974 50.2618 145.223C51.2492 145.639 51.2811 145.722 51.2811 147.441V149.243ZM51.9181 149.493H54.4662V151.988H51.9181V149.493ZM67.0476 155.924C59.7217 155.897 55.4536 156.008 55.2307 156.174C55.0077 156.34 54.3388 156.423 53.7655 156.368C52.9692 156.313 52.6825 156.146 52.6188 155.647L52.5233 155.037H66.8565C79.406 155.037 81.2216 155.093 81.2216 155.453C81.2216 155.952 81.6675 155.952 67.0476 155.924ZM81.2216 151.988C80.9349 151.988 80.2979 149.465 80.1705 147.885C80.1068 146.804 80.1705 146.72 80.9031 146.72C81.349 146.72 82.3364 146.526 83.1327 146.332C83.929 146.111 85.203 145.917 85.9675 145.917L87.3689 145.889L85.7763 147.33C84.9164 148.134 83.6104 149.521 82.846 150.38C82.0816 151.267 81.349 151.988 81.2216 151.988ZM90.9044 156.174C90.6815 156.507 86.3178 156.479 86.3178 156.146C86.3178 155.98 85.3623 155.869 84.0882 155.869C82.3045 155.869 81.8586 155.786 81.8586 155.453C81.8586 155.231 82.0497 155.037 82.3045 155.037C83.1327 155.037 83.2282 154.427 82.4956 153.928L81.763 153.429L82.4319 153.124C82.846 152.93 83.0371 152.653 82.9416 152.404C82.7186 151.905 83.0053 151.156 83.4193 151.156C83.5786 151.156 83.9608 151.35 84.2475 151.6C84.5341 151.849 84.8527 152.404 84.9482 152.847C85.0756 153.485 85.2986 153.651 85.9675 153.651C87.0504 153.679 87.8148 154.206 88.1015 155.148C88.2608 155.758 88.4519 155.897 88.9615 155.758C89.8215 155.564 91.1593 155.841 90.9044 156.174Z" fill="white"/>
<path d="M244.493 153.984C244.079 153.457 244.047 153.485 244.207 154.206L244.366 154.954H232.835V151.489C232.835 147.691 232.995 147.441 234.555 148.717C235.193 149.216 235.384 149.659 235.384 150.519C235.384 151.517 235.479 151.627 236.148 151.627C236.594 151.627 237.167 151.905 237.454 152.237C237.868 152.764 238.027 152.82 238.569 152.515C239.492 152.016 239.97 152.099 240.862 152.875C241.499 153.429 241.849 153.54 242.678 153.402L243.697 153.208L242.455 152.736C241.754 152.459 241.085 152.099 240.989 151.932C240.862 151.766 240.193 151.627 239.524 151.627C237.804 151.627 236.435 150.879 236.212 149.798C235.957 148.717 234.938 147.774 233.759 147.552L232.835 147.386V143.837C232.835 140.455 232.867 140.261 233.473 140.261C233.823 140.261 234.11 140.122 234.11 139.956C234.11 139.79 233.823 139.596 233.473 139.513C232.899 139.374 232.835 139.124 232.835 137.212C232.835 135.271 232.899 135.049 233.504 134.911C234.237 134.744 234.046 134.162 233.281 134.162C232.899 134.162 232.835 133.247 232.835 128.618V123.073H233.95C234.842 123.073 235.065 122.962 235.065 122.546C235.065 122.103 234.81 121.992 233.887 121.909L232.676 121.825L232.581 120.301C232.517 119.414 232.294 118.665 232.039 118.499C231.816 118.332 231.561 117.833 231.498 117.39C231.402 116.586 231.338 116.558 229.587 116.475L227.739 116.392V114.34C227.739 113.148 227.612 112.261 227.421 112.261C227.261 112.261 227.102 111.956 227.102 111.568C227.102 110.598 226.401 110.376 223.726 110.542C221.433 110.681 221.369 110.653 221.05 109.932C220.796 109.295 220.573 109.211 219.299 109.211C217.833 109.211 215.54 108.324 214.68 107.409C214.393 107.105 213.597 106.994 211.782 106.994C209.743 106.994 209.233 107.077 208.883 107.52C208.214 108.352 205.921 109.211 204.328 109.211C203.054 109.211 202.831 109.295 202.576 109.932C202.258 110.625 202.194 110.625 199.646 110.57L197.002 110.514L196.907 111.263C196.843 111.679 196.588 112.095 196.334 112.178C196.015 112.289 195.888 112.843 195.888 114.368V116.419H192.384V117.39C192.384 118.055 192.225 118.36 191.938 118.36C191.333 118.36 191.046 119.219 191.174 120.661L191.269 121.825L189.9 121.909C188.817 121.992 188.562 122.103 188.562 122.546C188.562 122.962 188.785 123.073 189.677 123.073H190.791V128.507C190.791 133.386 190.728 133.996 190.25 134.328C189.708 134.661 189.708 134.689 190.314 134.911C190.855 135.105 190.951 135.382 190.951 137.212C190.951 138.93 190.855 139.319 190.409 139.485C189.708 139.734 189.645 140.261 190.314 140.261C190.568 140.261 190.791 140.344 190.791 140.455C190.791 140.594 190.823 143.865 190.823 147.746L190.855 154.816H184.517V155.952L244.78 155.925L244.875 155.231C244.939 154.843 244.748 154.289 244.493 153.984ZM208.788 108.768C209.934 108.324 213.979 108.269 215.19 108.657C216.942 109.239 215.508 109.489 211.622 109.295C208.15 109.128 207.928 109.073 208.788 108.768ZM207.991 110.043C213.056 109.905 220.254 109.988 219.999 110.21C219.713 110.459 204.169 110.625 203.755 110.404C203.564 110.293 205.443 110.126 207.991 110.043ZM211.813 111.152C225.127 111.152 226.178 111.18 226.083 111.623C225.987 112.039 224.841 112.095 211.813 112.095C198.563 112.122 197.639 112.095 197.544 111.623C197.448 111.18 198.276 111.152 211.813 111.152ZM196.843 112.815H226.784V116.419H196.843V112.815ZM211.782 117.251C230.415 117.251 230.606 117.251 230.606 117.806C230.606 118.36 230.447 118.36 211.909 118.305C194.359 118.221 193.18 118.194 193.085 117.722C192.989 117.279 194.04 117.251 211.782 117.251ZM192.065 118.914H231.561V121.964H192.065V118.914ZM231.402 123.905C231.402 124.459 231.211 124.625 230.51 124.681C229.778 124.764 229.65 124.681 229.65 124.099C229.65 123.267 229.937 123.017 230.765 123.128C231.211 123.184 231.402 123.406 231.402 123.905ZM228.217 123.905C228.217 124.459 228.026 124.625 227.325 124.681C226.593 124.764 226.465 124.681 226.465 124.099C226.465 123.267 226.752 123.017 227.548 123.128C227.994 123.184 228.217 123.433 228.217 123.905ZM225.032 123.905C225.032 124.459 224.841 124.625 224.14 124.681C223.376 124.764 223.28 124.681 223.28 123.905C223.28 123.128 223.376 123.045 224.172 123.128C224.841 123.184 225.032 123.35 225.032 123.905ZM218.821 123.905C218.821 124.598 218.693 124.736 218.024 124.736C217.356 124.736 217.228 124.598 217.228 123.905C217.228 123.212 217.356 123.073 218.024 123.073C218.693 123.073 218.821 123.212 218.821 123.905ZM215.795 123.905C215.795 124.459 215.604 124.625 214.903 124.681C214.139 124.764 214.043 124.681 214.043 123.905C214.043 123.128 214.139 123.045 214.903 123.128C215.604 123.184 215.795 123.35 215.795 123.905ZM212.005 124.736C211.304 124.736 211.176 124.625 211.176 123.877C211.176 123.156 211.272 123.045 211.909 123.128C212.419 123.184 212.642 123.433 212.705 123.96C212.801 124.625 212.705 124.736 212.005 124.736ZM209.584 123.905C209.584 124.598 209.456 124.736 208.788 124.736C208.15 124.736 207.991 124.598 207.991 124.099C207.991 123.322 208.214 123.073 209.01 123.073C209.425 123.073 209.584 123.295 209.584 123.905ZM206.558 123.905C206.558 124.459 206.367 124.625 205.666 124.681C204.933 124.764 204.806 124.681 204.806 124.099C204.806 123.267 205.093 123.017 205.889 123.128C206.335 123.184 206.558 123.433 206.558 123.905ZM199.487 124.681C198.818 124.625 198.627 124.459 198.659 123.96C198.691 123.017 198.691 123.017 199.487 123.128C199.996 123.184 200.219 123.433 200.283 123.988C200.379 124.709 200.315 124.764 199.487 124.681ZM196.397 124.736C195.697 124.736 195.569 124.625 195.569 123.877C195.569 123.156 195.665 123.045 196.302 123.128C196.811 123.184 197.034 123.433 197.098 123.96C197.194 124.625 197.098 124.736 196.397 124.736ZM193.977 123.905C193.977 124.598 193.849 124.736 193.18 124.736C192.543 124.736 192.384 124.598 192.384 124.099C192.384 123.322 192.607 123.073 193.403 123.073C193.817 123.073 193.977 123.295 193.977 123.905ZM192.702 154.954C192.543 154.954 192.384 154.261 192.384 153.429C192.384 152.598 192.543 151.905 192.702 151.905C192.894 151.905 193.021 152.598 193.021 153.429C193.021 154.261 192.894 154.954 192.702 154.954ZM192.702 151.35C192.511 151.35 192.384 149.326 192.384 145.806C192.384 142.285 192.511 140.261 192.702 140.261C192.894 140.261 193.021 142.285 193.021 145.806C193.021 149.326 192.894 151.35 192.702 151.35ZM192.702 139.429C192.511 139.429 192.384 138.515 192.384 137.212C192.384 135.909 192.511 134.994 192.702 134.994C192.894 134.994 193.021 135.909 193.021 137.212C193.021 138.515 192.894 139.429 192.702 139.429ZM200.347 154.954H193.977V151.905H200.347V154.954ZM200.347 151.35H193.977V140.261H200.347V151.35ZM200.347 139.429H193.977V134.994H200.347V139.429ZM200.347 134.162H193.977V131.39H200.347V134.162ZM202.194 153.346C202.067 155.398 201.302 155.481 201.302 153.457C201.302 152.237 201.398 151.905 201.812 151.905C202.194 151.905 202.258 152.182 202.194 153.346ZM202.194 145.723C202.131 149.77 202.003 151.184 201.716 151.295C201.398 151.378 201.302 150.158 201.302 145.833C201.302 141.037 201.366 140.261 201.78 140.261C202.194 140.261 202.258 140.982 202.194 145.723ZM201.78 139.429C201.398 139.429 201.302 138.986 201.302 137.212C201.302 135.437 201.398 134.994 201.78 134.994C202.162 134.994 202.258 135.437 202.258 137.212C202.258 138.986 202.162 139.429 201.78 139.429ZM202.258 129.726C202.258 133.414 202.194 134.162 201.78 134.162C201.462 134.162 201.302 133.719 201.239 132.416L201.143 130.697H193.18L193.085 132.416C193.021 133.386 192.862 134.162 192.702 134.162C192.352 134.162 192.257 125.762 192.607 125.485C192.702 125.374 194.932 125.291 197.544 125.291H202.258V129.726ZM201.621 124.099C201.621 123.267 201.908 123.017 202.736 123.128C203.15 123.184 203.405 123.461 203.468 123.96C203.564 124.653 203.468 124.736 202.608 124.736C201.78 124.736 201.621 124.625 201.621 124.099ZM204.424 144.891C204.328 154.594 204.328 154.816 203.691 154.816C203.15 154.816 203.054 154.594 202.959 153.457C202.895 152.57 202.991 152.016 203.277 151.877C203.596 151.683 203.596 151.572 203.277 151.295C202.991 151.045 202.895 149.493 202.895 145.612C202.895 141.037 202.959 140.261 203.373 140.261C203.628 140.261 203.851 140.122 203.851 139.984C203.851 139.818 203.628 139.623 203.373 139.54C202.991 139.402 202.895 138.875 202.895 137.184C202.895 135.021 202.895 134.994 203.691 134.994H204.488L204.424 144.891ZM203.691 134.162H202.895V129.92C202.895 127.564 202.991 125.568 203.118 125.485C203.213 125.374 205.093 125.291 207.259 125.291C210.953 125.291 211.176 125.318 211.176 125.845C211.176 126.261 210.826 126.455 209.679 126.705C208.724 126.926 207.8 127.398 207.068 128.035C205.793 129.144 204.488 131.75 204.488 133.219C204.488 134.051 204.392 134.162 203.691 134.162ZM217.802 145.002L217.706 154.816H205.921L205.825 145.002C205.762 135.909 205.793 135.16 206.303 134.827C206.845 134.495 206.845 134.467 206.303 134.273C205.825 134.134 205.762 133.885 205.921 132.942C206.367 130.641 207.736 128.701 209.425 128.035C210.571 127.592 214.107 127.869 215.062 128.479C216.209 129.227 217.164 130.78 217.547 132.526C217.833 133.802 217.802 134.023 217.324 134.245C216.846 134.495 216.846 134.55 217.324 134.855C217.833 135.16 217.865 136.103 217.802 145.002ZM220.222 140.206C220.7 140.289 220.764 140.871 220.668 147.552C220.573 154.594 220.541 154.816 219.936 154.816C219.299 154.816 219.299 154.594 219.203 144.891L219.139 134.994H219.936C220.7 134.994 220.732 135.049 220.732 137.101C220.732 138.681 220.604 139.291 220.19 139.651C219.681 140.095 219.713 140.122 220.222 140.206ZM219.999 134.162C219.299 134.162 219.203 134.023 219.076 132.804C218.757 129.865 215.922 126.677 213.661 126.677C212.928 126.677 212.769 126.566 212.769 125.984V125.263L216.687 125.346L220.573 125.429L220.668 129.782L220.764 134.162H219.999ZM220.095 124.099C220.095 123.267 220.382 123.017 221.21 123.128C221.624 123.184 221.879 123.461 221.942 123.96C222.038 124.653 221.942 124.736 221.082 124.736C220.254 124.736 220.095 124.625 220.095 124.099ZM222.006 154.816C221.496 154.816 221.146 153.069 221.496 152.265C221.879 151.406 222.484 152.099 222.484 153.457C222.484 154.483 222.356 154.816 222.006 154.816ZM222.579 146.388C222.516 150.463 222.42 151.212 222.006 151.212C221.592 151.212 221.528 150.38 221.433 145.723C221.369 141.01 221.433 140.261 221.847 140.261C222.101 140.261 222.388 140.566 222.516 140.926C222.611 141.259 222.643 143.726 222.579 146.388ZM221.369 137.212C221.369 135.243 221.433 134.994 221.974 134.994C222.484 134.994 222.547 135.243 222.579 137.212C222.579 139.208 222.516 139.429 221.974 139.429C221.433 139.429 221.369 139.208 221.369 137.212ZM229.81 154.816L226.561 154.899L223.28 154.982V151.877L226.561 151.96L229.81 152.043V154.816ZM229.746 150.99C229.778 151.128 228.344 151.239 226.561 151.295L223.28 151.378V140.261H229.65V145.528C229.65 148.412 229.682 150.879 229.746 150.99ZM223.28 139.429V134.994H229.587L229.714 137.212L229.81 139.429H223.28ZM223.28 134.162V131.39H229.587L229.714 132.471C229.778 133.081 229.778 133.719 229.714 133.857C229.65 134.051 228.376 134.162 226.433 134.162H223.28ZM230.447 130.697L226.561 130.614C222.197 130.53 222.579 130.336 222.516 132.776C222.484 133.719 222.356 134.023 221.942 134.107C221.401 134.19 221.369 133.857 221.369 129.92C221.369 127.592 221.464 125.568 221.592 125.485C221.687 125.374 223.917 125.291 226.497 125.291C231.147 125.291 231.243 125.291 231.402 125.901C231.753 127.148 231.434 133.968 231.02 134.079C230.765 134.162 230.606 133.663 230.542 132.443L230.447 130.697ZM231.561 137.212C231.561 138.986 231.466 139.429 231.084 139.429C230.701 139.429 230.606 138.986 230.606 137.212C230.606 135.437 230.701 134.994 231.084 134.994C231.466 134.994 231.561 135.437 231.561 137.212ZM231.02 154.871C230.701 154.982 230.606 154.566 230.606 153.429C230.606 152.293 230.701 151.877 231.02 151.96C231.243 152.043 231.402 152.598 231.402 153.429C231.402 154.261 231.243 154.816 231.02 154.871ZM231.561 145.639C231.53 150.02 231.434 151.045 231.052 151.184C230.67 151.323 230.606 150.463 230.606 145.806C230.606 141.01 230.67 140.261 231.084 140.261C231.53 140.261 231.593 140.982 231.561 145.639Z" fill="white"/>
<path d="M201.302 113.758C200.41 114.701 201.653 116.337 202.799 115.699C203.819 115.145 204.041 114.562 203.404 113.952C202.704 113.287 201.844 113.203 201.302 113.758ZM203.022 114.368C203.277 114.951 202.99 115.311 202.258 115.311C201.939 115.311 201.589 115.2 201.493 115.062C201.175 114.618 201.653 113.924 202.258 113.924C202.576 113.924 202.927 114.119 203.022 114.368Z" fill="white"/>
<path d="M204.169 114.618V115.866H211.781C219.235 115.866 219.426 115.866 219.617 115.284L219.84 114.701L220.318 115.284C221.114 116.31 222.643 115.866 222.643 114.618C222.643 113.398 221.05 112.926 220.35 113.925C220.127 114.23 219.84 114.479 219.713 114.479C219.553 114.479 219.458 114.23 219.458 113.925C219.458 113.342 218.407 113.12 218.024 113.647C217.929 113.786 218.12 113.925 218.47 113.925C218.98 113.925 219.139 114.091 219.139 114.618C219.139 115.006 218.948 115.311 218.757 115.311C218.534 115.311 216.623 115.367 214.521 115.422C212.419 115.478 209.297 115.45 207.609 115.367C204.583 115.228 204.487 115.2 204.487 114.562V113.925H209.584C212.769 113.925 214.68 113.814 214.68 113.647C214.68 113.481 212.705 113.37 209.424 113.37H204.169V114.618ZM222.133 114.368C222.388 114.951 222.101 115.311 221.369 115.311C221.05 115.311 220.7 115.2 220.604 115.062C220.286 114.618 220.764 113.925 221.369 113.925C221.687 113.925 222.038 114.119 222.133 114.368Z" fill="white"/>
<path d="M195.728 126.816C195.282 127.176 194.932 127.786 194.932 128.174C194.932 128.95 196.269 130.004 197.225 130.004C197.989 130.004 199.391 128.701 199.391 128.008C199.391 127.315 197.989 126.123 197.161 126.123C196.811 126.123 196.142 126.428 195.728 126.816ZM198.053 127.287C199.104 128.202 198.021 129.449 196.524 129.034C195.346 128.701 195.887 126.954 197.161 126.954C197.448 126.954 197.83 127.093 198.053 127.287Z" fill="white"/>
<path d="M225.827 126.317C224.49 126.732 224.107 128.507 225.19 129.449C226.05 130.198 227.165 130.142 227.993 129.366C228.949 128.479 228.885 127.398 227.866 126.705C227.006 126.122 226.687 126.039 225.827 126.317ZM227.611 127.647C227.898 128.618 227.547 129.172 226.687 129.172C225.827 129.172 225.19 128.701 225.19 128.063C225.19 126.871 227.261 126.511 227.611 127.647Z" fill="white"/>
<path d="M122.629 88.419C122.374 88.5022 121.801 88.8071 121.387 89.0843C120.941 89.3893 120.113 89.6111 119.412 89.6111C118.138 89.6111 116.577 89.1398 116.577 88.7239C116.577 88.613 116.45 88.5022 116.259 88.5022C116.068 88.5022 115.94 91.8012 115.94 97.817V107.104L115.112 108.075C114.507 108.768 114.316 109.239 114.443 109.793C114.539 110.209 114.539 110.902 114.443 111.346L114.252 112.15L113.87 111.346C113.615 110.791 113.583 110.348 113.806 109.932C114.061 109.461 113.965 109.156 113.52 108.574C113.201 108.158 112.755 107.603 112.564 107.298C112.214 106.799 112.15 106.827 111.194 107.825C110.366 108.684 110.207 109.073 110.303 109.849C110.366 110.376 110.303 111.124 110.111 111.512L109.793 112.205L109.57 111.512C109.443 111.124 109.379 110.376 109.474 109.849C109.602 109.045 109.443 108.712 108.487 107.77C107.882 107.16 107.372 106.827 107.34 107.049C107.34 107.243 106.958 107.797 106.512 108.269C105.939 108.878 105.748 109.322 105.843 109.821C105.939 110.209 105.939 110.902 105.811 111.374L105.62 112.205L105.397 111.512C105.27 111.124 105.238 110.376 105.334 109.849C105.461 109.073 105.302 108.684 104.569 107.853C103.646 106.882 103.614 106.855 103.104 107.354C101.83 108.657 101.511 109.294 101.83 109.932C102.085 110.403 102.053 110.736 101.734 111.263C101.32 111.845 101.289 111.429 101.352 107.465C101.448 103.833 101.575 102.863 102.021 102.28C102.69 101.393 102.722 100.977 102.085 100.977C101.511 100.977 101.416 99.3141 101.957 98.8428C102.212 98.621 102.212 98.4824 101.957 98.3715C101.766 98.2606 101.607 97.9002 101.607 97.5398C101.607 97.1794 101.289 96.6804 100.938 96.3755C100.556 96.0982 100.142 95.5992 100.014 95.2943L99.7597 94.7398L99.5048 95.2943C99.3774 95.5992 98.9315 96.126 98.5174 96.4586C98.1034 96.7913 97.7849 97.4012 97.7849 97.7893C97.7849 98.1774 97.5937 98.4824 97.4026 98.4824C97.1478 98.5101 97.2434 98.6487 97.5619 98.8982C98.2945 99.3418 98.0397 100.811 97.2115 101.227C96.7338 101.476 96.7338 101.532 97.3071 102.086C97.9123 102.669 97.9441 103.168 98.0397 110.57C98.1034 116.031 98.0397 118.443 97.7849 118.443C96.9886 118.443 96.1923 120.245 96.1923 122.102C96.1923 124.708 95.6508 124.459 95.5234 121.797C95.4278 120.134 95.2367 119.469 94.7908 119.025C94.4404 118.692 94.0582 118.443 93.9308 118.443C93.7716 118.443 93.6123 119.718 93.5486 121.271L93.453 124.126L93.3893 121.271C93.3575 119.718 93.1982 118.443 93.0708 118.443C92.9116 118.443 92.4656 118.748 92.0516 119.136C91.2871 119.829 91.2871 119.829 91.0323 119.275C90.5227 118.082 89.5034 118.304 88.5479 119.829L88.102 120.522L87.9427 119.884C87.8472 119.552 87.7835 117.778 87.8472 115.948L87.9427 112.621H89.0575C90.4271 112.621 90.4271 112.372 88.9938 111.512C87.9109 110.847 87.879 110.764 88.0064 109.433C88.2612 107.021 88.0383 106.605 84.8213 103.777C81.7635 101.116 81.6361 100.894 81.445 98.7596C81.3494 97.7616 81.3176 97.8725 81.2857 99.2864L81.222 101.033L78.642 103.195C75.1384 106.106 74.8517 106.522 74.8517 108.851C74.8517 110.708 74.8199 110.791 73.6732 111.678L72.4628 112.593L73.8325 112.621H75.1702L75.1384 116.003C75.1065 117.888 75.011 119.69 74.9154 120.051C74.6925 120.633 74.6606 120.605 73.8962 119.552C73.4502 118.942 72.9725 118.443 72.8132 118.443C72.6221 118.443 72.1125 118.748 71.6665 119.136L70.8384 119.829L70.3925 119.136C70.1695 118.748 69.7873 118.443 69.5643 118.443C69.214 118.443 69.1184 119.663 69.1503 124.403C69.1503 129.421 69.214 130.364 69.5962 130.364C69.8829 130.364 70.074 130.086 70.074 129.671C70.074 128.978 70.1058 128.978 72.9406 128.978H75.8073V132.166C75.8073 134.106 75.9347 135.354 76.1258 135.354C76.3169 135.354 76.4443 134.106 76.4443 132.166V128.978H81.3813H86.3183V135.354V141.73L83.5472 141.786C81.9865 141.786 81.2539 141.869 81.8591 141.924C86.0953 142.285 86.3183 142.312 86.3183 142.839C86.3183 143.116 86.4775 143.449 86.6368 143.532C86.8598 143.643 86.9553 141.176 86.9553 136.352V128.978H89.7901H92.6567L92.6886 134.467C92.7205 140.76 92.5931 141.647 91.6056 141.813C90.9368 141.924 90.9368 141.924 91.6375 141.98C92.8797 142.035 93.1027 144.53 91.8923 144.724C91.5419 144.78 91.1279 144.946 90.9368 145.085C90.7775 145.223 92.7842 145.334 95.9693 145.334H101.32L102.276 144.364L103.263 143.393H116.291H129.286L130.146 144.364L130.974 145.334H134C136.262 145.334 136.994 145.251 136.867 144.974C136.739 144.641 136.548 144.586 135.147 144.53L134.414 144.502V135.354V126.205H135.848C136.899 126.205 137.281 126.094 137.281 125.789C137.281 125.484 136.899 125.374 135.816 125.374C134.956 125.374 134.446 125.263 134.573 125.096C134.669 124.93 135.402 124.819 136.166 124.819C137.536 124.819 138.236 124.486 137.599 124.126C137.09 123.849 137.217 120.633 137.759 119.718C138.396 118.665 138.141 118.443 137.408 119.413C137.09 119.857 136.739 120.993 136.644 122.158C136.453 123.932 136.421 123.987 136.357 122.74C136.293 120.716 135.848 119.302 135.083 118.748C134.446 118.249 134.414 117.999 134.414 110.653C134.414 103.833 134.478 102.973 134.988 102.225C135.529 101.449 135.529 101.393 134.988 100.922C134.35 100.368 134.191 99.0368 134.765 99.0368C134.988 99.0368 135.019 98.8428 134.892 98.5378C134.765 98.2883 134.637 97.817 134.542 97.5398C134.478 97.2349 134.064 96.6804 133.618 96.2646C133.172 95.8764 132.822 95.4052 132.822 95.2111C132.822 95.017 132.694 94.8784 132.503 94.8784C132.344 94.8784 132.185 95.1002 132.185 95.3497C132.185 95.6269 131.834 96.126 131.42 96.4586C130.656 97.0963 130.146 98.6765 130.656 98.926C131.038 99.1477 130.624 100.811 130.146 101.033C129.796 101.199 129.828 101.449 130.305 102.308C130.783 103.14 130.911 104.138 131.006 107.575C131.07 109.876 131.006 111.789 130.879 111.789C130.528 111.789 130.305 110.708 130.496 109.766C130.624 109.073 130.433 108.657 129.732 107.853L128.808 106.855L127.948 107.77C127.216 108.574 127.088 108.989 127.088 110.431C127.088 111.817 127.025 112.094 126.706 111.817C126.451 111.623 126.324 110.902 126.356 110.098C126.419 108.934 126.292 108.601 125.528 107.853L124.636 106.966L123.776 107.77C123.202 108.352 122.948 108.878 122.979 109.572C123.043 111.734 122.979 112.205 122.565 111.845C122.247 111.568 122.151 111.041 122.024 108.878C121.992 108.712 121.546 108.158 121.037 107.631C120.336 106.91 120.081 106.799 120.081 107.132C120.081 107.409 119.954 107.631 119.826 107.631C119.317 107.631 118.425 109.35 118.616 109.96C118.711 110.292 118.68 110.93 118.52 111.374L118.265 112.205L118.074 111.457C117.947 111.069 117.947 110.376 118.042 109.932C118.17 109.294 118.011 108.906 117.342 108.213C116.354 107.16 116.322 107.049 116.514 97.1794L116.577 92.4388L118.202 92.8824L119.794 93.3259L121.865 92.3834L123.935 91.4131L123.839 89.916C123.744 88.419 123.521 88.1418 122.629 88.419ZM123.266 90.0269C123.266 90.72 123.107 91.2744 122.916 91.2744C122.725 91.2744 122.119 91.5794 121.546 91.9675C120.368 92.7438 119.635 92.8269 117.82 92.3279C116.609 92.023 116.577 91.9675 116.577 90.7754C116.577 89.722 116.641 89.5833 117.151 89.7497C117.437 89.8329 118.329 89.9992 119.125 90.0824C120.336 90.1933 120.75 90.0824 121.642 89.5002C122.247 89.1121 122.884 88.7794 123.011 88.7794C123.139 88.7794 123.266 89.3338 123.266 90.0269ZM100.365 96.5418C100.683 96.7081 100.97 97.0962 100.97 97.3735C100.97 97.8448 100.747 97.9279 99.696 97.9279C98.3263 97.9279 98.1034 97.5953 98.9634 96.7636C99.5686 96.1814 99.5686 96.1814 100.365 96.5418ZM133.459 96.819C134.478 97.5953 134.096 98.2329 132.631 98.1497C131.197 98.0665 130.879 97.4566 131.834 96.7636C132.726 96.1537 132.567 96.1537 133.459 96.819ZM98.6449 99.924C98.5493 100.118 98.4856 99.9794 98.4856 99.5913C98.4856 99.2032 98.5493 99.0646 98.6449 99.2309C98.7086 99.425 98.7086 99.7576 98.6449 99.924ZM100.014 99.5913C100.014 99.8963 99.8871 100.146 99.696 100.146C99.5367 100.146 99.3774 99.8963 99.3774 99.5913C99.3774 99.2864 99.5367 99.0368 99.696 99.0368C99.8871 99.0368 100.014 99.2864 100.014 99.5913ZM133.14 99.7576C133.14 99.9794 132.917 100.146 132.662 100.146C132.185 100.146 131.993 99.5636 132.376 99.2309C132.694 98.9814 133.14 99.2864 133.14 99.7576ZM100.97 99.7576C100.97 99.9794 100.811 100.09 100.652 100.007C100.46 99.8963 100.397 99.7022 100.492 99.5636C100.779 99.1755 100.97 99.2586 100.97 99.7576ZM131.866 99.7299C131.866 99.9517 131.739 100.146 131.548 100.146C131.388 100.146 131.325 99.9517 131.42 99.7299C131.548 99.5081 131.675 99.3141 131.739 99.3141C131.802 99.3141 131.866 99.5081 131.866 99.7299ZM134.096 99.8963C134.096 100.035 133.968 100.146 133.777 100.146C133.618 100.146 133.459 99.9517 133.459 99.7022C133.459 99.4804 133.618 99.3695 133.777 99.4527C133.968 99.5359 134.096 99.7299 134.096 99.8963ZM100.97 100.977C100.97 101.116 100.397 101.255 99.696 101.255C98.9952 101.255 98.4219 101.116 98.4219 100.977C98.4219 100.811 98.9952 100.7 99.696 100.7C100.397 100.7 100.97 100.811 100.97 100.977ZM133.777 100.977C133.777 101.116 133.268 101.255 132.662 101.255C132.057 101.255 131.548 101.116 131.548 100.977C131.548 100.811 132.057 100.7 132.662 100.7C133.268 100.7 133.777 100.811 133.777 100.977ZM82.1139 102.086C82.4642 102.613 82.4324 102.641 81.3494 102.641C80.2028 102.641 80.1709 102.641 80.7443 102.086C81.0628 101.781 81.4131 101.532 81.5087 101.532C81.6042 101.532 81.8909 101.781 82.1139 102.086ZM100.874 103.334C100.588 104.637 100.429 104.859 99.8552 104.859C99.2819 104.859 99.0589 104.609 98.7723 103.639C98.2626 101.837 98.2945 101.809 99.7915 101.809H101.193L100.874 103.334ZM133.936 102.28C133.809 102.558 133.65 103.251 133.554 103.805C133.395 104.665 133.236 104.859 132.662 104.859C132.121 104.859 131.898 104.665 131.771 104.055C131.675 103.611 131.484 102.946 131.356 102.53C131.165 101.837 131.197 101.809 132.662 101.809C133.968 101.809 134.128 101.865 133.936 102.28ZM84.6939 104.193C85.4264 104.775 86.4138 105.718 86.8598 106.328C87.5605 107.298 87.6242 107.603 87.4331 109.045L87.2101 110.68L81.445 110.625L75.6799 110.542L75.425 109.294C75.1065 107.714 75.5206 106.577 76.9221 105.247C78.642 103.611 79.5657 103.195 81.5724 103.195C83.1331 103.195 83.4835 103.306 84.6939 104.193ZM100.365 108.934C100.397 110.902 100.429 114.34 100.429 116.641C100.429 120.661 100.397 120.799 99.7278 120.882L99.0589 120.966V113.203C99.0589 105.607 99.0589 105.413 99.696 105.413C100.301 105.413 100.333 105.607 100.365 108.934ZM132.949 105.579C133.395 105.718 133.459 106.688 133.459 113.342V120.938H132.662H131.866V113.37C131.866 106.799 131.962 105.413 132.376 105.413C132.408 105.413 132.662 105.496 132.949 105.579ZM104.792 109.045C105.238 109.766 104.442 110.958 103.518 110.958C102.786 110.958 102.117 109.793 102.403 108.989C102.69 108.241 104.346 108.269 104.792 109.045ZM108.869 109.377C109.092 110.902 107.277 111.595 106.671 110.237C106.162 109.045 106.576 108.407 107.754 108.518C108.614 108.574 108.806 108.74 108.869 109.377ZM113.169 109.045C113.424 109.876 112.883 110.958 112.182 110.958C111.354 110.958 110.844 110.403 110.844 109.572C110.844 108.629 111.067 108.463 112.15 108.463C112.755 108.463 113.042 108.629 113.169 109.045ZM117.374 108.989C117.851 110.292 116.386 111.512 115.367 110.625C114.953 110.265 114.857 108.962 115.208 108.657C115.654 108.241 117.182 108.463 117.374 108.989ZM121.546 109.128C121.992 110.764 119.954 111.651 119.317 110.098C118.902 109.017 119.253 108.463 120.368 108.463C121.132 108.463 121.387 108.601 121.546 109.128ZM125.751 109.627C125.814 110.348 125.719 110.68 125.432 110.708C125.209 110.736 124.795 110.764 124.54 110.791C123.808 110.847 123.266 110.403 123.266 109.738C123.266 108.906 123.903 108.435 124.859 108.518C125.528 108.601 125.655 108.768 125.751 109.627ZM129.923 108.962C130.242 109.488 129.732 110.791 129.254 110.708C129.095 110.708 128.776 110.68 128.522 110.68C127.789 110.68 127.216 109.405 127.725 108.878C128.267 108.296 129.541 108.352 129.923 108.962ZM88.4842 111.568C88.7071 111.762 88.8664 111.956 88.8664 112.067C88.8664 112.15 85.4901 112.205 81.3813 112.205C77.2724 112.205 73.8962 112.122 73.8962 112.011C73.8962 111.429 75.5206 111.263 81.5724 111.235C86.2227 111.235 88.1975 111.318 88.4842 111.568ZM104.951 111.651C104.951 111.789 104.346 111.956 103.614 112.011C102.531 112.094 102.244 112.011 102.244 111.651C102.244 111.29 102.531 111.207 103.614 111.29C104.346 111.346 104.951 111.484 104.951 111.651ZM108.933 111.651C108.933 111.956 108.583 112.067 107.659 112.067C106.448 112.067 106.098 111.845 106.608 111.429C106.703 111.318 107.277 111.235 107.882 111.235C108.614 111.235 108.933 111.374 108.933 111.651ZM113.233 111.651C113.233 111.983 111.64 112.177 110.971 111.956C110.685 111.873 110.589 111.651 110.685 111.512C110.94 111.124 113.233 111.263 113.233 111.651ZM117.374 111.651C117.374 111.789 116.832 111.956 116.195 112.011C115.24 112.094 114.985 112.011 114.985 111.651C114.985 111.29 115.24 111.207 116.195 111.29C116.832 111.346 117.374 111.484 117.374 111.651ZM121.674 111.651C121.674 111.956 121.323 112.067 120.399 112.067C119.189 112.067 118.839 111.845 119.348 111.429C119.444 111.318 120.017 111.235 120.622 111.235C121.355 111.235 121.674 111.374 121.674 111.651ZM125.814 111.651C125.814 111.956 125.464 112.067 124.54 112.067C123.617 112.067 123.266 111.956 123.266 111.651C123.266 111.346 123.617 111.235 124.54 111.235C125.464 111.235 125.814 111.346 125.814 111.651ZM130.114 111.651C130.114 111.983 128.522 112.177 127.853 111.956C127.566 111.873 127.471 111.651 127.566 111.512C127.821 111.124 130.114 111.263 130.114 111.651ZM76.4443 112.926C76.4443 113.092 76.6673 113.176 76.9221 113.065C77.8139 112.76 78.3554 113.979 78.3554 116.419C78.3554 117.694 78.228 118.72 78.0687 118.72C77.9095 118.72 77.3361 118.637 76.7947 118.554L75.8073 118.36V116.447C75.8073 115.393 75.9665 114.284 76.1576 113.979C76.3806 113.564 76.3806 113.314 76.0939 113.009C75.8391 112.732 75.8391 112.621 76.0939 112.621C76.285 112.621 76.4443 112.76 76.4443 112.926ZM80.0435 113.176C79.725 113.48 79.4383 113.73 79.4065 113.73C79.3428 113.73 79.3109 113.48 79.3109 113.176C79.3109 112.815 79.5339 112.621 79.948 112.621C80.5531 112.621 80.5531 112.649 80.0435 113.176ZM83.4516 113.065C83.4516 113.453 83.3561 113.48 82.9102 113.148C82.5916 112.954 82.2731 112.732 82.2094 112.704C82.1457 112.649 82.3687 112.621 82.7509 112.621C83.1968 112.621 83.4516 112.787 83.4516 113.065ZM85.0442 112.732C85.0442 112.815 84.9168 112.954 84.7257 113.037C84.5664 113.12 84.4072 113.065 84.4072 112.926C84.4072 112.76 84.5664 112.621 84.7257 112.621C84.9168 112.621 85.0442 112.677 85.0442 112.732ZM86.9553 112.898C86.9553 113.037 86.8916 113.176 86.8279 113.176C86.7324 113.176 86.5731 113.037 86.4775 112.898C86.382 112.732 86.4457 112.621 86.6049 112.621C86.7961 112.621 86.9553 112.732 86.9553 112.898ZM102.244 113.037C102.021 113.286 101.766 113.397 101.703 113.342C101.48 113.148 101.926 112.621 102.308 112.621C102.499 112.621 102.499 112.787 102.244 113.037ZM105.429 113.065C105.429 113.286 105.302 113.397 105.111 113.314C104.951 113.231 104.792 113.037 104.792 112.871C104.792 112.732 104.951 112.621 105.111 112.621C105.302 112.621 105.429 112.815 105.429 113.065ZM106.703 112.871C106.703 113.009 106.48 113.176 106.226 113.286C105.748 113.425 105.589 113.148 105.971 112.815C106.257 112.538 106.703 112.566 106.703 112.871ZM109.57 113.065C109.57 113.286 109.443 113.397 109.251 113.314C109.092 113.231 108.933 113.037 108.933 112.871C108.933 112.732 109.092 112.621 109.251 112.621C109.443 112.621 109.57 112.815 109.57 113.065ZM110.844 112.871C110.844 113.037 110.717 113.231 110.525 113.314C110.366 113.397 110.207 113.286 110.207 113.065C110.207 112.815 110.366 112.621 110.525 112.621C110.717 112.621 110.844 112.732 110.844 112.871ZM113.965 113.12C114.029 113.314 113.902 113.397 113.583 113.286C113.297 113.203 113.074 112.981 113.074 112.843C113.074 112.482 113.806 112.704 113.965 113.12ZM114.73 113.231C114.507 113.425 114.348 113.453 114.348 113.286C114.348 113.12 114.443 112.898 114.571 112.815C114.666 112.704 114.857 112.677 114.953 112.76C115.017 112.843 114.921 113.065 114.73 113.231ZM118.011 112.898C118.106 113.037 118.042 113.176 117.883 113.176C117.692 113.176 117.533 113.037 117.533 112.898C117.533 112.732 117.597 112.621 117.66 112.621C117.756 112.621 117.915 112.732 118.011 112.898ZM118.871 113.231C118.648 113.425 118.488 113.453 118.488 113.286C118.488 113.12 118.584 112.898 118.711 112.815C118.807 112.704 118.998 112.677 119.094 112.76C119.157 112.843 119.062 113.065 118.871 113.231ZM122.151 112.871C122.247 113.009 122.183 113.203 121.992 113.314C121.833 113.397 121.674 113.286 121.674 113.065C121.674 112.566 121.865 112.482 122.151 112.871ZM123.171 113.231C123.075 113.453 122.979 113.37 122.979 113.065C122.948 112.76 123.043 112.593 123.139 112.704C123.234 112.787 123.266 113.037 123.171 113.231ZM126.292 112.898C126.388 113.037 126.324 113.176 126.165 113.176C125.974 113.176 125.814 113.037 125.814 112.898C125.814 112.732 125.878 112.621 125.942 112.621C126.037 112.621 126.196 112.732 126.292 112.898ZM127.598 113.037C127.471 113.397 127.534 113.425 128.044 113.176C129.509 112.482 130.592 113.841 130.592 116.391V117.888H128.84H127.056L127.12 115.255C127.152 113.813 127.311 112.621 127.502 112.621C127.662 112.621 127.725 112.815 127.598 113.037ZM130.433 112.898C130.528 113.037 130.465 113.176 130.305 113.176C130.114 113.176 129.955 113.037 129.955 112.898C129.955 112.732 130.019 112.621 130.082 112.621C130.178 112.621 130.337 112.732 130.433 112.898ZM82.6235 113.619C83.3879 114.284 83.4516 114.562 83.4516 116.475V118.609L81.3813 118.637H79.3109V116.641C79.3109 114.867 79.4065 114.506 80.1391 113.758C81.1583 112.704 81.5405 112.677 82.6235 113.619ZM86.4457 113.508C86.7961 113.952 86.9553 114.783 86.9553 116.253V118.387L85.8087 118.581C85.1716 118.665 84.5665 118.692 84.4709 118.609C84.1205 118.277 84.4709 114.146 84.9168 113.508C85.4901 112.732 85.8405 112.732 86.4457 113.508ZM104.792 113.785C105.27 114.478 105.429 115.088 105.366 116.225L105.27 117.75H103.518H101.766V116.031C101.766 114.617 101.894 114.201 102.531 113.619C103.55 112.677 104.028 112.704 104.792 113.785ZM108.901 113.619C109.411 114.201 109.57 114.756 109.57 116.142V117.916L107.754 117.833L105.907 117.75L105.811 116.197C105.716 114.839 105.843 114.506 106.544 113.758C107.595 112.704 108.041 112.677 108.901 113.619ZM113.233 113.758C113.934 114.506 114.061 114.839 113.965 116.197L113.87 117.75L112.054 117.833L110.207 117.916V116.142C110.207 114.756 110.366 114.201 110.876 113.619C111.736 112.677 112.182 112.704 113.233 113.758ZM117.469 114.007C118.042 114.756 118.17 115.255 118.106 116.364L118.011 117.75H116.259H114.507L114.411 116.53C114.284 114.95 114.507 114.146 115.335 113.425C116.131 112.732 116.545 112.843 117.469 114.007ZM121.323 113.48C122.024 114.146 122.279 115.005 122.183 116.641L122.151 117.75H120.399H118.648L118.552 116.53C118.425 114.95 118.648 114.146 119.444 113.453C120.24 112.76 120.559 112.76 121.323 113.48ZM125.687 113.591C126.388 114.201 126.483 114.478 126.388 116.031L126.292 117.75L124.636 117.833L122.948 117.916V116.059C122.948 114.506 123.075 114.063 123.648 113.536C124.508 112.732 124.699 112.732 125.687 113.591ZM104.792 118.72C104.792 118.859 104.665 118.997 104.537 118.997C104.378 118.997 104.123 119.33 103.964 119.746L103.646 120.522L103.104 119.635C102.371 118.443 102.403 118.443 103.677 118.443C104.283 118.443 104.792 118.554 104.792 118.72ZM109.506 118.886C111.067 119.552 111.481 120.273 111.481 122.324V124.126L109.888 124.154H108.296V122.324C108.296 121.132 108.455 120.3 108.774 119.94C109.315 119.302 109.379 118.997 108.933 118.997C108.742 118.997 108.455 119.302 108.296 119.69C107.977 120.439 107.34 120.633 107.34 119.995C107.34 119.801 107.117 119.469 106.863 119.275C105.716 118.443 107.786 118.138 109.506 118.886ZM113.392 118.692C113.392 118.831 113.169 119.08 112.914 119.275C112.66 119.469 112.437 119.801 112.437 119.995C112.437 120.633 111.8 120.439 111.417 119.69C111.226 119.302 110.94 118.997 110.78 118.997C110.621 118.997 110.589 118.859 110.685 118.72C110.94 118.387 113.392 118.36 113.392 118.692ZM117.31 118.609C117.405 118.72 117.182 119.136 116.832 119.58L116.163 120.383L115.558 119.552C115.24 119.08 114.985 118.637 114.985 118.581C114.985 118.387 117.087 118.415 117.31 118.609ZM121.674 118.554C121.674 118.637 121.355 119.136 120.973 119.69L120.304 120.716L119.89 119.857C119.667 119.385 119.317 118.997 119.125 118.997C118.648 118.997 118.743 119.441 119.285 119.829C119.667 120.106 119.762 120.661 119.699 122.158L119.603 124.126H118.17L116.737 124.098L116.641 122.684C116.45 120.023 117.82 118.526 120.495 118.471C121.132 118.443 121.674 118.498 121.674 118.554ZM126.133 118.776C126.642 119.053 126.897 119.053 127.407 118.776C127.948 118.498 129.955 118.277 129.955 118.526C129.955 118.554 129.7 119.053 129.382 119.607L128.776 120.578L128.458 119.801C128.267 119.358 127.948 118.997 127.757 118.997C127.502 118.997 127.566 119.302 127.885 119.829C128.235 120.411 128.362 121.243 128.299 122.407L128.203 124.126H126.77H125.336L125.368 122.13C125.368 120.91 125.528 119.968 125.814 119.718C126.037 119.469 126.133 119.191 126.005 119.08C125.719 118.831 124.891 119.857 124.859 120.522C124.827 120.882 124.668 120.744 124.317 120.023C124.062 119.469 123.712 118.997 123.521 118.997C123.362 118.997 123.33 118.859 123.425 118.72C123.712 118.332 125.368 118.387 126.133 118.776ZM73.5458 119.774C73.7688 120.217 73.8962 121.381 73.8325 122.352C73.7369 124.015 73.7051 124.126 72.9406 124.182C71.2206 124.292 71.0614 124.098 71.1888 122.158C71.348 119.413 72.7177 118.055 73.5458 119.774ZM77.5591 119.663C77.9413 120.134 78.0369 120.855 77.9732 122.213L77.8776 124.126L76.6035 124.071C75.9028 124.043 75.2021 124.015 75.0428 124.015C74.565 123.96 75.011 120.522 75.5843 119.718C76.285 118.831 76.9221 118.803 77.5591 119.663ZM82.9102 119.884C83.6746 120.772 84.0568 123.655 83.4835 123.96C83.2924 124.071 82.305 124.154 81.2857 124.154L79.4702 124.126L79.3746 122.296C79.3109 120.799 79.4065 120.356 79.9798 119.718C80.8398 118.776 82.0183 118.831 82.9102 119.884ZM87.242 119.718C87.7516 120.3 87.9109 120.855 87.9109 122.213C87.9109 123.183 87.8153 123.987 87.6879 124.015C87.5286 124.015 87.019 124.071 86.4775 124.126C84.7576 124.348 84.4072 124.098 84.4072 122.657C84.4072 121.16 85.4264 118.997 86.1272 118.997C86.382 118.997 86.8916 119.33 87.242 119.718ZM90.7457 119.774C90.9686 120.217 91.096 121.381 91.0323 122.352C90.9368 124.126 90.9368 124.126 89.9812 124.126C89.0257 124.098 89.0257 124.098 88.9301 122.324C88.8346 120.494 89.3123 118.997 89.9812 118.997C90.2042 118.997 90.5545 119.358 90.7457 119.774ZM106.576 119.69C107.213 120.55 107.595 123.682 107.054 123.96C106.831 124.071 106.098 124.182 105.429 124.209L104.155 124.265V122.13C104.155 120.55 104.283 119.884 104.697 119.496C105.397 118.803 105.939 118.859 106.576 119.69ZM115.112 119.607C115.462 120.023 115.622 120.855 115.622 122.185V124.126L114.348 124.098C113.647 124.071 112.914 124.043 112.723 124.015C112.182 123.96 112.564 120.55 113.201 119.69C113.838 118.831 114.475 118.803 115.112 119.607ZM123.585 119.829C124.126 120.494 124.222 120.966 124.158 122.38L124.062 124.126L122.629 124.098L121.196 124.071V121.991C121.196 119.053 122.183 118.138 123.585 119.829ZM70.711 122.102C70.711 123.544 70.6154 123.987 70.2651 123.987C69.9147 123.987 69.7873 123.461 69.6917 121.742C69.628 120.522 69.6599 119.441 69.7555 119.385C70.2014 118.97 70.711 120.439 70.711 122.102ZM79.2154 120.106L78.865 120.938L78.4509 120.3C77.8776 119.413 77.9413 119.275 78.8013 119.275C79.5339 119.275 79.5657 119.33 79.2154 120.106ZM84.7257 119.469C84.7257 119.607 84.5664 119.884 84.4072 120.106C84.1205 120.467 84.0568 120.467 83.7702 120.106C83.2924 119.496 83.3879 119.275 84.0887 119.275C84.439 119.275 84.7257 119.358 84.7257 119.469ZM92.5931 124.154C92.5293 124.237 92.2745 124.209 92.0197 124.126C91.4464 123.932 91.4782 121.16 92.1153 119.968C92.4975 119.191 92.5293 119.275 92.6249 121.603C92.6886 122.962 92.6568 124.098 92.5931 124.154ZM95.173 122.296C95.1093 123.71 94.9819 124.126 94.5997 124.126C94.2175 124.126 94.1219 123.627 94.0582 121.631L93.9627 119.136L94.5997 119.801C95.1412 120.356 95.2367 120.799 95.173 122.296ZM97.7849 120.605C97.7849 121.326 97.6256 122.075 97.4026 122.269C97.1478 122.49 97.1478 122.684 97.4663 122.989C97.8804 123.461 97.6893 124.265 97.1478 124.265C96.7975 124.265 96.7019 120.467 97.0204 119.718C97.4026 118.859 97.7849 119.302 97.7849 120.605ZM102.69 119.884C103.04 121.104 102.913 124.32 102.499 124.209C102.053 124.071 101.734 119.275 102.212 119.275C102.371 119.275 102.563 119.552 102.69 119.884ZM130.273 121.797C130.273 123.682 130.178 124.292 129.891 124.209C129.35 124.043 129.191 121.077 129.668 120.051C129.859 119.635 130.082 119.275 130.146 119.275C130.21 119.275 130.273 120.411 130.273 121.797ZM135.625 122.185C135.497 124.902 134.924 124.486 134.828 121.576C134.733 119.33 134.765 119.191 135.21 119.69C135.593 120.079 135.688 120.772 135.625 122.185ZM100.811 122.047C100.715 122.185 100.206 122.324 99.6641 122.324C99.1545 122.324 98.7404 122.185 98.7404 122.047C98.7404 121.881 99.25 121.77 99.8871 121.77C100.556 121.77 100.938 121.881 100.811 122.047ZM133.618 122.047C133.522 122.185 133.076 122.324 132.662 122.324C132.248 122.324 131.802 122.185 131.707 122.047C131.579 121.881 131.962 121.77 132.662 121.77C133.363 121.77 133.745 121.881 133.618 122.047ZM100.97 123.405C100.97 124.015 100.014 124.376 99.0589 124.126C98.4219 123.96 98.2308 123.433 98.6449 123.073C98.7404 122.962 99.3137 122.879 99.9189 122.879C100.747 122.879 100.97 122.989 100.97 123.405ZM133.713 123.488C133.65 123.987 133.395 124.126 132.662 124.126C131.898 124.126 131.675 123.987 131.611 123.488C131.516 122.962 131.643 122.879 132.662 122.879C133.682 122.879 133.809 122.962 133.713 123.488ZM92.0516 125.096C92.0516 125.263 88.2294 125.374 81.222 125.374C74.2147 125.374 70.3925 125.263 70.3925 125.096C70.3925 124.93 74.2147 124.819 81.222 124.819C88.2294 124.819 92.0516 124.93 92.0516 125.096ZM97.7849 125.096C97.7849 125.263 96.7656 125.374 95.396 125.374C94.0264 125.374 93.0071 125.263 93.0071 125.096C93.0071 124.93 94.0264 124.819 95.396 124.819C96.7656 124.819 97.7849 124.93 97.7849 125.096ZM100.811 125.096C100.938 125.263 100.556 125.374 99.8871 125.374C99.25 125.374 98.7404 125.235 98.7404 125.096C98.7404 124.93 99.1545 124.819 99.6641 124.819C100.206 124.819 100.715 124.93 100.811 125.096ZM130.751 125.096C130.879 125.29 125.974 125.374 116.259 125.374C106.544 125.374 101.639 125.29 101.766 125.096C101.894 124.93 107.086 124.819 116.259 124.819C125.432 124.819 130.624 124.93 130.751 125.096ZM133.618 125.096C133.745 125.263 133.363 125.374 132.694 125.374C132.057 125.374 131.548 125.235 131.548 125.096C131.548 124.93 131.962 124.819 132.471 124.819C133.013 124.819 133.522 124.93 133.618 125.096ZM75.7435 127.231L75.8391 128.423H72.9725H70.074V127.176V125.9L72.8769 125.983L75.648 126.067L75.7435 127.231ZM86.2546 127.231L86.3501 128.423H81.4131H76.4443V127.176V125.9L81.3176 125.983L86.159 126.067L86.2546 127.231ZM92.5293 127.176V128.284L89.7583 128.368L86.9553 128.451V127.37C86.9553 126.787 87.0509 126.205 87.1783 126.094C87.3057 125.983 88.5479 125.956 89.9812 125.983L92.5293 126.067V127.176ZM98.0397 135.382C98.0715 142.423 98.0078 144.475 97.7212 144.558C97.4982 144.641 96.4471 144.696 95.396 144.669L93.4849 144.641L93.3893 135.409L93.3256 126.178L95.619 126.261L97.9441 126.344L98.0397 135.382ZM100.874 135.409C100.938 141.536 100.874 144.502 100.652 144.53C100.492 144.558 100.014 144.586 99.6322 144.586L98.8997 144.613L98.8041 135.409L98.7404 126.178L99.7278 126.261L100.747 126.344L100.874 135.409ZM130.911 134.938C130.911 142.784 130.751 144.586 130.178 143.283C130.082 143.061 129.477 142.839 128.776 142.784L127.566 142.7L127.471 140.261C127.407 138.597 127.502 137.655 127.757 137.378C128.076 137.073 128.076 136.934 127.789 136.768C127.502 136.629 127.407 135.687 127.471 133.524L127.566 130.502L128.808 130.364L130.019 130.225L128.872 129.31L127.757 128.423H116.195L104.633 128.451L103.582 129.283C102.403 130.225 102.467 130.641 103.805 130.475C104.697 130.336 104.729 130.336 104.951 132.138C105.174 134.134 104.888 136.49 104.346 136.795C104.091 136.962 104.123 137.073 104.41 137.239C104.697 137.405 104.792 138.182 104.729 140.094L104.633 142.7L103.677 142.784C103.168 142.839 102.499 143.061 102.212 143.283C101.734 143.643 101.671 143.116 101.543 137.045C101.448 133.385 101.448 129.449 101.543 128.312L101.703 126.205H116.291H130.911V134.938ZM133.459 135.437V144.669L132.599 144.641H131.707L131.611 135.409L131.548 126.205H132.503H133.459V135.437ZM127.725 129.393C128.076 129.754 126.77 129.809 116.291 129.809C105.652 129.809 103.391 129.671 104.888 129.172C105.079 129.088 110.239 129.005 116.291 129.005C125.751 128.978 127.375 129.033 127.725 129.393ZM112.054 133.607L112.15 136.74H108.933H105.748V133.552V130.336L108.869 130.419L111.959 130.502L112.054 133.607ZM119.826 133.552L119.922 136.74H116.195H112.437V133.746C112.437 132.083 112.532 130.641 112.66 130.558C112.755 130.447 114.411 130.364 116.291 130.364H119.731L119.826 133.552ZM126.77 133.552V136.74H123.585H120.399V133.552V130.364H123.585H126.77V133.552ZM112.054 137.766C112.15 138.043 111.385 138.126 108.965 138.126C106.289 138.126 105.748 138.043 105.748 137.71C105.748 137.35 106.226 137.294 108.837 137.35C110.94 137.405 111.959 137.544 112.054 137.766ZM119.762 137.71C119.762 138.043 119.157 138.126 116.1 138.126C112.755 138.126 112.054 137.988 112.66 137.488C112.755 137.378 114.411 137.294 116.322 137.294C119.157 137.294 119.762 137.378 119.762 137.71ZM126.611 137.572C127.025 138.154 126.419 138.265 123.457 138.182C121.068 138.098 120.399 138.015 120.399 137.683C120.399 137.378 121.005 137.294 123.394 137.294C125.082 137.294 126.515 137.405 126.611 137.572ZM111.959 140.039C111.959 141.148 111.863 141.287 111.099 141.481C110.621 141.591 109.92 141.924 109.538 142.257C108.997 142.673 108.391 142.839 107.277 142.839H105.748V140.76V138.653L108.869 138.736L111.959 138.819V140.039ZM119.762 140.067V141.481L116.195 141.397L112.596 141.314L112.5 140.399C112.309 138.708 112.405 138.681 116.259 138.681H119.762V140.067ZM126.611 140.76V142.7L125.209 142.784C124.158 142.867 123.585 142.728 122.661 142.174C122.024 141.786 121.228 141.453 120.941 141.453C120.527 141.453 120.399 141.203 120.399 140.261C120.399 139.595 120.495 138.958 120.622 138.847C120.75 138.736 122.151 138.708 123.744 138.736L126.611 138.819V140.76ZM121.132 142.423C121.196 142.7 112.373 142.978 111.545 142.7C111.322 142.617 111.226 142.423 111.322 142.285C111.608 141.896 121.005 142.035 121.132 142.423Z" fill="white"/>
<path d="M103.294 131.583C103.708 131.861 103.836 132.277 103.772 133.053C103.645 134.522 102.785 134.494 102.53 132.997C102.371 132.138 102.339 132.387 102.275 134.023L102.243 136.185H103.199H104.154V134.134C104.154 131.777 103.963 131.195 103.231 131.195C102.785 131.223 102.785 131.251 103.294 131.583ZM103.772 135.132C103.613 136.075 102.562 136.158 102.562 135.243C102.562 134.688 102.721 134.522 103.231 134.522C103.708 134.522 103.868 134.661 103.772 135.132Z" fill="white"/>
<path d="M128.425 131.75C128.234 132.055 128.043 133.164 128.043 134.245V136.185H129.158H130.273V134.023C130.273 131.944 129.986 131.195 129.158 131.195C128.999 131.195 128.648 131.445 128.425 131.75ZM129.763 132.193C130.113 132.997 129.954 133.912 129.444 134.078C128.68 134.328 128.68 134.328 128.68 132.997C128.68 132.11 128.807 131.75 129.126 131.75C129.381 131.75 129.667 131.944 129.763 132.193ZM129.795 135.215C129.795 135.52 129.54 135.797 129.253 135.853C128.807 135.936 128.68 135.77 128.68 135.215C128.68 134.661 128.807 134.494 129.253 134.578C129.54 134.633 129.795 134.91 129.795 135.215Z" fill="white"/>
<path d="M186.65 90.665C186.65 90.776 186.873 90.9982 187.128 91.1925C187.51 91.4702 187.701 91.4702 188.084 91.1925C188.784 90.665 188.657 90.4984 187.606 90.4984C187.096 90.4984 186.65 90.5817 186.65 90.665Z" fill="white"/>
<path d="M188.147 94.5743C188.625 95.0463 188.689 95.0463 189.262 94.6299C189.581 94.3522 189.835 94.1301 189.835 94.1301C189.835 94.1023 189.326 94.1023 188.721 94.0746C187.669 94.0746 187.638 94.0746 188.147 94.5743Z" fill="white"/>
<path d="M142.281 99.037V100.922L139.605 103.195C136.93 105.441 135.878 106.578 136.547 106.578C136.707 106.578 137.153 106.162 137.535 105.663C137.917 105.191 138.777 104.388 139.446 103.916C140.497 103.168 140.943 103.029 142.599 103.001C144.51 102.974 144.574 102.974 146.262 104.36C148.396 106.134 148.778 106.938 148.492 108.934L148.301 110.459H143.364C140.306 110.459 138.458 110.57 138.458 110.736C138.458 110.902 140.465 111.013 143.81 111.013C148.969 111.013 149.925 111.152 149.925 111.9C149.925 112.011 147.281 112.122 144.032 112.122H138.172L138.936 113.12C139.605 113.98 139.733 114.451 139.733 116.308C139.733 118.443 139.733 118.471 138.873 118.554C138.044 118.637 138.013 118.637 138.618 119.164C139.478 119.912 139.764 123.683 138.968 123.932C137.535 124.403 139.51 124.598 146.294 124.598C151.04 124.598 153.747 124.708 153.747 124.875C153.747 125.041 151.104 125.152 146.421 125.152C141.739 125.152 139.095 125.263 139.095 125.429C139.095 125.596 140.688 125.706 143.236 125.706C145.53 125.706 147.377 125.79 147.409 125.9C147.409 126.039 147.441 126.566 147.472 127.093L147.536 128.063L143.332 128.146C140.847 128.174 139.095 128.34 139.095 128.479C139.095 128.645 140.784 128.756 143.332 128.756H147.536V135.132V141.508H143.427C141.166 141.508 139.382 141.564 139.446 141.619C139.51 141.703 141.325 141.786 143.491 141.841C145.625 141.869 147.409 141.98 147.409 142.063C147.632 142.95 147.536 144.281 147.249 144.308C145.944 144.447 144.638 144.475 142.217 144.53C140.593 144.53 139.414 144.669 139.414 144.835C139.414 145.002 142.918 145.112 149.288 145.112C155.658 145.112 159.162 145.002 159.162 144.835C159.162 144.669 158.27 144.558 157.123 144.558C155.977 144.558 154.989 144.447 154.894 144.336C154.798 144.198 154.703 138.32 154.671 131.279C154.639 124.237 154.512 118.443 154.384 118.36C154.257 118.277 153.779 118.554 153.301 118.97C152.855 119.358 152.473 119.552 152.473 119.386C152.473 119.025 151.581 118.221 151.167 118.221C151.008 118.221 150.562 118.665 150.18 119.219C149.575 120.106 149.447 120.19 149.256 119.718C149.129 119.441 149.001 117.667 149.001 115.782L148.969 112.399H150.339L151.677 112.372L150.275 111.318C148.906 110.265 148.906 110.237 149.129 108.879C149.447 106.855 148.81 105.829 145.625 103.195L142.918 100.95V99.2033C142.918 98.233 142.79 97.3736 142.599 97.2905C142.408 97.1796 142.281 97.8172 142.281 99.037ZM143.3 101.782C144.16 102.447 144.001 102.586 142.567 102.475C141.325 102.364 141.293 102.336 141.867 101.837C142.599 101.227 142.599 101.227 143.3 101.782ZM139.733 112.677C139.733 112.815 139.669 112.954 139.605 112.954C139.51 112.954 139.35 112.815 139.255 112.677C139.159 112.51 139.223 112.399 139.382 112.399C139.573 112.399 139.733 112.51 139.733 112.677ZM141.644 112.51C141.644 112.566 141.421 112.76 141.166 112.954C140.784 113.231 140.688 113.231 140.688 112.843C140.688 112.593 140.911 112.399 141.166 112.399C141.421 112.399 141.644 112.455 141.644 112.51ZM144.829 112.954C144.829 113.259 144.765 113.508 144.733 113.508C144.67 113.508 144.351 113.259 144.032 112.954C143.459 112.427 143.491 112.399 144.128 112.399C144.606 112.399 144.829 112.566 144.829 112.954ZM146.103 112.51C146.103 112.593 145.975 112.732 145.784 112.815C145.625 112.898 145.466 112.843 145.466 112.704C145.466 112.538 145.625 112.399 145.784 112.399C145.975 112.399 146.103 112.455 146.103 112.51ZM143.873 113.508C144.765 114.285 144.829 114.506 144.829 116.392C144.829 118.498 144.51 119.025 143.523 118.471C143.268 118.36 142.535 118.304 141.898 118.415L140.688 118.582V116.197C140.688 113.952 140.752 113.786 141.516 113.259C142.631 112.51 142.758 112.51 143.873 113.508ZM147.504 113.287C147.855 113.73 148.014 114.562 148.014 116.031C148.014 117.999 147.95 118.166 147.313 118.332C145.53 118.748 145.466 118.665 145.466 116.253C145.466 114.562 145.593 113.869 146.039 113.37C146.708 112.538 146.899 112.51 147.504 113.287ZM144.192 119.524C144.733 120.134 144.829 120.578 144.765 122.075L144.67 123.904H142.758H140.847L140.752 122.075C140.688 120.578 140.784 120.134 141.325 119.524C141.739 119.081 142.313 118.776 142.758 118.776C143.204 118.776 143.778 119.081 144.192 119.524ZM148.747 119.885C149.129 120.55 149.288 121.354 149.224 122.38L149.129 123.877L147.568 123.932L146.039 123.988L146.135 121.853C146.326 118.72 147.536 117.805 148.747 119.885ZM152.091 119.635C152.314 120.023 152.441 121.049 152.409 122.075L152.314 123.877H151.199L150.084 123.904L150.116 122.213C150.116 120.411 150.753 118.693 151.326 118.859C151.518 118.914 151.868 119.247 152.091 119.635ZM140.688 119.441C140.688 119.635 140.465 119.968 140.21 120.162C139.924 120.384 139.733 120.384 139.733 120.217C139.733 120.051 139.637 119.746 139.541 119.496C139.414 119.164 139.541 119.053 140.019 119.053C140.401 119.053 140.688 119.219 140.688 119.441ZM146.103 119.247C146.071 119.386 145.88 119.774 145.625 120.162C145.307 120.661 145.179 120.716 145.147 120.384C145.147 120.134 145.052 119.746 144.956 119.496C144.829 119.164 144.956 119.053 145.434 119.053C145.816 119.053 146.103 119.136 146.103 119.247ZM153.938 123.655C153.843 123.877 153.556 123.96 153.301 123.877C152.728 123.683 152.824 120.55 153.461 119.663C153.875 119.081 153.906 119.192 154.002 121.16C154.066 122.352 154.034 123.461 153.938 123.655ZM154.002 127.009L154.098 128.201H151.231H148.332V127.148C148.332 126.566 148.428 125.984 148.555 125.873C148.683 125.762 149.925 125.734 151.358 125.762L153.906 125.845L154.002 127.009ZM154.066 135.132V141.508H151.199H148.332V135.132V128.756H151.199H154.066V135.132ZM153.906 143.172V144.419H151.199H148.492L148.396 143.505C148.205 141.924 148.364 141.841 151.263 141.897L153.906 141.924V143.172Z" fill="white"/>
<path d="M150.498 130.613C149.415 131.694 149.288 132.36 149.288 136.352V140.399H151.167H153.078L153.174 136.934C153.27 133.053 153.11 132.055 152.25 131.029C151.454 130.114 151.104 130.031 150.498 130.613ZM152.25 131.833C152.696 132.609 152.792 133.385 152.728 136.38L152.633 139.984H151.199H149.766L149.67 136.463C149.607 133.33 149.67 132.803 150.244 131.805C151.008 130.475 151.454 130.502 152.25 131.833Z" fill="white"/>
<path d="M149.384 87.2283C149.893 87.6726 149.957 87.6726 150.467 87.2283C150.976 86.7841 150.944 86.7563 149.925 86.7563C148.906 86.7563 148.874 86.7841 149.384 87.2283Z" fill="white"/>
<path d="M57.333 100.451C57.333 100.562 57.556 100.784 57.8108 100.979C58.1611 101.256 58.3841 101.229 58.7663 100.895C59.4352 100.285 59.3715 100.229 58.2886 100.257C57.7789 100.285 57.333 100.368 57.333 100.451Z" fill="white"/>
<path d="M159.067 89.7498C158.59 89.8053 158.271 89.9716 158.367 90.1103C158.621 90.443 159.704 90.4152 159.959 90.0548C160.246 89.6667 160.118 89.6389 159.067 89.7498Z" fill="white"/>
<path d="M202.576 99.786C202.576 99.897 202.895 100.091 203.309 100.258C203.818 100.48 204.105 100.452 204.424 100.175C204.965 99.6471 204.933 99.6194 203.691 99.6194C203.086 99.6194 202.576 99.7027 202.576 99.786Z" fill="white"/>
<path d="M155.882 92.0795C156.359 92.5514 156.423 92.5515 156.996 92.135C157.315 91.8574 157.57 91.6352 157.57 91.6075C157.57 91.6075 157.06 91.5797 156.455 91.5797C155.404 91.5797 155.372 91.6075 155.882 92.0795Z" fill="white"/>
<path d="M54.3708 103.113C54.4664 103.308 54.8486 103.474 55.2626 103.474C55.6767 103.474 56.0589 103.308 56.1545 103.113C56.25 102.863 55.9952 102.752 55.2626 102.752C54.5301 102.752 54.2752 102.863 54.3708 103.113Z" fill="white"/>
<path d="M203.213 105.081C203.213 105.386 204.105 105.608 204.646 105.441C205.443 105.164 205.188 104.859 204.168 104.859C203.659 104.859 203.213 104.97 203.213 105.081Z" fill="white"/>
<path d="M14.365 108.075C14.5561 108.297 14.8428 108.464 14.9383 108.464C15.0657 108.464 15.448 108.297 15.7665 108.075C16.3398 107.714 16.3079 107.687 15.1931 107.687C14.2057 107.687 14.0465 107.742 14.365 108.075Z" fill="white"/>
<path d="M153.461 99.0096C153.461 99.4816 154.321 99.9258 154.862 99.7315C155.149 99.6482 155.372 99.4261 155.372 99.2872C155.372 99.1207 155.149 99.0929 154.862 99.1762C154.576 99.2872 154.13 99.204 153.907 99.0374C153.652 98.843 153.461 98.843 153.461 99.0096Z" fill="white"/>
<path d="M15.7346 109.877C15.6709 109.988 15.8302 110.154 16.1169 110.237C16.6902 110.431 17.8369 110.209 17.8369 109.905C17.8369 109.655 15.8939 109.655 15.7346 109.877Z" fill="white"/>
<path d="M157.92 101.477C158.526 101.837 158.685 101.865 159.067 101.505C159.449 101.172 159.354 101.116 158.366 101.089C157.251 101.061 157.251 101.061 157.92 101.477Z" fill="white"/>
<path d="M13.0596 111.707C13.0596 112.151 13.9514 112.54 14.4292 112.29C15.2573 111.901 15.0662 111.596 14.0151 111.596C13.5055 111.596 13.0596 111.651 13.0596 111.707Z" fill="white"/>
<path d="M155.468 103.418C155.723 103.668 156.201 103.779 156.455 103.695C157.315 103.418 157.029 103.029 155.946 103.001C155.054 102.973 154.99 103.029 155.468 103.418Z" fill="white"/>
<path d="M71.9848 130.891C71.4752 131.722 71.6026 131.889 72.3033 131.334C72.9403 130.835 72.9722 130.835 73.3863 131.362C73.6411 131.639 74.0233 132.388 74.2462 132.998C74.6603 134.079 74.6603 134.079 74.7877 133.33C74.9151 132.416 73.5137 130.364 72.7811 130.364C72.5263 130.364 72.1759 130.614 71.9848 130.891Z" fill="white"/>
<path d="M79.533 131.113C77.9723 132.166 77.7175 132.804 77.7812 135.299L77.813 137.433L78.0042 135.16C78.1634 133.136 78.2908 132.804 79.1508 132.028C80.4249 130.891 81.2849 130.725 82.6226 131.445C84.1834 132.305 84.4382 133.109 84.3426 136.879L84.2471 140.206L82.1767 140.372L80.1064 140.538L82.4952 140.511L84.8841 140.483V136.74C84.8523 132.582 84.6293 131.972 82.6545 130.919C81.3167 130.198 80.9027 130.226 79.533 131.113Z" fill="white"/>
<path d="M88.9296 131.002C88.5155 131.362 88.0696 132.083 87.9104 132.609C87.4963 133.802 87.4963 140.621 87.8785 140.621C88.0378 140.621 88.2289 138.736 88.2926 136.352C88.3881 132.554 88.4518 132.027 89.0252 131.473L89.6622 130.863L90.3629 131.611C91 132.249 91.0955 132.665 91.1592 135.16C91.1911 136.712 91.1911 138.57 91.1592 139.291C91.0955 140.067 91.2229 140.621 91.414 140.621C91.7963 140.621 91.7963 140.76 91.7325 136.324C91.7007 133.192 91.6051 132.582 91 131.639C90.14 130.281 89.8215 130.17 88.9296 131.002Z" fill="white"/>
<path d="M141.453 130.669C139.956 131.473 139.096 132.693 139.096 134.024C139.096 134.717 139.223 135.105 139.414 134.994C139.605 134.911 139.733 134.328 139.733 133.719C139.733 132.443 140.943 131.14 142.376 130.835C143.3 130.614 144.893 131.418 145.466 132.36C145.816 132.942 146.167 139.069 145.88 139.707C145.753 140.039 145.052 140.123 142.727 140.123H139.733V139.291C139.733 138.82 139.573 138.459 139.382 138.459C139.191 138.459 139.096 138.847 139.159 139.346L139.255 140.261L142.854 140.344L146.422 140.428V136.546C146.422 132.776 146.39 132.665 145.593 131.806C144.829 131.029 143.3 130.142 142.695 130.142C142.568 130.142 141.994 130.392 141.453 130.669Z" fill="white"/>
<path d="M88.707 140.344C88.6113 140.483 88.8026 140.622 89.1852 140.622C89.5678 140.622 89.7591 140.483 89.6634 140.344C89.5678 140.178 89.3446 140.067 89.1852 140.067C89.0258 140.067 88.8026 140.178 88.707 140.344Z" fill="white"/>
<path d="M88.1647 141.925C88.7381 141.981 89.5981 141.981 90.0758 141.925C90.5536 141.869 90.0758 141.813 89.0247 141.813C87.9736 141.813 87.5914 141.869 88.1647 141.925Z" fill="white"/>
<path d="M85.2029 149.493C85.0755 149.659 85.7444 149.77 87.0184 149.77C118.329 149.825 135.528 149.742 135.624 149.493C135.783 149.105 85.4896 149.105 85.2029 149.493Z" fill="white"/>
<path d="M120.081 158.087C50.9945 158.115 0.286714 158.17 0.223011 158.281C0.0956045 158.364 0.095605 158.559 0.19116 158.67C0.254863 158.781 50.9308 158.892 120.718 158.92C120.495 158.642 120.272 158.364 120.081 158.087Z" fill="white"/>
<path d="M274.146 158.115C249.525 158.087 215.508 158.087 168.718 158.087C153.11 158.087 137.949 158.087 123.584 158.087C123.807 158.364 124.062 158.642 124.285 158.892C138.427 158.892 153.302 158.892 168.686 158.892C215.508 158.892 249.525 158.892 274.146 158.864V158.115Z" fill="white"/>
<path d="M184.962 156.618V157.395C236.147 157.339 244.938 157.256 244.938 157.006C244.938 156.784 236.147 156.673 184.962 156.618Z" fill="white"/>
<path d="M143.014 175.857C133.745 176.19 131.516 176.356 131.324 176.856C130.974 177.743 173.337 178.353 197.002 177.771C203.5 177.604 209.233 177.438 209.743 177.383C210.285 177.327 211.59 177.188 212.705 177.078C213.82 176.967 214.616 176.8 214.521 176.689C214.393 176.606 213.056 176.356 211.559 176.19C208.055 175.746 153.429 175.497 143.014 175.857Z" fill="white"/>
</svg>
