<svg width="14" height="13" viewBox="0 0 14 13" fill="none" xmlns="http://www.w3.org/2000/svg">
<path d="M7.32385 1.59092C9.05481 1.59092 9.26011 1.59716 9.94407 1.62733C11.701 1.70431 12.5216 2.50691 12.6016 4.18597C12.6329 4.84397 12.6388 5.04163 12.6388 6.7082C12.6388 8.3753 12.6324 8.57244 12.6016 9.23043C12.5211 10.9079 11.7026 11.7121 9.94407 11.7891C9.26011 11.8192 9.05589 11.8255 7.32385 11.8255C5.59288 11.8255 5.38758 11.8192 4.70416 11.7891C2.94294 11.7116 2.12662 10.9053 2.04666 9.22991C2.01533 8.57192 2.00885 8.37478 2.00885 6.70768C2.00885 5.0411 2.01587 4.84397 2.04666 4.18545C2.12716 2.50691 2.94564 1.70379 4.70416 1.62681C5.38812 1.59716 5.59288 1.59092 7.32385 1.59092ZM7.32385 0.46582C5.56316 0.46582 5.34274 0.473102 4.65122 0.503271C2.2968 0.607303 0.988309 1.86504 0.880259 4.13395C0.848384 4.80027 0.84082 5.0125 0.84082 6.70768C0.84082 8.40287 0.848384 8.61561 0.879718 9.28141C0.987769 11.5482 2.2941 12.8081 4.65068 12.9121C5.34274 12.9423 5.56316 12.9495 7.32385 12.9495C9.08453 12.9495 9.30549 12.9423 9.99701 12.9121C12.3493 12.8081 13.661 11.5503 13.7674 9.28141C13.7993 8.61561 13.8069 8.40287 13.8069 6.70768C13.8069 5.0125 13.7993 4.80027 13.768 4.13447C13.6621 1.86972 12.3541 0.607823 9.99755 0.503792C9.30549 0.473102 9.08453 0.46582 7.32385 0.46582ZM7.32385 3.50249C5.48537 3.50249 3.99481 4.93759 3.99481 6.70768C3.99481 8.47777 5.48537 9.9134 7.32385 9.9134C9.16232 9.9134 10.6529 8.47829 10.6529 6.70768C10.6529 4.93759 9.16232 3.50249 7.32385 3.50249ZM7.32385 8.7883C6.13043 8.7883 5.16284 7.85722 5.16284 6.70768C5.16284 5.55866 6.13043 4.62706 7.32385 4.62706C8.51726 4.62706 9.48485 5.55866 9.48485 6.70768C9.48485 7.85722 8.51726 8.7883 7.32385 8.7883ZM10.7847 2.62706C10.3547 2.62706 10.0062 2.96256 10.0062 3.37609C10.0062 3.78961 10.3547 4.12511 10.7847 4.12511C11.2142 4.12511 11.5621 3.78961 11.5621 3.37609C11.5621 2.96256 11.2142 2.62706 10.7847 2.62706Z" fill="white"/>
</svg>
