<svg width="14" height="13" viewBox="0 0 14 13" fill="none" xmlns="http://www.w3.org/2000/svg">
<path d="M10.9298 0.46582H3.3663C1.87466 0.46582 0.665039 1.63045 0.665039 3.0666V10.3488C0.665039 11.7849 1.87466 12.9495 3.3663 12.9495H10.9298C12.422 12.9495 13.6311 11.7849 13.6311 10.3488V3.0666C13.6311 1.63045 12.422 0.46582 10.9298 0.46582ZM4.98706 10.3488H3.3663V4.62706H4.98706V10.3488ZM4.17668 3.9675C3.65479 3.9675 3.23124 3.55658 3.23124 3.04995C3.23124 2.54332 3.65479 2.1324 4.17668 2.1324C4.69856 2.1324 5.12212 2.54332 5.12212 3.04995C5.12212 3.55658 4.6991 3.9675 4.17668 3.9675ZM11.4701 10.3488H9.84933V7.43382C9.84933 5.68194 7.68832 5.81458 7.68832 7.43382V10.3488H6.06756V4.62706H7.68832V5.54514C8.44251 4.20001 11.4701 4.10066 11.4701 6.83304V10.3488Z" fill="white"/>
</svg>
